<?xml version="1.0" encoding="UTF-8" standalone="no"?>
<!DOCTYPE svg  PUBLIC '-//W3C//DTD SVG 1.1//EN'  'http://www.w3.org/Graphics/SVG/1.1/DTD/svg11.dtd'>
<svg xmlns="http://www.w3.org/2000/svg" version="1.1">
<defs>
<font id="Serenity-Medium" horiz-adv-x="720">
<font-face descent="-200" bbox="-39 -200 829 829" ascent="800" panose-1="0 0 6 0 0 0 0 0 0 0" unicode-range="U+0020-00FE" units-per-em="1000" underline-thickness="50" font-weight="500" x-height="418" cap-height="620" underline-position="-150" font-family="Serenity Medium"/>
<missing-glyph/>
<glyph glyph-name="space" horiz-adv-x="216" unicode=" "/>
<glyph glyph-name="exclam" horiz-adv-x="230" d="M180 52q0 -26 -19 -42t-47 -16t-46 16t-18 43q0 28 18 43t46 15q29 0 47.5 -15.5t18.5 -43.5zM85 170v27q0 129 -17.5 225.5t-17.5 116.5q0 90 64 90q62 0 62 -90q0 -19 -17 -120.5t-18 -248.5h-56z" unicode="!"/>
<glyph glyph-name="quotedbl" horiz-adv-x="385" d="M314 370h-68l-17 250h101zM140 370h-69l-16 250h101z" unicode='&quot;'/>
<glyph glyph-name="numbersign" horiz-adv-x="567" d="M229 293h82l26 80h-82zM65 55l53 164h-78v74h102l25 80h-80v75h104l56 172h87l-55 -172h82l38 117h87l-38 -117h89l-23 -74l-89 -1l-26 -80h89l-22 -74h-90l-70 -219h-89l70 219h-81l-52 -164h-89z" unicode="#"/>
<glyph glyph-name="dollar" horiz-adv-x="474" d="M346 173q0 35 -23 58t-67 44l-52 -201q18 -2 27 -2q54 0 84.5 28.5t30.5 72.5zM148 471q0 -29 20.5 -49t58.5 -38l42 161q-14 2 -22 2q-43 0 -71 -19.5t-28 -56.5zM100 -97l26 101q-55 19 -101 53l42 76q39 -29 81 -45l56 210q-36 15 -58 27t-47.5 32t-38 48t-12.5 64 q0 74 54 117t140 43q18 0 48 -4l17 64h57l-21 -79q32 -12 69 -38l-7 -90q-38 32 -82 50l-44 -170q37 -16 60.5 -29t50.5 -35t40.5 -53.5t13.5 -71.5q0 -80 -58.5 -132t-153.5 -52q-24 0 -50 3l-23 -89h-59z" unicode="$"/>
<glyph glyph-name="percent" horiz-adv-x="807" d="M685 147q0 39 -21 60.5t-54 21.5q-32 0 -53 -21.5t-21 -59.5t21 -59.5t53 -21.5q33 0 54 21.5t21 58.5zM767 148q0 -72 -44 -113.5t-112 -41.5t-112 41.5t-44 114.5q0 72 44.5 114t111.5 42q68 0 112 -42t44 -115zM270 471q0 39 -21 60.5t-54 21.5q-32 0 -53 -21.5 t-21 -59.5t21 -59.5t53 -21.5q33 0 54 21.5t21 58.5zM172 0l369 620h92l-367 -620h-94zM352 472q0 -72 -44 -113.5t-112 -41.5t-112 41.5t-44 114.5q0 72 44.5 114t111.5 42q68 0 112 -42t44 -115z" unicode="%"/>
<glyph glyph-name="ampersand" horiz-adv-x="615" d="M289 74q74 0 127 42l-132 205q-69 -2 -108.5 -35t-39.5 -90q0 -49 43.5 -85.5t109.5 -36.5zM460 48q-74 -56 -172 -56q-107 0 -180 58.5t-73 149.5q0 86 54.5 135t149.5 55l-141 219l4 11h324l20 -81h-201l225 -352q17 40 17 87q0 11 -2 33h87q2 -20 2 -31 q0 -91 -54 -167l65 -101l-89 -16z" unicode="&amp;"/>
<glyph glyph-name="quotesingle" horiz-adv-x="211" d="M140 370h-69l-16 250h101z" unicode="&apos;"/>
<glyph glyph-name="parenleft" horiz-adv-x="340" d="M303 -157q-79 29 -131 71.5t-79.5 100.5t-38 121t-10.5 150q0 88 10.5 151.5t38 121.5t79.5 100t131 71l27 -79q-42 -16 -73.5 -36t-52 -46.5t-33.5 -54t-19.5 -66t-9 -75t-2.5 -87.5t2.5 -86.5t9 -74t19.5 -66.5t33.5 -54t52 -46t73.5 -36z" unicode="("/>
<glyph glyph-name="parenright" horiz-adv-x="340" d="M10 -77q42 16 73.5 36t52 46t33.5 54t19.5 66.5t9 74t2.5 86.5t-2.5 87.5t-9 75t-19.5 66t-33.5 54t-52 46.5t-73.5 36l27 79q79 -29 131 -71t79.5 -100t38 -121.5t10.5 -151.5q0 -87 -10.5 -150t-38 -121t-79.5 -100.5t-131 -71.5z" unicode=")"/>
<glyph glyph-name="asterisk" horiz-adv-x="388" d="M322 335l-91 61l6 -110h-85l6 110l-92 -61l-36 63l103 56l-103 57l36 60l92 -61l-6 110h85l-6 -110l91 62l36 -62l-94 -58l94 -56z" unicode="*"/>
<glyph glyph-name="plus" horiz-adv-x="589" d="M345 205v-197h-101v197h-179v82h179v191h101v-191h179v-82h-179z" unicode="+"/>
<glyph glyph-name="comma" horiz-adv-x="216" d="M75 -84l-65 17l77 223h109z" unicode=","/>
<glyph glyph-name="hyphen" horiz-adv-x="286" d="M30 202v81h226v-81h-226z" unicode="-"/>
<glyph glyph-name="period" horiz-adv-x="190" d="M160 52q0 -26 -19 -42t-47 -16t-46 16t-18 43q0 28 18 43t46 15q29 0 47.5 -15.5t18.5 -43.5z" unicode="."/>
<glyph glyph-name="slash" horiz-adv-x="307" d="M10 0l200 620h87l-198 -620h-89z" unicode="/"/>
<glyph glyph-name="zero" horiz-adv-x="541" d="M400 310q0 111 -35 173.5t-95 62.5q-59 0 -94.5 -62.5t-35.5 -172.5q0 -111 35 -173t95 -62t95 61.5t35 172.5zM501 310q0 -151 -61.5 -234.5t-169.5 -83.5t-169 84t-61 235t61 234.5t169 83.5t169.5 -84t61.5 -235z" unicode="0"/>
<glyph glyph-name="one" horiz-adv-x="299" d="M128 0v509l-96 -38l-12 86l192 70h17v-627h-101z" unicode="1"/>
<glyph glyph-name="two" horiz-adv-x="451" d="M193 544q-72 0 -146 -63l-7 86q70 62 165 62q87 0 138 -50t51 -133q0 -76 -48.5 -160t-151.5 -204h227l-21 -82h-370v12q94 102 153 179.5t81 127t27 72.5t5 50q0 43 -25.5 73t-77.5 30z" unicode="2"/>
<glyph glyph-name="three" horiz-adv-x="457" d="M394 609l-165 -217q90 -9 141.5 -58t51.5 -134q0 -92 -62.5 -150t-154.5 -58q-109 0 -190 63l40 74q36 -28 68 -41.5t81 -13.5q51 0 84 36.5t33 85.5q0 59 -39 96t-120 37q-28 0 -55 -4l-9 9q1 0 39 51.5t75 102.5l38 52h-192l20 80h316v-11z" unicode="3"/>
<glyph glyph-name="four" horiz-adv-x="531" d="M319 458l-177 -254h177v254zM418 128v-128h-100v128h-308v13l328 479h80v-415h93l-20 -77h-73z" unicode="4"/>
<glyph glyph-name="five" horiz-adv-x="480" d="M180 397q10 1 28 1q113 0 175 -51t62 -150q0 -96 -62 -152t-170 -56q-49 0 -97 17t-72 34l-24 17l42 75q8 -7 22.5 -17t54 -27t73.5 -17q64 0 97 35t33 88q0 60 -40 95.5t-127 35.5q-45 0 -89 -8l-11 10l39 293h290l-20 -80h-183z" unicode="5"/>
<glyph glyph-name="six" horiz-adv-x="516" d="M376 204q0 63 -34.5 98.5t-84.5 35.5q-51 0 -85 -35.5t-34 -98.5t34 -97t85 -34t85 34.5t34 96.5zM476 209q0 -103 -61.5 -160t-156.5 -57t-156.5 57t-61.5 160q0 102 110 246l134 175l111 -16l-174 -208q22 3 44 3q95 0 153 -54.5t58 -145.5z" unicode="6"/>
<glyph glyph-name="seven" horiz-adv-x="422" d="M171 -8l-92 16l201 531h-260l20 81h362z" unicode="7"/>
<glyph glyph-name="eight" horiz-adv-x="509" d="M367 189q0 54 -32 84.5t-81 30.5t-81.5 -30.5t-32.5 -84.5q0 -55 32 -84.5t81 -29.5q50 0 82 29t32 85zM342 464q0 37 -26 59.5t-62 22.5h-2q-35 0 -60.5 -22.5t-25.5 -59.5q0 -38 25 -61t62 -23t63 23t26 61zM469 180q0 -84 -60 -135.5t-156 -51.5q-94 0 -153.5 52 t-59.5 135q0 58 28.5 102.5t76.5 61.5q-74 40 -74 133q0 68 51.5 109.5t131.5 41.5t132.5 -41.5t52.5 -108.5q0 -93 -73 -134q46 -17 74.5 -62t28.5 -102z" unicode="8"/>
<glyph glyph-name="nine" horiz-adv-x="516" d="M140 418q0 -63 34.5 -98.5t84.5 -35.5q51 0 85 35.5t34 98.5t-34 97t-85 34t-85 -34.5t-34 -96.5zM40 413q0 103 61.5 160t156.5 57t156.5 -57t61.5 -160q0 -102 -110 -246l-134 -175l-111 16l174 208q-22 -3 -44 -3q-95 0 -153 54.5t-58 145.5z" unicode="9"/>
<glyph glyph-name="colon" horiz-adv-x="190" d="M160 52q0 -26 -19 -42t-47 -16t-46 16t-18 43q0 28 18 43t46 15q29 0 47.5 -15.5t18.5 -43.5zM160 367q0 -26 -19 -42t-47 -16t-46 16t-18 43q0 28 18 43t46 15q29 0 47.5 -15.5t18.5 -43.5z" unicode=":"/>
<glyph glyph-name="semicolon" horiz-adv-x="246" d="M75 -84l-65 17l77 223h109zM201 367q0 -26 -19 -42t-47 -16t-46 16t-18 43q0 28 18 43t46 15q29 0 47.5 -15.5t18.5 -43.5z" unicode=";"/>
<glyph glyph-name="less" horiz-adv-x="357" d="M40 264l277 155v-76l-149 -101l149 -100v-77l-277 155v44z" unicode="&lt;"/>
<glyph glyph-name="equal" horiz-adv-x="546" d="M65 133v74h416v-74h-416zM65 287v75h416v-74z" unicode="="/>
<glyph glyph-name="greater" horiz-adv-x="357" d="M317 220l-277 -155v77l149 100l-149 101v76l277 -155v-44z" unicode="&gt;"/>
<glyph glyph-name="question" horiz-adv-x="290" d="M184 52q0 -26 -19 -42t-47 -16t-46 16t-18 43q0 28 18 43t46 15q29 0 47.5 -15.5t18.5 -43.5zM86 164q-22 40 -22 81t24 83.5t48 81t24 68.5q0 31 -21.5 46t-54.5 15q-25 0 -44 -6l20 88q29 7 58 7q68 0 105 -39t37 -93q0 -31 -14.5 -62.5t-35 -57t-40.5 -50.5t-34.5 -52 t-14.5 -52q0 -22 12 -46z" unicode="?"/>
<glyph glyph-name="at" d="M278 308q0 -39 18 -63t55 -24q36 0 57.5 30.5t21.5 82.5v50q-22 18 -67 18q-40 0 -62.5 -27t-22.5 -67zM648 57q-11 -7 -31 -18t-86 -29t-137 -18q-165 0 -259.5 84t-94.5 235q0 147 91 232.5t229 85.5q140 0 230 -69t90 -199q0 -89 -54.5 -149t-157.5 -60h-27v55 q-31 -59 -97 -59q-70 0 -108.5 45.5t-38.5 117.5q0 71 44 118t120 47q83 0 148 -52v-216q40 0 65.5 42.5t25.5 108.5q0 99 -67.5 150.5t-172.5 51.5q-102 0 -170.5 -68t-68.5 -182q0 -118 74.5 -183.5t197.5 -65.5q58 0 112 14.5t79 29.5l25 14z" unicode="@"/>
<glyph glyph-name="A" horiz-adv-x="631" d="M315 454l-112 -246h226zM626 0h-103l-61 129h-292l-60 -129h-105l305 637h11z" unicode="A"/>
<glyph glyph-name="B" horiz-adv-x="526" d="M384 188q0 113 -141 113h-73v-219h73q79 0 108.5 27t32.5 79zM331 460q0 43 -30.5 62.5t-97.5 19.5h-33v-163h40q68 0 94.5 20.5t26.5 60.5zM486 183q0 -183 -269 -183h-147v619h122q113 0 176.5 -38t63.5 -118q0 -44 -24.5 -76t-63.5 -40q142 -23 142 -164z" unicode="B"/>
<glyph glyph-name="C" horiz-adv-x="611" d="M363 -8q-141 0 -232 86t-91 233t90.5 232t232.5 85q54 0 106 -15t77 -30l25 -15l-8 -90q-11 8 -29.5 19t-70.5 30t-98 19q-95 0 -158.5 -62.5t-63.5 -170.5q0 -109 62 -173t158 -64q53 0 99.5 16t67.5 32l20 16l41 -81q-101 -67 -228 -67z" unicode="C"/>
<glyph glyph-name="D" horiz-adv-x="644" d="M505 311q0 101 -68 165t-198 64h-69v-458h69q130 0 198 64t68 165zM604 310q0 -137 -92.5 -223.5t-282.5 -86.5h-159v620h159q190 0 282.5 -86t92.5 -224z" unicode="D"/>
<glyph glyph-name="E" horiz-adv-x="474" d="M70 0v620h324v-81h-224v-156h164v-82h-164v-219h304l-20 -82h-384z" unicode="E"/>
<glyph glyph-name="F" horiz-adv-x="419" d="M170 301v-301h-100v620h329v-80h-229v-157h159v-82h-159z" unicode="F"/>
<glyph glyph-name="G" horiz-adv-x="670" d="M610 74q-4 -3 -11.5 -8.5t-33 -19.5t-52.5 -24.5t-68.5 -19.5t-83.5 -9q-142 0 -231.5 85t-89.5 233q0 147 93 232t238 85q56 0 111 -16t82 -32l28 -16l-7 -85q-11 8 -31 19.5t-76 30.5t-105 19q-101 0 -167 -63.5t-66 -173.5q0 -111 62.5 -175t159.5 -64q38 0 75 9 t55 18l18 9v234h100v-268z" unicode="G"/>
<glyph glyph-name="H" horiz-adv-x="655" d="M484 0v302h-314v-302h-100v620h100v-236h314v236h101v-620h-101z" unicode="H"/>
<glyph glyph-name="I" horiz-adv-x="240" d="M70 0v620h100v-620h-100z" unicode="I"/>
<glyph glyph-name="J" horiz-adv-x="308" d="M20 77q68 0 94.5 31t26.5 120v392h102v-397q0 -230 -203 -230z" unicode="J"/>
<glyph glyph-name="K" horiz-adv-x="577" d="M411 620h123l-237 -257l300 -363h-121l-289 364zM170 0h-100v620h100v-620z" unicode="K"/>
<glyph glyph-name="L" horiz-adv-x="441" d="M70 0v620h100v-538h251l-20 -82h-331z" unicode="L"/>
<glyph glyph-name="M" horiz-adv-x="746" d="M373 297l219 333h11l108 -630h-97l-70 402l-171 -256l-171 256l-70 -402h-97l108 630h10z" unicode="M"/>
<glyph glyph-name="N" horiz-adv-x="673" d="M589 -13l-419 431v-418h-100v636h14l419 -433v417h100v-633h-14z" unicode="N"/>
<glyph glyph-name="O" d="M577 310q0 108 -62 172t-155 64q-92 0 -154.5 -63.5t-62.5 -171.5q0 -109 62 -172t155 -63t155 62.5t62 171.5zM680 310q0 -147 -91 -232.5t-229 -85.5t-229 85.5t-91 233.5q0 147 91 232.5t229 85.5t229 -85.5t91 -233.5z" unicode="O"/>
<glyph glyph-name="P" horiz-adv-x="534" d="M397 401q0 63 -47.5 100.5t-124.5 37.5h-54v-278h54q78 0 125 37t47 103zM494 401q0 -104 -74.5 -162.5t-218.5 -58.5h-31v-180h-100v620h131q143 0 218 -59.5t75 -159.5z" unicode="P"/>
<glyph glyph-name="Q" horiz-adv-x="750" d="M512 136q-61 63 -138 67l22 82q95 0 163 -77q18 45 18 102q0 108 -62 172t-155 64q-92 0 -154.5 -63.5t-62.5 -171.5q0 -109 62 -172t155 -63q90 0 152 60zM572 62q-85 -70 -212 -70q-138 0 -229 85.5t-91 233.5q0 147 91 232.5t229 85.5t229 -85.5t91 -233.5 q0 -107 -52 -186q50 -46 122 -46l-20 -84q-93 0 -158 68z" unicode="Q"/>
<glyph glyph-name="R" horiz-adv-x="568" d="M333 443q0 46 -34 72.5t-89 26.5h-40v-202h43q54 0 87 27t33 76zM558 -6q-46 0 -84.5 20t-62.5 50t-48.5 64.5t-44.5 64.5t-49.5 50t-64.5 20h-34v-263h-100v620h130q106 0 169 -47t63 -128q0 -54 -31.5 -93t-74.5 -52q26 -10 57.5 -47.5t56 -75.5t62 -68.5t76.5 -30.5z " unicode="R"/>
<glyph glyph-name="S" horiz-adv-x="474" d="M405 482q-79 65 -158 65q-43 0 -71 -19.5t-28 -56.5q0 -34 30.5 -57.5t74 -41t87 -38.5t74 -62t30.5 -99q0 -80 -58.5 -132t-153.5 -52q-114 0 -207 68l42 76q84 -61 164 -61q54 0 84.5 28.5t30.5 72.5q0 33 -22 57.5t-55 38.5t-72 32t-72 36t-55 52t-22 80q0 74 54 117 t140 43q97 0 170 -57z" unicode="S"/>
<glyph glyph-name="T" horiz-adv-x="446" d="M272 539v-539h-98v539h-164l20 81h396v-81h-154z" unicode="T"/>
<glyph glyph-name="U" horiz-adv-x="640" d="M575 296q0 -145 -63 -224.5t-192 -79.5t-192 80t-63 226v322h100v-322q0 -110 36 -166t118 -56q83 0 119.5 55.5t36.5 164.5v324h100v-324z" unicode="U"/>
<glyph glyph-name="V" horiz-adv-x="581" d="M291 186l185 434h105l-285 -637h-11l-285 637h103z" unicode="V"/>
<glyph glyph-name="W" horiz-adv-x="828" d="M419 633l155 -427l151 414h103l-249 -637h-9l-156 431l-156 -431h-9l-249 637h103l151 -414l155 427h10z" unicode="W"/>
<glyph glyph-name="X" horiz-adv-x="560" d="M280 291l-169 -291h-111l227 363l-163 257h115l101 -181l101 181h115l-162 -257l226 -363h-111z" unicode="X"/>
<glyph glyph-name="Y" horiz-adv-x="561" d="M281 317l181 303h109l-239 -383v-237h-101v233l-241 387h107z" unicode="Y"/>
<glyph glyph-name="Z" horiz-adv-x="547" d="M153 82h384l-20 -82h-517l345 539h-289l20 81h420z" unicode="Z"/>
<glyph glyph-name="bracketleft" horiz-adv-x="305" d="M55 -146v888h230v-84h-134v-721h134v-83h-230z" unicode="["/>
<glyph glyph-name="backslash" horiz-adv-x="307" d="M208 0l-198 620h87l200 -620h-89z" unicode="\"/>
<glyph glyph-name="bracketright" horiz-adv-x="306" d="M20 -146v84h135v722h-135v84h231v-890h-231z" unicode="]"/>
<glyph glyph-name="asciicircum" horiz-adv-x="465" d="M293 178l-59 115l-62 -115l-76 37l127 220h21l125 -220z" unicode="^"/>
<glyph glyph-name="underscore" horiz-adv-x="695" d="M-32 -157v55h758v-55h-758z" unicode="_"/>
<glyph glyph-name="grave" horiz-adv-x="445" d="M225 607l-85 94l110 20l43 -114h-68z" unicode="`"/>
<glyph glyph-name="a" horiz-adv-x="501" d="M129 205q0 -59 27 -94.5t83 -35.5q54 0 86 45.5t32 123.5v73q-35 28 -103 28q-60 0 -92.5 -40t-32.5 -100zM37 208q0 93 56.5 154.5t156.5 61.5q109 0 196 -68v-356h-89v72q-42 -77 -128 -77q-92 0 -142 59.5t-50 153.5z" unicode="a"/>
<glyph glyph-name="b" horiz-adv-x="499" d="M371 212q0 60 -27 96t-82 36t-86.5 -45t-31.5 -124v-74q44 -28 104 -28q58 0 90.5 40.5t32.5 98.5zM462 211q0 -94 -56 -155t-155 -61q-123 0 -196 66v549l89 19v-291q39 86 132 86q89 0 137.5 -59.5t48.5 -153.5z" unicode="b"/>
<glyph glyph-name="c" horiz-adv-x="434" d="M257 -7q-97 0 -158.5 58.5t-61.5 157.5q0 100 61.5 158.5t158.5 58.5q73 0 143 -44l-19 -80q-6 5 -16.5 12.5t-43 19.5t-63.5 12q-58 0 -95 -36t-37 -100q0 -65 36.5 -102t94.5 -37q64 0 116 43l41 -73q-75 -48 -157 -48z" unicode="c"/>
<glyph glyph-name="d" horiz-adv-x="499" d="M128 205q0 -59 26.5 -94.5t79.5 -35.5q54 0 87.5 45.5t33.5 123.5v62q-49 39 -106 39q-56 0 -88.5 -40.5t-32.5 -99.5zM222 -5q-88 0 -136.5 59.5t-48.5 153.5q0 92 55 154t145 62q28 0 57.5 -8t45.5 -16l15 -8v218l89 19v-629h-89v72q-18 -34 -53.5 -55.5t-79.5 -21.5z " unicode="d"/>
<glyph glyph-name="e" horiz-adv-x="460" d="M239 351q-38 0 -66.5 -23t-40.5 -67h210q-4 43 -32.5 66.5t-70.5 23.5zM127 190q0 -57 36.5 -88t93.5 -31q60 0 108 40l46 -68q-71 -50 -154 -50q-103 0 -161.5 58t-58.5 158q0 96 56.5 156t143.5 60q81 0 134.5 -52t53.5 -141l-2 -42h-296z" unicode="e"/>
<glyph glyph-name="f" horiz-adv-x="296" d="M282 547q-26 6 -48 6q-33 0 -47 -18t-14 -59v-57h92v-75h-92v-344h-90v344h-73l20 75h52v57q0 153 141 153q31 0 73 -7z" unicode="f"/>
<glyph glyph-name="g" horiz-adv-x="488" d="M129 225q0 -50 26 -80t79 -30q51 0 80.5 38.5t29.5 105.5v62q-31 24 -96 24q-56 0 -87.5 -34.5t-31.5 -85.5zM232 -157q-106 0 -178 53l50 67q57 -39 120 -39q25 0 41.5 3.5t37 14.5t31 38t10.5 69v37q-49 -51 -120 -51q-89 0 -138 54t-49 139t55.5 140.5t151.5 55.5 q18 0 35.5 -2t32.5 -5.5t28.5 -7.5t25 -10t20.5 -10.5t17.5 -10.5t13 -9t10.5 -8l6 -5v-293q0 -66 -16 -111.5t-46.5 -68t-63 -31.5t-75.5 -9z" unicode="g"/>
<glyph glyph-name="h" horiz-adv-x="486" d="M344 0v219q0 68 -20.5 98.5t-69.5 30.5t-79 -39t-30 -97v-212h-90v611l90 18v-272q18 31 53 49t75 18q85 0 124 -51.5t39 -152.5v-220h-92z" unicode="h"/>
<glyph glyph-name="i" horiz-adv-x="209" d="M59 0v418h91v-418h-91zM159 545q0 -23 -15.5 -36.5t-39.5 -13.5q-23 0 -38.5 14t-15.5 37t15.5 36t38.5 13q24 0 39.5 -13.5t15.5 -36.5z" unicode="i"/>
<glyph glyph-name="j" horiz-adv-x="210" d="M-24 -75q53 2 69 17.5t16 65.5v410h90v-401q0 -90 -32 -128.5t-114 -38.5h-10zM160 545q0 -23 -15.5 -36.5t-39.5 -13.5q-23 0 -38.5 14t-15.5 37t15.5 36t38.5 13q24 0 39.5 -13.5t15.5 -36.5z" unicode="j"/>
<glyph glyph-name="k" horiz-adv-x="441" d="M154 243l146 175h115l-160 -175l206 -243h-115zM145 0h-90v611l90 18v-629z" unicode="k"/>
<glyph glyph-name="l" horiz-adv-x="200" d="M55 0v611l90 18v-629h-90z" unicode="l"/>
<glyph glyph-name="m" horiz-adv-x="695" d="M554 0v242q0 52 -20.5 79t-57.5 27q-36 0 -59 -27.5t-23 -74.5v-246h-90v252q0 96 -80 96q-36 0 -58 -25t-22 -77v-246h-89v418h88v-47q35 55 105 55q76 0 116 -69q40 69 122 69q71 0 115 -44.5t44 -135.5v-246h-91z" unicode="m"/>
<glyph glyph-name="n" horiz-adv-x="486" d="M344 0v217q0 68 -20.5 99.5t-69.5 31.5t-79 -39t-30 -97v-212h-90v418h90v-61q40 67 124 67q167 0 167 -206v-218h-92z" unicode="n"/>
<glyph glyph-name="o" horiz-adv-x="506" d="M378 207q0 64 -35.5 101t-90.5 37q-53 0 -89 -37t-36 -100q0 -64 36 -100t89 -36q55 0 90.5 36t35.5 99zM469 207q0 -99 -61 -156.5t-155 -57.5q-93 0 -154.5 57.5t-61.5 157.5t61.5 158t154.5 58q94 0 155 -58t61 -159z" unicode="o"/>
<glyph glyph-name="p" horiz-adv-x="499" d="M371 213q0 59 -27 94.5t-83 35.5q-54 0 -85.5 -45.5t-31.5 -123.5v-62q49 -39 110 -39q55 0 86 40.5t31 99.5zM273 423q91 0 140 -59t49 -154q0 -93 -53.5 -154.5t-142.5 -61.5q-28 0 -58.5 8t-47.5 16l-16 8v-164l-89 -19v575h89v-72q18 34 51.5 55.5t77.5 21.5z" unicode="p"/>
<glyph glyph-name="q" horiz-adv-x="501" d="M129 204q0 -131 105 -131q55 0 88.5 46t33.5 124v73q-35 28 -103 28q-60 0 -92 -40t-32 -100zM37 207q0 93 56.5 154.5t156.5 61.5q109 0 196 -68v-491l-89 -21v228q-18 -34 -53 -55.5t-79 -21.5q-91 0 -139.5 59t-48.5 154z" unicode="q"/>
<glyph glyph-name="r" horiz-adv-x="285" d="M253 343q-65 0 -86.5 -42t-21.5 -120v-181h-90v418h90v-63q10 32 40 51t66 19q15 0 24 -1q-2 -12 -6.5 -38.5t-8.5 -42.5h-7z" unicode="r"/>
<glyph glyph-name="s" horiz-adv-x="359" d="M295 307q-58 41 -113 41q-23 0 -40 -10t-17 -31t21.5 -34.5t52.5 -23t61.5 -22t52 -39.5t21.5 -67q0 -58 -42.5 -92.5t-114.5 -34.5q-83 0 -157 48l46 65q54 -36 108 -36q33 0 50 13t17 35q0 23 -21 37.5t-51 23.5t-60 21t-51 39t-21 68q0 55 40 86.5t105 31.5 q71 0 128 -41z" unicode="s"/>
<glyph glyph-name="t" horiz-adv-x="306" d="M268 -5h-46q-77 0 -108 38t-31 124v186h-73l20 75h53v84l91 20v-104h104v-75h-104v-188q0 -50 15 -67.5t59 -17.5q10 0 38 2z" unicode="t"/>
<glyph glyph-name="u" horiz-adv-x="480" d="M142 418v-218q0 -70 18 -100t69 -30q50 0 78 38.5t28 97.5v212h90v-418h-90v61q-40 -67 -123 -67q-86 0 -124 51.5t-38 153.5v219h92z" unicode="u"/>
<glyph glyph-name="v" horiz-adv-x="440" d="M215 -8l-215 426h102l118 -258l118 258h102l-215 -426h-10z" unicode="v"/>
<glyph glyph-name="w" horiz-adv-x="654" d="M209 170l113 256h9l113 -256l109 248h101l-206 -426h-9l-112 254l-113 -254h-9l-205 426h100z" unicode="w"/>
<glyph glyph-name="x" horiz-adv-x="458" d="M280 228l178 -228h-112l-116 167l-117 -167h-113l176 230l-144 188h112l87 -122l85 122h114z" unicode="x"/>
<glyph glyph-name="y" horiz-adv-x="437" d="M52 -141l119 219l-171 340h102l118 -250l118 250h99l-289 -575z" unicode="y"/>
<glyph glyph-name="z" horiz-adv-x="432" d="M175 83h247l-21 -83h-381l225 336h-195l21 82h330z" unicode="z"/>
<glyph glyph-name="braceleft" horiz-adv-x="388" d="M232 659q0 -24 -0.5 -94t-0.5 -108q0 -75 -20 -107t-69 -39q89 -11 89 -139v-234h134v-84h-230v318q0 60 -20.5 78.5t-94.5 18.5v84q77 0 96 18t19 86v286h233v-84h-136z" unicode="{"/>
<glyph glyph-name="bar" horiz-adv-x="219" d="M154 -137l-89 -20v768l89 18v-766z" unicode="|"/>
<glyph glyph-name="braceright" horiz-adv-x="388" d="M20 659v84h233v-286q0 -68 19 -86t96 -18v-84q-74 0 -94.5 -18.5t-20.5 -78.5v-318h-230v84h134v234q0 128 89 139q-49 7 -69 39t-20 107q0 38 -0.5 108t-0.5 94h-136z" unicode="}"/>
<glyph glyph-name="asciitilde" horiz-adv-x="362" d="M312 226q-37 -25 -73 -25q-19 0 -54 9.5t-54 9.5q-30 0 -58 -16l-23 71q36 22 74 22q21 0 57.5 -8t53.5 -8q31 0 55 17z" unicode="~"/>
<glyph glyph-name="uni00A0" horiz-adv-x="466" unicode=" "/>
<glyph glyph-name="exclamdown" horiz-adv-x="230" d="M141 453q1 -147 18 -248.5t17 -120.5q0 -90 -62 -90q-64 0 -64 90q0 20 17.5 116.5t17.5 225.5v27h56zM180 571q0 -28 -18.5 -43.5t-47.5 -15.5q-28 0 -46 15t-18 43q0 27 18 43t46 16t47 -16t19 -42z" unicode="¡"/>
<glyph glyph-name="cent" horiz-adv-x="432" d="M124 210q0 -87 63 -123l68 259q-57 0 -94 -36t-37 -100zM139 -97l27 105q-61 22 -96 74.5t-35 126.5q0 100 61.5 158.5t158.5 58.5q3 0 10 -0.5t11 -0.5l18 66h57l-20 -78q34 -12 67 -31l-19 -80q-33 19 -69 32l-68 -263h13q64 0 116 43l41 -73q-75 -48 -157 -48 q-13 0 -33 2l-24 -92h-59z" unicode="¢"/>
<glyph glyph-name="sterling" horiz-adv-x="447" d="M40 349h57q-30 69 -30 124q0 69 52.5 112t141.5 43q31 0 62 -4.5t47 -9.5l15 -4l-21 -78q-46 11 -84 11q-109 0 -109 -85q0 -41 22 -109h165l-17 -57h-132q11 -41 12 -69h102l-17 -57h-89q-9 -54 -37 -92h247l-22 -74h-365v13q85 75 100 153h-100v57h101q-6 34 -20 69 h-81v57z" unicode="£"/>
<glyph glyph-name="yen" horiz-adv-x="561" d="M102 290h93l-205 330h107l184 -303l181 303h109l-206 -330h102v-57h-135v-69h135v-57h-135v-107h-101v107h-129v57h129v69h-129v57z" unicode="¥"/>
<glyph glyph-name="brokenbar" horiz-adv-x="219" d="M154 -136l-89 -20v354l89 18v-352zM154 316l-89 -20v315l89 18v-313z" unicode="¦"/>
<glyph glyph-name="section" horiz-adv-x="414" d="M145 326q0 -24 20 -42.5t54 -22.5q3 0 7 -0.5t6 -0.5q29 0 45 13.5t16 35.5q0 24 -20 42t-54 22q-5 1 -14 1q-28 0 -44 -13t-16 -35zM328 513q-58 41 -113 41q-23 0 -40 -10t-17 -31q0 -19 21 -34.5t51.5 -28t61 -28.5t51.5 -43.5t21 -64.5q0 -31 -15.5 -57t-45.5 -37 q61 -36 61 -95t-42.5 -95t-114.5 -36q-83 0 -157 48l46 62q63 -36 104 -36q33 0 52 15t19 37q0 23 -20.5 40.5t-50.5 30.5t-59.5 28t-50 41.5t-20.5 63.5q0 29 19.5 55t51.5 33q-71 36 -71 99q0 55 40 86.5t105 31.5q66 0 127 -44z" unicode="§"/>
<glyph glyph-name="dieresis" horiz-adv-x="468" d="M378 639q0 -22 -17.5 -35.5t-43.5 -13.5q-25 0 -42 13.5t-17 36.5t16.5 36t42.5 13q27 0 44 -13t17 -37zM211 639q0 -22 -17.5 -35.5t-43.5 -13.5q-25 0 -42 13.5t-17 36.5t16.5 36t42.5 13q27 0 44 -13t17 -37z" unicode="¨"/>
<glyph glyph-name="copyright" d="M371 134q-79 0 -130 48.5t-51 129.5q0 82 50.5 130.5t130.5 48.5q64 0 118 -36l-25 -73q-43 32 -93 32q-43 0 -70.5 -27t-27.5 -74q0 -49 27 -77t70 -28q47 0 88 33l43 -67q-62 -40 -130 -40zM600 310q0 114 -68.5 181t-170.5 67t-170.5 -67t-68.5 -180q0 -115 68.5 -181 t170.5 -66t170.5 65.5t68.5 180.5zM680 310q0 -147 -91 -232.5t-229 -85.5t-229 85.5t-91 233.5q0 147 91 232.5t229 85.5t229 -85.5t91 -233.5z" unicode="©"/>
<glyph glyph-name="ordfeminine" horiz-adv-x="506" d="M301 49q0 -25 -19.5 -40t-48.5 -15t-47.5 15t-18.5 41q0 25 18.5 39.5t47.5 14.5q30 0 49 -14.5t19 -40.5zM129 409q0 -59 27 -94.5t83 -35.5q54 0 86 45.5t32 123.5v73q-35 28 -103 28q-60 0 -92.5 -40t-32.5 -100zM37 412q0 93 56.5 154.5t156.5 61.5q109 0 196 -68 v-356h-89v72q-42 -77 -128 -77q-92 0 -142 59.5t-50 153.5z" unicode="ª"/>
<glyph glyph-name="guillemotleft" horiz-adv-x="417" d="M321 70l-126 162l126 162l66 -24l-83 -139l83 -137zM156 70l-126 162l126 162l66 -24l-83 -139l83 -137z" unicode="«"/>
<glyph glyph-name="registered" d="M376 380q0 24 -14 34t-43 10h-5v-90h6q29 0 42.5 10t13.5 36zM507 135q-35 0 -61.5 20t-40.5 44t-35.5 44t-46.5 20h-9v-129h-78v357h94q59 0 92 -29.5t33 -77.5q0 -30 -18.5 -53t-43.5 -30q19 -6 36 -23t28.5 -34.5t30 -31t41.5 -13.5zM600 310q0 114 -68.5 181 t-170.5 67t-170.5 -67t-68.5 -180q0 -115 68.5 -181t170.5 -66t170.5 65.5t68.5 180.5zM680 310q0 -147 -91 -232.5t-229 -85.5t-229 85.5t-91 233.5q0 147 91 232.5t229 85.5t229 -85.5t91 -233.5z" unicode="®"/>
<glyph glyph-name="macron" horiz-adv-x="414" d="M98 594v67h218v-67h-218z" unicode="¯"/>
<glyph glyph-name="degree" horiz-adv-x="293" d="M187 529q0 19 -11 30t-29 11q-17 0 -28 -11t-11 -30t11 -30.5t28 -11.5q18 0 29 11.5t11 30.5zM258 530q0 -46 -32 -73t-80 -27t-79.5 27.5t-31.5 74.5q0 45 31.5 71t79.5 26q49 0 80.5 -26.5t31.5 -72.5z" unicode="°"/>
<glyph glyph-name="uni00B2" horiz-adv-x="332" d="M146 558q-37 0 -86 -40l-5 77q46 34 99 34q51 0 81 -29t30 -76q0 -65 -82 -166h99l-17 -70h-215v14q65 59 98.5 116.5t33.5 96.5q0 43 -36 43z" unicode="²"/>
<glyph glyph-name="uni00B3" horiz-adv-x="336" d="M273 604l-72 -102q85 -26 85 -99q0 -53 -37 -84.5t-91 -31.5q-65 0 -108 42l36 64q33 -37 71 -37q20 0 33 12t13 33q0 48 -65 48q-18 0 -29 -2l-9 10l70 95h-98l16 68h185v-16z" unicode="³"/>
<glyph glyph-name="acute" horiz-adv-x="445" d="M166 607l48 114l105 -20l-80 -94h-73z" unicode="´"/>
<glyph glyph-name="uni00B5" horiz-adv-x="480" d="M142 418v-218q0 -70 18 -100t69 -30q50 0 78 38.5t28 97.5v212h90v-418h-90v61q-40 -67 -123 -67q-42 0 -72 12v-144l-90 -19v575h92z" unicode="µ"/>
<glyph glyph-name="paragraph" horiz-adv-x="372" d="M302 -137l-89 -20v501h-12q-67 0 -114 37t-47 100q0 65 47.5 102t113.5 37h101v-757z" unicode="¶"/>
<glyph glyph-name="periodcentered" horiz-adv-x="241" d="M191 241q0 -27 -19 -44.5t-51 -17.5q-35 0 -53 17t-18 45q0 27 18.5 44.5t52.5 17.5q32 0 51 -18t19 -44z" unicode="·"/>
<glyph glyph-name="cedilla" horiz-adv-x="371" d="M287 -113q0 -36 -29 -57t-80 -21q-25 0 -47 4.5t-32 9.5l-10 5l26 45q31 -13 59 -13q43 0 43 27q0 28 -54 28l-43 -3l14 98h69l-9 -52q93 0 93 -71z" unicode="¸"/>
<glyph glyph-name="uni00B9" horiz-adv-x="249" d="M95 287v245q-12 -4 -44 -18l-11 73l111 40h28v-340h-84z" unicode="¹"/>
<glyph glyph-name="ordmasculine" horiz-adv-x="506" d="M319 49q0 -25 -19.5 -40t-48.5 -15t-47.5 15t-18.5 41q0 25 18.5 39.5t47.5 14.5q30 0 49 -14.5t19 -40.5zM378 411q0 64 -35.5 101t-90.5 37q-53 0 -89 -37t-36 -100q0 -64 36 -100t89 -36q55 0 90.5 36t35.5 99zM469 411q0 -99 -61 -156.5t-155 -57.5 q-93 0 -154.5 57.5t-61.5 157.5t61.5 158t154.5 58q94 0 155 -58t61 -159z" unicode="º"/>
<glyph glyph-name="guillemotright" horiz-adv-x="417" d="M195 104l83 137l-83 139l66 24l126 -162l-126 -162zM30 104l83 137l-83 139l66 24l126 -162l-126 -162z" unicode="»"/>
<glyph glyph-name="onequarter" horiz-adv-x="677" d="M496 196l-45 -68h45v68zM578 62v-62h-83v62h-148v16l166 251h65v-201h49l-16 -66h-33zM97 0l369 620h92l-367 -620h-94zM105 287v245q-12 -4 -44 -18l-11 73l111 40h28v-340h-84z" unicode="¼"/>
<glyph glyph-name="onehalf" horiz-adv-x="700" d="M514 270q-37 0 -86 -40l-5 77q46 34 99 34q51 0 81 -29t30 -76q0 -65 -82 -166h99l-17 -70h-215v14q65 59 98.5 116.5t33.5 96.5q0 43 -36 43zM77 0l369 620h92l-367 -620h-94zM105 287v245q-12 -4 -44 -18l-11 73l111 40h28v-340h-84z" unicode="½"/>
<glyph glyph-name="threequarters" horiz-adv-x="716" d="M535 196l-45 -68h45v68zM617 62v-62h-83v62h-148v16l166 251h65v-201h49l-16 -66h-33zM138 0l369 620h92l-367 -620h-94zM273 604l-72 -102q85 -26 85 -99q0 -53 -37 -84.5t-91 -31.5q-65 0 -108 42l36 64q33 -37 71 -37q20 0 33 12t13 33q0 48 -65 48q-18 0 -29 -2 l-9 10l70 95h-98l16 68h185v-16z" unicode="¾"/>
<glyph glyph-name="questiondown" horiz-adv-x="290" d="M204 458q22 -40 22 -81t-24 -83.5t-48 -81t-24 -68.5q0 -31 21.5 -46t54.5 -15q25 0 44 6l-20 -88q-29 -7 -58 -7q-68 0 -105 39t-37 93q0 31 14.5 62.5t34.5 57t40.5 50.5t35 52t14.5 52q0 22 -12 46zM235 569q0 -26 -19 -42t-47 -16t-46 16t-18 43q0 28 18 43t46 15 q29 0 47.5 -15.5t18.5 -43.5z" unicode="¿"/>
<glyph glyph-name="Agrave" horiz-adv-x="631" d="M315 454l-112 -246h226zM626 0h-103l-61 129h-292l-60 -129h-105l305 637h11zM281 693l-85 94l110 20l43 -114h-68z" unicode="À"/>
<glyph glyph-name="Aacute" horiz-adv-x="631" d="M315 454l-112 -246h226zM626 0h-103l-61 129h-292l-60 -129h-105l305 637h11zM281 691l48 114l105 -20l-80 -94h-73z" unicode="Á"/>
<glyph glyph-name="Acircumflex" horiz-adv-x="631" d="M315 454l-112 -246h226zM626 0h-103l-61 129h-292l-60 -129h-105l305 637h11zM177 725l128 99h13l132 -99l-76 -37l-62 53l-59 -53z" unicode="Â"/>
<glyph glyph-name="Atilde" horiz-adv-x="631" d="M315 454l-112 -246h226zM626 0h-103l-61 129h-292l-60 -129h-105l305 637h11zM455 712q-37 -25 -73 -25q-19 0 -54 9.5t-54 9.5q-30 0 -58 -16l-23 71q36 22 74 22q21 0 57.5 -8t53.5 -8q31 0 55 17z" unicode="Ã"/>
<glyph glyph-name="Adieresis" horiz-adv-x="631" d="M315 454l-112 -246h226zM626 0h-103l-61 129h-292l-60 -129h-105l305 637h11zM459 737q0 -22 -17.5 -35.5t-43.5 -13.5q-25 0 -42 13.5t-17 36.5t16.5 36t42.5 13q27 0 44 -13t17 -37zM292 737q0 -22 -17.5 -35.5t-43.5 -13.5q-25 0 -42 13.5t-17 36.5t16.5 36t42.5 13 q27 0 44 -13t17 -37z" unicode="Ä"/>
<glyph glyph-name="Aring" horiz-adv-x="631" d="M315 454l-112 -246h226zM626 0h-103l-61 129h-292l-60 -129h-105l305 637h11zM341 746q0 25 -26 25t-26 -25q0 -27 26 -27t26 27zM405 747q0 -37 -26 -60t-65 -23q-38 0 -63.5 23t-25.5 61q0 37 25 59t64 22t65 -22t26 -60z" unicode="Å"/>
<glyph glyph-name="AE" horiz-adv-x="829" d="M425 208v268l-184 -268h184zM425 0v129h-237l-89 -129h-109l433 620h326v-81h-224v-156h164v-82h-164v-219h304l-20 -82h-384z" unicode="Æ"/>
<glyph glyph-name="Ccedilla" horiz-adv-x="611" d="M464 -121q0 -36 -29 -57t-80 -21q-25 0 -47 4.5t-32 9.5l-10 5l26 45q31 -13 59 -13q43 0 43 27q0 28 -54 28l-43 -3l13 92q-121 15 -195.5 98.5t-74.5 216.5q0 147 90.5 232t232.5 85q54 0 106 -15t77 -30l25 -15l-8 -90q-11 8 -29.5 19t-70.5 30t-98 19 q-95 0 -158.5 -62.5t-63.5 -170.5q0 -109 62 -173t158 -64q53 0 99.5 16t67.5 32l20 16l41 -81q-93 -62 -213 -67l-7 -42q93 0 93 -71z" unicode="Ç"/>
<glyph glyph-name="Egrave" horiz-adv-x="474" d="M70 0v620h324v-81h-224v-156h164v-82h-164v-219h304l-20 -82h-384zM234 689l-85 94l110 20l43 -114h-68z" unicode="È"/>
<glyph glyph-name="Eacute" horiz-adv-x="474" d="M70 0v620h324v-81h-224v-156h164v-82h-164v-219h304l-20 -82h-384zM202 689l48 114l105 -20l-80 -94h-73z" unicode="É"/>
<glyph glyph-name="Ecircumflex" horiz-adv-x="474" d="M70 0v620h324v-81h-224v-156h164v-82h-164v-219h304l-20 -82h-384zM115 723l128 99h13l132 -99l-76 -37l-62 53l-59 -53z" unicode="Ê"/>
<glyph glyph-name="Edieresis" horiz-adv-x="474" d="M70 0v620h324v-81h-224v-156h164v-82h-164v-219h304l-20 -82h-384zM383 736q0 -22 -17.5 -35.5t-43.5 -13.5q-25 0 -42 13.5t-17 36.5t16.5 36t42.5 13q27 0 44 -13t17 -37zM216 736q0 -22 -17.5 -35.5t-43.5 -13.5q-25 0 -42 13.5t-17 36.5t16.5 36t42.5 13q27 0 44 -13 t17 -37z" unicode="Ë"/>
<glyph glyph-name="Igrave" horiz-adv-x="253" d="M80 0v620h100v-620h-100zM103 688l-85 94l110 20l43 -114h-68z" unicode="Ì"/>
<glyph glyph-name="Iacute" horiz-adv-x="247" d="M76 0v620h100v-620h-100zM86 690l48 114l105 -20l-80 -94h-73z" unicode="Í"/>
<glyph glyph-name="Icircumflex" horiz-adv-x="247" d="M74 0v620h100v-620h-100zM-14 723l128 99h13l132 -99l-76 -37l-62 53l-59 -53z" unicode="Î"/>
<glyph glyph-name="Idieresis" horiz-adv-x="246" d="M76 0v620h100v-620h-100zM270 737q0 -22 -17.5 -35.5t-43.5 -13.5q-25 0 -42 13.5t-17 36.5t16.5 36t42.5 13q27 0 44 -13t17 -37zM103 737q0 -22 -17.5 -35.5t-43.5 -13.5q-25 0 -42 13.5t-17 36.5t16.5 36t42.5 13q27 0 44 -13t17 -37z" unicode="Ï"/>
<glyph glyph-name="Eth" horiz-adv-x="659" d="M195 301v-219h69q130 0 198 64t68 165t-68 165t-198 64h-69v-158h161v-81h-161zM629 310q0 -137 -92.5 -223.5t-282.5 -86.5h-159v301h-75l20 81h55v238h159q190 0 282.5 -86t92.5 -224z" unicode="Ð"/>
<glyph glyph-name="Ntilde" horiz-adv-x="673" d="M589 -13l-419 431v-418h-100v636h14l419 -433v417h100v-633h-14zM461 708q-37 -25 -73 -25q-19 0 -54 9.5t-54 9.5q-30 0 -58 -16l-23 71q36 22 74 22q21 0 57.5 -8t53.5 -8q31 0 55 17z" unicode="Ñ"/>
<glyph glyph-name="Ograve" d="M577 310q0 108 -62 172t-155 64q-92 0 -154.5 -63.5t-62.5 -171.5q0 -109 62 -172t155 -63t155 62.5t62 171.5zM680 310q0 -147 -91 -232.5t-229 -85.5t-229 85.5t-91 233.5q0 147 91 232.5t229 85.5t229 -85.5t91 -233.5zM328 687l-85 94l110 20l43 -114h-68z" unicode="Ò"/>
<glyph glyph-name="Oacute" d="M577 310q0 108 -62 172t-155 64q-92 0 -154.5 -63.5t-62.5 -171.5q0 -109 62 -172t155 -63t155 62.5t62 171.5zM680 310q0 -147 -91 -232.5t-229 -85.5t-229 85.5t-91 233.5q0 147 91 232.5t229 85.5t229 -85.5t91 -233.5zM317 689l48 114l105 -20l-80 -94h-73z" unicode="Ó"/>
<glyph glyph-name="Ocircumflex" d="M577 310q0 108 -62 172t-155 64q-92 0 -154.5 -63.5t-62.5 -171.5q0 -109 62 -172t155 -63t155 62.5t62 171.5zM680 310q0 -147 -91 -232.5t-229 -85.5t-229 85.5t-91 233.5q0 147 91 232.5t229 85.5t229 -85.5t91 -233.5zM219 723l128 99h13l132 -99l-76 -37l-62 53 l-59 -53z" unicode="Ô"/>
<glyph glyph-name="Otilde" d="M577 310q0 108 -62 172t-155 64q-92 0 -154.5 -63.5t-62.5 -171.5q0 -109 62 -172t155 -63t155 62.5t62 171.5zM680 310q0 -147 -91 -232.5t-229 -85.5t-229 85.5t-91 233.5q0 147 91 232.5t229 85.5t229 -85.5t91 -233.5zM495 713q-37 -25 -73 -25q-19 0 -54 9.5 t-54 9.5q-30 0 -58 -16l-23 71q36 22 74 22q21 0 57.5 -8t53.5 -8q31 0 55 17z" unicode="Õ"/>
<glyph glyph-name="Odieresis" d="M577 310q0 108 -62 172t-155 64q-92 0 -154.5 -63.5t-62.5 -171.5q0 -109 62 -172t155 -63t155 62.5t62 171.5zM680 310q0 -147 -91 -232.5t-229 -85.5t-229 85.5t-91 233.5q0 147 91 232.5t229 85.5t229 -85.5t91 -233.5zM502 739q0 -22 -17.5 -35.5t-43.5 -13.5 q-25 0 -42 13.5t-17 36.5t16.5 36t42.5 13q27 0 44 -13t17 -37zM335 739q0 -22 -17.5 -35.5t-43.5 -13.5q-25 0 -42 13.5t-17 36.5t16.5 36t42.5 13q27 0 44 -13t17 -37z" unicode="Ö"/>
<glyph glyph-name="multiply" horiz-adv-x="555" d="M425 37l-146 146l-151 -149l-63 62l151 149l-148 145l64 63l147 -146l144 144l63 -63l-143 -143l147 -146z" unicode="×"/>
<glyph glyph-name="Oslash" d="M577 310q0 81 -35.5 137.5t-95.5 81.5l-118 -451q10 -2 32 -2q93 0 155 62.5t62 171.5zM143 311q0 -81 35 -137.5t95 -81.5l119 452q-22 2 -32 2q-92 0 -154.5 -63.5t-62.5 -171.5zM223 -97l27 105q-95 29 -152.5 108t-57.5 195q0 147 91 232.5t229 85.5q30 0 53 -4 l23 85h57l-25 -97q96 -30 154 -108.5t58 -194.5q0 -147 -91 -232.5t-229 -85.5q-18 0 -54 4l-24 -93h-59z" unicode="Ø"/>
<glyph glyph-name="Ugrave" horiz-adv-x="640" d="M575 296q0 -145 -63 -224.5t-192 -79.5t-192 80t-63 226v322h100v-322q0 -110 36 -166t118 -56q83 0 119.5 55.5t36.5 164.5v324h100v-324zM291 690l-85 94l110 20l43 -114h-68z" unicode="Ù"/>
<glyph glyph-name="Uacute" horiz-adv-x="640" d="M575 296q0 -145 -63 -224.5t-192 -79.5t-192 80t-63 226v322h100v-322q0 -110 36 -166t118 -56q83 0 119.5 55.5t36.5 164.5v324h100v-324zM275 690l48 114l105 -20l-80 -94h-73z" unicode="Ú"/>
<glyph glyph-name="Ucircumflex" horiz-adv-x="640" d="M575 296q0 -145 -63 -224.5t-192 -79.5t-192 80t-63 226v322h100v-322q0 -110 36 -166t118 -56q83 0 119.5 55.5t36.5 164.5v324h100v-324zM183 722l128 99h13l132 -99l-76 -37l-62 53l-59 -53z" unicode="Û"/>
<glyph glyph-name="Udieresis" horiz-adv-x="640" d="M575 296q0 -145 -63 -224.5t-192 -79.5t-192 80t-63 226v322h100v-322q0 -110 36 -166t118 -56q83 0 119.5 55.5t36.5 164.5v324h100v-324zM463 736q0 -22 -17.5 -35.5t-43.5 -13.5q-25 0 -42 13.5t-17 36.5t16.5 36t42.5 13q27 0 44 -13t17 -37zM296 736 q0 -22 -17.5 -35.5t-43.5 -13.5q-25 0 -42 13.5t-17 36.5t16.5 36t42.5 13q27 0 44 -13t17 -37z" unicode="Ü"/>
<glyph glyph-name="Yacute" horiz-adv-x="561" d="M281 317l181 303h109l-239 -383v-237h-101v233l-241 387h107zM232 689l48 114l105 -20l-80 -94h-73z" unicode="Ý"/>
<glyph glyph-name="Thorn" horiz-adv-x="520" d="M393 311q0 63 -47.5 100.5t-124.5 37.5h-54v-278h54q78 0 125 37t47 103zM490 311q0 -104 -74.5 -162.5t-218.5 -58.5h-31v-90h-100v620h102v-90h29q143 0 218 -59.5t75 -159.5z" unicode="Þ"/>
<glyph glyph-name="germandbls" horiz-adv-x="537" d="M496 210q0 -93 -57 -153t-161 -60q-22 0 -48 3l16 79q12 -2 34 -2q120 0 120 133q0 66 -37 100t-125 34v75q37 0 56.5 13.5t19.5 51.5q0 31 -19.5 50t-47.5 19q-38 0 -55.5 -18.5t-17.5 -66.5v-468h-98v344h-76l20 75h56v61q0 70 43.5 109.5t121.5 39.5q75 0 122 -38 t47 -101q0 -37 -16.5 -65.5t-47.5 -40.5q69 -7 109.5 -54.5t40.5 -119.5z" unicode="ß"/>
<glyph glyph-name="agrave" horiz-adv-x="504" d="M132 205q0 -59 27 -94.5t83 -35.5q54 0 86 45.5t32 123.5v73q-35 28 -103 28q-60 0 -92.5 -40t-32.5 -100zM40 208q0 93 56.5 154.5t156.5 61.5q109 0 196 -68v-356h-89v72q-42 -77 -128 -77q-92 0 -142 59.5t-50 153.5zM227 483l-85 94l110 20l43 -114h-68z" unicode="à"/>
<glyph glyph-name="aacute" horiz-adv-x="504" d="M132 205q0 -59 27 -94.5t83 -35.5q54 0 86 45.5t32 123.5v73q-35 28 -103 28q-60 0 -92.5 -40t-32.5 -100zM40 208q0 93 56.5 154.5t156.5 61.5q109 0 196 -68v-356h-89v72q-42 -77 -128 -77q-92 0 -142 59.5t-50 153.5zM208 482l48 114l105 -20l-80 -94h-73z" unicode="á"/>
<glyph glyph-name="acircumflex" horiz-adv-x="504" d="M132 205q0 -59 27 -94.5t83 -35.5q54 0 86 45.5t32 123.5v73q-35 28 -103 28q-60 0 -92.5 -40t-32.5 -100zM40 208q0 93 56.5 154.5t156.5 61.5q109 0 196 -68v-356h-89v72q-42 -77 -128 -77q-92 0 -142 59.5t-50 153.5zM112 513l128 99h13l132 -99l-76 -37l-62 53 l-59 -53z" unicode="â"/>
<glyph glyph-name="atilde" horiz-adv-x="504" d="M132 205q0 -59 27 -94.5t83 -35.5q54 0 86 45.5t32 123.5v73q-35 28 -103 28q-60 0 -92.5 -40t-32.5 -100zM40 208q0 93 56.5 154.5t156.5 61.5q109 0 196 -68v-356h-89v72q-42 -77 -128 -77q-92 0 -142 59.5t-50 153.5zM397 508q-37 -25 -73 -25q-19 0 -54 9.5t-54 9.5 q-30 0 -58 -16l-23 71q36 22 74 22q21 0 57.5 -8t53.5 -8q31 0 55 17z" unicode="ã"/>
<glyph glyph-name="adieresis" horiz-adv-x="504" d="M132 205q0 -59 27 -94.5t83 -35.5q54 0 86 45.5t32 123.5v73q-35 28 -103 28q-60 0 -92.5 -40t-32.5 -100zM40 208q0 93 56.5 154.5t156.5 61.5q109 0 196 -68v-356h-89v72q-42 -77 -128 -77q-92 0 -142 59.5t-50 153.5zM396 519q0 -22 -17.5 -35.5t-43.5 -13.5 q-25 0 -42 13.5t-17 36.5t16.5 36t42.5 13q27 0 44 -13t17 -37zM229 519q0 -22 -17.5 -35.5t-43.5 -13.5q-25 0 -42 13.5t-17 36.5t16.5 36t42.5 13q27 0 44 -13t17 -37z" unicode="ä"/>
<glyph glyph-name="aring" horiz-adv-x="504" d="M132 205q0 -59 27 -94.5t83 -35.5q54 0 86 45.5t32 123.5v73q-35 28 -103 28q-60 0 -92.5 -40t-32.5 -100zM40 208q0 93 56.5 154.5t156.5 61.5q109 0 196 -68v-356h-89v72q-42 -77 -128 -77q-92 0 -142 59.5t-50 153.5zM274 542q0 25 -26 25t-26 -25q0 -27 26 -27t26 27 zM338 543q0 -37 -26 -60t-65 -23q-38 0 -63.5 23t-25.5 61q0 37 25 59t64 22t65 -22t26 -60z" unicode="å"/>
<glyph glyph-name="ae" horiz-adv-x="782" d="M132 205q0 -59 27 -94.5t83 -35.5q54 0 86 45.5t32 123.5v73q-35 28 -103 28q-60 0 -92.5 -40t-32.5 -100zM561 351q-38 0 -66.5 -23t-40.5 -67h210q-4 43 -32.5 66.5t-70.5 23.5zM449 190q0 -57 36.5 -88t93.5 -31q60 0 108 40l46 -68q-71 -50 -154 -50q-89 0 -136 50 v-43h-89v56q-41 -61 -122 -61q-92 0 -142 59.5t-50 153.5q0 93 56.5 154.5t156.5 61.5q98 0 172 -50q54 51 134 51q81 0 134.5 -52t53.5 -141l-2 -42h-296z" unicode="æ"/>
<glyph glyph-name="ccedilla" horiz-adv-x="434" d="M355 -122q0 -36 -29 -57t-80 -21q-25 0 -47 5t-32 9l-10 5l26 45q31 -13 59 -13q43 0 43 27q0 28 -54 28l-43 -3l13 96q-74 15 -119 70.5t-45 139.5q0 100 61.5 158.5t158.5 58.5q73 0 143 -44l-19 -80q-6 5 -16.5 12.5t-43 19.5t-63.5 12q-58 0 -95 -36t-37 -100 q0 -65 36.5 -102t94.5 -37q64 0 116 43l41 -73q-72 -45 -145 -48l-7 -44q93 0 93 -71z" unicode="ç"/>
<glyph glyph-name="egrave" horiz-adv-x="460" d="M239 351q-38 0 -66.5 -23t-40.5 -67h210q-4 43 -32.5 66.5t-70.5 23.5zM127 190q0 -57 36.5 -88t93.5 -31q60 0 108 40l46 -68q-71 -50 -154 -50q-103 0 -161.5 58t-58.5 158q0 96 56.5 156t143.5 60q81 0 134.5 -52t53.5 -141l-2 -42h-296zM209 484l-85 94l110 20 l43 -114h-68z" unicode="è"/>
<glyph glyph-name="eacute" horiz-adv-x="460" d="M239 351q-38 0 -66.5 -23t-40.5 -67h210q-4 43 -32.5 66.5t-70.5 23.5zM127 190q0 -57 36.5 -88t93.5 -31q60 0 108 40l46 -68q-71 -50 -154 -50q-103 0 -161.5 58t-58.5 158q0 96 56.5 156t143.5 60q81 0 134.5 -52t53.5 -141l-2 -42h-296zM184 483l48 114l105 -20 l-80 -94h-73z" unicode="é"/>
<glyph glyph-name="ecircumflex" horiz-adv-x="460" d="M239 351q-38 0 -66.5 -23t-40.5 -67h210q-4 43 -32.5 66.5t-70.5 23.5zM127 190q0 -57 36.5 -88t93.5 -31q60 0 108 40l46 -68q-71 -50 -154 -50q-103 0 -161.5 58t-58.5 158q0 96 56.5 156t143.5 60q81 0 134.5 -52t53.5 -141l-2 -42h-296zM98 514l128 99h13l132 -99 l-76 -37l-62 53l-59 -53z" unicode="ê"/>
<glyph glyph-name="edieresis" horiz-adv-x="460" d="M239 351q-38 0 -66.5 -23t-40.5 -67h210q-4 43 -32.5 66.5t-70.5 23.5zM127 190q0 -57 36.5 -88t93.5 -31q60 0 108 40l46 -68q-71 -50 -154 -50q-103 0 -161.5 58t-58.5 158q0 96 56.5 156t143.5 60q81 0 134.5 -52t53.5 -141l-2 -42h-296zM380 516q0 -22 -17.5 -35.5 t-43.5 -13.5q-25 0 -42 13.5t-17 36.5t16.5 36t42.5 13q27 0 44 -13t17 -37zM213 516q0 -22 -17.5 -35.5t-43.5 -13.5q-25 0 -42 13.5t-17 36.5t16.5 36t42.5 13q27 0 44 -13t17 -37z" unicode="ë"/>
<glyph glyph-name="igrave" horiz-adv-x="209" d="M59 0v418h91v-418h-91zM81 484l-85 94l110 20l43 -114h-68z" unicode="ì"/>
<glyph glyph-name="iacute" horiz-adv-x="209" d="M59 0v418h91v-418h-91zM55 483l48 114l105 -20l-80 -94h-73z" unicode="í"/>
<glyph glyph-name="icircumflex" horiz-adv-x="209" d="M59 0v418h91v-418h-91zM-32 510l128 99h13l132 -99l-76 -37l-62 53l-59 -53z" unicode="î"/>
<glyph glyph-name="idieresis" horiz-adv-x="209" d="M59 0v418h91v-418h-91zM248 520q0 -22 -17.5 -35.5t-43.5 -13.5q-25 0 -42 13.5t-17 36.5t16.5 36t42.5 13q27 0 44 -13t17 -37zM81 520q0 -22 -17.5 -35.5t-43.5 -13.5q-25 0 -42 13.5t-17 36.5t16.5 36t42.5 13q27 0 44 -13t17 -37z" unicode="ï"/>
<glyph glyph-name="eth" horiz-adv-x="506" d="M378 207q0 64 -35.5 101t-90.5 37q-53 0 -89 -37t-36 -100q0 -64 36 -100t89 -36q55 0 90.5 36t35.5 99zM469 196q0 -88 -62 -145.5t-154 -57.5q-93 0 -154.5 57.5t-61.5 157.5q0 99 59.5 153t149.5 54l38 -3l-41 68l-123 -32v74l81 20l-36 64l94 23l32 -58l128 35v-75 l-91 -25q94 -143 117.5 -196.5t23.5 -113.5z" unicode="ð"/>
<glyph glyph-name="ntilde" horiz-adv-x="486" d="M344 0v217q0 68 -20.5 99.5t-69.5 31.5t-79 -39t-30 -97v-212h-90v418h90v-61q40 67 124 67q167 0 167 -206v-218h-92zM381 506q-37 -25 -73 -25q-19 0 -54 9.5t-54 9.5q-30 0 -58 -16l-23 71q36 22 74 22q21 0 57.5 -8t53.5 -8q31 0 55 17z" unicode="ñ"/>
<glyph glyph-name="ograve" horiz-adv-x="506" d="M378 207q0 64 -35.5 101t-90.5 37q-53 0 -89 -37t-36 -100q0 -64 36 -100t89 -36q55 0 90.5 36t35.5 99zM469 207q0 -99 -61 -156.5t-155 -57.5q-93 0 -154.5 57.5t-61.5 157.5t61.5 158t154.5 58q94 0 155 -58t61 -159zM223 483l-85 94l110 20l43 -114h-68z" unicode="ò"/>
<glyph glyph-name="oacute" horiz-adv-x="506" d="M378 207q0 64 -35.5 101t-90.5 37q-53 0 -89 -37t-36 -100q0 -64 36 -100t89 -36q55 0 90.5 36t35.5 99zM469 207q0 -99 -61 -156.5t-155 -57.5q-93 0 -154.5 57.5t-61.5 157.5t61.5 158t154.5 58q94 0 155 -58t61 -159zM203 483l48 114l105 -20l-80 -94h-73z" unicode="ó"/>
<glyph glyph-name="ocircumflex" horiz-adv-x="506" d="M378 207q0 64 -35.5 101t-90.5 37q-53 0 -89 -37t-36 -100q0 -64 36 -100t89 -36q55 0 90.5 36t35.5 99zM469 207q0 -99 -61 -156.5t-155 -57.5q-93 0 -154.5 57.5t-61.5 157.5t61.5 158t154.5 58q94 0 155 -58t61 -159zM115 520l128 99h13l132 -99l-76 -37l-62 53 l-59 -53z" unicode="ô"/>
<glyph glyph-name="otilde" horiz-adv-x="506" d="M378 207q0 64 -35.5 101t-90.5 37q-53 0 -89 -37t-36 -100q0 -64 36 -100t89 -36q55 0 90.5 36t35.5 99zM469 207q0 -99 -61 -156.5t-155 -57.5q-93 0 -154.5 57.5t-61.5 157.5t61.5 158t154.5 58q94 0 155 -58t61 -159zM388 504q-37 -25 -73 -25q-19 0 -54 9.5t-54 9.5 q-30 0 -58 -16l-23 71q36 22 74 22q21 0 57.5 -8t53.5 -8q31 0 55 17z" unicode="õ"/>
<glyph glyph-name="odieresis" horiz-adv-x="506" d="M378 207q0 64 -35.5 101t-90.5 37q-53 0 -89 -37t-36 -100q0 -64 36 -100t89 -36q55 0 90.5 36t35.5 99zM469 207q0 -99 -61 -156.5t-155 -57.5q-93 0 -154.5 57.5t-61.5 157.5t61.5 158t154.5 58q94 0 155 -58t61 -159zM395 521q0 -22 -17.5 -35.5t-43.5 -13.5 q-25 0 -42 13.5t-17 36.5t16.5 36t42.5 13q27 0 44 -13t17 -37zM228 521q0 -22 -17.5 -35.5t-43.5 -13.5q-25 0 -42 13.5t-17 36.5t16.5 36t42.5 13q27 0 44 -13t17 -37z" unicode="ö"/>
<glyph glyph-name="divide" horiz-adv-x="589" d="M367 84q0 -29 -21 -46t-53 -17q-31 0 -51.5 17.5t-20.5 47.5q0 29 20.5 45.5t51.5 16.5q32 0 53 -17t21 -47zM65 205v82h459v-82h-459zM367 407q0 -29 -21 -46t-53 -17q-31 0 -51.5 17.5t-20.5 47.5q0 29 20.5 45.5t51.5 16.5q32 0 53 -17t21 -47z" unicode="÷"/>
<glyph glyph-name="oslash" horiz-adv-x="506" d="M378 207q0 88 -65 123l-67 -258h6q55 0 90.5 36t35.5 99zM127 208q0 -87 64 -122l69 259h-8q-53 0 -89 -37t-36 -100zM143 -97l27 104q-61 22 -97 73.5t-36 127.5q0 100 61.5 158t154.5 58q9 0 27 -2l22 82h57l-25 -94q62 -22 98.5 -74.5t36.5 -128.5q0 -99 -61 -156.5 t-155 -57.5q-9 0 -27 2l-24 -92h-59z" unicode="ø"/>
<glyph glyph-name="ugrave" horiz-adv-x="480" d="M142 418v-218q0 -70 18 -100t69 -30q50 0 78 38.5t28 97.5v212h90v-418h-90v61q-40 -67 -123 -67q-86 0 -124 51.5t-38 153.5v219h92zM222 483l-85 94l110 20l43 -114h-68z" unicode="ù"/>
<glyph glyph-name="uacute" horiz-adv-x="480" d="M142 418v-218q0 -70 18 -100t69 -30q50 0 78 38.5t28 97.5v212h90v-418h-90v61q-40 -67 -123 -67q-86 0 -124 51.5t-38 153.5v219h92zM180 483l48 114l105 -20l-80 -94h-73z" unicode="ú"/>
<glyph glyph-name="ucircumflex" horiz-adv-x="480" d="M142 418v-218q0 -70 18 -100t69 -30q50 0 78 38.5t28 97.5v212h90v-418h-90v61q-40 -67 -123 -67q-86 0 -124 51.5t-38 153.5v219h92zM96 510l128 99h13l132 -99l-76 -37l-62 53l-59 -53z" unicode="û"/>
<glyph glyph-name="udieresis" horiz-adv-x="480" d="M142 418v-218q0 -70 18 -100t69 -30q50 0 78 38.5t28 97.5v212h90v-418h-90v61q-40 -67 -123 -67q-86 0 -124 51.5t-38 153.5v219h92zM372 520q0 -22 -17.5 -35.5t-43.5 -13.5q-25 0 -42 13.5t-17 36.5t16.5 36t42.5 13q27 0 44 -13t17 -37zM205 520q0 -22 -17.5 -35.5 t-43.5 -13.5q-25 0 -42 13.5t-17 36.5t16.5 36t42.5 13q27 0 44 -13t17 -37z" unicode="ü"/>
<glyph glyph-name="yacute" horiz-adv-x="439" d="M62 -141l119 219l-171 340h102l118 -250l118 250h99l-289 -575zM182 483l48 114l105 -20l-80 -94h-73z" unicode="ý"/>
<glyph glyph-name="thorn" horiz-adv-x="499" d="M371 213q0 59 -27 94.5t-83 35.5q-54 0 -85.5 -45.5t-31.5 -123.5v-62q49 -39 110 -39q55 0 86 40.5t31 99.5zM273 423q91 0 140 -59t49 -154q0 -93 -53.5 -154.5t-142.5 -61.5q-28 0 -58.5 8t-47.5 16l-16 8v-164l-89 -19v767l89 20v-284q18 34 51.5 55.5t77.5 21.5z " unicode="þ"/>
</font>
</defs>
</svg>
