<?xml version="1.0" encoding="UTF-8" standalone="no"?>
<!DOCTYPE svg  PUBLIC '-//W3C//DTD SVG 1.1//EN'  'http://www.w3.org/Graphics/SVG/1.1/DTD/svg11.dtd'>
<svg version="1.1" xmlns="http://www.w3.org/2000/svg">
<defs>
<font id="Serenity-ThinItalic" horiz-adv-x="703">
<font-face panose-1="0 0 2 0 0 0 0 0 0 0" unicode-range="U+0020-00FE" units-per-em="1000" ascent="800" descent="-200" font-weight="100" font-style="italic" cap-height="620" underline-thickness="50" x-height="418" font-family="Serenity Thin" bbox="-127 -204 875 807" underline-position="-150"/>
<missing-glyph/>
<glyph glyph-name="space" unicode=" " horiz-adv-x="216"/>
<glyph glyph-name="exclam" unicode="!" horiz-adv-x="132" d="M6 -4q-7 0 -11 4.5t-3 11.5q3 14 18 14q17 0 14 -16q-4 -14 -18 -14zM39 118h-15l106 497q0 7 7 7q10 0 7 -9z"/>
<glyph glyph-name="quotedbl" unicode='&quot;' horiz-adv-x="216" d="M180 370h-15l53 250h15zM89 370h-15l53 250h15z"/>
<glyph glyph-name="numbersign" unicode="#" horiz-adv-x="512" d="M233 373l-59 -111h146l59 111h-146zM498 373h-103l-59 -111h105l-7 -15h-105l-128 -247h-15l127 247h-146l-99 -192h-16l99 192h-119l4 15h122l59 111h-121l3 15h125l119 232h16l-119 -232h146l91 177h15l-90 -177h103z"/>
<glyph glyph-name="dollar" unicode="$" horiz-adv-x="471" d="M102 13q39 -8 85 -8q89 0 143.5 37.5t68.5 105.5q4 17 4 37q0 57 -40.5 88t-114.5 54zM303 614q-169 0 -195 -118q-3 -15 -3 -28q0 -48 35.5 -75.5t98.5 -46.5l122 264q-23 4 -58 4zM454 572q-36 24 -78 34l-122 -265q37 -11 62 -22.5t51 -29t39 -43.5t13 -59 q0 -16 -5 -41q-16 -75 -75.5 -115.5t-152.5 -40.5q-48 0 -90 9l-41 -88h-16l41 91q-56 18 -103 56l10 11q45 -37 100 -52l145 314q-67 22 -104.5 52t-37.5 82q0 17 4 33q14 67 69 99t141 32q31 0 64 -5l30 65h17l-33 -69q52 -15 76 -33z"/>
<glyph glyph-name="percent" unicode="%" horiz-adv-x="661" d="M483 259q-50 0 -92 -34t-54 -92q-4 -16 -4 -34q0 -43 26 -66.5t69 -23.5q52 0 93 33t53 92q4 16 4 34q0 43 -26 67t-69 24zM427 -6q-49 0 -78.5 27.5t-29.5 76.5q0 20 4 37q13 64 58.5 101.5t102.5 37.5q49 0 79 -28t30 -77q0 -20 -4 -37q-13 -63 -59 -100.5t-103 -37.5z M245 614q-51 0 -92.5 -34t-53.5 -92q-4 -16 -4 -34q0 -43 26 -66.5t68 -23.5q52 0 93.5 33t53.5 92q4 16 4 33q0 43 -26.5 67.5t-68.5 24.5zM61 0h-20l561 620h19zM188 349q-48 0 -78 27.5t-30 76.5q0 20 4 37q14 64 59.5 101.5t102.5 37.5q49 0 79 -28t30 -77q0 -20 -4 -37 q-14 -64 -59.5 -101t-103.5 -37z"/>
<glyph glyph-name="ampersand" unicode="&amp;" horiz-adv-x="600" d="M278 390q-56 -6 -104 -24.5t-88 -59.5t-52 -98q-4 -19 -4 -40q0 -72 54 -116t141 -44q120 0 213 63zM491 0h-16l-30 57q-94 -64 -221 -64q-92 0 -150.5 47.5t-58.5 125.5q0 19 5 44q17 83 86 133t165 62l-102 208l5 7h344v-15h-329l261 -525q103 91 103 227v7h15 q2 -148 -112 -248z"/>
<glyph glyph-name="quotesingle" unicode="&apos;" horiz-adv-x="125" d="M89 370h-15l53 250h15z"/>
<glyph glyph-name="parenleft" unicode="(" horiz-adv-x="311" d="M60 285q-23 -107 -23 -177q0 -92 40 -155t132 -104l-8 -13q-97 43 -138 109.5t-41 161.5q0 72 23 180q19 88 42.5 152t62.5 122.5t98.5 102t142.5 73.5l3 -14q-80 -29 -137 -70.5t-95 -98.5t-60.5 -119.5t-41.5 -149.5z"/>
<glyph glyph-name="parenright" unicode=")" horiz-adv-x="310" d="M-78 -164l-4 14q154 57 225.5 159.5t108.5 277.5q23 110 23 180q0 92 -39.5 154.5t-131.5 102.5l8 13q96 -42 137 -107.5t41 -161.5q0 -71 -23 -183q-38 -178 -112 -284t-233 -165z"/>
<glyph glyph-name="asterisk" unicode="*" horiz-adv-x="369" d="M235 452l123 -80l-9 -12l-123 80l-34 -158h-15l33 157l-156 -79l-4 14l155 80l-122 80l10 12l123 -81l33 155h15l-33 -153l155 79l6 -14z"/>
<glyph glyph-name="plus" unicode="+" horiz-adv-x="566" d="M491 235h-211l-48 -227h-15l48 227h-210l3 15h210l48 228h16l-49 -228h211z"/>
<glyph glyph-name="comma" unicode="," horiz-adv-x="140" d="M-52 -78l-13 7l141 224h17z"/>
<glyph glyph-name="hyphen" unicode="-" horiz-adv-x="275" d="M235 236h-215l3 15h215z"/>
<glyph glyph-name="period" unicode="." horiz-adv-x="92" d="M-14 -3q-7 0 -10.5 4.5t-2.5 11.5q3 14 18 14q7 0 11 -4.5t2 -11.5q-2 -14 -18 -14z"/>
<glyph glyph-name="slash" unicode="/" horiz-adv-x="310" d="M-33 0h-18l405 620h18z"/>
<glyph glyph-name="zero" unicode="0" horiz-adv-x="533" d="M338 614q-99 0 -172 -78t-105 -226q-14 -68 -14 -117q0 -92 41.5 -139.5t117.5 -47.5q100 0 173 78.5t105 226.5q14 68 14 117q0 92 -41.5 139t-118.5 47zM205 -9q-84 0 -128.5 52.5t-44.5 150.5q0 50 14 118q32 151 109.5 234t183.5 83q85 0 129.5 -52t44.5 -150 q0 -51 -14 -118q-32 -151 -110 -234.5t-184 -83.5z"/>
<glyph glyph-name="one" unicode="1" horiz-adv-x="256" d="M126 0h-15l128 605l-158 -65l-3 14l168 70h13z"/>
<glyph glyph-name="two" unicode="2" horiz-adv-x="438" d="M8 15h344l-8 -15h-370l-2 9q407 268 443 439q5 21 5 47q0 57 -36 87.5t-104 30.5q-90 0 -172 -65l-1 17q83 63 174 63q73 0 114 -35t41 -97q0 -23 -6 -50q-21 -92 -129 -198t-293 -233z"/>
<glyph glyph-name="three" unicode="3" horiz-adv-x="449" d="M178 375h19q95 0 147.5 -42t52.5 -116q0 -22 -2 -33q-13 -87 -87.5 -140t-167.5 -53q-103 0 -174 62l12 11q64 -58 163 -58q87 0 157 49t82 131q2 11 2 32q0 75 -52.5 110.5t-133.5 35.5q-22 0 -45 -3l-1 9l281 235h-314l7 15h332l3 -9z"/>
<glyph glyph-name="four" unicode="4" horiz-adv-x="492" d="M7 169h323l91 428zM441 154h-99l-33 -154h-15l33 154h-340l-1 14l437 452h18l-96 -451h103z"/>
<glyph glyph-name="five" unicode="5" horiz-adv-x="471" d="M455 605h-265l-86 -241q61 19 120 19q88 0 142 -42.5t54 -119.5q0 -9 -2 -27q-11 -95 -84 -148.5t-168 -53.5q-114 0 -203 70l12 12q34 -29 87.5 -48t101.5 -19q91 0 158.5 48.5t79.5 137.5q2 20 2 28q0 76 -55 112.5t-134 36.5q-66 0 -122 -23l-9 8l95 265h283z"/>
<glyph glyph-name="six" unicode="6" horiz-adv-x="509" d="M96 337q-44 -65 -55 -122q-6 -31 -6 -58q0 -73 43.5 -112t116.5 -39q88 0 155.5 54t89.5 155q4 24 4 35q0 63 -43.5 105t-117.5 42q-86 0 -187 -60zM194 -9q-79 0 -127 43.5t-48 122.5q0 29 7 60q23 106 159 249l148 157l16 -3q-10 -10 -50 -52t-63 -67 q-82 -86 -126 -142q91 50 172 50q79 0 127.5 -45.5t48.5 -112.5q0 -21 -4 -38q-23 -105 -95 -163.5t-165 -58.5z"/>
<glyph glyph-name="seven" unicode="7" horiz-adv-x="415" d="M76 -2l-15 4l380 603h-353l7 15h372z"/>
<glyph glyph-name="eight" unicode="8" horiz-adv-x="478" d="M251 329q-81 0 -142.5 -43t-78.5 -121q-4 -17 -4 -38q0 -59 41.5 -90.5t110.5 -31.5q81 0 142 41t78 121q4 19 4 39q0 59 -41.5 91t-109.5 32zM313 614q-62 0 -114 -36t-65 -98q-3 -16 -3 -31q0 -49 34 -77t87 -28q65 0 118 37.5t66 100.5q3 15 3 29q0 47 -35.5 74.5 t-90.5 28.5zM294 337q59 -10 91.5 -44t32.5 -87q0 -16 -5 -41q-18 -86 -84 -130.5t-152 -44.5q-73 0 -120 35t-47 100q0 17 5 42q15 69 64.5 114t129.5 56q-44 10 -68.5 40t-24.5 73q0 16 3 32q14 67 71 106.5t123 39.5q61 -1 101 -32t40 -85q0 -14 -3 -31 q-11 -55 -54.5 -94t-102.5 -49z"/>
<glyph glyph-name="nine" unicode="9" horiz-adv-x="509" d="M325 613q-88 0 -155.5 -54.5t-88.5 -154.5q-4 -16 -4 -36q0 -62 43.5 -104t117.5 -42q84 0 187 60q42 63 55 122q6 32 6 58q0 73 -44 112t-117 39zM189 -3l-16 3q17 19 55 58.5t57 59.5q85 90 125 140q-90 -48 -172 -48q-79 0 -127.5 45t-48.5 113q0 21 4 38 q22 105 94.5 163.5t165.5 58.5q79 0 127.5 -43.5t48.5 -122.5q0 -29 -7 -60q-23 -105 -159 -249z"/>
<glyph glyph-name="colon" unicode=":" horiz-adv-x="92" d="M-14 -3q-7 0 -10.5 4.5t-2.5 11.5q3 14 18 14q7 0 11 -4.5t2 -11.5q-2 -14 -18 -14zM70 389q-7 0 -11.5 4.5t-2.5 11.5q3 14 18 14q17 0 14 -16q-4 -14 -18 -14z"/>
<glyph glyph-name="semicolon" unicode=";" horiz-adv-x="165" d="M-52 -78l-13 7l141 224h17zM112 389q-7 0 -11.5 4.5t-2.5 11.5q3 14 18 14q17 0 14 -16q-4 -14 -18 -14z"/>
<glyph glyph-name="less" unicode="&lt;" horiz-adv-x="344" d="M331 407l-282 -166l211 -166l-3 -15l-227 178l3 11l302 177z"/>
<glyph glyph-name="equal" unicode="=" horiz-adv-x="525" d="M434 161h-395l3 15h396zM467 316h-395l3 15h395z"/>
<glyph glyph-name="greater" unicode="&gt;" horiz-adv-x="344" d="M294 236l-302 -178l4 19l282 166l-211 166l3 15l227 -177z"/>
<glyph glyph-name="question" unicode="?" horiz-adv-x="271" d="M54 -3q-7 0 -10.5 4.5t-2.5 11.5q3 14 18 14q7 0 11 -4.5t2 -11.5q-2 -14 -18 -14zM83 173q-2 9 -2 26q0 34 17 66t42.5 59t51.5 53t49 57.5t31 62.5q3 15 3 29q0 42 -26 68t-77 26q-22 0 -62 -8l5 16q34 7 58 7q58 0 87.5 -30.5t29.5 -76.5q0 -11 -4 -33 q-7 -32 -29 -64.5t-49 -58.5t-52.5 -52.5t-43 -56.5t-17.5 -60q0 -12 3 -25z"/>
<glyph glyph-name="at" unicode="@" d="M401 491q-80 0 -135 -49t-72 -128q-6 -28 -6 -54q0 -56 30 -88.5t89 -32.5q20 0 40.5 3.5t48.5 16.5t51 33.5t44 59t32 89.5l21 97q-56 53 -143 53zM504 250q-65 -126 -198 -126q-65 0 -99 37t-34 99q0 26 6 56q18 84 78 137t145 53q52 0 87 -15t71 -48l-62 -295 q62 10 105 66.5t62 147.5q7 31 7 62q0 94 -68 142t-181 48q-130 0 -231 -80t-131 -224q-9 -45 -9 -82q0 -108 70.5 -165t200.5 -57t239 56l6 -12q-40 -19 -58 -25q-96 -34 -188 -34q-136 0 -211 60.5t-75 174.5q0 34 10 86q32 149 137.5 233t240.5 84q119 0 191 -51t72 -152 q0 -32 -7 -66q-22 -104 -73.5 -164.5t-127.5 -62.5z"/>
<glyph glyph-name="A" unicode="A" horiz-adv-x="584" d="M362 608l-286 -434h386zM502 0l-37 160h-397l-105 -160h-19l411 623h18l146 -623h-17z"/>
<glyph glyph-name="B" unicode="B" horiz-adv-x="501" d="M98 342l-69 -326h110q128 0 196.5 35t89.5 130q5 27 5 43q0 65 -58 91.5t-185 26.5h-89zM154 605l-53 -248h87q123 0 177.5 25t69.5 96q4 16 4 32q0 53 -49 74t-147 21h-89zM287 349q157 -14 157 -126q0 -17 -5 -44q-22 -103 -96.5 -141t-204.5 -38h-128l132 620h102 q65 0 108.5 -8t72.5 -32.5t29 -67.5q0 -19 -4 -36q-24 -116 -163 -127z"/>
<glyph glyph-name="C" unicode="C" horiz-adv-x="598" d="M615 549q-83 65 -189 65q-133 0 -233.5 -80t-131.5 -224q-9 -44 -9 -82q0 -106 65.5 -164.5t176.5 -58.5q116 0 231 69l6 -14q-118 -70 -238 -70q-117 0 -186.5 63t-69.5 175q0 39 9 84q31 148 137 232.5t244 84.5q112 0 191 -65z"/>
<glyph glyph-name="D" unicode="D" horiz-adv-x="623" d="M154 605l-125 -589h132q179 0 282 80.5t131 214.5q8 42 8 75q0 102 -71.5 160.5t-221.5 58.5h-135zM10 0l132 620h148q157 0 232.5 -63t75.5 -171q0 -36 -9 -77q-30 -139 -138 -224t-291 -85h-150z"/>
<glyph glyph-name="E" unicode="E" horiz-adv-x="478" d="M461 605h-307l-54 -251h243l-3 -15h-243l-68 -323h393l-8 -16h-404l132 620h322z"/>
<glyph glyph-name="F" unicode="F" horiz-adv-x="422" d="M471 605h-317l-54 -251h239l-3 -15h-239l-72 -338h-15l132 619h332z"/>
<glyph glyph-name="G" unicode="G" horiz-adv-x="641" d="M621 554q-81 60 -188 60q-136 0 -238.5 -80t-133.5 -224q-9 -45 -9 -84q0 -106 64.5 -162.5t175.5 -56.5q56 0 119.5 20t112.5 57l48 228h15l-50 -238q-113 -83 -246 -83q-117 0 -186 61.5t-69 173.5q0 42 10 86q31 148 139 232.5t249 84.5q110 0 190 -59z"/>
<glyph glyph-name="H" unicode="H" horiz-adv-x="635" d="M505 0h-15l71 336h-464l-72 -336h-15l132 620h15l-57 -269h464l58 269h15z"/>
<glyph glyph-name="I" unicode="I" horiz-adv-x="155" d="M25 0h-15l132 620h15z"/>
<glyph glyph-name="J" unicode="J" horiz-adv-x="300" d="M225 233q-50 -236 -262 -237v16q106 1 164.5 56.5t82.5 166.5l82 385h15z"/>
<glyph glyph-name="K" unicode="K" horiz-adv-x="505" d="M128 364l336 -364h-21l-337 366l405 254h28zM25 0h-15l132 620h15z"/>
<glyph glyph-name="L" unicode="L" horiz-adv-x="408" d="M324 0h-314l132 620h15l-128 -604h303z"/>
<glyph glyph-name="M" unicode="M" horiz-adv-x="728" d="M-10 0h-15l245 625h18l115 -393l280 393h20l-20 -625h-15l19 607l-290 -408l-119 410z"/>
<glyph glyph-name="N" unicode="N" horiz-adv-x="652" d="M522 0h-14l-357 594l-126 -594h-15l132 620h11l359 -598l127 598h15z"/>
<glyph glyph-name="O" unicode="O" d="M423 614q-130 0 -231 -80t-131 -224q-9 -44 -9 -82q0 -107 65.5 -164.5t173.5 -57.5q129 0 231 80.5t132 224.5q9 43 9 81q0 107 -66 164.5t-174 57.5zM290 -9q-114 0 -183.5 62t-69.5 175q0 39 9 84q32 149 137.5 233t240.5 84q114 0 184 -61.5t70 -174.5q0 -39 -9 -84 q-32 -149 -138 -233.5t-241 -84.5z"/>
<glyph glyph-name="P" unicode="P" horiz-adv-x="508" d="M154 605l-82 -386h95q135 0 214.5 51t99.5 143q4 19 4 40q0 71 -58 111.5t-175 40.5h-98zM68 204l-43 -204h-15l132 620h111q121 0 184 -43.5t63 -120.5q0 -18 -5 -45q-21 -98 -105.5 -152.5t-223.5 -54.5h-98z"/>
<glyph glyph-name="Q" unicode="Q" horiz-adv-x="733" d="M422 613q-129 0 -230 -79.5t-131 -223.5q-9 -44 -9 -81q0 -107 65.5 -164.5t173.5 -57.5q140 0 244 91q-13 24 -21.5 36.5t-22.5 29t-31 26t-39 13.5l8 15q22 -5 40 -15.5t32.5 -27.5t23.5 -30.5t22 -35.5q83 84 107 202q9 43 9 81q0 107 -66 164t-175 57zM679 -4h-2 q-80 0 -134 89q-109 -93 -253 -93q-114 0 -183.5 62t-69.5 174q0 39 9 84q32 149 137.5 232.5t239.5 83.5q115 0 185 -61.5t70 -173.5q0 -39 -9 -84q-28 -128 -114 -214q26 -42 53.5 -63.5t76.5 -22.5z"/>
<glyph glyph-name="R" unicode="R" horiz-adv-x="531" d="M154 605l-63 -297h93q220 0 251 147q4 19 4 40q0 110 -168 110h-117zM477 -4h-5q-50 0 -82 30.5t-48 74t-32 87.5t-47 74.5t-80 30.5h-96l-62 -293h-15l132 620h130q182 0 182 -123q0 -17 -5 -44q-30 -148 -221 -156q35 -7 59.5 -40t39 -73.5t30.5 -80.5t44.5 -67 t70.5 -27q2 0 6 0.5t6 0.5z"/>
<glyph glyph-name="S" unicode="S" horiz-adv-x="471" d="M454 574q-74 40 -151 40q-81 0 -134.5 -34t-60.5 -94q-1 -6 -1 -18q0 -39 23 -66t57 -39.5t74.5 -27.5t74.5 -29.5t57 -45.5t23 -76q0 -8 -2 -28q-11 -75 -73 -120.5t-155 -45.5q-124 0 -209 68l10 11q80 -64 200 -64q88 0 144.5 42t66.5 111q2 20 2 27q0 42 -22.5 70.5 t-57 42t-74 28.5t-74 28.5t-57 42.5t-22.5 71q0 13 1 20q7 67 66 104t144 37q84 0 155 -40z"/>
<glyph glyph-name="T" unicode="T" horiz-adv-x="451" d="M500 605h-205l-129 -605h-15l128 605h-201l7 15h418z"/>
<glyph glyph-name="U" unicode="U" horiz-adv-x="629" d="M567 295q-32 -148 -110.5 -229.5t-204.5 -81.5q-197 0 -197 202q0 54 13 113l69 321h15l-69 -323q-13 -59 -13 -111q0 -187 183 -187q119 0 193.5 77.5t105.5 220.5l69 323h15z"/>
<glyph glyph-name="V" unicode="V" horiz-adv-x="562" d="M227 -5h-14l-141 625h15l137 -603l393 603h17z"/>
<glyph glyph-name="W" unicode="W" horiz-adv-x="803" d="M159 18l223 440l82 164h17l50 -605l327 603h17l-339 -624h-19l-49 602l-303 -602h-20l-73 624h16z"/>
<glyph glyph-name="X" unicode="X" horiz-adv-x="552" d="M300 349l191 -349h-18l-185 337l-327 -337h-22l342 351l-148 269h19l141 -257l249 257h21z"/>
<glyph glyph-name="Y" unicode="Y" horiz-adv-x="550" d="M272 229l-49 -229h-15l49 232l-195 388h17l188 -375l346 375h19z"/>
<glyph glyph-name="Z" unicode="Z" horiz-adv-x="559" d="M-26 15h519l-8 -15h-546l605 604h-429l8 15h455z"/>
<glyph glyph-name="bracketleft" unicode="[" horiz-adv-x="231" d="M307 734h-141l-185 -873h141l-4 -15h-156l192 903h156z"/>
<glyph glyph-name="backslash" unicode="\" horiz-adv-x="310" d="M224 0l-142 620h16l142 -620h-16z"/>
<glyph glyph-name="bracketright" unicode="]" horiz-adv-x="232" d="M84 -154h-157l3 15h142l186 875h-142l4 15h157z"/>
<glyph glyph-name="asciicircum" unicode="^" horiz-adv-x="464" d="M341 211l-78 209l-169 -209l-11 9l177 219h12l82 -221z"/>
<glyph glyph-name="underscore" unicode="_" horiz-adv-x="657" d="M593 -165h-720l3 15h720z"/>
<glyph glyph-name="grave" unicode="`" horiz-adv-x="423" d="M295 605l-21 111l16 4l20 -115h-15z"/>
<glyph glyph-name="a" unicode="a" horiz-adv-x="496" d="M275 411q-91 0 -155.5 -57t-83.5 -147q-7 -29 -7 -60q0 -66 35.5 -104t103.5 -38q21 0 43.5 4t55 19t60 39t52.5 68t37 102l24 111q-64 63 -165 63zM381 0h-15l28 134q-26 -45 -59.5 -76.5t-66 -44.5t-56 -18t-45.5 -5q-75 0 -114 42t-39 113q0 33 7 64q20 95 88.5 156 t166.5 61q60 0 100 -17t80 -55z"/>
<glyph glyph-name="b" unicode="b" horiz-adv-x="496" d="M297 411q-21 0 -43.5 -4t-55 -18.5t-60 -37.5t-52.5 -67t-37 -102l-25 -116q64 -61 166 -61q91 0 155.5 58t83.5 149q7 31 7 61q0 65 -35.5 101.5t-103.5 36.5zM189 -10q-60 0 -100.5 16.5t-80.5 53.5l119 560l16 4l-72 -339q23 45 55.5 75.5t66.5 43.5t58.5 17.5 t46.5 4.5q76 0 114.5 -40.5t38.5 -111.5q0 -33 -7 -64q-20 -96 -89 -158t-166 -62z"/>
<glyph glyph-name="c" unicode="c" horiz-adv-x="427" d="M405 369q-56 42 -123 42q-91 0 -158 -53t-88 -150q-6 -29 -6 -53q0 -71 44.5 -110.5t119.5 -39.5q73 0 155 47l6 -13q-84 -49 -162 -49q-81 0 -129.5 43t-48.5 119q0 23 7 58q21 102 93 159t168 57q69 0 127 -42z"/>
<glyph glyph-name="d" unicode="d" horiz-adv-x="496" d="M275 411q-91 0 -155.5 -57t-83.5 -147q-7 -29 -7 -60q0 -66 35.5 -104t103.5 -38q21 0 43.5 4t55 19t60 39t52.5 68t37 102l24 111q-64 63 -165 63zM381 0h-15l28 134q-81 -144 -227 -144q-75 0 -114 42t-39 113q0 33 7 64q20 95 88.5 156t166.5 61q54 0 92 -14t76 -47 l54 255l16 4z"/>
<glyph glyph-name="e" unicode="e" horiz-adv-x="457" d="M263 411q-74 0 -135 -48t-87 -134h354q6 29 6 51q0 64 -37.5 97.5t-100.5 33.5zM37 214q-8 -37 -8 -63q0 -71 43 -108.5t122 -37.5q82 0 161 49l6 -14q-79 -50 -168 -50q-85 0 -131.5 42t-46.5 117q0 30 7 61q21 98 88.5 157t153.5 59q75 0 113 -41t38 -107q0 -35 -8 -64 h-370z"/>
<glyph glyph-name="f" unicode="f" horiz-adv-x="244" d="M331 605q-31 10 -65 10q-86 0 -111 -121l-16 -76h124l-3 -15h-124l-86 -403h-15l86 403h-86l7 15h82l16 78q29 133 127 133q13 0 30 -2.5t27 -4.5l11 -3z"/>
<glyph glyph-name="g" unicode="g" horiz-adv-x="483" d="M269 411q-88 0 -150.5 -53.5t-79.5 -135.5q-6 -27 -6 -53q0 -60 35 -96t101 -36q26 0 56 8t67.5 28.5t68.5 66t45 110.5l22 105q-65 56 -159 56zM382 65q-15 -68 -37 -113.5t-52.5 -68.5t-61.5 -31.5t-73 -8.5q-41 0 -93 16.5t-91 49.5l12 11q35 -31 84.5 -46.5 t88.5 -15.5t67.5 7.5t57 29t49 64.5t34.5 108l19 87q-79 -132 -218 -132q-73 0 -111 40t-38 107q0 27 6 55q19 88 84.5 145t160.5 57t158 -51l17 -14z"/>
<glyph glyph-name="h" unicode="h" horiz-adv-x="482" d="M372 0h-15l46 216q9 45 9 79q0 59 -28 87.5t-89 28.5q-20 0 -42.5 -4t-54.5 -17.5t-59 -35.5t-51.5 -62t-35.5 -93l-42 -199h-15l132 620l16 4l-71 -334q21 41 53.5 70t65.5 42t58.5 18.5t46.5 5.5q132 0 132 -129q0 -31 -10 -83z"/>
<glyph glyph-name="i" unicode="i" horiz-adv-x="142" d="M18 0h-15l89 418h15zM125 530q-7 0 -11.5 4.5t-2.5 11.5q3 14 18 14q17 0 14 -16q-3 -14 -18 -14z"/>
<glyph glyph-name="j" unicode="j" horiz-adv-x="149" d="M35 16q-20 -92 -52 -132t-96 -41l-1 14q56 0 85.5 36t48.5 125l85 400h15zM137 530q-7 0 -11.5 4.5t-2.5 11.5q3 14 18 14q17 0 14 -16q-3 -14 -18 -14z"/>
<glyph glyph-name="k" unicode="k" horiz-adv-x="368" d="M88 242l239 -242h-22l-239 245l282 173h27zM10 0h-15l132 620l16 4z"/>
<glyph glyph-name="l" unicode="l" horiz-adv-x="125" d="M10 0h-15l132 620l16 4z"/>
<glyph glyph-name="m" unicode="m" horiz-adv-x="681" d="M571 0h-15l58 272q5 27 5 43q0 46 -25 71t-74 25q-20 0 -41 -5t-50 -20t-52.5 -50t-34.5 -87l-53 -249h-15l55 260q7 37 7 56q0 95 -98 95q-19 0 -39.5 -5t-49 -18.5t-51.5 -46.5t-33 -81l-55 -260h-15l89 418h15l-18 -82q52 90 158 90q51 0 81.5 -27.5t30.5 -74.5v-6 q17 34 41 57.5t49.5 33.5t44 13.5t35.5 3.5q55 0 83.5 -29.5t28.5 -80.5q0 -19 -5 -46z"/>
<glyph glyph-name="n" unicode="n" horiz-adv-x="482" d="M372 0h-15l46 219q10 50 10 78q0 114 -120 114q-27 0 -56.5 -7t-68 -26.5t-70 -64t-45.5 -109.5l-43 -204h-15l89 418h15l-25 -120q21 39 52.5 66t64 39.5t57.5 17.5t46 5q134 0 134 -128q0 -31 -10 -81z"/>
<glyph glyph-name="o" unicode="o" horiz-adv-x="500" d="M278 411q-86 0 -154 -53.5t-88 -150.5q-6 -30 -6 -54q0 -71 43.5 -109.5t116.5 -38.5q87 0 154.5 53.5t87.5 149.5q6 30 6 56q0 71 -43.5 109t-116.5 38zM189 -10q-78 0 -126 42.5t-48 119.5q0 27 6 57q22 102 94.5 159.5t163.5 57.5q79 0 126.5 -42.5t47.5 -119.5 q0 -26 -6 -58q-22 -101 -94 -158.5t-164 -57.5z"/>
<glyph glyph-name="p" unicode="p" horiz-adv-x="496" d="M297 413q-21 0 -43.5 -4t-55 -19t-60 -39t-52.5 -68t-37 -102l-24 -111q64 -63 164 -63q92 0 156.5 57t83.5 147q7 29 7 60q0 66 -35.5 104t-103.5 38zM188 -8q-54 0 -91.5 14t-75.5 47l-43 -206l-17 -4l123 575h15l-29 -134q25 45 57.5 76t66 44.5t58 18.5t46.5 5 q75 0 114 -42t39 -113q0 -33 -7 -64q-21 -96 -89.5 -156.5t-166.5 -60.5z"/>
<glyph glyph-name="q" unicode="q" horiz-adv-x="493" d="M274 411q-91 0 -155 -57.5t-83 -147.5q-7 -29 -7 -60q0 -65 35 -103t102 -38q21 0 44 4.5t55 19t59 38.5t52 68t37 101l24 115q-63 60 -163 60zM346 -153l-17 -4l62 290q-84 -143 -226 -143q-74 0 -112.5 42.5t-38.5 112.5q0 32 7 63q20 95 88.5 156.5t165.5 61.5 q108 0 179 -69z"/>
<glyph glyph-name="r" unicode="r" horiz-adv-x="284" d="M297 408q-18 2 -27 2q-83 0 -141 -60.5t-77 -151.5l-42 -198h-15l89 418h15l-27 -125q72 131 203 131q9 0 29 -2z"/>
<glyph glyph-name="s" unicode="s" horiz-adv-x="376" d="M347 380q-60 31 -129 31q-140 0 -149 -76q-1 -4 -1 -13q0 -32 25.5 -53t62 -32.5t72.5 -24t61.5 -37t25.5 -61.5q0 -5 -2 -19q-16 -105 -175 -105q-99 0 -170 50l13 12q64 -47 158 -47q145 0 160 91q1 6 1 16q0 35 -25.5 57t-62 34t-72.5 24t-61.5 35t-25.5 59q0 10 1 16 q12 89 165 89q75 0 133 -31z"/>
<glyph glyph-name="t" unicode="t" horiz-adv-x="271" d="M272 403h-146l-52 -244q-8 -36 -8 -67q0 -47 22 -65.5t68 -18.5q10 0 38 2l-9 -15q-22 -2 -32 -2q-51 0 -76.5 22.5t-25.5 75.5q0 34 8 70l52 242h-86l7 15h82l21 99l16 4l-22 -103h146z"/>
<glyph glyph-name="u" unicode="u" horiz-adv-x="477" d="M362 0h-15l25 119q-80 -129 -218 -129q-131 0 -131 127q0 40 10 84l46 217h15l-47 -219q-10 -50 -10 -80q0 -114 118 -114q21 0 43 3.5t53 17t57 35t49.5 61t34.5 92.5l44 204h15z"/>
<glyph glyph-name="v" unicode="v" horiz-adv-x="435" d="M164 -4h-12l-123 422h16l116 -401l285 401h18z"/>
<glyph glyph-name="w" unicode="w" horiz-adv-x="637" d="M407 0h-11l-53 392l-224 -392h-11l-79 418h16l74 -392l222 392h13l53 -392l242 392h17z"/>
<glyph glyph-name="x" unicode="x" horiz-adv-x="415" d="M205 222l149 -222h-18l-142 213l-233 -213h-22l247 224l-127 194h19l119 -184l199 184h22z"/>
<glyph glyph-name="y" unicode="y" horiz-adv-x="434" d="M61 -158l-15 4l100 143l-117 429h16l112 -413l288 413h18z"/>
<glyph glyph-name="z" unicode="z" horiz-adv-x="426" d="M-5 15h365l-8 -15h-393l422 403h-288l8 15h316z"/>
<glyph glyph-name="braceleft" unicode="{" horiz-adv-x="276" d="M352 735h-142q-2 -10 -27 -124.5t-33 -154.5q-13 -66 -36.5 -99t-63.5 -47q46 -24 46 -81q0 -27 -7 -58l-65 -310h140l-4 -15h-155l70 327q7 39 7 56q0 64 -57 75l3 14q45 8 68.5 38t38.5 102q54 250 63 292h158z"/>
<glyph glyph-name="bar" unicode="|" horiz-adv-x="145" d="M-8 -133l-16 -4l161 756l16 4z"/>
<glyph glyph-name="braceright" unicode="}" horiz-adv-x="276" d="M215 456q-9 -44 -9 -69q0 -32 13.5 -47.5t44.5 -24.5l-3 -11q-43 -7 -68.5 -40t-38.5 -93l-69 -325h-155l3 15h140l67 312q23 107 93 139q-42 20 -42 77q0 29 9 69l58 277h-142l3 15h158q-6 -30 -30 -143t-32 -151z"/>
<glyph glyph-name="asciitilde" unicode="~" horiz-adv-x="337" d="M172 248q-32 8 -53 8q-34 0 -69 -18l-6 14q38 19 74 19q19 0 53 -8q38 -9 57 -9q26 0 47 12l6 -12q-27 -14 -55 -14q-16 0 -54 8z"/>
<glyph glyph-name="uni00A0" unicode=" " horiz-adv-x="466"/>
<glyph glyph-name="exclamdown" unicode="¡" horiz-adv-x="132" d="M15 3q-1 -7 -9 -7q-5 0 -6 3.5t0 5.5l105 495h15zM133 592q-17 0 -14 16q3 14 18 14q7 0 11.5 -4.5t2.5 -11.5q-3 -14 -18 -14z"/>
<glyph glyph-name="cent" unicode="¢" horiz-adv-x="425" d="M282 411q-91 0 -158 -53t-87 -150q-6 -30 -6 -56q0 -104 92 -136l182 394q-9 1 -23 1zM405 369q-41 30 -85 39l-184 -396q24 -7 58 -7q73 0 155 47l6 -13q-84 -49 -162 -49q-32 0 -64 8l-40 -87h-15l42 91q-48 17 -74.5 56t-26.5 96q0 26 6 56q22 102 94 159t168 57 q9 0 29 -2l32 69h16l-33 -71q41 -8 83 -38z"/>
<glyph glyph-name="sterling" unicode="£" horiz-adv-x="414" d="M436 597q-52 17 -111 17q-85 0 -138.5 -34.5t-68.5 -98.5q-4 -20 -4 -31q0 -42 34 -122h191l-7 -15h-179q20 -51 20 -94q0 -3 -0.5 -8.5t-0.5 -8.5h107l-7 -15h-102q-27 -101 -153 -172h321l-8 -15h-344l-3 15q76 33 118.5 79.5t52.5 92.5h-131l3 15h131q1 7 1 21 q0 40 -20 90h-89l4 15h79q-33 80 -33 123q0 10 4 32q16 71 75 108.5t148 37.5q60 0 117 -18z"/>
<glyph glyph-name="yen" unicode="¥" horiz-adv-x="550" d="M286 245h125l-3 -15h-136l-24 -111h136l-3 -15h-136l-22 -104h-15l22 104h-135l3 15h135l24 111h-135l3 15h126l-189 375h17l188 -375l346 375h19z"/>
<glyph glyph-name="brokenbar" unicode="¦" horiz-adv-x="145" d="M-8 -132l-16 -4l73 342l16 4zM86 310l-16 -4l67 313l16 4z"/>
<glyph glyph-name="section" unicode="§" horiz-adv-x="423" d="M227 394q-125 0 -142 -82q-2 -10 -2 -15q0 -36 37 -53.5t88 -17.5q124 0 142 83q2 10 2 14q0 35 -37 53t-88 18zM425 571q-64 45 -147 45q-133 0 -149 -88q-2 -14 -2 -19q0 -34 24.5 -54.5t59.5 -30.5t70.5 -19.5t60 -29.5t24.5 -52q0 -13 -2 -21q-18 -84 -151 -89 q108 -29 108 -100q0 -13 -3 -28q-20 -95 -164 -95q-86 0 -156 49l11 11q64 -45 145 -45q132 0 150 87q2 8 2 21q0 33 -24.5 53.5t-59.5 30t-70 19.5t-59.5 29.5t-24.5 51.5q0 13 2 21q19 86 149 91q-107 19 -107 98q0 13 3 28q20 95 164 95q89 0 158 -49z"/>
<glyph glyph-name="dieresis" unicode="¨" horiz-adv-x="445" d="M351 605q-7 0 -11.5 4.5t-2.5 11.5q3 14 18 14q17 0 14 -16q-3 -14 -18 -14zM232 605q-7 0 -11.5 4.5t-2.5 11.5q3 14 18 14q17 0 14 -16q-4 -14 -18 -14z"/>
<glyph glyph-name="copyright" unicode="©" d="M514 452q-53 36 -108 36q-80 0 -138 -46t-76 -131q-5 -21 -5 -48q0 -61 38 -94.5t104 -33.5q64 0 137 41l5 -13q-75 -43 -143 -43q-72 0 -114.5 38t-42.5 106q0 28 5 49q19 89 82.5 139.5t148.5 50.5q61 0 111 -37zM423 614q-130 0 -231 -80t-131 -224q-9 -44 -9 -82 q0 -107 65.5 -164.5t173.5 -57.5q129 0 231 80.5t132 224.5q9 43 9 81q0 107 -66 164.5t-174 57.5zM290 -9q-114 0 -183.5 62t-69.5 175q0 39 9 84q32 149 137.5 233t240.5 84q114 0 184 -61.5t70 -174.5q0 -39 -9 -84q-32 -149 -138 -233.5t-241 -84.5z"/>
<glyph glyph-name="ordfeminine" unicode="ª" horiz-adv-x="501" d="M189 -3q-7 0 -10.5 4.5t-2.5 11.5q3 14 18 14q7 0 11 -4.5t2 -11.5q-2 -14 -18 -14zM319 614q-92 0 -156.5 -57t-83.5 -147q-7 -29 -7 -60q0 -66 35.5 -104t103.5 -38q21 0 43.5 4t55 19t60 39t52.5 68t37 102l24 111q-64 63 -164 63zM424 203h-15l29 134 q-83 -144 -228 -144q-75 0 -114 42t-39 113q0 33 7 64q21 96 89.5 156.5t166.5 60.5q59 0 99 -17t81 -55z"/>
<glyph glyph-name="guillemotleft" unicode="«" horiz-adv-x="378" d="M171 231l129 -174l-15 -6l-134 182l209 180l15 -7zM39 231l129 -174l-15 -6l-134 182l209 180l15 -7z"/>
<glyph glyph-name="registered" unicode="®" d="M303 489l-41 -191h18q99 0 147.5 18.5t58.5 78.5q2 16 2 21q0 43 -39 58t-126 15h-20zM350 291q29 -8 47.5 -30t26 -45t24 -47.5t40.5 -36.5l-8 -12q-30 16 -48 46.5t-26 56t-34 45t-72 19.5h-40l-36 -169h-15l81 383h33q91 0 134.5 -17.5t43.5 -68.5q0 -6 -2 -22 q-17 -96 -149 -102zM423 614q-130 0 -231 -80t-131 -224q-9 -44 -9 -82q0 -107 65.5 -164.5t173.5 -57.5q129 0 231 80.5t132 224.5q9 43 9 81q0 107 -66 164.5t-174 57.5zM290 -9q-114 0 -183.5 62t-69.5 175q0 39 9 84q32 149 137.5 233t240.5 84q114 0 184 -61.5 t70 -174.5q0 -39 -9 -84q-32 -149 -138 -233.5t-241 -84.5z"/>
<glyph glyph-name="macron" unicode="¯" horiz-adv-x="393" d="M362 605h-193l4 15h192z"/>
<glyph glyph-name="degree" unicode="°" horiz-adv-x="297" d="M219 610q-43 0 -76.5 -24.5t-42.5 -66.5q-2 -8 -2 -22q0 -33 21.5 -52t57.5 -19q44 0 77.5 25t42.5 68q2 8 2 22q0 33 -21.5 51t-58.5 18zM176 411q-41 0 -67 22t-26 61q0 14 3 27q10 47 48 75.5t86 28.5q42 0 68.5 -22t26.5 -60q0 -13 -3 -26q-10 -48 -48.5 -77 t-87.5 -29z"/>
<glyph glyph-name="uni00B2" unicode="²" horiz-adv-x="321" d="M90 295h184l-7 -15h-212l-4 9q225 119 249 228q3 13 3 25q0 33 -20.5 52t-58.5 19q-44 0 -95 -32l-1 18q49 29 97 29q43 0 68.5 -22.5t25.5 -60.5q0 -15 -4 -30q-15 -57 -66.5 -108t-158.5 -112z"/>
<glyph glyph-name="uni00B3" unicode="³" horiz-adv-x="337" d="M217 498q46 -2 71.5 -26.5t25.5 -62.5q0 -12 -3 -24q-12 -55 -52 -80.5t-91 -25.5q-26 0 -57.5 10.5t-51.5 35.5l11 9q35 -40 99 -40q46 0 81.5 22.5t45.5 70.5q3 12 3 24q0 36 -26.5 55.5t-70.5 19.5q-2 0 -7 -0.5t-7 -0.5l119 120h-164l7 15h192z"/>
<glyph glyph-name="acute" unicode="´" horiz-adv-x="423" d="M267 605h-17l69 115l15 -4z"/>
<glyph glyph-name="uni00B5" unicode="µ" horiz-adv-x="477" d="M362 0h-15l25 119q-75 -129 -218 -129q-59 0 -91 24t-38 80l-52 -247l-17 -4l123 575h15l-47 -219q-10 -50 -10 -80q0 -114 118 -114q21 0 43 3.5t53 17t57 35t49.5 61t34.5 92.5l44 204h15z"/>
<glyph glyph-name="paragraph" unicode="¶" horiz-adv-x="329" d="M167 -153l-17 -4l106 494h-43q-57 0 -95.5 34.5t-38.5 89.5q0 15 3 31q15 68 65 102t115 34h71z"/>
<glyph glyph-name="periodcentered" unicode="·" horiz-adv-x="132" d="M56 228q-7 0 -11.5 4.5t-2.5 11.5q3 14 18 14q17 0 14 -16q-4 -14 -18 -14z"/>
<glyph glyph-name="cedilla" unicode="¸" horiz-adv-x="352" d="M81 -189q-31 0 -64 10l6 15q30 -10 58 -10q93 0 105 58q2 10 2 15q0 41 -75 41h-11l26 71h16l-21 -56q80 -7 80 -56q0 -6 -2 -18q-15 -70 -120 -70z"/>
<glyph glyph-name="uni00B9" unicode="¹" horiz-adv-x="227" d="M158 287h-15l67 315l-103 -36l-4 13l115 41h11z"/>
<glyph glyph-name="ordmasculine" unicode="º" horiz-adv-x="500" d="M190 -3q-7 0 -10.5 4.5t-2.5 11.5q3 14 18 14q7 0 11 -4.5t2 -11.5q-2 -14 -18 -14zM322 614q-87 0 -154.5 -53.5t-88.5 -150.5q-6 -28 -6 -54q0 -71 44 -109.5t116 -38.5q87 0 154.5 53.5t87.5 149.5q6 30 6 56q0 71 -43.5 109t-115.5 38zM232 193q-78 0 -126 42.5 t-48 119.5q0 27 6 57q22 102 94.5 159.5t164.5 57.5q78 0 125.5 -42.5t47.5 -119.5q0 -27 -6 -58q-22 -101 -94 -158.5t-164 -57.5z"/>
<glyph glyph-name="guillemotright" unicode="»" horiz-adv-x="378" d="M129 51l-15 7l203 175l-128 174l15 6l133 -182zM-3 51l-15 7l203 175l-128 174l15 6l133 -182z"/>
<glyph glyph-name="onequarter" unicode="¼" horiz-adv-x="704" d="M598 15l-8 -15h-212l-3 9q226 119 248 228q3 13 3 26q0 33 -20.5 51.5t-57.5 18.5q-44 0 -96 -32v18q49 29 97 29q43 0 67.5 -23t24.5 -62q0 -13 -3 -28q-11 -50 -66.5 -108.5t-157.5 -111.5h184zM168 287h-15l67 315l-103 -36l-4 13l115 41h11zM87 0h-20l483 620h19z "/>
<glyph glyph-name="onehalf" unicode="½" horiz-adv-x="686" d="M346 90h171l46 217zM588 75h-59l-16 -75h-15l16 75h-195l-1 8l250 249h16l-52 -242h63zM168 287h-15l67 315l-103 -36l-4 13l115 41h11zM100 0h-20l483 620h19z"/>
<glyph glyph-name="threequarters" unicode="¾" horiz-adv-x="755" d="M415 90h171l46 217zM657 75h-59l-16 -75h-15l16 75h-195l-1 8l250 249h16l-52 -242h63zM169 0h-20l483 620h19zM217 498q46 -2 71.5 -26.5t25.5 -62.5q0 -12 -3 -24q-12 -55 -52 -80.5t-91 -25.5q-26 0 -57.5 10.5t-51.5 35.5l11 9q35 -40 99 -40q46 0 81.5 22.5 t45.5 70.5q3 12 3 24q0 36 -26.5 55.5t-70.5 19.5q-2 0 -7 -0.5t-7 -0.5l119 120h-164l7 15h192z"/>
<glyph glyph-name="questiondown" unicode="¿" horiz-adv-x="271" d="M201 453q2 -9 2 -26q0 -34 -17 -66t-42.5 -59t-51.5 -53t-49 -57.5t-31 -62.5q-3 -15 -3 -29q0 -42 26 -68t77 -26q22 0 62 8l-5 -16q-34 -7 -58 -7q-58 0 -87.5 30.5t-29.5 76.5q0 11 4 33q7 32 29 64.5t49 58.5t52.5 52.5t43 56.5t17.5 60q0 11 -3 25zM230 629 q7 0 10.5 -4.5t2.5 -11.5q-3 -14 -18 -14q-7 0 -11 4.5t-2 11.5q2 14 18 14z"/>
<glyph glyph-name="Agrave" unicode="À" horiz-adv-x="584" d="M362 608l-286 -434h386zM502 0l-37 160h-397l-105 -160h-19l411 623h18l146 -623h-17zM366 689l-21 111l16 4l20 -115h-15z"/>
<glyph glyph-name="Aacute" unicode="Á" horiz-adv-x="584" d="M362 608l-286 -434h386zM502 0l-37 160h-397l-105 -160h-19l411 623h18l146 -623h-17zM389 690h-17l70 115l15 -4z"/>
<glyph glyph-name="Acircumflex" unicode="Â" horiz-adv-x="584" d="M362 608l-286 -434h386zM502 0l-37 160h-397l-105 -160h-19l411 623h18l146 -623h-17zM487 685l-84 80l-117 -80l-17 7l130 88h12l94 -88z"/>
<glyph glyph-name="Atilde" unicode="Ã" horiz-adv-x="584" d="M362 608l-286 -434h386zM502 0l-37 160h-397l-105 -160h-19l411 623h18l146 -623h-17zM400 697q-38 9 -53 9q-32 0 -69 -19l-7 14q39 19 75 19q24 0 52 -7q38 -9 57 -9q27 0 47 13l6 -14q-30 -15 -57 -15q-19 0 -51 9z"/>
<glyph glyph-name="Adieresis" unicode="Ä" horiz-adv-x="584" d="M362 608l-286 -434h386zM502 0l-37 160h-397l-105 -160h-19l411 623h18l146 -623h-17zM448 691q-7 0 -11.5 4.5t-2.5 11.5q3 14 18 14q17 0 14 -16q-4 -14 -18 -14zM329 691q-7 0 -11.5 4.5t-2.5 11.5q3 14 18 14q17 0 14 -16q-3 -14 -18 -14z"/>
<glyph glyph-name="Aring" unicode="Å" horiz-adv-x="584" d="M362 608l-286 -434h386zM502 0l-37 160h-397l-105 -160h-19l411 623h18l146 -623h-17zM402 790q-44 0 -54 -43q-1 -4 -1 -12q0 -31 35 -31q25 0 41 17t16 37q0 32 -37 32zM381 690q-22 0 -36 12t-14 33q0 4 2 14q6 26 25.5 41t44.5 15t37.5 -13t12.5 -32q0 -26 -20 -48 t-52 -22z"/>
<glyph glyph-name="AE" unicode="Æ" horiz-adv-x="827" d="M105 174h291l90 425zM810 605h-307l-54 -251h243l-3 -15h-243l-68 -323h393l-8 -16h-404l34 160h-300l-143 -160h-21l557 620h327z"/>
<glyph glyph-name="Ccedilla" unicode="Ç" horiz-adv-x="598" d="M615 549q-83 65 -189 65q-133 0 -233.5 -80t-131.5 -224q-9 -44 -9 -82q0 -106 65.5 -164.5t176.5 -58.5q116 0 231 69l6 -14q-118 -70 -238 -70h-9l-17 -50q81 -5 81 -56q0 -6 -2 -18q-15 -70 -120 -70q-31 0 -64 10l6 15q29 -10 58 -10q93 0 105 58q2 10 2 15 q0 41 -75 41h-11l22 66q-107 6 -169.5 68t-62.5 169q0 39 9 84q31 148 137 232.5t244 84.5q112 0 191 -65z"/>
<glyph glyph-name="Egrave" unicode="È" horiz-adv-x="478" d="M461 605h-307l-54 -251h243l-3 -15h-243l-68 -323h393l-8 -16h-404l132 620h322zM306 688l-21 111l15 4l21 -115h-15z"/>
<glyph glyph-name="Eacute" unicode="É" horiz-adv-x="478" d="M461 605h-307l-54 -251h243l-3 -15h-243l-68 -323h393l-8 -16h-404l132 620h322zM308 690h-17l70 115l15 -4z"/>
<glyph glyph-name="Ecircumflex" unicode="Ê" horiz-adv-x="478" d="M461 605h-307l-54 -251h243l-3 -15h-243l-68 -323h393l-8 -16h-404l132 620h322zM424 686l-84 80l-118 -80l-17 7l130 88h12l94 -88z"/>
<glyph glyph-name="Edieresis" unicode="Ë" horiz-adv-x="478" d="M461 605h-307l-54 -251h243l-3 -15h-243l-68 -323h393l-8 -16h-404l132 620h322zM372 692q-7 0 -11 4.5t-3 11.5q3 14 18 14q17 0 14 -16q-4 -14 -18 -14zM253 692q-7 0 -11 4.5t-3 11.5q3 14 18 14q17 0 14 -16q-3 -14 -18 -14z"/>
<glyph glyph-name="Igrave" unicode="Ì" horiz-adv-x="161" d="M25 0h-15l132 620h15zM156 691l-20 111l15 4l21 -115h-16z"/>
<glyph glyph-name="Iacute" unicode="Í" horiz-adv-x="160" d="M25 0h-15l132 620h15zM172 691h-17l70 115l15 -4z"/>
<glyph glyph-name="Icircumflex" unicode="Î" horiz-adv-x="160" d="M25 0h-15l132 620h15zM263 684l-84 80l-118 -80l-16 7l130 88h12l94 -88z"/>
<glyph glyph-name="Idieresis" unicode="Ï" horiz-adv-x="156" d="M25 0h-15l132 620h15zM223 688q-7 0 -10.5 4.5t-2.5 11.5q2 14 18 14q7 0 11 -4.5t2 -11.5q-2 -14 -18 -14zM104 688q-7 0 -10.5 4.5t-2.5 11.5q2 14 18 14q7 0 11 -4.5t2 -11.5q-2 -14 -18 -14z"/>
<glyph glyph-name="Eth" unicode="Ð" horiz-adv-x="639" d="M160 605l-54 -251h138l-3 -15h-138l-68 -323h142q179 0 282 80.5t131 214.5q8 42 8 75q0 102 -71.5 160.5t-221.5 58.5h-145zM16 0l72 339h-61l7 15h57l57 266h158q157 0 232.5 -63t75.5 -171q0 -36 -9 -77q-30 -139 -138 -224t-291 -85h-160z"/>
<glyph glyph-name="Ntilde" unicode="Ñ" horiz-adv-x="652" d="M522 0h-14l-357 594l-126 -594h-15l132 620h11l359 -598l127 598h15zM472 693q-18 0 -52 10q-36 9 -53 9q-32 0 -69 -19l-7 14q39 19 75 19q24 0 52 -7q37 -9 49 -10h7q24 0 48 14l7 -14q-30 -16 -57 -16z"/>
<glyph glyph-name="Ograve" unicode="Ò" d="M423 614q-130 0 -231 -80t-131 -224q-9 -44 -9 -82q0 -107 65.5 -164.5t173.5 -57.5q129 0 231 80.5t132 224.5q9 43 9 81q0 107 -66 164.5t-174 57.5zM290 -9q-114 0 -183.5 62t-69.5 175q0 39 9 84q32 149 137.5 233t240.5 84q114 0 184 -61.5t70 -174.5q0 -39 -9 -84 q-32 -149 -138 -233.5t-241 -84.5zM424 690l-21 111l16 4l20 -115h-15z"/>
<glyph glyph-name="Oacute" unicode="Ó" d="M423 614q-130 0 -231 -80t-131 -224q-9 -44 -9 -82q0 -107 65.5 -164.5t173.5 -57.5q129 0 231 80.5t132 224.5q9 43 9 81q0 107 -66 164.5t-174 57.5zM290 -9q-114 0 -183.5 62t-69.5 175q0 39 9 84q32 149 137.5 233t240.5 84q114 0 184 -61.5t70 -174.5q0 -39 -9 -84 q-32 -149 -138 -233.5t-241 -84.5zM436 690h-17l70 115l15 -4z"/>
<glyph glyph-name="Ocircumflex" unicode="Ô" d="M423 614q-130 0 -231 -80t-131 -224q-9 -44 -9 -82q0 -107 65.5 -164.5t173.5 -57.5q129 0 231 80.5t132 224.5q9 43 9 81q0 107 -66 164.5t-174 57.5zM290 -9q-114 0 -183.5 62t-69.5 175q0 39 9 84q32 149 137.5 233t240.5 84q114 0 184 -61.5t70 -174.5q0 -39 -9 -84 q-32 -149 -138 -233.5t-241 -84.5zM535 685l-84 80l-117 -80l-17 7l130 88h12l94 -88z"/>
<glyph glyph-name="Otilde" unicode="Õ" d="M423 614q-130 0 -231 -80t-131 -224q-9 -44 -9 -82q0 -107 65.5 -164.5t173.5 -57.5q129 0 231 80.5t132 224.5q9 43 9 81q0 107 -66 164.5t-174 57.5zM290 -9q-114 0 -183.5 62t-69.5 175q0 39 9 84q32 149 137.5 233t240.5 84q114 0 184 -61.5t70 -174.5q0 -39 -9 -84 q-32 -149 -138 -233.5t-241 -84.5zM504 689q-18 0 -52 10q-36 9 -52 9q-33 0 -70 -19l-7 14q39 19 75 19q24 0 52 -7q37 -9 49 -10h7q24 0 48 14l7 -14q-30 -16 -57 -16z"/>
<glyph glyph-name="Odieresis" unicode="Ö" d="M423 614q-130 0 -231 -80t-131 -224q-9 -44 -9 -82q0 -107 65.5 -164.5t173.5 -57.5q129 0 231 80.5t132 224.5q9 43 9 81q0 107 -66 164.5t-174 57.5zM290 -9q-114 0 -183.5 62t-69.5 175q0 39 9 84q32 149 137.5 233t240.5 84q114 0 184 -61.5t70 -174.5q0 -39 -9 -84 q-32 -149 -138 -233.5t-241 -84.5zM489 691q-7 0 -11.5 4.5t-2.5 11.5q3 14 18 14q17 0 14 -16q-3 -14 -18 -14zM370 691q-7 0 -11.5 4.5t-2.5 11.5q3 14 18 14q17 0 14 -16q-4 -14 -18 -14z"/>
<glyph glyph-name="multiply" unicode="×" horiz-adv-x="472" d="M239 244l126 -160l-13 -10l-125 161l-195 -161l-9 12l195 160l-126 160l12 9l126 -159l192 159l10 -12z"/>
<glyph glyph-name="Oslash" unicode="Ø" d="M181 25q47 -19 110 -19q129 0 231 80.5t132 224.5q9 43 9 80q0 141 -116 197zM423 614q-130 0 -231 -80t-131 -224q-9 -44 -9 -82q0 -141 115 -197l366 563q-50 20 -110 20zM290 -9q-61 0 -118 21l-65 -101h-17l68 107q-121 60 -121 210q0 39 9 84q32 149 137.5 233 t240.5 84q62 0 118 -21l53 82h18l-58 -89q123 -59 123 -210q0 -39 -9 -82q-32 -149 -138 -233.5t-241 -84.5z"/>
<glyph glyph-name="Ugrave" unicode="Ù" horiz-adv-x="629" d="M567 295q-32 -148 -110.5 -229.5t-204.5 -81.5q-197 0 -197 202q0 54 13 113l69 321h15l-69 -323q-13 -59 -13 -111q0 -187 183 -187q119 0 193.5 77.5t105.5 220.5l69 323h15zM395 691l-20 111l15 4l21 -115h-16z"/>
<glyph glyph-name="Uacute" unicode="Ú" horiz-adv-x="629" d="M567 295q-32 -148 -110.5 -229.5t-204.5 -81.5q-197 0 -197 202q0 54 13 113l69 321h15l-69 -323q-13 -59 -13 -111q0 -187 183 -187q119 0 193.5 77.5t105.5 220.5l69 323h15zM403 692h-17l69 115l15 -4z"/>
<glyph glyph-name="Ucircumflex" unicode="Û" horiz-adv-x="629" d="M567 295q-32 -148 -110.5 -229.5t-204.5 -81.5q-197 0 -197 202q0 54 13 113l69 321h15l-69 -323q-13 -59 -13 -111q0 -187 183 -187q119 0 193.5 77.5t105.5 220.5l69 323h15zM502 685l-84 80l-117 -80l-17 7l130 88h12l94 -88z"/>
<glyph glyph-name="Udieresis" unicode="Ü" horiz-adv-x="629" d="M567 295q-32 -148 -110.5 -229.5t-204.5 -81.5q-197 0 -197 202q0 54 13 113l69 321h15l-69 -323q-13 -59 -13 -111q0 -187 183 -187q119 0 193.5 77.5t105.5 220.5l69 323h15zM458 689q-7 0 -11.5 4.5t-2.5 11.5q3 14 18 14q17 0 14 -16q-4 -14 -18 -14zM339 689 q-7 0 -11.5 4.5t-2.5 11.5q3 14 18 14q17 0 14 -16q-3 -14 -18 -14z"/>
<glyph glyph-name="Yacute" unicode="Ý" horiz-adv-x="550" d="M272 229l-49 -229h-15l49 232l-195 388h17l188 -375l346 375h19zM371 689h-17l69 115l15 -4z"/>
<glyph glyph-name="Thorn" unicode="Þ" horiz-adv-x="528" d="M134 513l-82 -386h116q135 0 214.5 51t98.5 143q5 23 5 41q0 70 -58.5 110.5t-175.5 40.5h-118zM49 112l-24 -112h-15l132 620h15l-20 -92h116q122 0 185 -44t63 -121q0 -19 -5 -44q-21 -98 -105.5 -152.5t-223.5 -54.5h-118z"/>
<glyph glyph-name="germandbls" unicode="ß" horiz-adv-x="434" d="M92 -4l4 14q109 0 180.5 55.5t90.5 146.5q6 27 6 50q0 139 -194 141l3 14q128 3 149 99q3 15 3 30q0 68 -79 68q-95 0 -123 -130l-103 -484h-15l86 403h-65l8 15h60l14 68q30 143 139 143q93 0 93 -80q0 -18 -4 -35q-9 -44 -41 -71t-80 -33q164 -15 164 -147 q0 -25 -6 -53q-22 -104 -102.5 -159t-187.5 -55z"/>
<glyph glyph-name="agrave" unicode="à" horiz-adv-x="496" d="M275 411q-91 0 -155.5 -57t-83.5 -147q-7 -29 -7 -60q0 -66 35.5 -104t103.5 -38q21 0 43.5 4t55 19t60 39t52.5 68t37 102l24 111q-64 63 -165 63zM381 0h-15l28 134q-26 -45 -59.5 -76.5t-66 -44.5t-56 -18t-45.5 -5q-75 0 -114 42t-39 113q0 33 7 64q20 95 88.5 156 t166.5 61q60 0 100 -17t80 -55zM271 485l-21 111l16 4l20 -115h-15z"/>
<glyph glyph-name="aacute" unicode="á" horiz-adv-x="496" d="M275 411q-91 0 -155.5 -57t-83.5 -147q-7 -29 -7 -60q0 -66 35.5 -104t103.5 -38q21 0 43.5 4t55 19t60 39t52.5 68t37 102l24 111q-64 63 -165 63zM381 0h-15l28 134q-26 -45 -59.5 -76.5t-66 -44.5t-56 -18t-45.5 -5q-75 0 -114 42t-39 113q0 33 7 64q20 95 88.5 156 t166.5 61q60 0 100 -17t80 -55zM298 483h-17l70 115l15 -4z"/>
<glyph glyph-name="acircumflex" unicode="â" horiz-adv-x="496" d="M275 411q-91 0 -155.5 -57t-83.5 -147q-7 -29 -7 -60q0 -66 35.5 -104t103.5 -38q21 0 43.5 4t55 19t60 39t52.5 68t37 102l24 111q-64 63 -165 63zM381 0h-15l28 134q-26 -45 -59.5 -76.5t-66 -44.5t-56 -18t-45.5 -5q-75 0 -114 42t-39 113q0 33 7 64q20 95 88.5 156 t166.5 61q60 0 100 -17t80 -55zM398 476l-84 80l-118 -80l-16 7l130 88h12l93 -88z"/>
<glyph glyph-name="atilde" unicode="ã" horiz-adv-x="496" d="M275 411q-91 0 -155.5 -57t-83.5 -147q-7 -29 -7 -60q0 -66 35.5 -104t103.5 -38q21 0 43.5 4t55 19t60 39t52.5 68t37 102l24 111q-64 63 -165 63zM381 0h-15l28 134q-26 -45 -59.5 -76.5t-66 -44.5t-56 -18t-45.5 -5q-75 0 -114 42t-39 113q0 33 7 64q20 95 88.5 156 t166.5 61q60 0 100 -17t80 -55zM350 480q-17 0 -51 10q-38 9 -53 9q-32 0 -69 -19l-7 14q39 19 75 19q24 0 52 -7q37 -9 49 -10h7q24 0 48 14l6 -14q-28 -16 -57 -16z"/>
<glyph glyph-name="adieresis" unicode="ä" horiz-adv-x="496" d="M275 411q-91 0 -155.5 -57t-83.5 -147q-7 -29 -7 -60q0 -66 35.5 -104t103.5 -38q21 0 43.5 4t55 19t60 39t52.5 68t37 102l24 111q-64 63 -165 63zM381 0h-15l28 134q-26 -45 -59.5 -76.5t-66 -44.5t-56 -18t-45.5 -5q-75 0 -114 42t-39 113q0 33 7 64q20 95 88.5 156 t166.5 61q60 0 100 -17t80 -55zM352 485q-7 0 -11 4.5t-3 11.5q3 14 18 14q17 0 14 -16q-4 -14 -18 -14zM233 485q-7 0 -11 4.5t-3 11.5q3 14 18 14q17 0 14 -16q-3 -14 -18 -14z"/>
<glyph glyph-name="aring" unicode="å" horiz-adv-x="496" d="M275 411q-91 0 -155.5 -57t-83.5 -147q-7 -29 -7 -60q0 -66 35.5 -104t103.5 -38q21 0 43.5 4t55 19t60 39t52.5 68t37 102l24 111q-64 63 -165 63zM381 0h-15l28 134q-26 -45 -59.5 -76.5t-66 -44.5t-56 -18t-45.5 -5q-75 0 -114 42t-39 113q0 33 7 64q20 95 88.5 156 t166.5 61q60 0 100 -17t80 -55zM301 579q-44 0 -54 -43q-1 -4 -1 -12q0 -31 35 -31q25 0 41.5 17t16.5 37q0 14 -9.5 23t-28.5 9zM280 479q-22 0 -35.5 12.5t-13.5 33.5q0 8 1 13q6 26 25.5 41t44.5 15t38 -13.5t13 -32.5q0 -26 -20.5 -47.5t-52.5 -21.5z"/>
<glyph glyph-name="ae" unicode="æ" horiz-adv-x="846" d="M652 411q-74 0 -135 -48t-87 -134h354q6 29 6 51q0 64 -37.5 97.5t-100.5 33.5zM275 411q-91 0 -155.5 -57t-83.5 -147q-7 -29 -7 -60q0 -66 35.5 -104t103.5 -38q21 0 43.5 4t55 19t60 39t52.5 68t37 102l24 111q-64 63 -165 63zM427 214l-4 -16q-6 -27 -6 -52 q0 -67 43.5 -104t122.5 -37q74 0 153 49l6 -13q-81 -51 -160 -51q-75 0 -122 32t-53 98l-26 -120h-15l28 134q-84 -144 -227 -144q-75 0 -114 42t-39 113q0 33 7 64q20 95 88.5 156t166.5 61q60 0 100 -17t80 -55l-12 -56q33 59 91 93.5t118 34.5q75 0 113 -41t38 -107 q0 -35 -8 -64h-369z"/>
<glyph glyph-name="ccedilla" unicode="ç" horiz-adv-x="427" d="M405 369q-56 42 -123 42q-91 0 -158 -53t-88 -150q-6 -29 -6 -53q0 -71 44.5 -110.5t119.5 -39.5q73 0 155 47l6 -13q-84 -49 -162 -49h-14l-14 -45q80 -5 80 -56q0 -6 -2 -18q-15 -70 -120 -70q-31 0 -64 10l6 15q30 -10 58 -10q93 0 105 58q2 10 2 15q0 41 -75 41h-11 l20 62q-69 7 -108.5 49t-39.5 112q0 27 6 57q21 102 93 159t168 57q69 0 127 -42z"/>
<glyph glyph-name="egrave" unicode="è" horiz-adv-x="457" d="M263 411q-74 0 -135 -48t-87 -134h354q6 29 6 51q0 64 -37.5 97.5t-100.5 33.5zM37 214q-8 -37 -8 -63q0 -71 43 -108.5t122 -37.5q82 0 161 49l6 -14q-79 -50 -168 -50q-85 0 -131.5 42t-46.5 117q0 30 7 61q21 98 88.5 157t153.5 59q75 0 113 -41t38 -107q0 -35 -8 -64 h-370zM275 483l-21 111l16 4l20 -115h-15z"/>
<glyph glyph-name="eacute" unicode="é" horiz-adv-x="457" d="M263 411q-74 0 -135 -48t-87 -134h354q6 29 6 51q0 64 -37.5 97.5t-100.5 33.5zM37 214q-8 -37 -8 -63q0 -71 43 -108.5t122 -37.5q82 0 161 49l6 -14q-79 -50 -168 -50q-85 0 -131.5 42t-46.5 117q0 30 7 61q21 98 88.5 157t153.5 59q75 0 113 -41t38 -107q0 -35 -8 -64 h-370zM278 483h-17l70 115l15 -4z"/>
<glyph glyph-name="ecircumflex" unicode="ê" horiz-adv-x="457" d="M263 411q-74 0 -135 -48t-87 -134h354q6 29 6 51q0 64 -37.5 97.5t-100.5 33.5zM37 214q-8 -37 -8 -63q0 -71 43 -108.5t122 -37.5q82 0 161 49l6 -14q-79 -50 -168 -50q-85 0 -131.5 42t-46.5 117q0 30 7 61q21 98 88.5 157t153.5 59q75 0 113 -41t38 -107q0 -35 -8 -64 h-370zM379 481l-84 80l-118 -80l-16 7l130 88h12l93 -88z"/>
<glyph glyph-name="edieresis" unicode="ë" horiz-adv-x="457" d="M263 411q-74 0 -135 -48t-87 -134h354q6 29 6 51q0 64 -37.5 97.5t-100.5 33.5zM37 214q-8 -37 -8 -63q0 -71 43 -108.5t122 -37.5q82 0 161 49l6 -14q-79 -50 -168 -50q-85 0 -131.5 42t-46.5 117q0 30 7 61q21 98 88.5 157t153.5 59q75 0 113 -41t38 -107q0 -35 -8 -64 h-370zM335 481q-7 0 -10.5 4.5t-2.5 11.5q2 14 18 14q7 0 11 -4.5t2 -11.5q-2 -14 -18 -14zM216 481q-7 0 -10.5 4.5t-2.5 11.5q2 14 18 14q7 0 11 -4.5t2 -11.5q-2 -14 -18 -14z"/>
<glyph glyph-name="igrave" unicode="ì" horiz-adv-x="129" d="M10 0h-15l89 418h15zM99 482l-21 111l16 4l20 -115h-15z"/>
<glyph glyph-name="iacute" unicode="í" horiz-adv-x="125" d="M10 0h-15l89 418h15zM113 482h-17l69 115l15 -4z"/>
<glyph glyph-name="icircumflex" unicode="î" horiz-adv-x="125" d="M10 0h-15l89 418h15zM206 478l-84 80l-117 -80l-17 7l130 88h12l94 -88z"/>
<glyph glyph-name="idieresis" unicode="ï" horiz-adv-x="136" d="M10 0h-15l89 418h15zM169 484q-7 0 -11.5 4.5t-2.5 11.5q3 14 18 14q17 0 14 -16q-3 -14 -18 -14zM50 484q-7 0 -11.5 4.5t-2.5 11.5q3 14 18 14q17 0 14 -16q-4 -14 -18 -14z"/>
<glyph glyph-name="eth" unicode="ð" horiz-adv-x="503" d="M436 346q-73 60 -160 60q-85 0 -153 -55t-84 -132q-7 -31 -7 -61q0 -73 43.5 -111.5t116.5 -38.5q88 0 156 56.5t90 158.5q6 24 6 55q0 33 -8 68zM466 551l-93 -20l28 -55q58 -112 58 -197q0 -33 -6 -58q-22 -108 -95.5 -168t-166.5 -60q-79 0 -126.5 43t-47.5 122 q0 31 7 63q18 81 89.5 139t162.5 58q82 0 156 -50q-15 43 -72 160l-100 -20l3 15l90 19l-41 78l16 3l38 -78l103 21z"/>
<glyph glyph-name="ntilde" unicode="ñ" horiz-adv-x="482" d="M372 0h-15l46 219q10 50 10 78q0 114 -120 114q-27 0 -56.5 -7t-68 -26.5t-70 -64t-45.5 -109.5l-43 -204h-15l89 418h15l-25 -120q21 39 52.5 66t64 39.5t57.5 17.5t46 5q134 0 134 -128q0 -31 -10 -81zM294 496q-36 9 -52 9q-33 0 -70 -19l-6 14q38 19 74 19 q24 0 52 -7q38 -9 57 -9q27 0 47 13l7 -14q-30 -15 -57 -15q-20 0 -52 9z"/>
<glyph glyph-name="ograve" unicode="ò" horiz-adv-x="500" d="M278 411q-86 0 -154 -53.5t-88 -150.5q-6 -30 -6 -54q0 -71 43.5 -109.5t116.5 -38.5q87 0 154.5 53.5t87.5 149.5q6 30 6 56q0 71 -43.5 109t-116.5 38zM189 -10q-78 0 -126 42.5t-48 119.5q0 27 6 57q22 102 94.5 159.5t163.5 57.5q79 0 126.5 -42.5t47.5 -119.5 q0 -26 -6 -58q-22 -101 -94 -158.5t-164 -57.5zM288 483l-21 111l16 4l20 -115h-15z"/>
<glyph glyph-name="oacute" unicode="ó" horiz-adv-x="500" d="M278 411q-86 0 -154 -53.5t-88 -150.5q-6 -30 -6 -54q0 -71 43.5 -109.5t116.5 -38.5q87 0 154.5 53.5t87.5 149.5q6 30 6 56q0 71 -43.5 109t-116.5 38zM189 -10q-78 0 -126 42.5t-48 119.5q0 27 6 57q22 102 94.5 159.5t163.5 57.5q79 0 126.5 -42.5t47.5 -119.5 q0 -26 -6 -58q-22 -101 -94 -158.5t-164 -57.5zM299 482h-17l69 115l15 -4z"/>
<glyph glyph-name="ocircumflex" unicode="ô" horiz-adv-x="500" d="M278 411q-86 0 -154 -53.5t-88 -150.5q-6 -30 -6 -54q0 -71 43.5 -109.5t116.5 -38.5q87 0 154.5 53.5t87.5 149.5q6 30 6 56q0 71 -43.5 109t-116.5 38zM189 -10q-78 0 -126 42.5t-48 119.5q0 27 6 57q22 102 94.5 159.5t163.5 57.5q79 0 126.5 -42.5t47.5 -119.5 q0 -26 -6 -58q-22 -101 -94 -158.5t-164 -57.5zM393 479l-84 80l-118 -80l-16 7l130 88h12l94 -88z"/>
<glyph glyph-name="otilde" unicode="õ" horiz-adv-x="500" d="M278 411q-86 0 -154 -53.5t-88 -150.5q-6 -30 -6 -54q0 -71 43.5 -109.5t116.5 -38.5q87 0 154.5 53.5t87.5 149.5q6 30 6 56q0 71 -43.5 109t-116.5 38zM189 -10q-78 0 -126 42.5t-48 119.5q0 27 6 57q22 102 94.5 159.5t163.5 57.5q79 0 126.5 -42.5t47.5 -119.5 q0 -26 -6 -58q-22 -101 -94 -158.5t-164 -57.5zM305 491q-36 9 -52 9q-33 0 -70 -19l-6 14q38 19 74 19q24 0 52 -7q38 -9 57 -9q28 0 47 13l7 -14q-30 -15 -57 -15q-20 0 -52 9z"/>
<glyph glyph-name="odieresis" unicode="ö" horiz-adv-x="500" d="M278 411q-86 0 -154 -53.5t-88 -150.5q-6 -30 -6 -54q0 -71 43.5 -109.5t116.5 -38.5q87 0 154.5 53.5t87.5 149.5q6 30 6 56q0 71 -43.5 109t-116.5 38zM189 -10q-78 0 -126 42.5t-48 119.5q0 27 6 57q22 102 94.5 159.5t163.5 57.5q79 0 126.5 -42.5t47.5 -119.5 q0 -26 -6 -58q-22 -101 -94 -158.5t-164 -57.5zM349 484q-7 0 -11.5 4.5t-2.5 11.5q3 14 18 14q17 0 14 -16q-3 -14 -18 -14zM230 484q-7 0 -11.5 4.5t-2.5 11.5q3 14 18 14q17 0 14 -16q-4 -14 -18 -14z"/>
<glyph glyph-name="divide" unicode="÷" horiz-adv-x="566" d="M232 48q-7 0 -10.5 4.5t-2.5 11.5q2 14 18 14t13 -16q-2 -14 -18 -14zM491 235h-436l3 15h436zM309 408q-7 0 -11.5 4.5t-2.5 11.5q3 14 18 14q17 0 14 -16q-3 -14 -18 -14z"/>
<glyph glyph-name="oslash" unicode="ø" horiz-adv-x="500" d="M150 8q24 -3 40 -3q87 0 154.5 53.5t87.5 149.5q6 30 6 55q0 109 -104 140zM278 411q-86 0 -154 -53.5t-88 -150.5q-6 -30 -6 -55q0 -112 106 -141l184 396q-30 4 -42 4zM189 -10q-13 0 -45 4l-39 -83h-15l39 86q-114 34 -114 155q0 27 6 57q22 102 94.5 159.5 t163.5 57.5q18 0 48 -5l33 72h16l-35 -75q53 -15 82.5 -55t29.5 -100q0 -27 -6 -57q-22 -101 -94 -158.5t-164 -57.5z"/>
<glyph glyph-name="ugrave" unicode="ù" horiz-adv-x="477" d="M362 0h-15l25 119q-80 -129 -218 -129q-131 0 -131 127q0 40 10 84l46 217h15l-47 -219q-10 -50 -10 -80q0 -114 118 -114q21 0 43 3.5t53 17t57 35t49.5 61t34.5 92.5l44 204h15zM262 485l-21 111l16 4l20 -115h-15z"/>
<glyph glyph-name="uacute" unicode="ú" horiz-adv-x="477" d="M362 0h-15l25 119q-80 -129 -218 -129q-131 0 -131 127q0 40 10 84l46 217h15l-47 -219q-10 -50 -10 -80q0 -114 118 -114q21 0 43 3.5t53 17t57 35t49.5 61t34.5 92.5l44 204h15zM277 483h-17l69 115l15 -4z"/>
<glyph glyph-name="ucircumflex" unicode="û" horiz-adv-x="477" d="M362 0h-15l25 119q-80 -129 -218 -129q-131 0 -131 127q0 40 10 84l46 217h15l-47 -219q-10 -50 -10 -80q0 -114 118 -114q21 0 43 3.5t53 17t57 35t49.5 61t34.5 92.5l44 204h15zM375 481l-84 80l-118 -80l-16 7l130 88h12l94 -88z"/>
<glyph glyph-name="udieresis" unicode="ü" horiz-adv-x="477" d="M362 0h-15l25 119q-80 -129 -218 -129q-131 0 -131 127q0 40 10 84l46 217h15l-47 -219q-10 -50 -10 -80q0 -114 118 -114q21 0 43 3.5t53 17t57 35t49.5 61t34.5 92.5l44 204h15zM327 482q-7 0 -11.5 4.5t-2.5 11.5q3 14 18 14q17 0 14 -16q-3 -14 -18 -14zM208 482 q-7 0 -11.5 4.5t-2.5 11.5q3 14 18 14q17 0 14 -16q-4 -14 -18 -14z"/>
<glyph glyph-name="yacute" unicode="ý" horiz-adv-x="434" d="M61 -158l-15 4l100 143l-117 429h16l112 -413l288 413h18zM267 484h-17l70 115l15 -4z"/>
<glyph glyph-name="thorn" unicode="þ" horiz-adv-x="493" d="M297 413q-21 0 -43.5 -4t-55 -19t-60 -39t-52.5 -68t-37 -102l-24 -111q64 -63 164 -63q92 0 156.5 57t83.5 147q7 29 7 60q0 66 -35.5 104t-103.5 38zM188 -8q-54 0 -91.5 14t-75.5 47l-43 -206l-17 -4l166 777l16 5l-73 -341q26 45 59 76.5t66 44.5t57 18t46 5 q75 0 114 -42t39 -113q0 -33 -7 -64q-21 -96 -89.5 -156.5t-166.5 -60.5z"/>
</font>
</defs>
</svg>
