<?xml version="1.0" encoding="UTF-8" standalone="no"?>
<!DOCTYPE svg  PUBLIC '-//W3C//DTD SVG 1.1//EN'  'http://www.w3.org/Graphics/SVG/1.1/DTD/svg11.dtd'>
<svg xmlns="http://www.w3.org/2000/svg" version="1.1">
<defs>
<font id="Serenity-ExtraLightItalic" horiz-adv-x="500">
<font-face x-height="418" font-family="Serenity Extra Light" font-weight="200" units-per-em="1000" cap-height="620" underline-position="-150" unicode-range="U+0020-00FE" panose-1="0 0 3 0 0 0 0 0 0 0" descent="-200" font-style="italic" ascent="800" underline-thickness="50" bbox="-128 -206 882 817"/>
<missing-glyph/>
<glyph glyph-name="space" unicode=" " horiz-adv-x="216"/>
<glyph glyph-name="exclam" unicode="!" d="M26 44q25 0 25 -21v-5q-7 -25 -34 -25q-25 0 -25 21q0 14 10 22t24 8zM32 131q69 306 101 475q5 22 21 22h2q14 -3 10 -22l-107 -475h-27z" horiz-adv-x="157"/>
<glyph glyph-name="quotedbl" unicode='&quot;' d="M221 363h-34l52 257h39zM107 363h-34l52 257h39z" horiz-adv-x="261"/>
<glyph glyph-name="numbersign" unicode="#" d="M247 373l-57 -107h137l57 107h-137zM522 373h-103l-57 -107h104l-15 -30h-105l-122 -236h-35l122 236h-137l-93 -181h-35l93 181h-113l7 30h122l57 107h-116l6 31h125l111 216h35l-111 -216h137l84 163h34l-83 -163h103z" horiz-adv-x="539"/>
<glyph glyph-name="dollar" unicode="$" d="M387 181q0 28 -10.5 49t-33 36.5t-41.5 24.5t-52 22l-131 -281q33 -8 72 -8q88 0 142 43t54 114zM129 466q0 -44 28.5 -68t82.5 -45l110 237q-21 4 -49 4q-77 0 -124.5 -33.5t-47.5 -94.5zM34 -91l46 99q-55 17 -103 53l23 27q38 -31 94 -49l131 283q-32 12 -52 22 t-41.5 27t-32 40t-10.5 53q0 78 62 121.5t155 43.5q21 0 59 -6l31 66h29l-33 -72q39 -10 75 -30l-10 -33q-41 22 -80 31l-113 -242q39 -14 59.5 -23.5t48.5 -28t40.5 -44.5t12.5 -62q0 -88 -65.5 -141.5t-170.5 -53.5q-36 0 -84 11l-43 -92h-28z" horiz-adv-x="479"/>
<glyph glyph-name="percent" unicode="%" d="M500 247q-46 0 -82.5 -30t-48.5 -81q-3 -16 -3 -30q0 -38 23 -59t61 -21q46 0 82.5 29.5t47.5 81.5q3 17 3 30q0 38 -22.5 59t-60.5 21zM447 -6q-50 0 -81 29.5t-31 79.5q0 19 4 36q15 63 61.5 101.5t101.5 38.5q50 0 81.5 -29.5t31.5 -79.5q0 -20 -4 -37 q-14 -63 -60 -101t-104 -38zM245 596q-46 0 -83 -30t-49 -81q-3 -17 -3 -30q0 -38 23 -58.5t61 -20.5q46 0 82.5 28.5t48.5 81.5q3 16 3 30q0 37 -23 58.5t-60 21.5zM87 0h-39l551 620h39zM191 343q-50 0 -81 29.5t-31 79.5q0 19 4 36q15 63 61 102t103 39q50 0 81.5 -29.5 t31.5 -79.5q0 -20 -4 -37q-16 -63 -62 -101.5t-103 -38.5z" horiz-adv-x="686"/>
<glyph glyph-name="ampersand" unicode="&amp;" d="M423 81q-16 32 -66 135t-78 160q-52 -6 -97 -23.5t-81.5 -55t-44.5 -89.5q-3 -16 -3 -33q0 -68 48.5 -109.5t128.5 -41.5q108 0 193 57zM502 2l-38 -4l-28 55q-87 -60 -212 -60q-95 0 -152.5 49t-57.5 131q0 17 3 37q14 82 83 131.5t166 62.5l-100 205l7 11h346l1 -31 h-307q39 -78 120 -247t116 -239q94 85 94 210v10h35q0 -150 -112 -250z" horiz-adv-x="608"/>
<glyph glyph-name="quotesingle" unicode="&apos;" d="M107 363h-34l52 257h39z" horiz-adv-x="147"/>
<glyph glyph-name="parenleft" unicode="(" d="M81 285q-22 -105 -22 -167q0 -88 38.5 -149t128.5 -100l-18 -32q-101 44 -144 112.5t-43 166.5q0 75 22 176q19 87 42.5 150t64 120.5t101.5 100t147 73.5l5 -32q-62 -23 -110 -54t-81.5 -67t-59 -84t-41.5 -98t-30 -116z" horiz-adv-x="324"/>
<glyph glyph-name="parenright" unicode=")" d="M-79 -131q77 29 132.5 69t91.5 94.5t58 113.5t39 141q22 101 22 172q0 88 -38 148t-128 98l18 31q101 -43 144 -111t43 -166q0 -76 -22 -178q-19 -86 -42.5 -148.5t-63.5 -120t-101 -100.5t-147 -75z" horiz-adv-x="323"/>
<glyph glyph-name="asterisk" unicode="*" d="M252 450q111 -70 117 -74l-20 -26l-113 76q-20 -98 -29 -147h-37l33 146l-145 -75l-9 28l148 74l-117 75l21 26l113 -77l29 144h36l-33 -143q21 11 70 37.5t74 38.5l11 -27z" horiz-adv-x="380"/>
<glyph glyph-name="plus" unicode="+" d="M489 228h-202l-47 -220h-38l46 220h-201l6 31h202l46 221h39l-47 -221h203z" horiz-adv-x="560"/>
<glyph glyph-name="comma" unicode="," d="M-38 -86l-29 11l140 231h43z" horiz-adv-x="162"/>
<glyph glyph-name="hyphen" unicode="-" d="M242 229h-225l6 31h226z" horiz-adv-x="284"/>
<glyph glyph-name="period" unicode="." d="M-3 -3q-24 0 -24 20q0 4 1 6q5 25 33 25q25 0 25 -20q0 -4 -1 -7q-3 -24 -34 -24z" horiz-adv-x="117"/>
<glyph glyph-name="slash" unicode="/" d="M-11 0h-41l394 620h41z" horiz-adv-x="321"/>
<glyph glyph-name="zero" unicode="0" d="M336 595q-89 0 -155 -73t-96 -212q-14 -67 -14 -115q0 -119 71 -154q27 -14 67 -14h8q89 2 154 75t94 209q13 61 13 112q0 85 -37 128.5t-105 43.5zM209 -9q-86 0 -132 54t-46 154q0 53 13 114q32 151 109.5 233.5t186.5 82.5q86 0 132 -53.5t46 -152.5q0 -54 -13 -115 q-32 -151 -110 -234t-186 -83z" horiz-adv-x="539"/>
<glyph glyph-name="one" unicode="1" d="M142 0h-40l122 579l-147 -60l-1 34l177 71h22z" horiz-adv-x="272"/>
<glyph glyph-name="two" unicode="2" d="M365 34l-16 -34h-377v15q65 47 110 81t111 90t106.5 101.5t70.5 99t30 98.5q0 12 -1 18q-9 89 -122 89h-9q-92 -3 -165 -61l-2 38q76 59 181 59q75 0 117.5 -35.5t42.5 -99.5q0 -23 -6 -49q-20 -88 -120 -189t-272 -221h321z" horiz-adv-x="447"/>
<glyph glyph-name="three" unicode="3" d="M207 376h11q90 0 139 -42t49 -114q0 -22 -2 -33q-14 -89 -88.5 -142.5t-171.5 -53.5q-108 0 -179 63l25 27q62 -56 153 -56q82 0 145.5 45.5t74.5 119.5q3 18 3 32q0 68 -48 99.5t-125 31.5q-23 0 -47 -3q0 4 -2 10q41 34 128.5 114.5t125.5 112.5h-286l15 33h338l1 -11z " horiz-adv-x="457"/>
<glyph glyph-name="four" unicode="4" d="M36 181h285l81 383zM447 148h-93l-32 -148h-40l32 148h-330v19l433 453h37l-93 -439h101z" horiz-adv-x="504"/>
<glyph glyph-name="five" unicode="5" d="M457 587h-250l-77 -217q56 15 106 15q86 0 139 -42t53 -118q0 -10 -2 -30q-13 -96 -86 -149.5t-172 -53.5q-61 0 -115.5 20.5t-89.5 48.5l24 28q31 -26 82 -45t97 -19q84 0 145.5 44.5t72.5 125.5q2 20 2 29q0 69 -48.5 102t-121.5 33q-61 0 -122 -22l-10 9l97 274h291z " horiz-adv-x="479"/>
<glyph glyph-name="six" unicode="6" d="M122 335q-45 -56 -59 -119q-6 -28 -6 -53q0 -67 39 -103t105 -36q81 0 143.5 50t76.5 142q2 10 2 29q0 59 -38.5 98t-105.5 39q-72 0 -157 -47zM198 -9q-80 0 -130 44.5t-50 124.5q0 22 7 59q21 100 165 252l145 154l42 -7q-14 -15 -52 -53t-61 -61.5t-57 -61.5t-63 -73 q77 40 146 40q78 0 125.5 -48t47.5 -119q0 -20 -2 -30q-17 -104 -92 -162.5t-171 -58.5z" horiz-adv-x="516"/>
<glyph glyph-name="seven" unicode="7" d="M90 -4l-38 8l367 583h-336l15 33h379z" horiz-adv-x="425"/>
<glyph glyph-name="eight" unicode="8" d="M254 324q-73 0 -129 -40t-71 -112q-4 -17 -4 -37q0 -54 37 -83t99 -29q74 0 129 37.5t71 112.5q4 17 4 37q0 55 -37.5 84.5t-98.5 29.5zM313 598q-55 0 -102 -33t-58 -90q-3 -15 -3 -29q0 -45 30 -70.5t78 -25.5q58 0 105 34.5t59 92.5q3 13 3 27q0 44 -31 68.5t-81 25.5 zM313 338q54 -10 85 -44t31 -86q0 -16 -5 -41q-18 -86 -85 -131t-156 -45q-77 0 -125.5 36.5t-48.5 103.5q0 17 5 42q15 67 63 110.5t122 54.5q-40 11 -63 40.5t-23 71.5q0 14 3 31q14 68 72 107.5t128 39.5q64 0 106 -32.5t42 -88.5q0 -15 -3 -30q-11 -53 -52 -91t-96 -48z " horiz-adv-x="488"/>
<glyph glyph-name="nine" unicode="9" d="M403 284q45 56 59 119q6 29 6 53q0 67 -39 103t-105 36q-81 0 -143.5 -50t-76.5 -142q-2 -10 -2 -29q0 -60 39 -98.5t105 -38.5q72 0 157 47zM327 628q80 0 130 -44.5t50 -124.5q0 -22 -7 -59q-21 -100 -165 -252l-145 -154l-42 7q14 15 52 53t61 61.5t57 61.5t63 73 q-77 -40 -146 -40q-78 0 -125.5 48t-47.5 119q0 20 2 30q17 104 92 162.5t171 58.5z" horiz-adv-x="516"/>
<glyph glyph-name="colon" unicode=":" d="M-3 -3q-24 0 -24 20q0 4 1 6q5 25 33 25q25 0 25 -20q0 -4 -1 -7q-3 -24 -34 -24zM77 369q-25 0 -25 21q0 13 10.5 21.5t23.5 8.5q25 0 25 -21v-5q-5 -25 -34 -25z" horiz-adv-x="117"/>
<glyph glyph-name="semicolon" unicode=";" d="M-38 -86l-29 11l140 231h43zM118 369q-25 0 -25 21q0 14 10 22t24 8q25 0 25 -21v-5q-7 -25 -34 -25z" horiz-adv-x="187"/>
<glyph glyph-name="less" unicode="&lt;" d="M338 393l-260 -152l194 -153l-6 -33l-238 179l5 20l313 179z" horiz-adv-x="354"/>
<glyph glyph-name="equal" unicode="=" d="M432 151h-402l6 30h403zM466 313h-402l7 30h401z" horiz-adv-x="520"/>
<glyph glyph-name="greater" unicode="&gt;" d="M303 233l-313 -180l8 40l259 152l-194 153l7 33l238 -178z" horiz-adv-x="354"/>
<glyph glyph-name="question" unicode="?" d="M61 -3q-24 0 -24 21v5q6 25 34 25q25 0 25 -21q0 -4 -1 -6q-3 -24 -34 -24zM86 180q-4 20 -4 30q0 31 16 61q13 26 43 59t55.5 58t45.5 60t20 68q0 8 -1 13q-3 32 -26.5 51.5t-64.5 19.5q-23 0 -66 -11l10 36q40 9 66 9q60 0 91 -31t31 -78q0 -15 -3 -32q-7 -32 -29 -64 t-48.5 -57.5t-52 -51t-42.5 -54t-17 -57.5q0 -11 3 -23z" horiz-adv-x="284"/>
<glyph glyph-name="at" unicode="@" d="M400 472q-81 0 -137 -60.5t-56 -142.5q0 -51 32 -81.5t86 -30.5q25 0 49.5 9t52.5 30.5t51 66.5t36 108l12 57q-50 44 -126 44zM486 242q-66 -111 -164 -111q-65 0 -105 37.5t-40 101.5q0 96 65 164t159 68q52 0 87.5 -15.5t69.5 -47.5l-59 -275q61 10 112 89t51 166 q0 90 -65.5 135.5t-175.5 45.5q-66 0 -129.5 -24.5t-114.5 -69t-82.5 -116t-31.5 -157.5q0 -104 69 -158.5t193 -54.5q127 0 239 56l9 -25q-129 -60 -251 -60q-134 0 -210.5 62.5t-76.5 177.5q0 92 34.5 169.5t90 126t123.5 75.5t139 27q119 0 193.5 -52t74.5 -153 q0 -31 -7 -65q-22 -106 -82 -163.5t-138 -59.5z" horiz-adv-x="708"/>
<glyph glyph-name="A" unicode="A" d="M358 567l-256 -389h345zM488 0l-35 148h-369l-97 -148h-47l418 625h20l153 -625h-43z" horiz-adv-x="593"/>
<glyph glyph-name="B" unicode="B" d="M119 332l-63 -298h97q116 0 178 32t81 118q4 19 4 38q0 59 -52 84.5t-165 25.5h-80zM173 588q-31 -151 -47 -225h65q114 0 166.5 22.5t66.5 87.5q3 15 3 28q0 49 -44 68t-134 19h-76zM310 349q146 -15 146 -126q0 -18 -5 -43q-22 -104 -99.5 -142t-215.5 -38h-128 l132 620h112q101 0 157 -25t56 -89q0 -18 -4 -35q-24 -110 -151 -122z" horiz-adv-x="512"/>
<glyph glyph-name="C" unicode="C" d="M609 531q-83 64 -184 64q-123 0 -217 -74.5t-123 -210.5q-9 -42 -9 -79q0 -95 57.5 -151t168.5 -56q106 0 220 68l13 -29q-118 -73 -239 -73q-118 0 -189.5 63.5t-71.5 177.5q0 39 9 82q32 149 137.5 232.5t244.5 83.5q115 0 192 -63z" horiz-adv-x="600"/>
<glyph glyph-name="D" unicode="D" d="M174 587l-118 -553h115q166 0 262.5 76t122.5 201q8 40 8 71q0 95 -66.5 150t-206.5 55h-117zM8 0l132 620h153q158 0 234.5 -63.5t76.5 -172.5q0 -41 -8 -76q-30 -139 -137.5 -223.5t-292.5 -84.5h-158z" horiz-adv-x="630"/>
<glyph glyph-name="E" unicode="E" d="M464 587h-291l-48 -226h228l-7 -34h-228l-62 -293h376l-16 -34h-408l132 620h331z" horiz-adv-x="488"/>
<glyph glyph-name="F" unicode="F" d="M474 587h-301l-48 -226h224l-7 -34h-224l-69 -326h-41l132 619h341z" horiz-adv-x="427"/>
<glyph glyph-name="G" unicode="G" d="M616 535q-80 60 -184 60q-126 0 -221 -75t-126 -210q-10 -47 -10 -80q0 -95 59 -149.5t166 -54.5q50 0 106.5 17t100.5 49l47 225h40l-52 -244q-114 -82 -247 -82q-119 0 -190 62t-71 175q0 35 10 85q32 150 139 233t250 83q115 0 192 -58z" horiz-adv-x="647"/>
<glyph glyph-name="H" unicode="H" d="M512 0h-40l69 326h-423l-70 -326h-40l132 620h40l-55 -260h423l56 260h40z" horiz-adv-x="642"/>
<glyph glyph-name="I" unicode="I" d="M49 0h-41l132 620h40z" horiz-adv-x="179"/>
<glyph glyph-name="J" unicode="J" d="M236 232q-26 -120 -91.5 -178t-178.5 -59l-1 35q102 0 156 52.5t77 163.5l80 374h40z" horiz-adv-x="311"/>
<glyph glyph-name="K" unicode="K" d="M183 361l309 -361h-50l-312 365l374 255h63zM49 0h-41l132 620h40z" horiz-adv-x="532"/>
<glyph glyph-name="L" unicode="L" d="M331 0h-323l132 620h40l-124 -586h291z" horiz-adv-x="419"/>
<glyph glyph-name="M" unicode="M" d="M14 0h-41l246 625h19l120 -374l279 374h21l-19 -625h-39l17 541l-272 -365l-119 369z" horiz-adv-x="734"/>
<glyph glyph-name="N" unicode="N" d="M529 -1h-17l-349 542l-114 -541h-41l132 621h14l352 -545l115 544h40z" horiz-adv-x="659"/>
<glyph glyph-name="O" unicode="O" d="M420 595q-120 0 -213.5 -75t-121.5 -210q-9 -42 -9 -78q0 -99 60.5 -153t160.5 -54q119 0 213.5 75.5t122.5 210.5q9 42 9 77q0 99 -61 153t-161 54zM295 -9q-116 0 -188 63.5t-72 177.5q0 38 9 81q32 149 137.5 232.5t241.5 83.5q116 0 188 -63.5t72 -176.5 q0 -37 -9 -81q-32 -149 -137.5 -233t-241.5 -84z" horiz-adv-x="708"/>
<glyph glyph-name="P" unicode="P" d="M174 587l-76 -356h45h45q121 0 194.5 47.5t91.5 131.5q4 17 4 37q0 64 -53.5 102t-157.5 38h-93zM91 198q-30 -136 -42 -198h-41l132 620h126q123 0 187 -45t64 -123q0 -18 -5 -45q-21 -100 -105.5 -154.5t-224.5 -54.5h-91z" horiz-adv-x="526"/>
<glyph glyph-name="Q" unicode="Q" d="M420 594q-120 0 -213.5 -74.5t-121.5 -209.5q-9 -42 -9 -78q0 -99 60.5 -152.5t160.5 -53.5q125 0 221 81q-26 41 -50.5 64t-64.5 29l16 33q42 -7 70 -32.5t56 -67.5q68 74 90 181q8 42 8 73q0 99 -61 153t-162 54zM678 -4h-5q-83 0 -136 84q-106 -88 -242 -88 q-116 0 -188 63.5t-72 176.5q0 38 9 81q32 149 137 232t241 83q117 0 189 -63t72 -176q0 -38 -9 -80q-26 -121 -109 -206q26 -39 53 -56.5t74 -18.5z" horiz-adv-x="738"/>
<glyph glyph-name="R" unicode="R" d="M173 584l-57 -267h83q195 2 224 134q4 17 4 35q0 101 -154 101zM488 -4q-95 0 -133 89q-7 15 -21.5 51.5t-20.5 50t-21.5 38t-30 34t-38.5 18t-54 8.5h-60l-60 -285h-41l132 620h127q197 0 197 -136q0 -16 -3 -36q-12 -70 -66 -108.5t-133 -46.5q27 -10 48.5 -34.5 t31.5 -46.5t24.5 -60t21.5 -53q17 -37 42.5 -54.5t68.5 -17.5z" horiz-adv-x="542"/>
<glyph glyph-name="S" unicode="S" d="M457 554q-72 40 -156 40q-77 0 -124.5 -33.5t-47.5 -94.5q0 -42 30.5 -69t74 -42.5t87 -32.5t74 -51t30.5 -86q0 -88 -65.5 -141.5t-170.5 -53.5q-113 0 -212 71l23 27q39 -31 91 -47.5t100 -16.5q88 0 142 43t54 114q0 45 -30.5 74.5t-74.5 45.5t-88 33t-74.5 49 t-30.5 81q0 78 62 121.5t155 43.5q88 0 161 -42z" horiz-adv-x="479"/>
<glyph glyph-name="T" unicode="T" d="M496 587h-192l-125 -587h-40l124 587h-192l16 33h416z" horiz-adv-x="451"/>
<glyph glyph-name="U" unicode="U" d="M573 295q-66 -310 -317 -310q-102 0 -152.5 52.5t-50.5 150.5q0 46 13 111l69 321h40l-66 -311q-14 -70 -14 -118q0 -172 164 -172q215 0 276 290l67 311h40z" horiz-adv-x="635"/>
<glyph glyph-name="V" unicode="V" d="M233 -5h-17l-146 625h41l125 -560l364 560h45z" horiz-adv-x="573"/>
<glyph glyph-name="W" unicode="W" d="M178 72l287 551h20l55 -551l299 548h43l-348 -624h-22l-53 544l-284 -544h-22l-83 624h41z" horiz-adv-x="810"/>
<glyph glyph-name="X" unicode="X" d="M318 349l185 -349h-45l-168 319l-302 -319h-50l335 353l-143 267h46l125 -237l224 237h51z" horiz-adv-x="564"/>
<glyph glyph-name="Y" unicode="Y" d="M289 228l-48 -228h-40l48 230q-26 54 -90.5 187.5t-98.5 202.5h43l171 -356l321 356h49z" horiz-adv-x="562"/>
<glyph glyph-name="Z" unicode="Z" d="M18 34h486l-16 -34h-550l571 586h-397l17 33h459z" horiz-adv-x="566"/>
<glyph glyph-name="bracketleft" unicode="[" d="M322 712h-139l-175 -829h138l-7 -34h-178l191 897h177z" horiz-adv-x="251"/>
<glyph glyph-name="backslash" unicode="\" d="M213 0l-133 620h38l133 -620h-38z" horiz-adv-x="321"/>
<glyph glyph-name="bracketright" unicode="]" d="M105 -151h-179l7 34h140l177 831h-140l8 34h178z" horiz-adv-x="252"/>
<glyph glyph-name="asciicircum" unicode="^" d="M329 199l-72 200l-159 -200l-27 16l188 232h14l87 -234z" horiz-adv-x="462"/>
<glyph glyph-name="underscore" unicode="_" d="M601 -162h-729l6 28h728z" horiz-adv-x="664"/>
<glyph glyph-name="grave" unicode="`" d="M289 598l-31 114l39 8l21 -122h-29z" horiz-adv-x="425"/>
<glyph glyph-name="a" unicode="a" d="M273 392q-93 0 -157.5 -73t-64.5 -168q0 -59 31 -92.5t91 -33.5q42 0 78 15.5t60 39.5t43 57t29.5 63t17.5 62l17 77q-59 53 -145 53zM382 0h-35l23 111q-86 -121 -204 -121q-73 0 -113 42.5t-40 113.5q0 112 75.5 196t186.5 84q106 0 182 -73z"/>
<glyph glyph-name="b" unicode="b" d="M192 24q91 0 156.5 73.5t65.5 167.5q0 59 -31 92.5t-92 33.5q-52 0 -95 -26.5t-70 -68.5t-43.5 -83.5t-24.5 -81.5l-6 -27t-5 -27q58 -53 145 -53zM125 614l37 9l-70 -332q86 135 211 135q73 0 111 -42t38 -114q0 -107 -75 -193.5t-187 -86.5q-106 0 -182 73z"/>
<glyph glyph-name="c" unicode="c" d="M398 354q-51 38 -118 38q-92 0 -161 -61.5t-69 -169.5q0 -62 39.5 -99t110.5 -37q65 0 145 44l14 -29q-84 -50 -164 -50q-83 0 -132.5 44.5t-49.5 122.5q0 124 80.5 196.5t186.5 72.5q70 0 128 -39z" horiz-adv-x="430"/>
<glyph glyph-name="d" unicode="d" d="M273 392q-79 0 -138.5 -53.5t-77.5 -132.5q-6 -26 -6 -52q0 -56 30 -92.5t93 -36.5q52 0 95 26.5t70 68.5t43.5 83t24.5 82l11 54q-58 53 -145 53zM514 621q-17 -89 -67 -319q-56 -263 -64 -302h-36l26 125q-44 -74 -100.5 -104.5t-106.5 -30.5q-73 0 -113 46.5 t-40 116.5q0 23 7 56q22 93 89.5 155t160.5 62q94 0 155 -54v-2l52 244l37 9v-2z"/>
<glyph glyph-name="e" unicode="e" d="M261 395q-66 0 -121 -41.5t-78 -115.5h318q4 20 4 41q0 57 -33 86.5t-90 29.5zM54 205q-5 -32 -5 -50q0 -64 39 -97t111 -33q79 0 154 46l14 -30q-83 -50 -172 -50q-90 0 -136 42.5t-46 121.5q0 119 75 195t175 76q76 0 114.5 -41.5t38.5 -108.5q0 -37 -10 -71h-352z" horiz-adv-x="461"/>
<glyph glyph-name="f" unicode="f" d="M334 582q-27 12 -62 12q-41 0 -65 -26.5t-36 -81.5l-15 -68h117l-6 -33h-118l-81 -385h-35l82 385h-85l14 33h77l15 70q29 139 134 139q20 0 39 -3.5t27 -6.5l9 -3z" horiz-adv-x="259"/>
<glyph glyph-name="g" unicode="g" d="M266 392q-93 0 -153 -64.5t-60 -154.5q0 -53 31.5 -85t90.5 -32q23 0 51.5 9.5t61.5 29.5t60.5 60.5t39.5 94.5q14 62 20 94q-61 48 -142 48zM385 68q-27 -127 -84.5 -175.5t-143.5 -48.5q-44 0 -96.5 18t-88.5 49l27 27q30 -27 77 -43t83 -16q72 0 119 39t71 146l16 70 q-43 -59 -98.5 -85t-104.5 -26q-70 0 -107 40.5t-37 106.5q0 105 71 180.5t180 75.5q98 0 179 -65z" horiz-adv-x="489"/>
<glyph glyph-name="h" unicode="h" d="M374 0h-35l46 222q7 37 7 63q0 109 -111 109q-27 0 -54.5 -8.5t-59.5 -29t-58.5 -64.5t-39.5 -107l-39 -185h-36l131 615l36 8l-65 -306q76 109 195 109q72 0 105 -37t33 -100q0 -30 -8 -67z" horiz-adv-x="487"/>
<glyph glyph-name="i" unicode="i" d="M37 0h-36l89 418h35zM131 519q-24 0 -24 20q0 4 1 6q5 24 30 24q10 0 17 -5.5t7 -14.5q0 -4 -1 -6q-2 -10 -10.5 -17t-19.5 -7z" horiz-adv-x="160"/>
<glyph glyph-name="j" unicode="j" d="M52 20q-20 -96 -54.5 -135t-107.5 -39l-1 32q56 1 83 32t44 110l84 398h36zM141 519q-24 0 -24 20q0 4 1 6q5 24 30 24q23 0 23 -22q0 -12 -9.5 -20t-20.5 -8z" horiz-adv-x="166"/>
<glyph glyph-name="k" unicode="k" d="M133 242l214 -242h-46l-217 246l255 172h59zM30 0h-36l131 615l36 8z" horiz-adv-x="390"/>
<glyph glyph-name="l" unicode="l" d="M30 0h-37l131 615l38 8z" horiz-adv-x="145"/>
<glyph glyph-name="m" unicode="m" d="M574 0h-36l56 266q5 25 5 43q0 84 -88 84q-19 0 -39 -6t-45 -20.5t-45.5 -47.5t-30.5 -80l-50 -239h-36l53 256q9 47 9 64q0 34 -18.5 53.5t-67.5 19.5q-17 0 -37 -6t-45 -20t-46 -45t-30 -73q-2 -9 -53 -249h-35l88 418h35l-16 -80q29 49 71.5 68.5t79.5 19.5 q48 0 78.5 -25.5t30.5 -70.5v-8q19 41 52.5 66t59.5 31.5t51 6.5q55 0 82.5 -31t27.5 -81q0 -22 -6 -48z" horiz-adv-x="688"/>
<glyph glyph-name="n" unicode="n" d="M374 0h-35l46 222q7 37 7 63q0 109 -111 109q-27 0 -54.5 -8.5t-59.5 -29t-58.5 -64.5t-39.5 -107l-39 -185h-36l88 418h36l-22 -101q76 109 195 109q72 0 105 -37t33 -100q0 -30 -8 -67z" horiz-adv-x="487"/>
<glyph glyph-name="o" unicode="o" d="M275 392q-89 0 -156.5 -62.5t-67.5 -171.5q0 -64 39 -98.5t104 -34.5q85 0 154 66t69 169q0 64 -38.5 98t-103.5 34zM191 -9q-79 0 -127.5 43.5t-48.5 121.5q0 123 80 196.5t182 73.5q79 0 128 -43.5t49 -121.5q0 -123 -80 -196.5t-183 -73.5z" horiz-adv-x="504"/>
<glyph glyph-name="p" unicode="p" d="M297 393q-35 0 -68.5 -12.5t-67.5 -40t-61.5 -81t-41.5 -127.5l-10 -52q65 -53 148 -53q92 0 155.5 72.5t63.5 167.5q0 126 -118 126zM194 -8q-81 0 -154 54v2q-6 -33 -20.5 -98t-20.5 -98l-38 -8q17 84 58 275.5t64 298.5h35l-28 -128q22 42 51 71.5t60 43t55 18.5t47 5 q72 0 110.5 -42t38.5 -114q0 -110 -75 -195t-183 -85z"/>
<glyph glyph-name="q" unicode="q" d="M273 392q-91 0 -156.5 -73t-65.5 -168q0 -59 31 -92.5t91 -33.5q52 0 95 26.5t70.5 68.5t44 83t24.5 82q1 9 5 27l6 27q-59 53 -145 53zM349 -147l-38 -9l62 280q-29 -52 -70.5 -84t-74 -41t-62.5 -9q-73 0 -113 42.5t-40 113.5q0 107 75.5 193.5t186.5 86.5 q106 0 182 -73z" horiz-adv-x="497"/>
<glyph glyph-name="r" unicode="r" d="M299 386q-8 1 -23 1q-78 0 -133.5 -57t-73.5 -143l-40 -187h-35l88 418h36l-25 -111q67 117 194 117q16 0 25 -1z" horiz-adv-x="294"/>
<glyph glyph-name="s" unicode="s" d="M343 363q-18 9 -60 19.5t-72 10.5q-20 0 -39.5 -3t-40.5 -10.5t-33.5 -24t-12.5 -39.5q0 -16 7.5 -28t25.5 -22t30 -15t40 -14q31 -11 47.5 -18t39.5 -21.5t33.5 -35t10.5 -47.5q0 -45 -28.5 -74.5t-66 -40t-82.5 -10.5q-101 0 -176 53l28 28q32 -23 74 -34.5t74 -11.5 q141 0 141 91q0 35 -27.5 53t-82.5 35q-39 13 -61 23t-42.5 33t-20.5 54q0 34 16 57.5t43 34.5t51.5 15.5t51.5 4.5q34 0 80 -10.5t64 -20.5z" horiz-adv-x="381"/>
<glyph glyph-name="t" unicode="t" d="M288 384h-138l-48 -231q-8 -38 -8 -64q0 -37 20.5 -52t71.5 -15q22 0 34 1l-18 -34q-4 0 -12.5 -0.5t-11.5 -0.5q-62 0 -91 24.5t-29 76.5q0 26 8 66l50 229h-87l15 34h78l20 97l38 8l-23 -105h137z" horiz-adv-x="293"/>
<glyph glyph-name="u" unicode="u" d="M78 418h35l-46 -222q-8 -44 -8 -65q0 -107 110 -107q27 0 54 8.5t59 29t58 64.5t39 107l39 185h36l-88 -418h-36l22 101q-76 -109 -193 -109q-71 0 -103.5 37t-32.5 99q0 30 8 68z" horiz-adv-x="483"/>
<glyph glyph-name="v" unicode="v" d="M168 -4h-16l-125 422h39l104 -367l257 367h43z" horiz-adv-x="442"/>
<glyph glyph-name="w" unicode="w" d="M402 -1h-14l-53 352l-207 -352h-13l-87 419h38l68 -346l204 346h19l52 -347l219 347h41z" horiz-adv-x="643"/>
<glyph glyph-name="x" unicode="x" d="M222 222q12 -17 28 -41t49.5 -75t69.5 -106h-43l-128 198l-214 -198h-48l244 224l-125 194h44l106 -169q29 27 89.5 84.5t89.5 84.5h50z" horiz-adv-x="430"/>
<glyph glyph-name="y" unicode="y" d="M67 -157l-36 7l110 156l-114 412h39l101 -375l260 375h43z" horiz-adv-x="442"/>
<glyph glyph-name="z" unicode="z" d="M39 35h330l-16 -35h-397l390 383h-262l18 35h326z" horiz-adv-x="434"/>
<glyph glyph-name="braceleft" unicode="{" d="M371 713h-140q-5 -25 -23 -107.5t-24 -108.5q-22 -98 -43 -135t-67 -52q47 -24 47 -84q0 -23 -6 -53l-61 -290h138l-7 -34h-177l69 322q7 37 7 54q0 60 -63 70l7 32q49 8 71.5 34.5t38.5 97.5q8 39 31.5 148t30.5 140h179z" horiz-adv-x="300"/>
<glyph glyph-name="bar" unicode="|" d="M14 -130l-40 -9l161 756l40 8z" horiz-adv-x="167"/>
<glyph glyph-name="braceright" unicode="}" d="M235 458q-9 -42 -9 -66q0 -31 15 -45.5t49 -21.5l-7 -30q-47 -7 -72 -36t-37 -89l-68 -321h-177l7 34h138l63 292q22 105 95 137q-44 20 -44 79q0 28 9 70l53 252h-140l7 34h179z" horiz-adv-x="300"/>
<glyph glyph-name="asciitilde" unicode="~" d="M291 251q-32 -16 -63 -16q-18 0 -53 7.5t-53 7.5q-37 0 -72 -22l-7 29q41 22 80 22q21 0 56 -7.5t51 -7.5q28 0 54 15z" horiz-adv-x="348"/>
<glyph glyph-name="uni00A0" unicode=" " horiz-adv-x="428"/>
<glyph glyph-name="exclamdown" unicode="¡" d="M134 485q-69 -306 -101 -475q-5 -22 -21 -22h-2q-14 3 -10 22l107 475h27zM140 572q-25 0 -25 21v5q7 25 34 25q25 0 25 -21q0 -14 -10 -22t-24 -8z" horiz-adv-x="157"/>
<glyph glyph-name="cent" unicode="¢" d="M50 161q0 -92 78 -124l164 355h-12q-92 0 -161 -61.5t-69 -169.5zM69 -91l44 95q-98 39 -98 153q0 124 79.5 196.5t185.5 72.5q11 0 27 -2l33 70h29l-35 -74q36 -9 74 -33l-10 -33q-36 27 -78 35l-167 -359q18 -5 47 -5q65 0 145 44l14 -29q-84 -50 -164 -50q-33 0 -58 7 l-40 -88h-28z" horiz-adv-x="427"/>
<glyph glyph-name="sterling" unicode="£" d="M436 578q-51 17 -108 17q-78 0 -127 -31t-60 -90q-3 -18 -3 -34q0 -41 24 -106h185l-14 -27h-162q14 -41 14 -83v-16h96l-14 -27h-87q-29 -95 -132 -149h306l-16 -32h-354l-2 17q69 32 110 76t53 88h-133l7 27h132q0 3 0.5 9t0.5 8q0 36 -17 82h-90l6 27h75 q-27 77 -27 112q0 87 63.5 135t164.5 48q61 0 125 -20z" horiz-adv-x="427"/>
<glyph glyph-name="yen" unicode="¥" d="M239 257l-179 363h42l172 -356l322 356h48l-332 -363h122l-5 -27h-139l-22 -99h143l-7 -27h-142l-21 -104h-40l21 104h-142l6 27h142l22 99h-139l6 27h122z" horiz-adv-x="562"/>
<glyph glyph-name="brokenbar" unicode="¦" d="M14 -129l-40 -9l73 342l40 9zM109 313l-41 -9l67 313l40 8z" horiz-adv-x="167"/>
<glyph glyph-name="section" unicode="§" d="M229 386q-54 0 -92 -20.5t-38 -64.5q0 -33 33 -48.5t79 -15.5q54 0 91.5 20.5t37.5 64.5q0 31 -33 47.5t-78 16.5zM420 554q-31 21 -73 33t-72 12q-56 0 -93 -23t-37 -66q0 -31 23.5 -50.5t56.5 -29t66.5 -19.5t57 -30.5t23.5 -52.5q0 -50 -36 -79t-96 -35 q88 -30 88 -103q0 -61 -48.5 -91t-116.5 -30q-93 0 -167 53l26 28q65 -47 140 -47q130 0 130 89q0 35 -35 57t-77 32t-77 34.5t-35 63.5q0 46 35 76t93 35q-39 11 -63 38t-24 63q0 60 50 89t116 29q35 0 82 -12t81 -36z" horiz-adv-x="428"/>
<glyph glyph-name="dieresis" unicode="¨" d="M360 596q-24 0 -24 19q0 1 0.5 2.5t0.5 2.5q6 22 30 22q23 0 23 -19v-5q-5 -22 -30 -22zM224 596q-10 0 -16.5 5.5t-6.5 13.5q0 1 0.5 2.5t0.5 2.5q4 22 30 22q23 0 23 -18q0 -4 -1 -6q-5 -22 -30 -22z" horiz-adv-x="452"/>
<glyph glyph-name="copyright" unicode="©" d="M506 437q-48 33 -101 33q-76 0 -138.5 -58t-62.5 -147q0 -55 34 -83.5t97 -28.5q57 0 126 39l11 -24q-72 -44 -140 -44q-71 0 -114.5 38.5t-43.5 104.5q0 98 71 165t160 67q62 0 110 -35zM421 600q-67 0 -130 -24.5t-114.5 -69.5t-82.5 -116.5t-31 -157.5q0 -102 63 -157 t168 -55q65 0 128.5 24.5t115 69.5t83.5 116.5t32 157.5q0 102 -63.5 157t-168.5 55zM292 -9q-115 0 -186.5 64t-71.5 177q0 171 113 284t275 113q115 0 187.5 -63.5t72.5 -176.5q0 -92 -34.5 -169.5t-91 -126t-125 -75.5t-139.5 -27z" horiz-adv-x="708"/>
<glyph glyph-name="ordfeminine" unicode="ª" d="M188 -3q-23 0 -23 24q0 13 10 22t23 9q24 0 24 -21q0 -15 -9.5 -24.5t-24.5 -9.5zM314 595q-93 0 -158 -72.5t-65 -166.5q0 -59 32 -92.5t93 -33.5q23 0 52 10.5t63 35t64.5 75.5t47.5 120l17 71q-58 53 -146 53zM422 206h-34l26 123q-43 -68 -103 -100.5t-107 -32.5 q-73 0 -110.5 42t-37.5 113q0 111 75 194.5t185 83.5q59 0 100 -18.5t81 -54.5z"/>
<glyph glyph-name="guillemotleft" unicode="«" d="M212 229l116 -166l-31 -12l-129 182l203 180l30 -12zM62 229l116 -166l-31 -12l-130 182l203 180l30 -12z" horiz-adv-x="406"/>
<glyph glyph-name="registered" unicode="®" d="M308 471l-35 -165q44 0 75 3.5t58.5 12t43 25.5t20.5 43q2 12 2 17q0 37 -35.5 50.5t-109.5 13.5h-19zM496 388q-14 -81 -125 -98q15 -6 27.5 -19.5t18 -23t14.5 -27.5q8 -17 14 -28t19.5 -24t30.5 -20l-15 -23q-26 11 -40.5 30.5t-28.5 51.5q-1 2 -5.5 10.5t-6 11l-6 10 t-7 10l-8.5 8.5t-10.5 8.5t-12 6t-15.5 5t-18 3t-22 1.5h-32l-32 -158h-28l78 374h40q85 0 128.5 -19t43.5 -68q0 -6 -2 -22zM421 600q-67 0 -130 -24.5t-114.5 -69.5t-82.5 -116.5t-31 -157.5q0 -102 63 -157t168 -55q65 0 128.5 24.5t115 69.5t83.5 116.5t32 157.5 q0 102 -63.5 157t-168.5 55zM292 -9q-115 0 -186.5 64t-71.5 177q0 171 113 284t275 113q115 0 187.5 -63.5t72.5 -176.5q0 -92 -34.5 -169.5t-91 -126t-125 -75.5t-139.5 -27z" horiz-adv-x="708"/>
<glyph glyph-name="macron" unicode="¯" d="M367 601h-206l7 29h205z" horiz-adv-x="393"/>
<glyph glyph-name="degree" unicode="°" d="M219 598q-39 0 -69 -22.5t-38 -60.5q-2 -14 -2 -21q0 -30 19.5 -46.5t51.5 -16.5q40 0 70 22.5t38 61.5q2 14 2 20q0 30 -19.5 46.5t-52.5 16.5zM179 404q-44 0 -71 23.5t-27 63.5q0 13 3 28q10 49 48.5 77.5t88.5 28.5q44 0 72 -23t28 -63q0 -13 -3 -27q-11 -50 -50 -79 t-89 -29z" horiz-adv-x="304"/>
<glyph glyph-name="uni00B2" unicode="²" d="M286 308l-13 -30h-221l-2 12q239 136 239 242q0 9 -1 13q-8 52 -71 52q-48 0 -92 -30v32q48 29 103 29q46 0 71 -26t25 -65q0 -6 -2 -20q-15 -95 -192 -209h156z" horiz-adv-x="331"/>
<glyph glyph-name="uni00B3" unicode="³" d="M350 613l-130 -115q45 0 73 -26.5t28 -65.5q0 -5 -2 -19q-10 -56 -53 -83t-97 -27q-29 0 -62 12t-50 34l22 22q16 -19 42.5 -28.5t49.5 -9.5q42 0 74 20.5t40 63.5q2 7 2 21q0 32 -23 49.5t-63 17.5q-12 0 -19 -1l-5 7l113 106h-152l13 29h199v-7z" horiz-adv-x="345"/>
<glyph glyph-name="acute" unicode="´" d="M271 598h-34l73 122l38 -8z" horiz-adv-x="425"/>
<glyph glyph-name="uni00B5" unicode="µ" d="M365 0h-35l23 111q-70 -111 -191 -116h-8q-43 0 -73.5 22.5t-38.5 61.5l-48 -227l-38 -8q15 69 121 574h37l-46 -212q-8 -34 -8 -66q0 -112 98 -112h10q24 1 50 9t59 27t59.5 58.5t38.5 94.5l43 201h36z" horiz-adv-x="483"/>
<glyph glyph-name="paragraph" unicode="¶" d="M181 -148l-39 -9l106 491h-37q-57 0 -96 34.5t-39 89.5q0 10 4 32q14 68 65.5 102.5t118.5 34.5h82z" horiz-adv-x="342"/>
<glyph glyph-name="periodcentered" unicode="·" d="M62 219q-26 0 -26 20q0 1 0.5 2.5t0.5 2.5q6 24 34 24q25 0 25 -20q0 -13 -10 -21t-24 -8z" horiz-adv-x="151"/>
<glyph glyph-name="cedilla" unicode="¸" d="M78 -187q-32 0 -70 12l12 21q30 -10 56 -10q84 0 96 53q2 10 2 14q0 37 -70 37h-15l28 78h27l-21 -57q83 -5 83 -56q0 -12 -2 -19q-16 -73 -126 -73z" horiz-adv-x="353"/>
<glyph glyph-name="uni00B9" unicode="¹" d="M172 284h-35l63 296l-96 -33l-3 32l128 42h15z" horiz-adv-x="242"/>
<glyph glyph-name="ordmasculine" unicode="º" d="M189 -3q-25 0 -25 22q0 15 10.5 24t23.5 9q24 0 24 -23q0 -13 -9.5 -22.5t-23.5 -9.5zM316 595q-88 0 -156.5 -62.5t-68.5 -170.5q0 -64 39.5 -98.5t104.5 -34.5q87 0 155.5 64t68.5 170q0 64 -39 98t-104 34zM232 196q-79 0 -127 43.5t-48 121.5q0 121 80.5 194.5 t181.5 73.5q78 0 126.5 -43.5t48.5 -120.5q0 -123 -79.5 -196t-182.5 -73z"/>
<glyph glyph-name="guillemotright" unicode="»" d="M160 51l-28 12l188 171l-115 167l29 12l130 -182zM11 51l-28 12l188 171l-115 167l29 12l130 -182z" horiz-adv-x="405"/>
<glyph glyph-name="onequarter" unicode="¼" d="M392 99h150l41 192zM628 72h-56l-15 -72h-36l16 72h-188q1 6 1 16l243 247h35l-50 -234h63zM137 0h-37l485 620h37zM180 284h-35l63 296l-96 -33l-3 32l128 42h15z" horiz-adv-x="683"/>
<glyph glyph-name="onehalf" unicode="½" d="M648 30l-13 -30h-221l-2 12q239 136 239 242q0 9 -1 13q-8 52 -71 52q-48 0 -92 -30v32q48 29 103 29q46 0 71 -26t25 -65q0 -6 -2 -20q-15 -95 -192 -209h156zM137 0h-37l485 620h37zM210 284h-35l63 296l-96 -33l-3 32l128 42h15z" horiz-adv-x="738"/>
<glyph glyph-name="threequarters" unicode="¾" d="M439 99h150l41 192zM675 72h-56l-15 -72h-36l16 72h-188q1 6 1 16l243 247h35l-50 -234h63zM184 0h-37l485 620h37zM350 613l-130 -115q45 0 73 -26.5t28 -65.5q0 -5 -2 -19q-10 -56 -53 -83t-97 -27q-29 0 -62 12t-50 34l22 22q16 -19 42.5 -28.5t49.5 -9.5 q42 0 74 20.5t40 63.5q2 7 2 21q0 32 -23 49.5t-63 17.5q-12 0 -19 -1l-5 7l113 106h-152l13 29h199v-7z" horiz-adv-x="750"/>
<glyph glyph-name="questiondown" unicode="¿" d="M209 446q4 -20 4 -30q0 -31 -16 -61q-16 -32 -59 -75.5t-74 -85t-31 -84.5q0 -9 1 -14q3 -32 26.5 -51t64.5 -19q27 0 66 10l-10 -36q-36 -8 -66 -8q-60 0 -91 30t-31 77q0 12 4 34q8 38 39.5 78t64 68t58.5 65t26 72q0 12 -3 24zM234 629q11 0 17.5 -6t6.5 -16v-5 q-6 -24 -34 -24q-25 0 -25 20q0 4 1 6q5 25 34 25z" horiz-adv-x="284"/>
<glyph glyph-name="Agrave" unicode="À" d="M358 567l-256 -389h345zM488 0l-35 148h-369l-97 -148h-47l418 625h20l153 -625h-43zM363 689l-31 113l40 8l21 -121h-30z" horiz-adv-x="593"/>
<glyph glyph-name="Aacute" unicode="Á" d="M358 567l-256 -389h345zM488 0l-35 148h-369l-97 -148h-47l418 625h20l153 -625h-43zM401 690h-34l74 121l37 -8z" horiz-adv-x="593"/>
<glyph glyph-name="Acircumflex" unicode="Â" d="M358 567l-256 -389h345zM488 0l-35 148h-369l-97 -148h-47l418 625h20l153 -625h-43zM483 684l-78 76l-110 -76l-31 15l138 94h16l100 -94z" horiz-adv-x="593"/>
<glyph glyph-name="Atilde" unicode="Ã" d="M358 567l-256 -389h345zM488 0l-35 148h-369l-97 -148h-47l418 625h20l153 -625h-43zM512 707q-32 -16 -63 -16q-19 0 -53 7.5t-53 7.5q-37 0 -72 -22l-7 29q41 22 80 22q21 0 56 -7.5t51 -7.5q28 0 54 15z" horiz-adv-x="593"/>
<glyph glyph-name="Adieresis" unicode="Ä" d="M358 567l-256 -389h345zM488 0l-35 148h-369l-97 -148h-47l418 625h20l153 -625h-43zM459 690q-24 0 -24 19q0 1 0.5 2.5t0.5 2.5q6 23 30 23t24 -19q0 -1 -0.5 -2.5t-0.5 -2.5q-2 -10 -11 -16.5t-19 -6.5zM323 690q-10 0 -16.5 5.5t-6.5 13.5q0 1 0.5 2.5t0.5 2.5 q5 23 30 23q23 0 23 -18q0 -4 -1 -6q-5 -23 -30 -23z" horiz-adv-x="596"/>
<glyph glyph-name="Aring" unicode="Å" d="M358 567l-256 -389h345zM488 0l-35 148h-369l-97 -148h-47l418 625h20l153 -625h-43zM406 793q-18 0 -32.5 -11t-18.5 -30q-1 -4 -1 -11q0 -30 33 -30q24 0 38.5 16t14.5 37q0 29 -34 29zM385 689q-26 0 -42 14t-16 37q0 5 2 15q7 29 29 45.5t50 16.5t43 -14t15 -36 q0 -31 -23 -54.5t-58 -23.5z" horiz-adv-x="593"/>
<glyph glyph-name="AE" unicode="Æ" d="M132 179h262l81 384zM812 587h-291l-49 -226h229l-7 -34h-229l-61 -293h376l-17 -34h-407l31 148h-280l-132 -148h-48l552 620h339z" horiz-adv-x="835"/>
<glyph glyph-name="Ccedilla" unicode="Ç" d="M609 531q-83 64 -184 64q-123 0 -217 -74.5t-123 -210.5q-9 -42 -9 -77q0 -99 61.5 -154t164.5 -55q107 0 220 68l13 -29q-117 -72 -242 -72l-17 -50q84 -3 84 -57q0 -6 -2 -18q-12 -54 -77 -66q-23 -6 -48 -6h-10q-30 1 -62 11l12 21q28 -10 57 -10q84 0 96 53q1 4 1 12 q0 39 -69 39h-16l25 72q-106 8 -169 70.5t-63 168.5q0 39 9 82q32 149 137.5 232.5t244.5 83.5q115 0 192 -63z" horiz-adv-x="600"/>
<glyph glyph-name="Egrave" unicode="È" d="M464 587h-291l-48 -226h228l-7 -34h-228l-62 -293h376l-16 -34h-408l132 620h331zM304 688l-31 113l39 9l22 -122h-30z" horiz-adv-x="488"/>
<glyph glyph-name="Eacute" unicode="É" d="M464 587h-291l-48 -226h228l-7 -34h-228l-62 -293h376l-16 -34h-408l132 620h331zM320 690h-34l75 121l37 -8z" horiz-adv-x="488"/>
<glyph glyph-name="Ecircumflex" unicode="Ê" d="M464 587h-291l-48 -226h228l-7 -34h-228l-62 -293h376l-16 -34h-408l132 620h331zM421 686l-79 76l-110 -76l-31 15l138 93h15l101 -93z" horiz-adv-x="488"/>
<glyph glyph-name="Edieresis" unicode="Ë" d="M464 587h-291l-48 -226h228l-7 -34h-228l-62 -293h376l-16 -34h-408l132 620h331zM385 692q-23 0 -23 19q0 1 0.5 2.5t0.5 2.5q5 22 30 22q23 0 23 -19q0 -1 -0.5 -2.5t-0.5 -2.5q-5 -22 -30 -22zM250 692q-23 0 -23 19q0 12 9.5 19.5t20.5 7.5q24 0 24 -19 q0 -1 -0.5 -2.5t-0.5 -2.5q-5 -22 -30 -22z" horiz-adv-x="488"/>
<glyph glyph-name="Igrave" unicode="Ì" d="M49 0h-41l132 620h40zM161 691l-30 113l39 8l22 -121h-31z" horiz-adv-x="184"/>
<glyph glyph-name="Iacute" unicode="Í" d="M49 0h-41l132 620h40zM189 691h-34l74 121l37 -8z" horiz-adv-x="183"/>
<glyph glyph-name="Icircumflex" unicode="Î" d="M49 0h-41l132 620h40zM268 683l-78 76l-111 -76l-30 15l138 94h15l101 -94z" horiz-adv-x="183"/>
<glyph glyph-name="Idieresis" unicode="Ï" d="M49 0h-41l132 620h40zM242 688q-9 0 -15.5 5.5t-6.5 13.5q0 1 0.5 2.5t0.5 2.5q3 22 30 22q22 0 22 -17q0 -5 -1 -7q-1 -10 -10 -16t-20 -6zM107 688q-22 0 -22 18q0 4 1 6q3 22 30 22q22 0 22 -18q0 -4 -1 -6q-1 -10 -10 -16t-20 -6z" horiz-adv-x="179"/>
<glyph glyph-name="Eth" unicode="Ð" d="M182 587l-48 -225h127l-7 -33h-127l-62 -295h63q12 0 34 0.5t33 0.5q163 1 257.5 76.5t120.5 199.5q8 40 8 71q0 95 -66.5 150t-206.5 55h-126zM17 0l70 329h-64l15 33h56l55 258h161q158 0 234.5 -63.5t76.5 -172.5q0 -41 -8 -76q-30 -139 -137.5 -223.5t-292.5 -84.5 h-166z" horiz-adv-x="647"/>
<glyph glyph-name="Ntilde" unicode="Ñ" d="M529 -1h-17l-349 542l-114 -541h-41l132 621h14l352 -545l115 544h40zM543 706q-32 -16 -63 -16q-18 0 -53 7.5t-53 7.5q-37 0 -72 -22l-7 29q41 22 80 22q21 0 56 -7.5t51 -7.5q28 0 54 15z" horiz-adv-x="659"/>
<glyph glyph-name="Ograve" unicode="Ò" d="M420 595q-120 0 -213.5 -75t-121.5 -210q-9 -42 -9 -78q0 -99 60.5 -153t160.5 -54q119 0 213.5 75.5t122.5 210.5q9 42 9 77q0 99 -61 153t-161 54zM295 -9q-116 0 -188 63.5t-72 177.5q0 38 9 81q32 149 137.5 232.5t241.5 83.5q116 0 188 -63.5t72 -176.5 q0 -37 -9 -81q-32 -149 -137.5 -233t-241.5 -84zM419 690l-31 113l39 8l21 -121h-29z" horiz-adv-x="708"/>
<glyph glyph-name="Oacute" unicode="Ó" d="M420 595q-120 0 -213.5 -75t-121.5 -210q-9 -42 -9 -78q0 -99 60.5 -153t160.5 -54q119 0 213.5 75.5t122.5 210.5q9 42 9 77q0 99 -61 153t-161 54zM295 -9q-116 0 -188 63.5t-72 177.5q0 38 9 81q32 149 137.5 232.5t241.5 83.5q116 0 188 -63.5t72 -176.5 q0 -37 -9 -81q-32 -149 -137.5 -233t-241.5 -84zM445 690h-34l74 122l37 -9z" horiz-adv-x="708"/>
<glyph glyph-name="Ocircumflex" unicode="Ô" d="M420 595q-120 0 -213.5 -75t-121.5 -210q-9 -42 -9 -78q0 -99 60.5 -153t160.5 -54q119 0 213.5 75.5t122.5 210.5q9 42 9 77q0 99 -61 153t-161 54zM295 -9q-116 0 -188 63.5t-72 177.5q0 38 9 81q32 149 137.5 232.5t241.5 83.5q116 0 188 -63.5t72 -176.5 q0 -37 -9 -81q-32 -149 -137.5 -233t-241.5 -84zM531 684l-78 76l-110 -76l-31 15l138 94h16l100 -94z" horiz-adv-x="708"/>
<glyph glyph-name="Otilde" unicode="Õ" d="M420 595q-120 0 -213.5 -75t-121.5 -210q-9 -42 -9 -78q0 -99 60.5 -153t160.5 -54q119 0 213.5 75.5t122.5 210.5q9 42 9 77q0 99 -61 153t-161 54zM295 -9q-116 0 -188 63.5t-72 177.5q0 38 9 81q32 149 137.5 232.5t241.5 83.5q116 0 188 -63.5t72 -176.5 q0 -37 -9 -81q-32 -149 -137.5 -233t-241.5 -84zM569 710q-32 -16 -63 -16q-18 0 -53 7.5t-53 7.5q-37 0 -72 -22l-7 29q41 22 80 22q21 0 56 -7.5t51 -7.5q28 0 54 15z" horiz-adv-x="708"/>
<glyph glyph-name="Odieresis" unicode="Ö" d="M420 595q-120 0 -213.5 -75t-121.5 -210q-9 -42 -9 -78q0 -99 60.5 -153t160.5 -54q119 0 213.5 75.5t122.5 210.5q9 42 9 77q0 99 -61 153t-161 54zM295 -9q-116 0 -188 63.5t-72 177.5q0 38 9 81q32 149 137.5 232.5t241.5 83.5q116 0 188 -63.5t72 -176.5 q0 -37 -9 -81q-32 -149 -137.5 -233t-241.5 -84zM500 690q-10 0 -16.5 5.5t-6.5 13.5q0 1 0.5 2.5t0.5 2.5q5 22 30 22q23 0 23 -19q0 -1 -0.5 -2.5t-0.5 -2.5q-5 -22 -30 -22zM365 690q-24 0 -24 19q0 1 0.5 2.5t0.5 2.5q6 22 30 22t24 -19q0 -1 -0.5 -2.5t-0.5 -2.5 q-5 -22 -30 -22z" horiz-adv-x="708"/>
<glyph glyph-name="multiply" unicode="×" d="M256 244l123 -156l-28 -22l-123 157l-190 -157l-20 25l191 156l-124 156l28 22l123 -156l188 156l20 -26z" horiz-adv-x="481"/>
<glyph glyph-name="Oslash" unicode="Ø" d="M633 311q9 42 9 77q0 77 -38 127.5t-105 69.5l-258 -555q21 -5 56 -5q119 0 213.5 75.5t122.5 210.5zM420 595q-120 0 -213.5 -75t-121.5 -210q-9 -42 -9 -78q0 -77 37.5 -127.5t102.5 -68.5l257 554q-28 5 -53 5zM157 -91l44 94q-77 23 -121.5 82t-44.5 147q0 38 9 81 q32 149 137.5 232.5t241.5 83.5q33 0 65 -6l31 66h29l-34 -72q78 -22 123.5 -81.5t45.5 -147.5q0 -38 -9 -80q-32 -149 -137.5 -233t-241.5 -84q-40 0 -69 7l-41 -89h-28z" horiz-adv-x="708"/>
<glyph glyph-name="Ugrave" unicode="Ù" d="M573 295q-66 -310 -317 -310q-102 0 -152.5 52.5t-50.5 150.5q0 46 13 111l69 321h40l-66 -311q-14 -70 -14 -118q0 -172 164 -172q215 0 276 290l67 311h40zM390 691l-30 113l39 8l22 -121h-31z" horiz-adv-x="635"/>
<glyph glyph-name="Uacute" unicode="Ú" d="M573 295q-66 -310 -317 -310q-102 0 -152.5 52.5t-50.5 150.5q0 46 13 111l69 321h40l-66 -311q-14 -70 -14 -118q0 -172 164 -172q215 0 276 290l67 311h40zM406 690h-34l73 122l38 -8z" horiz-adv-x="635"/>
<glyph glyph-name="Ucircumflex" unicode="Û" d="M573 295q-66 -310 -317 -310q-102 0 -152.5 52.5t-50.5 150.5q0 46 13 111l69 321h40l-66 -311q-14 -70 -14 -118q0 -172 164 -172q215 0 276 290l67 311h40zM497 684l-78 76l-110 -76l-31 15l138 93h15l101 -93z" horiz-adv-x="635"/>
<glyph glyph-name="Udieresis" unicode="Ü" d="M573 295q-66 -310 -317 -310q-102 0 -152.5 52.5t-50.5 150.5q0 46 13 111l69 321h40l-66 -311q-14 -70 -14 -118q0 -172 164 -172q215 0 276 290l67 311h40zM468 689q-10 0 -16.5 5.5t-6.5 13.5q0 1 0.5 2.5t0.5 2.5q5 22 30 22q23 0 23 -19q0 -12 -9.5 -19.5 t-21.5 -7.5zM333 689q-10 0 -16.5 5.5t-6.5 13.5q0 1 0.5 2.5t0.5 2.5q5 22 30 22q22 0 22 -19q0 -12 -9 -19.5t-21 -7.5z" horiz-adv-x="635"/>
<glyph glyph-name="Yacute" unicode="Ý" d="M289 228l-48 -228h-40l48 230q-26 54 -90.5 187.5t-98.5 202.5h43l171 -356l321 356h49zM383 689h-34l74 122l37 -9z" horiz-adv-x="562"/>
<glyph glyph-name="Thorn" unicode="Þ" d="M153 496l-75 -355h100q122 0 195 47t91 131q4 17 4 38q0 65 -53.5 102t-158.5 37h-103zM71 107l-23 -107h-40l132 620h40l-19 -90q37 0 111 -2q115 -3 176 -48t61 -121q0 -18 -5 -43q-22 -99 -107.5 -154t-225.5 -55h-100z" horiz-adv-x="534"/>
<glyph glyph-name="germandbls" unicode="ß" d="M120 25h2q99 0 164 53t80 134q5 28 5 46q0 129 -175 131l7 28q116 2 133 98q2 14 2 19q0 64 -72 64q-89 0 -114 -119l-102 -479h-36l83 389h-68l15 29h59l13 56q18 78 52.5 116.5t101.5 38.5q52 0 78.5 -25t26.5 -68q0 -11 -4 -33q-9 -42 -39 -67.5t-74 -30.5 q149 -15 149 -150q0 -13 -4 -45q-15 -96 -96 -154.5t-186 -58.5h-10z" horiz-adv-x="455"/>
<glyph glyph-name="agrave" unicode="à" d="M273 392q-93 0 -157.5 -73t-64.5 -168q0 -59 31 -92.5t91 -33.5q42 0 78 15.5t60 39.5t43 57t29.5 63t17.5 62l17 77q-59 53 -145 53zM382 0h-35l23 111q-86 -121 -204 -121q-73 0 -113 42.5t-40 113.5q0 112 75.5 196t186.5 84q106 0 182 -73zM265 485l-31 113l42 8 l20 -121h-31z"/>
<glyph glyph-name="aacute" unicode="á" d="M273 392q-93 0 -157.5 -73t-64.5 -168q0 -59 31 -92.5t91 -33.5q42 0 78 15.5t60 39.5t43 57t29.5 63t17.5 62l17 77q-59 53 -145 53zM382 0h-35l23 111q-86 -121 -204 -121q-73 0 -113 42.5t-40 113.5q0 112 75.5 196t186.5 84q106 0 182 -73zM313 485h-34l73 122l38 -8 z"/>
<glyph glyph-name="acircumflex" unicode="â" d="M273 392q-93 0 -157.5 -73t-64.5 -168q0 -59 31 -92.5t91 -33.5q42 0 78 15.5t60 39.5t43 57t29.5 63t17.5 62l17 77q-59 53 -145 53zM382 0h-35l23 111q-86 -121 -204 -121q-73 0 -113 42.5t-40 113.5q0 112 75.5 196t186.5 84q106 0 182 -73zM391 476l-79 76l-110 -76 l-31 15l139 94h15l100 -94z"/>
<glyph glyph-name="atilde" unicode="ã" d="M273 392q-93 0 -157.5 -73t-64.5 -168q0 -59 31 -92.5t91 -33.5q42 0 78 15.5t60 39.5t43 57t29.5 63t17.5 62l17 77q-59 53 -145 53zM382 0h-35l23 111q-86 -121 -204 -121q-73 0 -113 42.5t-40 113.5q0 112 75.5 196t186.5 84q106 0 182 -73zM423 500q-32 -16 -63 -16 q-18 0 -53 7.5t-53 7.5q-37 0 -72 -22l-7 29q41 22 80 22q21 0 56 -7.5t51 -7.5q28 0 54 15z"/>
<glyph glyph-name="adieresis" unicode="ä" d="M273 392q-93 0 -157.5 -73t-64.5 -168q0 -59 31 -92.5t91 -33.5q42 0 78 15.5t60 39.5t43 57t29.5 63t17.5 62l17 77q-59 53 -145 53zM382 0h-35l23 111q-86 -121 -204 -121q-73 0 -113 42.5t-40 113.5q0 112 75.5 196t186.5 84q106 0 182 -73zM360 484q-22 0 -22 19 q0 13 9 20.5t21 7.5q24 0 24 -20q0 -1 -0.5 -2.5t-0.5 -2.5q-7 -22 -31 -22zM225 484q-10 0 -16.5 5.5t-6.5 13.5q0 1 0.5 2.5t0.5 2.5q5 23 30 23q23 0 23 -20q0 -1 -0.5 -2.5t-0.5 -2.5q-5 -22 -30 -22z" horiz-adv-x="499"/>
<glyph glyph-name="aring" unicode="å" d="M273 392q-93 0 -157.5 -73t-64.5 -168q0 -59 31 -92.5t91 -33.5q42 0 78 15.5t60 39.5t43 57t29.5 63t17.5 62l17 77q-59 53 -145 53zM382 0h-35l23 111q-86 -121 -204 -121q-73 0 -113 42.5t-40 113.5q0 112 75.5 196t186.5 84q106 0 182 -73zM304 584q-18 0 -32 -11 t-18 -30q-1 -4 -1 -12q0 -29 33 -29q20 0 34 12t18 29q1 3 1 10q0 31 -35 31zM283 479q-25 0 -41.5 14t-16.5 37q0 5 2 15q6 29 28 45.5t52 16.5q28 0 43 -14t15 -36q0 -31 -23 -54.5t-59 -23.5z"/>
<glyph glyph-name="ae" unicode="æ" d="M273 392q-92 0 -157 -73t-65 -168q0 -59 31.5 -92.5t92.5 -33.5q53 0 95.5 23t69.5 62t43.5 82.5t24.5 92.5l9 55q-58 52 -144 52zM633 395q-66 -1 -120.5 -42.5t-77.5 -114.5h318q4 20 4 41q0 57 -33.5 86.5t-90.5 29.5zM427 205q-4 -21 -4 -46q0 -61 37 -97.5 t113 -36.5q72 0 146 46l12 -29q-83 -51 -162 -51q-66 0 -112.5 31.5t-53.5 87.5l-23 -110h-29l24 122q-44 -71 -103.5 -101.5t-108.5 -30.5q-73 0 -110.5 42t-37.5 114q0 110 72.5 195t179.5 85q102 0 182 -67l-9 -48q34 52 89 83.5t109 31.5q73 0 111 -39.5t38 -106.5 q0 -42 -9 -75h-351z" horiz-adv-x="836"/>
<glyph glyph-name="ccedilla" unicode="ç" d="M135 -194q-33 0 -71 12l13 25q30 -10 56 -10q45 0 70.5 16t25.5 46q0 37 -69 37h-15l20 60q-68 8 -109 51.5t-41 113.5q0 124 79.5 196.5t185.5 72.5q70 0 128 -39l-10 -33q-51 38 -118 38q-92 0 -161 -61.5t-69 -169.5q0 -62 39.5 -99t110.5 -37q65 0 145 44l14 -29 q-84 -50 -166 -50v1l-13 -35q82 -5 82 -57q0 -44 -34.5 -68.5t-92.5 -24.5z" horiz-adv-x="430"/>
<glyph glyph-name="egrave" unicode="è" d="M261 395q-66 0 -121 -41.5t-78 -115.5h318q4 20 4 41q0 57 -33 86.5t-90 29.5zM54 205q-5 -32 -5 -50q0 -64 39 -97t111 -33q79 0 154 46l14 -30q-83 -50 -172 -50q-90 0 -136 42.5t-46 121.5q0 119 75 195t175 76q76 0 114.5 -41.5t38.5 -108.5q0 -37 -10 -71h-352z M268 483l-31 114l39 8l21 -122h-29z" horiz-adv-x="461"/>
<glyph glyph-name="eacute" unicode="é" d="M261 395q-66 0 -121 -41.5t-78 -115.5h318q4 20 4 41q0 57 -33 86.5t-90 29.5zM54 205q-5 -32 -5 -50q0 -64 39 -97t111 -33q79 0 154 46l14 -30q-83 -50 -172 -50q-90 0 -136 42.5t-46 121.5q0 119 75 195t175 76q76 0 114.5 -41.5t38.5 -108.5q0 -37 -10 -71h-352z M302 485h-34l73 122l38 -8z" horiz-adv-x="461"/>
<glyph glyph-name="ecircumflex" unicode="ê" d="M261 395q-66 0 -121 -41.5t-78 -115.5h318q4 20 4 41q0 57 -33 86.5t-90 29.5zM54 205q-5 -32 -5 -50q0 -64 39 -97t111 -33q79 0 154 46l14 -30q-83 -50 -172 -50q-90 0 -136 42.5t-46 121.5q0 119 75 195t175 76q76 0 114.5 -41.5t38.5 -108.5q0 -37 -10 -71h-352z M374 480l-78 76l-111 -76l-30 15l138 94h15l100 -94z" horiz-adv-x="461"/>
<glyph glyph-name="edieresis" unicode="ë" d="M261 395q-66 0 -121 -41.5t-78 -115.5h318q4 20 4 41q0 57 -33 86.5t-90 29.5zM54 205q-5 -32 -5 -50q0 -64 39 -97t111 -33q79 0 154 46l14 -30q-83 -50 -172 -50q-90 0 -136 42.5t-46 121.5q0 119 75 195t175 76q76 0 114.5 -41.5t38.5 -108.5q0 -37 -10 -71h-352z M345 481q-9 0 -15.5 5.5t-6.5 13.5q0 1 0.5 2.5t0.5 2.5q3 22 30 22q22 0 22 -18q0 -4 -1 -6q-1 -10 -10 -16t-20 -6zM210 481q-10 0 -16.5 5.5t-6.5 13.5q0 1 0.5 2.5t0.5 2.5q5 22 30 22q23 0 23 -18q0 -4 -1 -6q-1 -10 -10 -16t-20 -6z" horiz-adv-x="461"/>
<glyph glyph-name="igrave" unicode="ì" d="M30 0h-36l89 418h36zM100 483l-31 113l40 8l21 -121h-30z" horiz-adv-x="148"/>
<glyph glyph-name="iacute" unicode="í" d="M30 0h-36l89 418h36zM131 483h-34l74 121l37 -8z" horiz-adv-x="145"/>
<glyph glyph-name="icircumflex" unicode="î" d="M30 0h-36l89 418h36zM210 478l-79 76l-109 -76l-32 15l139 94h15l101 -94z" horiz-adv-x="145"/>
<glyph glyph-name="idieresis" unicode="ï" d="M31 0h-36l89 418h36zM187 484q-24 0 -24 19q0 1 0.5 2.5t0.5 2.5q6 22 30 22t24 -19q0 -1 -0.5 -2.5t-0.5 -2.5q-5 -22 -30 -22zM51 484q-10 0 -16.5 5.5t-6.5 13.5q0 1 0.5 2.5t0.5 2.5q4 22 30 22q23 0 23 -18q0 -4 -1 -6q-5 -22 -30 -22z" horiz-adv-x="156"/>
<glyph glyph-name="eth" unicode="ð" d="M423 275q0 33 -10 62q-66 49 -136 49q-95 0 -160 -70.5t-65 -154.5q0 -65 39 -99t104 -34q89 0 158.5 66.5t69.5 180.5zM465 539l-89 -20q6 -15 27 -57q56 -119 56 -193q0 -83 -42 -148t-102 -96.5t-123 -31.5q-79 0 -127.5 44t-48.5 124q0 96 76.5 175t176.5 79 q72 0 134 -41q-12 34 -62 137l-103 -23l6 34l84 18l-37 74l38 8l35 -74v1q16 3 52 11t55 12z" horiz-adv-x="506"/>
<glyph glyph-name="ntilde" unicode="ñ" d="M374 0h-35l46 222q7 37 7 63q0 109 -111 109q-27 0 -54.5 -8.5t-59.5 -29t-58.5 -64.5t-39.5 -107l-39 -185h-36l88 418h36l-22 -101q76 109 195 109q72 0 105 -37t33 -100q0 -30 -8 -67zM410 508q-32 -16 -63 -16q-18 0 -52.5 7.5t-53.5 7.5q-37 0 -72 -22l-7 29 q41 22 80 22q21 0 56 -7.5t51 -7.5q28 0 54 15z" horiz-adv-x="487"/>
<glyph glyph-name="ograve" unicode="ò" d="M275 392q-89 0 -156.5 -62.5t-67.5 -171.5q0 -64 39 -98.5t104 -34.5q85 0 154 66t69 169q0 64 -38.5 98t-103.5 34zM191 -9q-79 0 -127.5 43.5t-48.5 121.5q0 123 80 196.5t182 73.5q79 0 128 -43.5t49 -121.5q0 -123 -80 -196.5t-183 -73.5zM281 483l-31 114l39 8 l21 -122h-29z" horiz-adv-x="504"/>
<glyph glyph-name="oacute" unicode="ó" d="M275 392q-89 0 -156.5 -62.5t-67.5 -171.5q0 -64 39 -98.5t104 -34.5q85 0 154 66t69 169q0 64 -38.5 98t-103.5 34zM191 -9q-79 0 -127.5 43.5t-48.5 121.5q0 123 80 196.5t182 73.5q79 0 128 -43.5t49 -121.5q0 -123 -80 -196.5t-183 -73.5zM308 482h-34l73 122l38 -8z " horiz-adv-x="502"/>
<glyph glyph-name="ocircumflex" unicode="ô" d="M275 392q-89 0 -156.5 -62.5t-67.5 -171.5q0 -64 39 -98.5t104 -34.5q85 0 154 66t69 169q0 64 -38.5 98t-103.5 34zM191 -9q-79 0 -127.5 43.5t-48.5 121.5q0 123 80 196.5t182 73.5q79 0 128 -43.5t49 -121.5q0 -123 -80 -196.5t-183 -73.5zM388 479l-79 76l-110 -76 l-31 15l139 93h15l101 -93z" horiz-adv-x="504"/>
<glyph glyph-name="otilde" unicode="õ" d="M275 392q-89 0 -156.5 -62.5t-67.5 -171.5q0 -64 39 -98.5t104 -34.5q85 0 154 66t69 169q0 64 -38.5 98t-103.5 34zM191 -9q-79 0 -127.5 43.5t-48.5 121.5q0 123 80 196.5t182 73.5q79 0 128 -43.5t49 -121.5q0 -123 -80 -196.5t-183 -73.5zM421 502q-32 -16 -63 -16 q-18 0 -53 7.5t-53 7.5q-37 0 -72 -22l-7 29q41 22 80 22q21 0 56 -7.5t51 -7.5q28 0 54 15z" horiz-adv-x="504"/>
<glyph glyph-name="odieresis" unicode="ö" d="M275 392q-89 0 -156.5 -62.5t-67.5 -171.5q0 -64 39 -98.5t104 -34.5q85 0 154 66t69 169q0 64 -38.5 98t-103.5 34zM191 -9q-79 0 -127.5 43.5t-48.5 121.5q0 123 80 196.5t182 73.5q79 0 128 -43.5t49 -121.5q0 -123 -80 -196.5t-183 -73.5zM359 483q-24 0 -24 19 q0 1 0.5 2.5t0.5 2.5q6 22 30 22q23 0 23 -19v-5q-5 -22 -30 -22zM223 483q-10 0 -16.5 5.5t-6.5 13.5q0 1 0.5 2.5t0.5 2.5q4 22 30 22q23 0 23 -18q0 -4 -1 -6q-5 -22 -30 -22z" horiz-adv-x="504"/>
<glyph glyph-name="divide" unicode="÷" d="M226 39q-10 0 -17 6t-7 15q0 14 10 21.5t24 7.5q25 0 25 -20q0 -4 -1 -6q-1 -10 -11 -17t-23 -7zM489 228h-442l6 31h443zM303 399q-25 0 -25 21q0 13 10.5 21t23.5 8q26 0 26 -20q0 -1 -0.5 -3t-0.5 -3q-5 -24 -34 -24z" horiz-adv-x="560"/>
<glyph glyph-name="oslash" unicode="ø" d="M417 260q0 96 -86 124l-167 -357q10 -2 30 -2q85 0 154 66t69 169zM275 392q-89 0 -156.5 -62.5t-67.5 -171.5q0 -100 88 -126l166 358q-20 2 -30 2zM82 -91l42 91q-51 16 -80 56t-29 100q0 123 80 196.5t182 73.5q15 0 43 -4l33 72h29l-37 -79q51 -16 80 -55.5t29 -98.5 q0 -123 -80 -196.5t-183 -73.5q-25 0 -42 4l-39 -86h-28z" horiz-adv-x="504"/>
<glyph glyph-name="ugrave" unicode="ù" d="M78 418h35l-46 -222q-8 -44 -8 -65q0 -107 110 -107q27 0 54 8.5t59 29t58 64.5t39 107l39 185h36l-88 -418h-36l22 101q-76 -109 -193 -109q-71 0 -103.5 37t-32.5 99q0 30 8 68zM259 485l-31 113l41 9l21 -122h-31z" horiz-adv-x="483"/>
<glyph glyph-name="uacute" unicode="ú" d="M78 418h35l-46 -222q-8 -44 -8 -65q0 -107 110 -107q27 0 54 8.5t59 29t58 64.5t39 107l39 185h36l-88 -418h-36l22 101q-76 -109 -193 -109q-71 0 -103.5 37t-32.5 99q0 30 8 68zM289 483h-34l73 122l38 -8z" horiz-adv-x="483"/>
<glyph glyph-name="ucircumflex" unicode="û" d="M78 418h35l-46 -222q-8 -44 -8 -65q0 -107 110 -107q27 0 54 8.5t59 29t58 64.5t39 107l39 185h36l-88 -418h-36l22 101q-76 -109 -193 -109q-71 0 -103.5 37t-32.5 99q0 30 8 68zM372 481l-79 76l-110 -76l-31 15l139 93h15l101 -93z" horiz-adv-x="483"/>
<glyph glyph-name="udieresis" unicode="ü" d="M78 418h35l-46 -222q-8 -44 -8 -65q0 -107 110 -107q27 0 54 8.5t59 29t58 64.5t39 107l39 185h36l-88 -418h-36l22 101q-76 -109 -193 -109q-71 0 -103.5 37t-32.5 99q0 30 8 68zM339 482q-24 0 -24 19q0 1 0.5 2.5t0.5 2.5q6 22 30 22q23 0 23 -19v-5q-5 -22 -30 -22z M203 482q-10 0 -16.5 5.5t-6.5 13.5q0 1 0.5 2.5t0.5 2.5q4 22 30 22q23 0 23 -18q0 -4 -1 -6q-5 -22 -30 -22z" horiz-adv-x="483"/>
<glyph glyph-name="yacute" unicode="ý" d="M67 -157l-36 7l110 156l-114 412h39l101 -375l260 375h43zM278 484h-34l75 122l37 -9z" horiz-adv-x="442"/>
<glyph glyph-name="thorn" unicode="þ" d="M297 393q-35 0 -68.5 -12.5t-67.5 -40t-61.5 -81t-41.5 -127.5l-10 -52q65 -53 148 -53q92 0 155.5 72.5t63.5 167.5q0 126 -118 126zM194 -8q-81 0 -154 54v2q-6 -33 -20.5 -98t-20.5 -98l-38 -8q14 68 42 199.5t66 310.5t55 261l38 9l-72 -334q22 42 51 71.5t60 43 t55 18.5t47 5q72 0 110.5 -42t38.5 -114q0 -110 -75 -195t-183 -85z" horiz-adv-x="498"/>
</font>
</defs>
</svg>
