<?xml version="1.0" encoding="UTF-8" standalone="no"?>
<!DOCTYPE svg  PUBLIC '-//W3C//DTD SVG 1.1//EN'  'http://www.w3.org/Graphics/SVG/1.1/DTD/svg11.dtd'>
<svg xmlns="http://www.w3.org/2000/svg" version="1.1">
<defs>
<font id="Serenity-MediumItalic" horiz-adv-x="720">
<font-face cap-height="620" font-family="Serenity Medium" panose-1="0 0 6 0 0 0 0 0 0 0" unicode-range="U+0020-00FE" ascent="800" underline-thickness="50" font-style="italic" x-height="419" font-weight="500" underline-position="-150" bbox="-130 -213 900 845" units-per-em="1000" descent="-200"/>
<missing-glyph/>
<glyph glyph-name="space" unicode=" " horiz-adv-x="216"/>
<glyph glyph-name="exclam" unicode="!" d="M44 -5q-23 0 -36.5 11t-13.5 30q0 7 1 11q4 23 24 36.5t46 13.5q52 0 52 -40q0 -8 -1 -12q-5 -23 -25 -36.5t-47 -13.5zM222 568q-4 -31 -48 -162.5t-65 -234.5h-56q27 129 38.5 252t16.5 145q14 61 71 61q44 0 44 -47q0 -9 -1 -14z" horiz-adv-x="217"/>
<glyph glyph-name="quotedbl" unicode='&quot;' d="M319 346h-77l49 274h95zM149 346h-77l49 274h95z" horiz-adv-x="370"/>
<glyph glyph-name="numbersign" unicode="#" d="M280 374l-52 -99h114l53 99h-115zM579 375h-103l-52 -100h103l-35 -67h-104l-108 -208h-82l109 208h-115l-80 -154h-82l81 154h-100l15 67h120l52 99h-103l15 67h124l93 179h81l-93 -179h115l68 129h80l-66 -129h102z" horiz-adv-x="602"/>
<glyph glyph-name="dollar" unicode="$" d="M345 186q0 32 -21 52t-60 38l-94 -205q10 -2 29 -2q65 0 105.5 32t40.5 85zM185 455q0 -28 17 -45.5t50 -32.5l79 171q-18 2 -28 2q-49 0 -83.5 -27t-34.5 -68zM35 -97l49 107q-59 20 -108 58l55 67q38 -31 87 -50l98 212q-30 13 -49.5 24t-40.5 29t-31.5 44t-10.5 59 q0 87 62.5 131t156.5 44q30 0 63 -5l30 66h57l-36 -78q45 -13 70 -28l-24 -76q-47 24 -79 32l-83 -182q32 -13 52.5 -23.5t44 -30t35 -48t11.5 -67.5q0 -92 -68 -144.5t-179 -52.5q-33 0 -61 6l-42 -94h-59z" horiz-adv-x="497"/>
<glyph glyph-name="percent" unicode="%" d="M547 225q-33 0 -60 -23.5t-36 -62.5q-3 -13 -3 -24q0 -29 17 -45t44 -16q34 0 60.5 22.5t35.5 62.5q2 8 2 23q0 30 -16.5 46.5t-43.5 16.5zM502 -6q-55 0 -90.5 31.5t-35.5 85.5q0 10 4 34q15 67 62.5 104t110.5 37q56 0 91 -31.5t35 -85.5q0 -19 -4 -36 q-14 -67 -61 -103t-112 -36zM243 567q-33 0 -60 -23.5t-35 -62.5q-3 -13 -3 -24q0 -28 17 -44t44 -16q34 0 60.5 22.5t35.5 62.5q2 8 2 23q0 29 -16.5 45.5t-44.5 16.5zM149 0h-79l529 620h78zM199 337q-54 0 -90 32t-36 85q0 18 4 34q15 68 62 104t111 36q55 0 90.5 -32 t35.5 -85q0 -19 -4 -35q-14 -67 -61 -103t-112 -36z" horiz-adv-x="746"/>
<glyph glyph-name="ampersand" unicode="&amp;" d="M387 104q-98 210 -112 238q-63 -8 -109.5 -42t-57.5 -94q-2 -9 -2 -26q0 -52 37.5 -84.5t100.5 -32.5q77 0 143 41zM528 8l-90 -14l-22 49q-77 -50 -193 -50q-97 0 -155.5 49.5t-58.5 129.5q0 11 4 39q14 80 77.5 128.5t156.5 63.5l-89 196l12 21h353l2 -70h-253 l182 -387q28 25 47 70t19 95v15h82q-7 -156 -113 -252z" horiz-adv-x="626"/>
<glyph glyph-name="quotesingle" unicode="&apos;" d="M149 346h-77l49 274h95z" horiz-adv-x="200"/>
<glyph glyph-name="parenleft" unicode="(" d="M132 287q-19 -87 -19 -148q0 -80 35.5 -133.5t118.5 -89.5l-43 -76q-111 47 -158.5 121t-47.5 178q0 75 20 164q36 171 116 270t260 162l11 -76q-137 -49 -198.5 -134.5t-94.5 -237.5z" horiz-adv-x="355"/>
<glyph glyph-name="parenright" unicode=")" d="M-73 -84q136 49 198 136t94 236q19 89 19 150q0 80 -35 133.5t-118 88.5l42 75q111 -46 159 -120t48 -179q0 -74 -20 -165q-36 -168 -116.5 -268t-259.5 -163z" horiz-adv-x="355"/>
<glyph glyph-name="asterisk" unicode="*" d="M292 446q12 -7 50.5 -29t54.5 -33l-48 -59l-90 67q-13 -85 -17 -119h-88l33 119l-118 -68l-22 63l132 61l-106 63l48 59l90 -69l17 119h88l-34 -117q19 9 61 34.5t57 33.5l23 -61z" horiz-adv-x="405"/>
<glyph glyph-name="plus" unicode="+" d="M485 212h-183l-43 -205h-94l44 205h-182l14 70h183l42 202h94l-43 -202h183z" horiz-adv-x="547"/>
<glyph glyph-name="comma" unicode="," d="M-3 -105l-70 19l139 249h104z" horiz-adv-x="215"/>
<glyph glyph-name="hyphen" unicode="-" d="M259 211h-249l14 69h250z" horiz-adv-x="305"/>
<glyph glyph-name="period" unicode="." d="M24 -4q-23 0 -36.5 10.5t-13.5 29.5q0 7 1 11q11 50 70 50q24 0 38.5 -10.5t14.5 -29.5q0 -7 -1 -11q-5 -23 -25.5 -36.5t-47.5 -13.5z" horiz-adv-x="177"/>
<glyph glyph-name="slash" unicode="/" d="M42 0h-98l368 620h96z" horiz-adv-x="347"/>
<glyph glyph-name="zero" unicode="0" d="M332 550q-65 0 -116 -62t-75 -177q-13 -59 -13 -108q0 -129 93 -129q68 0 121 61t77 175q13 65 13 104q0 66 -26 101t-74 35zM218 -8q-91 0 -140.5 56.5t-49.5 158.5q0 45 13 110q31 150 109.5 230.5t191.5 80.5q91 0 140.5 -56.5t49.5 -158.5q0 -50 -12 -109 q-32 -151 -111 -231.5t-191 -80.5z" horiz-adv-x="554"/>
<glyph glyph-name="one" unicode="1" d="M180 0h-101l110 518l-120 -48l3 82l198 73h43z" horiz-adv-x="310"/>
<glyph glyph-name="two" unicode="2" d="M396 78l-36 -78h-393l4 31q184 148 280.5 251.5t100.5 176.5v9q0 78 -89 78q-90 0 -173 -56v18v34q0 20 1 30q22 17 76 36.5t116 19.5q81 0 127 -38.5t46 -106.5q0 -87 -82 -185t-242 -220h264z" horiz-adv-x="470"/>
<glyph glyph-name="three" unicode="3" d="M264 380q76 -3 119 -44.5t43 -109.5q0 -16 -3 -33q-14 -94 -88 -147.5t-182 -53.5q-62 0 -114 20.5t-77 42.5l55 67q22 -20 58 -36t74 -16q66 0 115.5 36t59.5 92q2 9 2 26q0 54 -40.5 78.5t-99.5 24.5q-30 0 -51 -4l-5 13l199 207h-229l35 77h350l-1 -16z" horiz-adv-x="476"/>
<glyph glyph-name="four" unicode="4" d="M102 209h196l56 265zM461 134h-78l-29 -134h-100l29 134h-307q0 6 2 16t2 16l422 454h84l-87 -411h97z" horiz-adv-x="532"/>
<glyph glyph-name="five" unicode="5" d="M462 543h-213l-55 -157q42 7 69 7q85 0 135 -41.5t50 -115.5q0 -12 -4 -40q-16 -97 -89.5 -151t-182.5 -54q-67 0 -125 23t-85 44l55 68q24 -19 66.5 -38t87.5 -19q67 0 114 35.5t57 95.5q2 18 2 25q0 55 -41 80.5t-103 25.5q-57 0 -104 -18l-12 11l102 296h310z" horiz-adv-x="497"/>
<glyph glyph-name="six" unicode="6" d="M184 334q-52 -46 -66 -115q-5 -21 -5 -46q0 -51 28 -78t75 -27q58 0 104.5 39.5t60.5 111.5q3 13 3 27q0 48 -30.5 80t-80.5 32q-39 0 -89 -24zM207 -8q-85 0 -138.5 46.5t-53.5 128.5q0 26 6 56q11 49 48.5 106.5t132.5 155.5l137 143l105 -15q-163 -158 -217 -218 q43 13 83 13q77 0 124 -45.5t47 -114.5q0 -11 -4 -37q-19 -106 -94 -162.5t-176 -56.5z" horiz-adv-x="531"/>
<glyph glyph-name="seven" unicode="7" d="M124 -8l-92 17l332 533h-295l35 78h398z" horiz-adv-x="451"/>
<glyph glyph-name="eight" unicode="8" d="M260 312q-54 0 -96 -32.5t-54 -91.5q-4 -24 -4 -32q0 -44 27.5 -67t72.5 -23q55 0 96.5 31t54.5 92q4 24 4 32q0 44 -27.5 67.5t-73.5 23.5zM314 559q-40 0 -73.5 -26t-42.5 -70q-2 -8 -2 -23q0 -35 21 -54.5t55 -19.5q41 0 75.5 27t43.5 71q2 8 2 22q0 34 -22 53.5 t-57 19.5zM357 341q45 -10 71.5 -43.5t26.5 -84.5q0 -17 -5 -42q-18 -87 -87 -133t-167 -46q-83 0 -135.5 41t-52.5 112q0 17 5 42q13 61 58 101.5t105 52.5q-31 10 -51 39.5t-20 68.5q0 15 3 31q15 71 74.5 109t139.5 38q71 0 119 -36.5t48 -94.5q0 -14 -3 -27 q-11 -49 -47.5 -83.5t-81.5 -44.5z" horiz-adv-x="513"/>
<glyph glyph-name="nine" unicode="9" d="M353 287q52 46 66 115q5 21 5 46q0 51 -28 78t-75 27q-58 0 -104.5 -39.5t-60.5 -111.5q-3 -14 -3 -27q0 -48 30.5 -80t80.5 -32q40 0 89 24zM330 629q85 0 138.5 -46.5t53.5 -128.5q0 -26 -6 -56q-11 -49 -48.5 -106.5t-132.5 -155.5l-137 -143l-105 15q163 158 217 218 q-43 -13 -83 -13q-77 0 -124 45.5t-47 114.5q0 11 4 37q19 106 94 162.5t176 56.5z" horiz-adv-x="531"/>
<glyph glyph-name="colon" unicode=":" d="M24 -4q-23 0 -36.5 10.5t-13.5 29.5q0 7 1 11q11 50 70 50q24 0 38.5 -10.5t14.5 -29.5q0 -7 -1 -11q-5 -23 -25.5 -36.5t-47.5 -13.5zM94 321q-23 0 -37 10.5t-14 29.5q0 7 1 11q5 24 24.5 37.5t45.5 13.5q24 0 38.5 -10.5t14.5 -30.5q0 -7 -1 -11q-5 -23 -25 -36.5 t-47 -13.5z" horiz-adv-x="177"/>
<glyph glyph-name="semicolon" unicode=";" d="M-3 -105l-70 19l139 249h104zM132 321q-23 0 -37.5 11t-14.5 30q0 7 1 10q6 24 25.5 37.5t46.5 13.5q23 0 37.5 -10.5t14.5 -30.5q0 -7 -1 -11q-5 -23 -25.5 -36.5t-46.5 -13.5z" horiz-adv-x="240"/>
<glyph glyph-name="less" unicode="&lt;" d="M353 360l-204 -120l153 -120l-16 -78l-264 184l9 41l342 183z" horiz-adv-x="378"/>
<glyph glyph-name="equal" unicode="=" d="M426 126h-418l14 67h419zM464 306h-418l15 66h417z" horiz-adv-x="506"/>
<glyph glyph-name="greater" unicode="&gt;" d="M325 225l-341 -184l19 91l204 119l-152 121l15 77l264 -183z" horiz-adv-x="378"/>
<glyph glyph-name="question" unicode="?" d="M79 -4q-23 0 -37 10.5t-14 29.5q0 7 1 11q5 24 24.5 37t46.5 13q23 0 37.5 -10.5t14.5 -29.5q0 -7 -1 -11q-5 -23 -25.5 -36.5t-46.5 -13.5zM93 196q-7 18 -7 37q0 24 13 52q13 27 47.5 65.5t59.5 74t25 68.5q0 58 -66 58q-30 0 -77 -16l24 84q44 12 84 12q67 0 102 -31 t35 -81q0 -10 -4 -32q-8 -39 -38.5 -76.5t-62 -63t-56.5 -58.5t-25 -65q0 -13 2 -20z" horiz-adv-x="315"/>
<glyph glyph-name="at" unicode="@" d="M391 419q-57 0 -95.5 -42.5t-38.5 -102.5q0 -30 17.5 -47.5t50.5 -17.5q36 0 74 29t56 92q1 4 5 23t9 44q-25 22 -78 22zM424 196q-53 -56 -126 -56q-52 0 -84 34t-32 93q0 88 59 153.5t152 65.5q100 0 159 -57l-45 -214q46 18 79.5 69.5t33.5 123.5q0 73 -58 113 t-151 40q-123 0 -216 -94t-93 -221q0 -87 61.5 -137t165.5 -50q107 0 233 63l26 -64q-148 -66 -270 -66q-128 0 -208 67t-80 185q0 154 112 269t273 115q121 0 197 -53t76 -157q0 -115 -78.5 -193t-198.5 -85z"/>
<glyph glyph-name="A" unicode="A" d="M349 469l-182 -280h245zM454 0l-27 119h-305l-78 -119h-115l436 629h26l168 -629h-105z" horiz-adv-x="614"/>
<glyph glyph-name="B" unicode="B" d="M170 307l-48 -231h66q87 0 133.5 26.5t60.5 89.5q3 15 3 27q0 88 -159 88h-56zM222 547l-37 -170q113 0 157 16t55 67q2 8 2 22q0 36 -32.5 50.5t-102.5 14.5h-42zM364 350q119 -21 119 -123q0 -17 -5 -44q-12 -57 -41 -94.5t-76.5 -56t-100 -25.5t-129.5 -7h-126 l131 619h135q219 0 219 -122q0 -20 -4 -37q-10 -46 -42 -74t-80 -36z" horiz-adv-x="539"/>
<glyph glyph-name="C" unicode="C" d="M593 489q-22 17 -35.5 25.5t-52.5 22t-82 13.5q-98 0 -177 -62t-104 -177q-7 -31 -7 -64q0 -80 48.5 -128.5t137.5 -48.5q86 0 194 66l31 -67q-120 -77 -244 -77q-120 0 -194.5 66t-74.5 182q0 34 8 77q30 150 136 230.5t248 80.5q66 0 116 -19t76 -40z" horiz-adv-x="606"/>
<glyph glyph-name="D" unicode="D" d="M221 543l-99 -464h73q135 0 216 64t103 168q6 30 6 59q0 80 -54.5 126.5t-168.5 46.5h-76zM5 0l131 620h164q162 0 241.5 -66t79.5 -176q0 -34 -8 -74q-30 -138 -137.5 -221t-295.5 -83h-175z" horiz-adv-x="647"/>
<glyph glyph-name="E" unicode="E" d="M472 542h-252l-35 -166h193l-16 -78h-194l-46 -219h335l-35 -79h-417l131 620h353z" horiz-adv-x="511"/>
<glyph glyph-name="F" unicode="F" d="M480 543h-259l-36 -167h189l-16 -78h-190l-63 -298h-100l131 620h360z" horiz-adv-x="440"/>
<glyph glyph-name="G" unicode="G" d="M604 491q-78 59 -174 59q-103 0 -183 -62t-106 -176q-8 -37 -8 -66q0 -79 48.5 -127t138.5 -48q80 0 145 41l45 216h100l-54 -259q-123 -77 -252 -77q-124 0 -197.5 66t-73.5 181q0 42 8 78q30 150 137.5 230.5t252.5 80.5q121 0 198 -56z" horiz-adv-x="661"/>
<glyph glyph-name="H" unicode="H" d="M529 0h-100l64 302h-324l-64 -302h-100l131 620h100l-51 -240h324l51 240h101z" horiz-adv-x="659"/>
<glyph glyph-name="I" unicode="I" d="M105 0h-100l131 620h101z" horiz-adv-x="235"/>
<glyph glyph-name="J" unicode="J" d="M262 230q-27 -126 -96 -181.5t-194 -56.5l-1 80q93 0 133.5 44.5t64.5 157.5l74 346h101z" horiz-adv-x="338"/>
<glyph glyph-name="K" unicode="K" d="M300 351l258 -351h-114l-256 362l308 258h139zM105 0h-100l131 620h101z" horiz-adv-x="596"/>
<glyph glyph-name="L" unicode="L" d="M348 0h-343l131 620h101l-115 -541h262z" horiz-adv-x="447"/>
<glyph glyph-name="M" unicode="M" d="M72 0h-102l247 624h23l129 -338l278 338h24l-17 -624h-96l12 413l-226 -276l-110 280z" horiz-adv-x="749"/>
<glyph glyph-name="N" unicode="N" d="M545 -3h-22l-328 436l-90 -433h-100l132 623h21l329 -440l90 437h101z" horiz-adv-x="676"/>
<glyph glyph-name="O" unicode="O" d="M414 550q-95 0 -171.5 -63.5t-100.5 -175.5q-7 -34 -7 -67q0 -83 48 -128t128 -45q95 0 171.5 63.5t100.5 175.5q7 34 7 67q0 83 -48.5 128t-127.5 45zM306 -8q-120 0 -196.5 66t-76.5 182q0 41 8 77q31 148 135 229.5t243 81.5q120 0 197.5 -66t77.5 -181q0 -37 -9 -77 q-31 -148 -135.5 -230t-243.5 -82z"/>
<glyph glyph-name="P" unicode="P" d="M221 542l-60 -283h26h27q89 0 146.5 38t71.5 105q3 17 3 31q0 51 -40 80t-117 29h-57zM144 182l-39 -182h-100l131 620h138q127 0 194 -48t67 -129q0 -20 -5 -47q-22 -103 -107 -158.5t-227 -55.5h-52z" horiz-adv-x="545"/>
<glyph glyph-name="Q" unicode="Q" d="M414 550q-95 0 -171.5 -63.5t-100.5 -175.5q-7 -34 -7 -67q0 -83 48 -128t128 -45q92 0 165 58q-50 60 -117 65l37 79q74 -2 138 -79q35 43 51 127q5 24 5 55q0 80 -46.5 127t-129.5 47zM675 -5h-6q-85 0 -142 73q-96 -75 -221 -75q-120 0 -196.5 66t-76.5 182q0 40 8 76 q31 148 135 229.5t243 81.5q121 0 197.5 -66t76.5 -180q0 -30 -8 -72q-22 -103 -91 -186q41 -52 101 -52q3 0 8 0.5t7 0.5z" horiz-adv-x="750"/>
<glyph glyph-name="R" unicode="R" d="M277 545h-55l-45 -208q19 0 57 2q137 5 159 103q3 12 3 24q0 79 -119 79zM499 -5h-6q-43 0 -74.5 15t-49 39t-30.5 52.5t-24 57.5t-24.5 53t-36.5 39t-56 15h-36l-57 -266h-100l131 620h140q104 0 161.5 -36.5t57.5 -106.5q0 -17 -5 -42q-15 -67 -60.5 -104t-110.5 -42 q28 -8 47 -34t30.5 -56.5t24.5 -60.5t38.5 -50t64.5 -20h11z" horiz-adv-x="569"/>
<glyph glyph-name="S" unicode="S" d="M463 507q-82 43 -160 43q-49 0 -83.5 -27t-34.5 -68q0 -33 26.5 -54t64.5 -34.5t76.5 -31t65 -54.5t26.5 -93q0 -92 -68 -144.5t-179 -52.5q-72 0 -130 25t-91 52l55 67q30 -25 76 -45.5t92 -20.5q65 0 105.5 32t40.5 85q0 29 -19.5 51t-48.5 33.5t-62.5 27t-62.5 32 t-48.5 48.5t-19.5 75q0 87 62.5 131t156.5 44q106 0 184 -45z" horiz-adv-x="497"/>
<glyph glyph-name="T" unicode="T" d="M487 542h-161l-115 -542h-99l114 542h-170l35 78h412z" horiz-adv-x="452"/>
<glyph glyph-name="U" unicode="U" d="M587 296q-33 -156 -109.5 -231.5t-211.5 -75.5q-216 0 -216 199q0 52 13 111l68 321h101l-60 -281q-22 -98 -22 -147q0 -125 125 -125q90 0 140 65t81 207l59 281h101z" horiz-adv-x="649"/>
<glyph glyph-name="V" unicode="V" d="M248 -6h-25l-157 626h103l98 -458l291 458h113z" horiz-adv-x="599"/>
<glyph glyph-name="W" unicode="W" d="M230 201l236 423h29l57 -424l240 420h108l-372 -625h-28l-58 432l-241 -432h-29l-106 625h102z" horiz-adv-x="828"/>
<glyph glyph-name="X" unicode="X" d="M362 350l169 -350h-109l-129 277l-239 -277h-120l320 357l-132 263h112l87 -190l163 190h122z" horiz-adv-x="591"/>
<glyph glyph-name="Y" unicode="Y" d="M331 227l-48 -227h-100l47 226q-24 54 -84 191.5t-90 202.5h104l131 -310l261 310h119z" horiz-adv-x="590"/>
<glyph glyph-name="Z" unicode="Z" d="M113 78h417l-36 -78h-560l501 542h-329l36 78h470z" horiz-adv-x="583"/>
<glyph glyph-name="bracketleft" unicode="[" d="M359 660h-134l-154 -724h134l-17 -78h-228l187 881h229z" horiz-adv-x="299"/>
<glyph glyph-name="backslash" unicode="\" d="M188 0l-112 620h89l112 -620h-89z" horiz-adv-x="347"/>
<glyph glyph-name="bracketright" unicode="]" d="M154 -142h-229l16 78h135l154 726h-135l17 79h230z" horiz-adv-x="299"/>
<glyph glyph-name="asciicircum" unicode="^" d="M301 171l-57 176l-135 -176l-67 31l213 263h22l99 -264z" horiz-adv-x="458"/>
<glyph glyph-name="underscore" unicode="_" d="M619 -155h-749l12 58h749z" horiz-adv-x="681"/>
<glyph glyph-name="grave" unicode="`" d="M274 583l-55 118l96 18l23 -136h-64z" horiz-adv-x="429"/>
<glyph glyph-name="a" unicode="a" d="M266 347q-70 0 -116.5 -55t-46.5 -132q0 -41 21 -64t63 -23q130 0 177 242q-35 32 -98 32zM388 0h-91l17 84q-68 -93 -154 -93q-70 0 -111 43t-41 113q0 111 73.5 195.5t188.5 84.5q111 0 193 -77z" horiz-adv-x="509"/>
<glyph glyph-name="b" unicode="b" d="M199 70q71 0 117.5 56t46.5 131q0 41 -21 64t-63 23q-48 0 -85 -33.5t-55 -75t-28 -91.5l-10 -43q35 -31 98 -31zM116 600l96 22l-60 -288q69 92 156 92q70 0 110 -42.5t40 -113.5q0 -112 -73.5 -196t-189.5 -84q-110 0 -192 77z" horiz-adv-x="509"/>
<glyph glyph-name="c" unicode="c" d="M385 317q-43 32 -107 32q-70 0 -123 -46t-53 -128q0 -46 32.5 -74.5t84.5 -28.5q50 0 121 38l36 -66q-89 -53 -171 -53q-84 0 -139.5 50.5t-55.5 128.5q0 118 79.5 187.5t182.5 69.5q85 0 133 -34z" horiz-adv-x="436"/>
<glyph glyph-name="d" unicode="d" d="M267 347q-71 0 -117.5 -55t-46.5 -132q0 -41 21 -64t63 -23q127 0 168 199l9 43q-35 32 -97 32zM519 622l-131 -622h-90l17 84q-65 -93 -155 -93q-69 0 -110.5 43t-41.5 113q0 68 29 131t87 105t132 42q80 0 125 -33q7 35 22 106.5t21 103.5z" horiz-adv-x="510"/>
<glyph glyph-name="e" unicode="e" d="M253 352q-46 0 -82 -24.5t-53 -70.5h219v9q0 41 -22 63.5t-62 22.5zM101 186q-2 -10 -2 -22q0 -45 30.5 -69t85.5 -24q68 0 133 41l33 -67q-86 -53 -187 -53q-90 0 -139 47t-49 129q0 116 73 187.5t176 71.5q81 0 125.5 -45t44.5 -115q0 -39 -14 -81h-310z" horiz-adv-x="470"/>
<glyph glyph-name="f" unicode="f" d="M345 534q-23 8 -57 8q-59 0 -75 -74l-10 -49h100l-16 -75h-100l-73 -344h-91l72 344h-84l36 75h64l11 52q32 150 157 150q25 0 49 -3.5t36 -7.5l11 -3z" horiz-adv-x="295"/>
<glyph glyph-name="g" unicode="g" d="M261 349q-68 0 -112 -49.5t-44 -115.5q0 -38 21.5 -60.5t62.5 -22.5q42 0 89 38t65 114q2 11 7.5 32.5t8.5 34.5q-40 29 -98 29zM397 75q-27 -129 -88 -178.5t-155 -49.5q-51 0 -103.5 23t-82.5 47l61 65q22 -20 60 -37.5t71 -17.5q50 0 89.5 31.5t53.5 101.5l10 49 q-61 -84 -153 -84q-66 0 -107 42t-41 108q0 106 71 179t185 73q103 0 189 -70z" horiz-adv-x="503"/>
<glyph glyph-name="h" unicode="h" d="M384 0h-93l41 197q13 63 13 87q0 32 -16 47.5t-57 15.5q-45 0 -90.5 -42.5t-60.5 -112.5l-41 -192h-92l128 603l96 18l-60 -282q26 37 72 62.5t90 25.5q65 0 94.5 -31t29.5 -95q0 -40 -13 -102z" horiz-adv-x="498"/>
<glyph glyph-name="i" unicode="i" d="M85 0h-93l89 419h93zM145 493q-21 0 -34.5 11t-13.5 29q0 1 0.5 4t0.5 5q5 22 22.5 34t39.5 12t35 -10.5t13 -29.5q0 -6 -1 -10q-5 -21 -22 -33t-40 -12z" horiz-adv-x="203"/>
<glyph glyph-name="j" unicode="j" d="M94 26q-21 -100 -60 -136t-130 -36h-9l-2 74q51 1 75 23t35 74l83 394h92zM149 493q-20 0 -33.5 12t-13.5 31q0 1 0.5 3.5t0.5 3.5q4 21 21 33t40 12q22 0 35.5 -10t13.5 -28q0 -4 -2 -12q-5 -21 -22 -33t-40 -12z" horiz-adv-x="206"/>
<glyph glyph-name="k" unicode="k" d="M241 231l154 -231h-107l-152 244l187 175h126zM80 0h-92l128 603l96 18z" horiz-adv-x="441"/>
<glyph glyph-name="l" unicode="l" d="M79 0h-93l128 603l97 18z" horiz-adv-x="192"/>
<glyph glyph-name="m" unicode="m" d="M583 0h-93l58 263q3 14 3 29q0 63 -57 63q-35 0 -66 -29.5t-47 -100.5l-50 -225h-93l58 259q3 15 3 31q0 65 -57 65q-32 0 -64.5 -29.5t-45.5 -94.5l-50 -231h-92l89 419h91l-13 -56q51 64 128 64q99 0 106 -86q26 40 64 63t76 23q112 0 112 -114q0 -27 -6 -56z" horiz-adv-x="704"/>
<glyph glyph-name="n" unicode="n" d="M384 0h-93l49 234q7 33 7 54q0 64 -74 64q-48 0 -92.5 -43.5t-59.5 -113.5l-41 -195h-92l89 419h92l-17 -78q27 36 72 61t89 25q127 0 127 -130q0 -27 -7 -65z" horiz-adv-x="500"/>
<glyph glyph-name="o" unicode="o" d="M265 347q-62 0 -112.5 -50t-50.5 -128q0 -47 27.5 -72.5t73.5 -25.5q61 0 112 50t51 128q0 47 -27.5 72.5t-73.5 25.5zM195 -8q-81 0 -133 46.5t-52 126.5q0 106 76 184t187 78q82 0 134 -46.5t52 -126.5t-40 -141t-99.5 -91t-124.5 -30z" horiz-adv-x="513"/>
<glyph glyph-name="p" unicode="p" d="M199 72q71 0 117 55t46 132q0 41 -21 64t-63 23q-30 0 -55.5 -13t-42.5 -31.5t-31 -47t-22 -52.5t-16 -55l-11 -44q35 -31 99 -31zM-45 -154l122 573h91l-18 -84q65 93 155 93q70 0 111 -43t41 -113q0 -68 -29 -131t-87 -105t-132 -42q-77 0 -124 34l-34 -163z" horiz-adv-x="510"/>
<glyph glyph-name="q" unicode="q" d="M265 348q-70 0 -116.5 -55t-46.5 -132q0 -41 21 -64t63 -23q130 0 177 242q-35 32 -98 32zM359 -133l-96 -22l51 241q-65 -94 -155 -94q-70 0 -111 43t-41 113q0 111 73.5 195.5t188.5 84.5q111 0 193 -77z" horiz-adv-x="508"/>
<glyph glyph-name="r" unicode="r" d="M150 340q58 84 151 84q16 0 34 -3l-28 -87q-7 1 -20 1q-67 0 -111 -44.5t-62 -128.5l-35 -162h-92l89 419h92z" horiz-adv-x="319"/>
<glyph glyph-name="s" unicode="s" d="M337 316q-62 34 -130 34q-28 0 -51.5 -9.5t-23.5 -31.5q0 -19 21 -32.5t50.5 -23t59 -22t50.5 -37.5t21 -62q0 -72 -52 -106.5t-130 -34.5q-53 0 -108.5 20.5t-83.5 40.5q4 4 10.5 11t20 23t29.5 33q22 -17 61 -32t77 -15q84 0 84 51q0 22 -21 36t-50.5 23.5t-59 22 t-50.5 38.5t-21 66q0 57 50 87.5t117 30.5q50 0 95.5 -15t64.5 -27z" horiz-adv-x="392"/>
<glyph glyph-name="t" unicode="t" d="M305 342h-116l-38 -180q-7 -33 -7 -48q0 -40 52 -40l62 4l-30 -80q-28 -3 -50 -3q-126 0 -126 114q0 22 7 57l38 176h-85l37 77h64l19 92l97 19l-23 -111h115z" horiz-adv-x="323"/>
<glyph glyph-name="u" unicode="u" d="M71 419h93l-48 -228q-7 -33 -7 -54q0 -64 74 -64q48 0 92 40.5t59 110.5l41 195h92l-89 -419h-92l17 78q-27 -36 -72 -61t-89 -25q-127 0 -127 130q0 26 7 65z" horiz-adv-x="498"/>
<glyph glyph-name="v" unicode="v" d="M179 -5h-29l-129 424h95l76 -274q15 22 189 274h107z" horiz-adv-x="460"/>
<glyph glyph-name="w" unicode="w" d="M395 -3h-29l-50 262l-160 -262h-30l-103 422h95l52 -255q18 29 51 80.5t60 94.5t50 80h31l49 -255l163 255h105z" horiz-adv-x="657"/>
<glyph glyph-name="x" unicode="x" d="M266 221l141 -221h-108l-93 160l-162 -160h-120l240 226l-119 193h106l74 -131l128 131h122z" horiz-adv-x="467"/>
<glyph glyph-name="y" unicode="y" d="M84 -152l-90 17l130 181l-104 373h97l71 -284q159 234 193 284h107z" horiz-adv-x="460"/>
<glyph glyph-name="z" unicode="z" d="M128 80h267l-37 -80h-414l328 339h-209l39 80h355z" horiz-adv-x="452"/>
<glyph glyph-name="braceleft" unicode="{" d="M417 661h-135q-2 -11 -9 -42.5t-16.5 -74t-14.5 -65.5q-20 -91 -43.5 -124t-67.5 -46q52 -26 52 -86q0 -16 -5 -44l-51 -243h134l-17 -78h-229l66 309q7 37 7 51q0 28 -16.5 39.5t-58.5 14.5l16 78q58 4 79 24t36 88q42 196 59 278h231z" horiz-adv-x="357"/>
<glyph glyph-name="bar" unicode="|" d="M69 -124l-100 -20l161 755l99 20z" horiz-adv-x="220"/>
<glyph glyph-name="braceright" unicode="}" d="M284 461q-9 -37 -9 -60q0 -28 16.5 -38t59.5 -14l-17 -77q-56 -4 -78 -25t-35 -81l-66 -308h-228l17 78h133l52 244q12 56 37 85.5t63 44.5q-24 11 -36.5 29.5t-12.5 55.5q0 28 9 73l41 193h-135l17 79h231z" horiz-adv-x="357"/>
<glyph glyph-name="asciitilde" unicode="~" d="M42 269q47 28 91 28q19 0 51 -6t47 -6q38 0 75 25l10 -67q-33 -21 -76 -21q-16 0 -49 4t-50 4q-53 0 -91 -33z" horiz-adv-x="375"/>
<glyph glyph-name="uni00A0" unicode=" " horiz-adv-x="337"/>
<glyph glyph-name="exclamdown" unicode="¡" d="M2 56q4 31 48 162.5t65 234.5h56q-27 -129 -38.5 -252t-16.5 -145q-14 -61 -71 -61q-44 0 -44 47q0 9 1 14zM180 629q23 0 36.5 -11t13.5 -30q0 -7 -1 -11q-4 -23 -24 -36.5t-46 -13.5q-52 0 -52 40q0 8 1 12q5 23 25 36.5t47 13.5z" horiz-adv-x="217"/>
<glyph glyph-name="cent" unicode="¢" d="M102 175q0 -54 43 -83l118 256q-65 -5 -113 -50.5t-48 -122.5zM61 -93l48 105q-46 22 -72.5 64t-26.5 94q0 118 79.5 187.5t182.5 69.5q18 0 27 -1l32 69h57l-36 -79q36 -10 53 -23l-20 -76q-29 21 -66 28l-124 -272q14 -2 24 -2q48 0 121 39l36 -66q-89 -53 -171 -53 q-22 0 -45 5l-40 -89h-59z" horiz-adv-x="432"/>
<glyph glyph-name="sterling" unicode="£" d="M356 297h-141q6 -25 6 -52q0 -12 -1 -17h107l-27 -57h-95q-24 -57 -83 -97h271l-37 -74h-378l2 22q108 59 144 149h-114l13 57h113v9q0 30 -9 60h-89l13 57h60q-16 50 -16 89q0 3 0.5 8t0.5 7q7 81 70 125.5t164 44.5q68 0 144 -24l-37 -73q-57 20 -103 20 q-56 0 -92.5 -24t-46.5 -69q-3 -15 -3 -31q0 -27 11 -73h180z" horiz-adv-x="457"/>
<glyph glyph-name="yen" unicode="¥" d="M379 288h105l-11 -57h-142l-14 -69h141l-11 -57h-142l-22 -105h-100l21 105h-142l13 57h142l14 69h-141l13 57h105q-23 50 -75 163t-77 169h102l134 -312l263 312h116z" horiz-adv-x="590"/>
<glyph glyph-name="brokenbar" unicode="¦" d="M69 -123l-99 -20l72 342l100 20zM163 321l-100 -20l67 310l99 20z" horiz-adv-x="220"/>
<glyph glyph-name="section" unicode="§" d="M235 362q-38 0 -64.5 -14t-26.5 -43q0 -19 22.5 -30.5t53.5 -11.5q37 0 64 13.5t27 43.5q0 19 -22.5 30.5t-53.5 11.5zM409 517q-67 36 -130 36q-84 0 -84 -54q0 -24 31 -39.5t68 -24t68 -33t31 -63.5q0 -43 -27 -72t-73 -41q52 -31 52 -91q0 -70 -52 -107t-129 -37 q-85 0 -175 63l58 65q67 -49 128 -49q28 0 53.5 15t25.5 44q0 24 -30 39t-66 23.5t-66 33t-30 64.5q0 42 26.5 71t69.5 42q-52 31 -52 93q0 68 50 101t121 33q45 0 93 -13t72 -30z" horiz-adv-x="442"/>
<glyph glyph-name="dieresis" unicode="¨" d="M380 574q-18 0 -30 9.5t-12 24.5q0 7 1 10q4 20 20.5 31t37.5 11q44 0 44 -34q0 -7 -1 -10q-4 -19 -21 -30.5t-39 -11.5zM206 574q-19 0 -31 10t-12 26q0 5 1 8q9 42 59 42q43 0 43 -34q0 -7 -1 -10q-4 -19 -21 -30.5t-38 -11.5z" horiz-adv-x="468"/>
<glyph glyph-name="copyright" unicode="©" d="M485 397q-40 21 -88 21q-55 0 -97 -36t-42 -98q0 -37 23 -57.5t63 -20.5q41 0 100 34l34 -54q-66 -50 -142 -50q-70 0 -112.5 36.5t-42.5 103.5q0 93 65 151.5t148 58.5q73 0 114 -27zM411 561q-124 0 -217 -95t-93 -222q0 -85 55 -135t143 -50q123 0 217.5 95.5 t94.5 221.5q0 86 -55.5 135.5t-144.5 49.5zM295 -8q-116 0 -190.5 67t-74.5 183q0 97 51.5 186t141 144.5t192.5 55.5q117 0 191.5 -66.5t74.5 -182.5q0 -155 -112.5 -271t-273.5 -116z"/>
<glyph glyph-name="ordfeminine" unicode="ª" d="M185 -4q-24 0 -39 12.5t-15 33.5q0 8 1 12q6 26 26 40.5t47 14.5q25 0 40.5 -12t15.5 -33q0 -9 -1 -14q-5 -24 -26 -39t-49 -15zM303 552q-71 0 -117 -54.5t-46 -128.5q0 -40 21.5 -63.5t63.5 -23.5q124 0 165 195l9 42q-36 33 -96 33zM421 212h-87l18 83 q-30 -42 -73.5 -67t-88.5 -25q-67 0 -103.5 41.5t-36.5 110.5q0 110 71.5 191t185.5 81q111 0 186 -73z" horiz-adv-x="498"/>
<glyph glyph-name="guillemotleft" unicode="«" d="M311 226l84 -150l-69 -26l-118 182l189 181l65 -26zM116 226l85 -150l-70 -26l-117 182l188 181l66 -26z" horiz-adv-x="475"/>
<glyph glyph-name="registered" unicode="®" d="M418 379v7q0 16 -16.5 24.5t-60.5 8.5h-16l-16 -86h19q48 0 67.5 10.5t22.5 35.5zM491 374q-6 -33 -32 -57t-56 -27q14 -7 23 -23.5t13.5 -31.5t19 -27.5t38.5 -14.5l-37 -59q-32 2 -50.5 23.5t-25 46t-23.5 44.5t-47 20h-19l-27 -134h-74l75 351h64q160 0 160 -89 q0 -6 -2 -22zM411 561q-124 0 -217 -95t-93 -222q0 -85 55 -135t143 -50q123 0 217.5 95.5t94.5 221.5q0 86 -55.5 135.5t-144.5 49.5zM295 -8q-116 0 -190.5 67t-74.5 183q0 97 51.5 186t141 144.5t192.5 55.5q117 0 191.5 -66.5t74.5 -182.5q0 -155 -112.5 -271 t-273.5 -116z"/>
<glyph glyph-name="macron" unicode="¯" d="M378 591h-236l14 63h235z" horiz-adv-x="395"/>
<glyph glyph-name="degree" unicode="°" d="M219 571q-28 0 -50 -17.5t-28 -47.5q-2 -12 -2 -17q0 -22 14 -34.5t37 -12.5q29 0 50.5 17t28.5 47q2 12 2 16q0 23 -14 36t-38 13zM185 386q-48 0 -79 27t-31 72q0 13 3 28q12 55 52 84.5t95 29.5q48 0 79.5 -27.5t31.5 -72.5q0 -13 -3 -27q-12 -55 -52.5 -84.5 t-95.5 -29.5z" horiz-adv-x="320"/>
<glyph glyph-name="uni00B2" unicode="²" d="M315 338l-29 -65h-241l1 20q205 132 205 219q0 48 -50 48q-47 0 -86 -28q1 12 2 34.5t2 33.5q15 9 48.5 19t68.5 10q50 0 78.5 -22t28.5 -60q0 -107 -153 -209h125z" horiz-adv-x="354"/>
<glyph glyph-name="uni00B3" unicode="³" d="M352 595l-99 -97q41 -7 63.5 -30t22.5 -55q0 -11 -3 -22q-13 -58 -59 -88.5t-104 -30.5q-39 0 -73 15.5t-48 32.5l47 51q10 -13 32 -22.5t43 -9.5q31 0 54 15t29 46q2 10 2 14q0 23 -17 37t-48 14q-17 0 -26 -2l-4 22l73 71h-113l29 64h195z" horiz-adv-x="363"/>
<glyph glyph-name="acute" unicode="´" d="M279 583h-73l84 136l91 -18z" horiz-adv-x="429"/>
<glyph glyph-name="uni00B5" unicode="µ" d="M377 0h-92l15 75q-49 -80 -125 -80q-20 0 -36.5 5.5t-25.5 13.5t-15.5 16t-8.5 14l-2 5q-27 -122 -40 -184l-97 -19l122 573h93l-43 -199q-6 -24 -6 -55q0 -90 78 -90q4 0 13 2t28 10.5t36 23t34.5 44.5t25.5 69l42 195h93z" horiz-adv-x="498"/>
<glyph glyph-name="paragraph" unicode="¶" d="M215 -135l-92 -20l101 483h-19q-57 0 -95 35t-38 90q0 15 3 32q15 69 69 104t126 35h106z" horiz-adv-x="374"/>
<glyph glyph-name="periodcentered" unicode="·" d="M78 196q-53 0 -53 38q0 7 1 11q5 22 23.5 35.5t47.5 13.5q24 0 38 -11t14 -29q0 -7 -1 -10q-5 -21 -24 -34.5t-46 -13.5z" horiz-adv-x="196"/>
<glyph glyph-name="cedilla" unicode="¸" d="M214 -88q-8 -36 -42 -57t-85 -21q-25 0 -46 5t-29 9l-9 5l36 45q28 -13 56 -13q43 0 49 27q0 1 0.5 3t0.5 3q0 22 -49 22l-44 -3l37 98h69l-21 -52q79 0 79 -52q0 -12 -2 -19z" horiz-adv-x="357"/>
<glyph glyph-name="uni00B9" unicode="¹" d="M207 276h-86l53 251l-79 -26l3 78l159 44h24z" horiz-adv-x="279"/>
<glyph glyph-name="ordmasculine" unicode="º" d="M185 -4q-24 0 -39 12.5t-15 33.5q0 8 1 12q6 26 26 40.5t47 14.5q25 0 40.5 -12t15.5 -33q0 -9 -1 -14q-5 -24 -26 -39t-49 -15zM302 552q-61 0 -111.5 -49.5t-50.5 -126.5q0 -47 27.5 -72.5t72.5 -25.5q62 0 111.5 49t49.5 127q0 46 -27 72t-72 26zM233 201 q-80 0 -131 45.5t-51 123.5q0 118 78.5 188t180.5 70q80 0 130.5 -45t50.5 -123q0 -105 -74 -182t-184 -77z" horiz-adv-x="499"/>
<glyph glyph-name="guillemotright" unicode="»" d="M235 50l-60 27l151 160l-84 151l64 25l123 -181zM46 50l-60 27l151 160l-85 151l64 25l124 -181z" horiz-adv-x="470"/>
<glyph glyph-name="onequarter" unicode="¼" d="M470 122h100l28 132zM692 66h-49l-14 -66h-85l14 66h-169l6 35l224 241h83l-45 -213h63zM174 0h-79l492 620h77zM210 276h-86l53 251l-79 -26l3 78l159 44h24z" horiz-adv-x="767"/>
<glyph glyph-name="onehalf" unicode="½" d="M722 65l-29 -65h-241l1 20q205 132 205 219q0 48 -50 48q-47 0 -86 -28q0 12 2 34.5t2 33.5q15 9 48.5 19t68.5 10q50 0 78.5 -22t28.5 -60q0 -107 -153 -209h125zM178 0h-79l492 620h77zM207 276h-86l53 251l-79 -26l3 78l159 44h24z" horiz-adv-x="804"/>
<glyph glyph-name="threequarters" unicode="¾" d="M497 122h100l28 132zM719 66h-49l-14 -66h-85l14 66h-169l6 35l224 241h83l-45 -213h63zM221 0h-79l492 620h77zM348 589l-95 -91q41 -7 63.5 -30t22.5 -55q0 -11 -3 -22q-13 -58 -59 -88.5t-104 -30.5q-39 0 -73 15.5t-48 32.5l47 51q10 -13 32 -22.5t43 -9.5 q31 0 54 15t29 46q2 10 2 14q0 23 -17 37t-48 14q-17 0 -26 -2v22l73 71h-117l29 64h195v-31z" horiz-adv-x="809"/>
<glyph glyph-name="questiondown" unicode="¿" d="M229 428q7 -18 7 -37q0 -24 -13 -52t-47.5 -66.5t-59.5 -75t-25 -70.5q0 -25 17 -39.5t48 -14.5q32 0 77 16l-23 -84q-44 -12 -84 -12q-67 0 -102 31t-35 81q0 10 4 32q7 32 28 62t46.5 53.5t50 46.5t41 49t16.5 52q0 13 -2 20zM243 628q23 0 37 -11t14 -29q0 -7 -1 -11 q-5 -24 -24.5 -37t-46.5 -13q-23 0 -37.5 10.5t-14.5 29.5q0 7 1 11q4 23 25 36.5t47 13.5z" horiz-adv-x="315"/>
<glyph glyph-name="Agrave" unicode="À" d="M349 469l-185 -280h248zM454 0l-29 119h-303l-78 -119h-115l436 629h26l168 -629h-105zM356 689l-55 118l96 19l23 -137h-64z" horiz-adv-x="614"/>
<glyph glyph-name="Aacute" unicode="Á" d="M349 469l-185 -280h248zM454 0l-29 119h-303l-78 -119h-115l436 629h26l168 -629h-105zM428 688h-74l85 137l91 -18z" horiz-adv-x="615"/>
<glyph glyph-name="Acircumflex" unicode="Â" d="M349 469l-185 -280h248zM454 0l-29 119h-303l-78 -119h-115l436 629h26l168 -629h-105zM475 681l-66 67l-91 -67l-67 35l159 107h23l117 -107z" horiz-adv-x="614"/>
<glyph glyph-name="Atilde" unicode="Ã" d="M349 469l-185 -280h248zM454 0l-29 119h-303l-78 -119h-115l436 629h26l168 -629h-105zM266 742q47 28 91 28q19 0 51 -6t47 -6q38 0 75 25l10 -67q-33 -21 -76 -21q-16 0 -49 4t-50 4q-53 0 -91 -33z" horiz-adv-x="614"/>
<glyph glyph-name="Adieresis" unicode="Ä" d="M349 469l-185 -280h248zM454 0l-29 119h-303l-78 -119h-115l436 629h26l168 -629h-105zM484 689q-19 0 -31 9.5t-12 25.5q0 5 1 8q4 20 21 31.5t38 11.5q44 0 44 -34q0 -7 -1 -10q-4 -19 -21 -30.5t-39 -11.5zM310 689q-19 0 -31 9t-12 25q0 6 1 9q4 20 20.5 31.5 t38.5 11.5q19 0 31 -9t12 -25q0 -7 -1 -10q-4 -18 -21 -30t-38 -12z" horiz-adv-x="619"/>
<glyph glyph-name="Aring" unicode="Å" d="M349 469l-185 -280h248zM454 0l-29 119h-303l-78 -119h-115l436 629h26l168 -629h-105zM415 801q-15 0 -27 -9.5t-16 -26.5q-1 -3 -1 -9q0 -12 8 -19.5t20 -7.5q17 0 30 12t15 28v6q0 26 -29 26zM393 686q-33 0 -54.5 18t-21.5 47q0 12 2 18q7 36 35.5 56t66.5 20 q34 0 55.5 -17.5t21.5 -46.5q0 -8 -1 -12q-5 -36 -34 -59.5t-70 -23.5z" horiz-adv-x="614"/>
<glyph glyph-name="AE" unicode="Æ" d="M198 190h190l60 286zM815 542h-252l-35 -166h193l-16 -78h-194l-46 -219h335l-35 -79h-417l25 120h-232l-105 -120h-115l541 620h370z" horiz-adv-x="853"/>
<glyph glyph-name="Ccedilla" unicode="Ç" d="M593 489q-22 17 -35.5 25.5t-52.5 22t-82 13.5q-98 0 -177.5 -62t-103.5 -177q-7 -32 -7 -65q0 -84 50.5 -130t135.5 -46q86 0 194 66l31 -67q-112 -72 -231 -77l-19 -48q93 -2 93 -60q0 -12 -2 -19q-7 -32 -36.5 -52t-75.5 -24q-24 -2 -35 -2q-4 0 -12 0.5t-12 0.5 q-12 2 -57 13l28 37q33 -11 53 -11q65 0 73 41q1 4 1 10q0 30 -58 30h-12t-9 -0.5t-4 -0.5l30 87q-104 11 -166.5 74t-62.5 168q0 38 9 81q31 150 136.5 230.5t247.5 80.5q66 0 116 -19t76 -40z" horiz-adv-x="606"/>
<glyph glyph-name="Egrave" unicode="È" d="M472 542h-252l-35 -166h193l-16 -78h-194l-46 -219h335l-35 -79h-417l131 620h353zM300 689l-54 118l95 19l24 -137h-65z" horiz-adv-x="511"/>
<glyph glyph-name="Eacute" unicode="É" d="M472 542h-252l-35 -166h193l-16 -78h-194l-46 -219h335l-35 -79h-417l131 620h353zM348 689h-74l85 137l91 -18z" horiz-adv-x="512"/>
<glyph glyph-name="Ecircumflex" unicode="Ê" d="M472 542h-252l-35 -166h193l-16 -78h-194l-46 -219h335l-35 -79h-417l131 620h353zM414 685l-66 67l-92 -67l-66 35l159 106h23l117 -106z" horiz-adv-x="512"/>
<glyph glyph-name="Edieresis" unicode="Ë" d="M472 542h-252l-35 -166h193l-16 -78h-194l-46 -219h335l-35 -79h-417l131 620h353zM416 690q-19 0 -31 9.5t-12 25.5q0 6 1 9q4 20 20.5 31t38.5 11q19 0 31 -9t12 -25q0 -6 -1 -10q-4 -19 -20.5 -30.5t-38.5 -11.5zM242 690q-19 0 -31 9t-12 25q0 7 1 10q4 20 20.5 31 t38.5 11q42 0 42 -33q0 -7 -1 -11q-4 -18 -20.5 -30t-37.5 -12z" horiz-adv-x="511"/>
<glyph glyph-name="Igrave" unicode="Ì" d="M105 0h-100l131 620h101zM174 690l-54 118l96 19l23 -137h-65z" horiz-adv-x="239"/>
<glyph glyph-name="Iacute" unicode="Í" d="M105 0h-100l131 620h101zM228 690h-74l85 137l91 -19z" horiz-adv-x="238"/>
<glyph glyph-name="Icircumflex" unicode="Î" d="M105 0h-100l131 620h101zM281 681l-66 66l-92 -66l-66 35l159 106h23l117 -106z" horiz-adv-x="238"/>
<glyph glyph-name="Idieresis" unicode="Ï" d="M105 0h-100l131 620h101zM288 687q-18 0 -30 9.5t-12 25.5q0 6 1 9q4 20 20.5 31t38.5 11q43 0 43 -34q0 -7 -1 -10q-4 -19 -21 -30.5t-39 -11.5zM114 687q-19 0 -31 10t-12 26q0 5 1 8q4 20 20.5 31t38.5 11q43 0 43 -34q0 -7 -1 -10q-4 -18 -21 -30t-38 -12z" horiz-adv-x="236"/>
<glyph glyph-name="Eth" unicode="Ð" d="M236 543l-35 -162h101l-16 -78h-101l-48 -224h43q40 0 59 1q125 6 199 68.5t96 162.5q6 30 6 59q0 80 -54.5 126.5t-168.5 46.5h-81zM20 0l64 303h-71l35 78h53l51 239h168q162 0 241.5 -66t79.5 -176q0 -34 -8 -74q-30 -138 -137 -221t-296 -83h-180z" horiz-adv-x="667"/>
<glyph glyph-name="Ntilde" unicode="Ñ" d="M545 -3h-22l-328 436l-90 -433h-100l132 623h21l329 -440l90 437h101zM531 705q-32 -16 -62 -16q-9 0 -23 2q-69 9 -70 9q-39 0 -82 -24l-10 63q46 28 90 28q14 0 54 -7q24 -6 36 -6h10q35 0 74 26l9 -52q-5 -5 -26 -23z" horiz-adv-x="676"/>
<glyph glyph-name="Ograve" unicode="Ò" d="M414 550q-95 0 -171.5 -63.5t-100.5 -175.5q-7 -34 -7 -67q0 -83 48 -128t128 -45q95 0 171.5 63.5t100.5 175.5q7 34 7 67q0 83 -48.5 128t-127.5 45zM306 -8q-120 0 -196.5 66t-76.5 182q0 41 8 77q31 148 135 229.5t243 81.5q120 0 197.5 -66t77.5 -181q0 -37 -9 -77 q-31 -148 -135.5 -230t-243.5 -82zM405 689l-54 118l96 19l23 -137h-65z"/>
<glyph glyph-name="Oacute" unicode="Ó" d="M414 550q-95 0 -171.5 -63.5t-100.5 -175.5q-7 -34 -7 -67q0 -83 48 -128t128 -45q95 0 171.5 63.5t100.5 175.5q7 34 7 67q0 83 -48.5 128t-127.5 45zM306 -8q-120 0 -196.5 66t-76.5 182q0 41 8 77q31 148 135 229.5t243 81.5q120 0 197.5 -66t77.5 -181q0 -37 -9 -77 q-31 -148 -135.5 -230t-243.5 -82zM465 691h-74l85 136l91 -18z"/>
<glyph glyph-name="Ocircumflex" unicode="Ô" d="M414 550q-95 0 -171.5 -63.5t-100.5 -175.5q-7 -34 -7 -67q0 -83 48 -128t128 -45q95 0 171.5 63.5t100.5 175.5q7 34 7 67q0 83 -48.5 128t-127.5 45zM306 -8q-120 0 -196.5 66t-76.5 182q0 41 8 77q31 148 135 229.5t243 81.5q120 0 197.5 -66t77.5 -181q0 -37 -9 -77 q-31 -148 -135.5 -230t-243.5 -82zM523 682l-66 66l-91 -66l-67 35l159 106h23l117 -106z"/>
<glyph glyph-name="Otilde" unicode="Õ" d="M414 550q-95 0 -171.5 -63.5t-100.5 -175.5q-7 -34 -7 -67q0 -83 48 -128t128 -45q95 0 171.5 63.5t100.5 175.5q7 34 7 67q0 83 -48.5 128t-127.5 45zM306 -8q-120 0 -196.5 66t-76.5 182q0 41 8 77q31 148 135 229.5t243 81.5q120 0 197.5 -66t77.5 -181q0 -37 -9 -77 q-31 -148 -135.5 -230t-243.5 -82zM316 743q47 28 91 28q19 0 51 -6t47 -6q38 0 75 25l10 -67q-33 -21 -76 -21q-16 0 -49 4t-50 4q-53 0 -91 -33z"/>
<glyph glyph-name="Odieresis" unicode="Ö" d="M414 550q-95 0 -171.5 -63.5t-100.5 -175.5q-7 -34 -7 -67q0 -83 48 -128t128 -45q95 0 171.5 63.5t100.5 175.5q7 34 7 67q0 83 -48.5 128t-127.5 45zM306 -8q-120 0 -196.5 66t-76.5 182q0 41 8 77q31 148 135 229.5t243 81.5q120 0 197.5 -66t77.5 -181q0 -37 -9 -77 q-31 -148 -135.5 -230t-243.5 -82zM526 687q-19 0 -31 10t-12 26q0 5 1 8q4 20 21 31t38 11q44 0 44 -34q0 -7 -1 -10q-4 -19 -21 -30.5t-39 -11.5zM352 687q-19 0 -31 9t-12 25q0 7 1 10q4 20 20.5 31t38.5 11q43 0 43 -34q0 -7 -1 -10q-4 -19 -21 -30.5t-38 -11.5z"/>
<glyph glyph-name="multiply" unicode="×" d="M296 244l117 -147l-65 -51l-116 147l-179 -147l-46 57l179 147l-116 147l63 51l117 -147l177 147l46 -58z" horiz-adv-x="502"/>
<glyph glyph-name="Oslash" unicode="Ø" d="M583 310q7 34 7 66q0 118 -95 159l-211 -463q9 -1 27 -1q95 0 171.5 63.5t100.5 175.5zM414 550q-95 0 -171.5 -63.5t-100.5 -175.5q-7 -34 -7 -67q0 -120 96 -159l213 463q-20 2 -30 2zM148 -97l48 106q-76 25 -120 85t-44 146q0 36 9 77q31 148 135 229.5t243 81.5 q27 0 59 -5l31 66h57l-36 -78q76 -25 120 -84.5t44 -145.5q0 -37 -9 -77q-31 -148 -135.5 -230t-243.5 -82q-33 0 -57 4l-42 -93h-59z"/>
<glyph glyph-name="Ugrave" unicode="Ù" d="M587 296q-33 -156 -109.5 -231.5t-211.5 -75.5q-216 0 -216 199q0 52 13 111l68 321h101l-60 -281q-22 -98 -22 -147q0 -125 125 -125q90 0 140 65t81 207l59 281h101zM379 690l-54 118l96 19l23 -137h-65z" horiz-adv-x="649"/>
<glyph glyph-name="Uacute" unicode="Ú" d="M587 296q-33 -156 -109.5 -231.5t-211.5 -75.5q-216 0 -216 199q0 52 13 111l68 321h101l-60 -281q-22 -98 -22 -147q0 -125 125 -125q90 0 140 65t81 207l59 281h101zM426 690h-73l84 136l91 -18z" horiz-adv-x="649"/>
<glyph glyph-name="Ucircumflex" unicode="Û" d="M587 296q-33 -156 -109.5 -231.5t-211.5 -75.5q-216 0 -216 199q0 52 13 111l68 321h101l-60 -281q-22 -98 -22 -147q0 -125 125 -125q90 0 140 65t81 207l59 281h101zM485 681l-65 66l-92 -66l-66 35l159 106h23l117 -106z" horiz-adv-x="649"/>
<glyph glyph-name="Udieresis" unicode="Ü" d="M587 296q-33 -156 -109.5 -231.5t-211.5 -75.5q-216 0 -216 199q0 52 13 111l68 321h101l-60 -281q-22 -98 -22 -147q0 -125 125 -125q90 0 140 65t81 207l59 281h101zM494 688q-19 0 -31 9t-12 25q0 6 1 9q4 20 20.5 31.5t38.5 11.5q19 0 31 -9t12 -25q0 -7 -1 -10 q-4 -19 -21 -30.5t-38 -11.5zM319 688q-19 0 -31 9.5t-12 25.5q0 5 1 8q11 43 59 43q19 0 31 -9t12 -25q0 -7 -1 -10q-4 -18 -21 -30t-38 -12z" horiz-adv-x="649"/>
<glyph glyph-name="Yacute" unicode="Ý" d="M331 227l-48 -227h-100l47 226q-24 54 -84 191.5t-90 202.5h104l131 -310l261 310h119zM397 689h-73l84 136l91 -18z" horiz-adv-x="590"/>
<glyph glyph-name="Thorn" unicode="Þ" d="M200 456l-60 -282h64q91 0 147.5 37.5t70.5 104.5q3 15 3 29q0 52 -41 81.5t-120 29.5h-64zM124 96l-21 -96h-100l131 620h102l-19 -86q48 0 101 -5q101 -10 155 -57.5t54 -119.5q0 -18 -5 -43q-22 -102 -109.5 -157.5t-232.5 -55.5h-56z" horiz-adv-x="550"/>
<glyph glyph-name="germandbls" unicode="ß" d="M175 74h10q74 0 122.5 43t48.5 119q0 107 -128 108l17 75q36 0 63.5 19t27.5 53q0 24 -15.5 38t-39.5 14q-38 0 -55 -21.5t-26 -63.5l-98 -458h-91l72 344h-73l35 75h54l6 32q17 88 60 129.5t122 41.5q62 0 102.5 -31t40.5 -79q0 -84 -84 -120q52 -17 78 -57t26 -96 q0 -114 -81 -177t-203 -63h-17z" horiz-adv-x="504"/>
<glyph glyph-name="agrave" unicode="à" d="M266 347q-70 0 -116.5 -55t-46.5 -132q0 -41 21 -64t63 -23q130 0 177 242q-35 32 -98 32zM388 0h-91l17 84q-68 -93 -154 -93q-70 0 -111 43t-41 113q0 111 73.5 195.5t188.5 84.5q111 0 193 -77zM252 484l-55 119l102 18l23 -137h-70z" horiz-adv-x="509"/>
<glyph glyph-name="aacute" unicode="á" d="M266 347q-70 0 -116.5 -55t-46.5 -132q0 -41 21 -64t63 -23q130 0 177 242q-35 32 -98 32zM388 0h-91l17 84q-68 -93 -154 -93q-70 0 -111 43t-41 113q0 111 73.5 195.5t188.5 84.5q111 0 193 -77zM342 486h-73l84 136l91 -18z" horiz-adv-x="509"/>
<glyph glyph-name="acircumflex" unicode="â" d="M266 347q-70 0 -116.5 -55t-46.5 -132q0 -41 21 -64t63 -23q130 0 177 242q-35 32 -98 32zM388 0h-91l17 84q-68 -93 -154 -93q-70 0 -111 43t-41 113q0 111 73.5 195.5t188.5 84.5q111 0 193 -77zM373 475l-65 67l-92 -67l-66 35l159 107h23l116 -107z" horiz-adv-x="509"/>
<glyph glyph-name="atilde" unicode="ã" d="M266 347q-70 0 -116.5 -55t-46.5 -132q0 -41 21 -64t63 -23q130 0 177 242q-35 32 -98 32zM388 0h-91l17 84q-68 -93 -154 -93q-70 0 -111 43t-41 113q0 111 73.5 195.5t188.5 84.5q111 0 193 -77zM163 536q47 28 91 28q18 0 50 -6t48 -6q38 0 75 25l10 -67 q-33 -21 -76 -21q-17 0 -50 4t-49 4q-53 0 -91 -33z" horiz-adv-x="509"/>
<glyph glyph-name="adieresis" unicode="ä" d="M266 347q-70 0 -116.5 -55t-46.5 -132q0 -41 21 -64t63 -23q130 0 177 242q-35 32 -98 32zM388 0h-91l17 84q-68 -93 -154 -93q-70 0 -111 43t-41 113q0 111 73.5 195.5t188.5 84.5q111 0 193 -77zM380 482q-18 0 -30 9.5t-12 24.5q0 6 1 9q4 20 20.5 31.5t37.5 11.5 q44 0 44 -34q0 -7 -1 -10q-4 -19 -21 -30.5t-39 -11.5zM206 482q-19 0 -31 9.5t-12 25.5q0 5 1 8q4 20 20.5 31.5t38.5 11.5q19 0 31 -9t12 -25q0 -7 -1 -10q-4 -19 -21 -30.5t-38 -11.5z" horiz-adv-x="507"/>
<glyph glyph-name="aring" unicode="å" d="M266 347q-70 0 -116.5 -55t-46.5 -132q0 -41 21 -64t63 -23q130 0 177 242q-35 32 -98 32zM388 0h-91l17 84q-68 -93 -154 -93q-70 0 -111 43t-41 113q0 111 73.5 195.5t188.5 84.5q111 0 193 -77zM313 596q-15 0 -27 -10t-16 -27q-1 -4 -1 -10q0 -25 28 -25q16 0 28 10 t16 25q1 3 1 9q0 12 -8 20t-21 8zM291 481q-34 0 -55.5 17.5t-21.5 46.5q0 6 2 18q7 36 36 56t67 20q34 0 55.5 -17.5t21.5 -46.5q0 -8 -1 -12q-5 -36 -33.5 -59t-70.5 -23z" horiz-adv-x="509"/>
<glyph glyph-name="ae" unicode="æ" d="M269 347q-69 0 -116 -55t-47 -131q0 -41 21.5 -64.5t63.5 -23.5q72 0 112.5 59t55.5 140l8 43q-35 32 -98 32zM580 358q-92 0 -131 -101h215q1 6 1 18q0 36 -22 59.5t-63 23.5zM433 186q0 -2 -0.5 -7t-0.5 -8q0 -45 28.5 -73.5t88.5 -28.5q61 0 133 43l28 -67 q-90 -53 -172 -53q-109 0 -142 77l-14 -69h-75l18 76q-64 -85 -161 -85q-71 0 -112 43t-41 113q0 67 28.5 129.5t88 105.5t136.5 43q89 0 169 -58q73 60 162 60q72 0 115 -40t43 -108q0 -48 -15 -93h-305z" horiz-adv-x="811"/>
<glyph glyph-name="ccedilla" unicode="ç" d="M292 -118q-8 -36 -42 -57t-85 -21q-25 0 -46 5t-29 9l-9 5l36 45q28 -13 56 -13q43 0 49 27q0 1 0.5 3t0.5 3q0 22 -49 22l-44 -3l33 88q-68 12 -110.5 59.5t-42.5 115.5q0 118 79.5 187.5t182.5 69.5q85 0 133 -34l-20 -76q-43 32 -107 32q-70 0 -123 -46t-53 -128 q0 -46 32.5 -74.5t84.5 -28.5q50 0 121 38l36 -66q-75 -45 -145 -51l-16 -40q79 0 79 -52q0 -12 -2 -19z" horiz-adv-x="436"/>
<glyph glyph-name="egrave" unicode="è" d="M253 352q-46 0 -82 -24.5t-53 -70.5h219v9q0 41 -22 63.5t-62 22.5zM101 186q-2 -10 -2 -22q0 -45 30.5 -69t85.5 -24q68 0 133 41l33 -67q-86 -53 -187 -53q-90 0 -139 47t-49 129q0 116 73 187.5t176 71.5q81 0 125.5 -45t44.5 -115q0 -39 -14 -81h-310zM249 484 l-55 118l96 18l23 -136h-64z" horiz-adv-x="470"/>
<glyph glyph-name="eacute" unicode="é" d="M253 352q-46 0 -82 -24.5t-53 -70.5h219v9q0 41 -22 63.5t-62 22.5zM101 186q-2 -10 -2 -22q0 -45 30.5 -69t85.5 -24q68 0 133 41l33 -67q-86 -53 -187 -53q-90 0 -139 47t-49 129q0 116 73 187.5t176 71.5q81 0 125.5 -45t44.5 -115q0 -39 -14 -81h-310zM310 484h-74 l85 137l91 -19z" horiz-adv-x="469"/>
<glyph glyph-name="ecircumflex" unicode="ê" d="M253 352q-46 0 -82 -24.5t-53 -70.5h219v9q0 41 -22 63.5t-62 22.5zM101 186q-2 -10 -2 -22q0 -45 30.5 -69t85.5 -24q68 0 133 41l33 -67q-86 -53 -187 -53q-90 0 -139 47t-49 129q0 116 73 187.5t176 71.5q81 0 125.5 -45t44.5 -115q0 -39 -14 -81h-310zM362 478 l-65 67l-92 -67l-66 35l159 107h23l116 -107z" horiz-adv-x="471"/>
<glyph glyph-name="edieresis" unicode="ë" d="M253 352q-46 0 -82 -24.5t-53 -70.5h219v9q0 41 -22 63.5t-62 22.5zM101 186q-2 -10 -2 -22q0 -45 30.5 -69t85.5 -24q68 0 133 41l33 -67q-86 -53 -187 -53q-90 0 -139 47t-49 129q0 116 73 187.5t176 71.5q81 0 125.5 -45t44.5 -115q0 -39 -14 -81h-310zM369 480 q-18 0 -30 9.5t-12 25.5q0 6 1 9q4 20 20.5 31t38.5 11q42 0 42 -33q0 -7 -1 -11q-4 -19 -20.5 -30.5t-38.5 -11.5zM195 480q-19 0 -31 10t-12 26q0 5 1 8q4 20 20.5 31t38.5 11q43 0 43 -34q0 -7 -1 -10q-4 -18 -21 -30t-38 -12z" horiz-adv-x="472"/>
<glyph glyph-name="igrave" unicode="ì" d="M79 0h-87l89 419h87zM104 484l-55 118l96 19l23 -137h-64z" horiz-adv-x="195"/>
<glyph glyph-name="iacute" unicode="í" d="M79 0h-87l89 419h87zM173 484h-73l84 137l91 -19z" horiz-adv-x="193"/>
<glyph glyph-name="icircumflex" unicode="î" d="M79 0h-87l89 419h87zM218 478l-65 67l-92 -67l-66 35l159 107h23l117 -107z" horiz-adv-x="194"/>
<glyph glyph-name="idieresis" unicode="ï" d="M81 0h-87l89 419h87zM229 484q-19 0 -31 9t-12 25q0 6 1 9q4 20 20.5 31.5t38.5 11.5q19 0 31 -9t12 -25q0 -6 -1 -10q-4 -19 -20.5 -30.5t-38.5 -11.5zM55 484q-19 0 -31 9t-12 25q0 6 1 9q4 20 20.5 31.5t38.5 11.5q42 0 42 -33q0 -7 -1 -11q-4 -18 -20.5 -30 t-37.5 -12z" horiz-adv-x="203"/>
<glyph glyph-name="eth" unicode="ð" d="M361 212q3 16 3 33q0 44 -25 72.5t-73 28.5q-63 0 -114 -49t-51 -132q0 -45 27 -69t72 -24q57 0 102 37t59 103zM466 510l-79 -18q74 -156 74 -237q0 -105 -77 -183t-187 -78q-82 0 -134 46.5t-52 126.5q0 107 72 175.5t171 68.5q44 0 77 -14q-9 20 -35 71 q-21 -4 -62 -13.5t-54 -12.5l16 77l71 15l-30 66l98 21l27 -63q14 3 56 13.5t64 15.5z" horiz-adv-x="514"/>
<glyph glyph-name="ntilde" unicode="ñ" d="M384 0h-93l49 234q7 33 7 54q0 64 -74 64q-48 0 -92.5 -43.5t-59.5 -113.5l-41 -195h-92l89 419h92l-17 -78q27 36 72 61t89 25q127 0 127 -130q0 -27 -7 -65zM159 549q45 24 86 24q21 0 55.5 -7.5t51.5 -7.5q35 0 72 23l7 -71q-32 -18 -67 -18q-20 0 -59 6.5t-59 6.5 q-47 0 -83 -28z" horiz-adv-x="500"/>
<glyph glyph-name="ograve" unicode="ò" d="M265 347q-62 0 -112.5 -50t-50.5 -128q0 -47 27.5 -72.5t73.5 -25.5q61 0 112 50t51 128q0 47 -27.5 72.5t-73.5 25.5zM195 -8q-81 0 -133 46.5t-52 126.5q0 106 76 184t187 78q82 0 134 -46.5t52 -126.5t-40 -141t-99.5 -91t-124.5 -30zM264 484l-55 118l96 18l23 -136 h-64z" horiz-adv-x="513"/>
<glyph glyph-name="oacute" unicode="ó" d="M265 347q-62 0 -112.5 -50t-50.5 -128q0 -47 27.5 -72.5t73.5 -25.5q61 0 112 50t51 128q0 47 -27.5 72.5t-73.5 25.5zM195 -8q-81 0 -133 46.5t-52 126.5q0 106 76 184t187 78q82 0 134 -46.5t52 -126.5t-40 -141t-99.5 -91t-124.5 -30zM328 484h-73l84 136l91 -18z" horiz-adv-x="508"/>
<glyph glyph-name="ocircumflex" unicode="ô" d="M265 347q-62 0 -112.5 -50t-50.5 -128q0 -47 27.5 -72.5t73.5 -25.5q61 0 112 50t51 128q0 47 -27.5 72.5t-73.5 25.5zM195 -8q-81 0 -133 46.5t-52 126.5q0 106 76 184t187 78q82 0 134 -46.5t52 -126.5t-40 -141t-99.5 -91t-124.5 -30zM377 478l-66 67l-92 -67l-65 35 l159 107h22l117 -107z" horiz-adv-x="512"/>
<glyph glyph-name="otilde" unicode="õ" d="M265 347q-62 0 -112.5 -50t-50.5 -128q0 -47 27.5 -72.5t73.5 -25.5q61 0 112 50t51 128q0 47 -27.5 72.5t-73.5 25.5zM195 -8q-81 0 -133 46.5t-52 126.5q0 106 76 184t187 78q82 0 134 -46.5t52 -126.5t-40 -141t-99.5 -91t-124.5 -30zM170 542q45 24 86 24 q21 0 55.5 -7.5t51.5 -7.5q35 0 72 23l7 -71q-32 -18 -67 -18q-19 0 -59 6.5t-59 6.5q-47 0 -83 -28z" horiz-adv-x="513"/>
<glyph glyph-name="odieresis" unicode="ö" d="M265 347q-62 0 -112.5 -50t-50.5 -128q0 -47 27.5 -72.5t73.5 -25.5q61 0 112 50t51 128q0 47 -27.5 72.5t-73.5 25.5zM195 -8q-81 0 -133 46.5t-52 126.5q0 106 76 184t187 78q82 0 134 -46.5t52 -126.5t-40 -141t-99.5 -91t-124.5 -30zM381 480q-18 0 -30 9.5t-12 24.5 q0 7 1 10q4 20 20.5 31t37.5 11q44 0 44 -34q0 -7 -1 -10q-4 -19 -21 -30.5t-39 -11.5zM207 480q-19 0 -31 10t-12 26q0 5 1 8q9 42 59 42q43 0 43 -34q0 -7 -1 -10q-4 -19 -21 -30.5t-38 -11.5z" horiz-adv-x="514"/>
<glyph glyph-name="divide" unicode="÷" d="M213 17q-23 0 -37.5 11t-14.5 30q0 7 1 11q4 22 24.5 35t46.5 13q24 0 39 -11t15 -30q0 -6 -1 -9q-4 -22 -25.5 -36t-47.5 -14zM485 212h-458l14 70h459zM289 377q-23 0 -37.5 11t-14.5 29q0 7 1 11q5 22 25 35t46 13q24 0 39 -11t15 -29q0 -6 -1 -10q-4 -22 -25 -35.5 t-48 -13.5z" horiz-adv-x="547"/>
<glyph glyph-name="oslash" unicode="ø" d="M366 249q0 61 -46 86l-121 -264h4q61 0 112 50t51 128zM265 347q-62 0 -112.5 -50t-50.5 -128q0 -61 45 -85l121 263h-3zM66 -93l46 100q-48 19 -75 60t-27 98q0 106 76 184t187 78q11 0 31 -2l32 70h57l-38 -83q48 -19 76 -60t28 -98q0 -80 -40 -141t-99.5 -91 t-124.5 -30q-11 0 -31 2l-39 -87h-59z" horiz-adv-x="513"/>
<glyph glyph-name="ugrave" unicode="ù" d="M71 419h93l-48 -228q-7 -33 -7 -54q0 -64 74 -64q48 0 92 40.5t59 110.5l41 195h92l-89 -419h-92l17 78q-27 -36 -72 -61t-89 -25q-127 0 -127 130q0 26 7 65zM251 486l-55 118l101 19l23 -137h-69z" horiz-adv-x="499"/>
<glyph glyph-name="uacute" unicode="ú" d="M71 419h93l-48 -228q-7 -33 -7 -54q0 -64 74 -64q48 0 92 40.5t59 110.5l41 195h92l-89 -419h-92l17 78q-27 -36 -72 -61t-89 -25q-127 0 -127 130q0 26 7 65zM315 484h-73l84 136l91 -18z" horiz-adv-x="498"/>
<glyph glyph-name="ucircumflex" unicode="û" d="M71 419h93l-48 -228q-7 -33 -7 -54q0 -64 74 -64q48 0 92 40.5t59 110.5l41 195h92l-89 -419h-92l17 78q-27 -36 -72 -61t-89 -25q-127 0 -127 130q0 26 7 65zM365 479l-66 67l-92 -67l-65 35l159 107h22l117 -107z" horiz-adv-x="498"/>
<glyph glyph-name="udieresis" unicode="ü" d="M71 419h93l-48 -228q-7 -33 -7 -54q0 -64 74 -64q48 0 92 40.5t59 110.5l41 195h92l-89 -419h-92l17 78q-27 -36 -72 -61t-89 -25q-127 0 -127 130q0 26 7 65zM365 480q-18 0 -30 9.5t-12 24.5q0 7 1 10q4 20 20.5 31t37.5 11q44 0 44 -34q0 -7 -1 -10q-4 -19 -21 -30.5 t-39 -11.5zM191 480q-19 0 -31 10t-12 26q0 5 1 8q9 42 59 42q43 0 43 -34q0 -7 -1 -10q-4 -19 -21 -30.5t-38 -11.5z" horiz-adv-x="498"/>
<glyph glyph-name="yacute" unicode="ý" d="M84 -152l-90 17l130 181l-104 373h97l71 -284q159 234 193 284h107zM304 485h-74l85 136l91 -18z" horiz-adv-x="460"/>
<glyph glyph-name="thorn" unicode="þ" d="M199 72q71 0 117 55t46 132q0 41 -21 64t-63 23q-123 0 -168 -199l-10 -44q35 -31 99 -31zM-45 -154q25 126 160 751l95 20l-61 -283q65 94 156 94q70 0 111 -43t41 -113q0 -68 -29 -131t-87 -105t-132 -42q-77 0 -124 34l-34 -163z" horiz-adv-x="509"/>
</font>
</defs>
</svg>
