<?xml version="1.0" encoding="UTF-8" standalone="no"?>
<!DOCTYPE svg  PUBLIC '-//W3C//DTD SVG 1.1//EN'  'http://www.w3.org/Graphics/SVG/1.1/DTD/svg11.dtd'>
<svg version="1.1" xmlns="http://www.w3.org/2000/svg">
<defs>
<font id="Serenity-DemiBoldItalic" horiz-adv-x="504">
<font-face unicode-range="U+0020-00FE" units-per-em="1000" font-weight="600" bbox="-130 -216 907 857" cap-height="620" underline-thickness="50" font-family="Serenity Demi Bold" panose-1="0 0 7 0 0 0 0 0 0 0" ascent="800" underline-position="-150" descent="-200" x-height="419" font-style="italic"/>
<missing-glyph/>
<glyph horiz-adv-x="216" unicode=" " glyph-name="space"/>
<glyph horiz-adv-x="241" unicode="!" glyph-name="exclam" d="M55 -5q-27 0 -44 13t-17 35q0 8 1 13q6 29 30 45t55 16q29 0 46.5 -12t17.5 -35q0 -5 -2 -15q-6 -27 -30.5 -43.5t-56.5 -16.5zM243 555q-9 -44 -51.5 -160t-62.5 -209h-68q17 82 25.5 209.5t15.5 159.5q7 34 22.5 52t29 21t35.5 3q57 0 57 -53q0 -11 -3 -23z"/>
<glyph horiz-adv-x="413" unicode='&quot;' glyph-name="quotedbl" d="M358 339h-95l48 281h118zM166 339h-95l49 281h117z"/>
<glyph horiz-adv-x="628" unicode="#" glyph-name="numbersign" d="M293 374l-50 -95h106l51 95h-107zM602 375h-103l-50 -96h103l-43 -82h-104l-103 -197h-101l104 197h-106l-74 -143h-101l75 143h-94l18 82h120l50 95h-98l18 82h124l86 164h99l-86 -164h107l61 116h99l-60 -116h102z"/>
<glyph unicode="$" glyph-name="dollar" d="M332 181q0 45 -64 81l-82 -174q8 -1 17 -1q57 0 93 24.5t36 69.5zM206 454q0 -42 60 -75l72 152l-20 1q-48 0 -80 -19.5t-32 -58.5zM40 -97l50 106q-67 22 -114 62l68 82q40 -34 90 -53l88 185q-26 13 -41.5 21t-37 23.5t-33 31t-20.5 39t-9 50.5q0 90 66.5 134t167.5 44 q36 0 66 -6l32 67h57l-38 -80q15 -5 28.5 -11t23.5 -11t11 -5l-29 -94q-35 20 -76 32l-77 -163q31 -15 50.5 -26.5t42.5 -31.5t34.5 -47.5t11.5 -62.5q0 -94 -68.5 -146t-182.5 -52q-28 0 -58 5l-44 -93h-59z"/>
<glyph horiz-adv-x="770" unicode="%" glyph-name="percent" d="M565 215q-28 0 -51.5 -20.5t-30.5 -54.5q-2 -8 -2 -21q0 -25 14 -38.5t37 -13.5q28 0 51 19.5t30 54.5q2 8 2 21q0 25 -13.5 39t-36.5 14zM524 -6q-56 0 -93.5 33t-37.5 87q0 18 4 34q15 68 62.5 104.5t113.5 36.5q57 0 94 -33t37 -88q0 -19 -4 -35q-15 -67 -62.5 -103 t-113.5 -36zM243 554q-28 0 -51 -20t-30 -55q-2 -8 -2 -21q0 -25 14 -38.5t36 -13.5q29 0 52 19.5t30 54.5q2 7 2 21q0 25 -14 39t-37 14zM174 0h-96l521 620h94zM203 333q-57 0 -94.5 33t-37.5 87q0 10 4 34q15 68 63 104.5t113 36.5q57 0 94.5 -33.5t37.5 -88.5 q0 -18 -4 -34q-15 -68 -62.5 -103.5t-113.5 -35.5z"/>
<glyph horiz-adv-x="633" unicode="&amp;" glyph-name="ampersand" d="M372 113q-64 145 -98 214q-56 -7 -97 -38t-49 -83q-2 -14 -2 -21q0 -47 33.5 -76.5t89.5 -29.5q65 0 123 34zM539 10l-111 -18l-20 47q-72 -46 -185 -46q-98 0 -156.5 49.5t-58.5 130.5q0 18 3 38q14 80 76.5 128t154.5 63l-88 192l15 26h355l3 -85h-232q14 -29 79 -172 t81 -176q21 20 39 60t18 87q0 2 -0.5 8t-0.5 9h101q-11 -159 -114 -253z"/>
<glyph horiz-adv-x="221" unicode="&apos;" glyph-name="quotesingle" d="M166 339h-95l49 281h117z"/>
<glyph horiz-adv-x="367" unicode="(" glyph-name="parenleft" d="M153 287q-19 -82 -19 -141q0 -75 34 -126t115 -85l-52 -94q-115 47 -164.5 123.5t-49.5 183.5q0 71 19 160q17 84 42.5 144.5t69 114t110 94t162.5 73.5l13 -93q-132 -47 -191 -128.5t-89 -225.5z"/>
<glyph horiz-adv-x="368" unicode=")" glyph-name="parenright" d="M-70 -65q132 47 191 129t89 224q18 87 18 142q0 76 -34 127.5t-115 84.5l52 92q116 -47 166 -123t50 -182q0 -65 -20 -162q-17 -82 -42.5 -142t-69 -114t-110.5 -95t-162 -75z"/>
<glyph horiz-adv-x="415" unicode="*" glyph-name="asterisk" d="M308 445q13 -8 50 -28t50 -29l-59 -73l-81 63q-11 -99 -12 -107h-108l33 108l-108 -65l-27 77l125 55l-101 59l59 72l80 -66l13 109h108l-34 -107q16 9 55.5 33.5t52.5 31.5l28 -74z"/>
<glyph horiz-adv-x="541" unicode="+" glyph-name="plus" d="M483 205h-174l-43 -198h-115l42 198h-174l18 86h174l41 194h116l-41 -194h174z"/>
<glyph horiz-adv-x="237" unicode="," glyph-name="comma" d="M10 -113l-86 23l139 256h129z"/>
<glyph horiz-adv-x="313" unicode="-" glyph-name="hyphen" d="M266 204h-259l17 85h260z"/>
<glyph horiz-adv-x="201" unicode="." glyph-name="period" d="M35 -4q-27 0 -43.5 13t-16.5 35q0 8 1 13q6 28 29.5 44t55.5 16q29 0 46.5 -12.5t17.5 -35.5q0 -4 -2 -14q-6 -27 -31 -43t-57 -16z"/>
<glyph horiz-adv-x="357" unicode="/" glyph-name="slash" d="M64 0h-121l357 620h118z"/>
<glyph horiz-adv-x="560" unicode="0" glyph-name="zero" d="M330 532q-55 0 -99.5 -58t-66.5 -163q-13 -58 -13 -105q0 -97 56 -111q6 -2 19 -2q17 0 30 4q49 11 87 66t58 147q12 58 12 101q0 59 -21.5 90t-61.5 31zM222 -8q-92 0 -143 57.5t-51 161.5q0 49 12 107q31 151 109.5 230.5t193.5 79.5q92 0 143.5 -57.5t51.5 -160.5 q0 -48 -12 -107q-32 -151 -111 -231t-193 -80z"/>
<glyph horiz-adv-x="325" unicode="1" glyph-name="one" d="M195 0h-124l104 493l-110 -43l5 101l207 74h51z"/>
<glyph horiz-adv-x="478" unicode="2" glyph-name="two" d="M409 96l-45 -96h-399l6 37q189 157 275.5 256t86.5 161q0 75 -78 75q-39 0 -88 -17.5t-82 -38.5l3 97q20 16 76 37t120 21q83 0 130.5 -39.5t47.5 -107.5q0 -26 -5 -46q-15 -72 -89 -154.5t-202 -184.5h243z"/>
<glyph horiz-adv-x="484" unicode="3" glyph-name="three" d="M278 381q78 -6 117.5 -45t39.5 -104q0 -18 -3 -37q-14 -95 -89 -149t-186 -54q-67 0 -121 22t-75 42l67 82q57 -50 123 -50q61 0 104.5 32.5t52.5 81.5q2 8 2 24q0 48 -36.5 70t-89.5 22q-26 0 -53 -5l-6 13q18 14 97 101t92 98h-218l42 95h356l-3 -18z"/>
<glyph horiz-adv-x="543" unicode="4" glyph-name="four" d="M118 220h172l49 234zM467 128h-73l-27 -128h-124l27 128h-298l7 37l417 455h103l-85 -399h96z"/>
<glyph unicode="5" glyph-name="five" d="M464 525h-198l-47 -133q25 4 55 4q84 0 133 -41t49 -115q0 -23 -4 -43q-18 -99 -92 -152.5t-186 -53.5q-70 0 -129.5 23.5t-82.5 42.5l67 84q66 -54 144 -54q60 0 101.5 31.5t50.5 83.5q2 9 2 24q0 49 -37 71t-93 22q-55 0 -100 -16l-13 13l104 304h318z"/>
<glyph horiz-adv-x="538" unicode="6" glyph-name="six" d="M364 213q5 23 5 39q0 42 -24 65t-64 23q-49 0 -88.5 -33t-53.5 -94q-5 -23 -5 -39q0 -42 24 -65t64 -23q49 0 88.5 33t53.5 94zM211 -8q-87 0 -142 47.5t-55 130.5q0 26 6 55q10 48 48.5 104t138.5 161l134 140l130 -19q-153 -144 -211 -206q28 6 54 6q78 0 125.5 -45.5 t47.5 -114.5q0 -22 -4 -41q-22 -106 -96 -162t-176 -56z"/>
<glyph horiz-adv-x="461" unicode="7" glyph-name="seven" d="M137 -9l-114 20l320 514h-279l43 95h405z"/>
<glyph horiz-adv-x="522" unicode="8" glyph-name="eight" d="M263 307q-46 0 -82.5 -29.5t-48.5 -83.5q-3 -16 -3 -30q0 -39 23 -60t62 -21q48 0 84 28t48 84q3 17 3 30q0 39 -23.5 60.5t-62.5 21.5zM314 544q-33 0 -61.5 -23t-36.5 -62q-3 -12 -3 -23q0 -29 18 -46.5t46 -17.5q35 0 64 24t37 63q2 7 2 21q0 30 -18 46.5t-48 17.5z M375 342q40 -11 65 -44.5t25 -82.5q0 -18 -5 -43q-18 -87 -88 -133t-170 -46q-86 0 -140.5 42.5t-54.5 115.5q0 17 5 42q13 58 56.5 97.5t98.5 51.5q-28 11 -47 40t-19 67q0 15 3 30q15 72 75.5 110t144.5 38q75 0 124.5 -37.5t49.5 -96.5q0 -13 -3 -28q-10 -47 -44.5 -79.5 t-75.5 -43.5z"/>
<glyph horiz-adv-x="538" unicode="9" glyph-name="nine" d="M178 409q-5 -23 -5 -39q0 -42 24 -65t64 -23q49 0 88.5 33t53.5 94q5 23 5 39q0 42 -24 65t-64 23q-49 0 -88.5 -33t-53.5 -94zM331 630q87 0 142 -47.5t55 -130.5q0 -26 -6 -55q-10 -48 -48.5 -104t-138.5 -161l-131 -139l-130 19q136 128 208 205q-28 -6 -54 -6 q-78 0 -125.5 45.5t-47.5 114.5q0 22 4 41q22 106 96 162t176 56z"/>
<glyph horiz-adv-x="201" unicode=":" glyph-name="colon" d="M35 -4q-27 0 -43.5 13t-16.5 35q0 8 1 13q6 28 29.5 44t55.5 16q29 0 46.5 -12.5t17.5 -35.5q0 -4 -2 -14q-6 -27 -31 -43t-57 -16zM100 302q-27 0 -44 13t-17 35q0 8 1 13q7 29 30.5 45t55.5 16q29 0 46.5 -12.5t17.5 -35.5q0 -4 -2 -14q-6 -27 -30.5 -43.5t-57.5 -16.5 z"/>
<glyph horiz-adv-x="262" unicode=";" glyph-name="semicolon" d="M10 -113l-86 23l139 256h129zM138 302q-28 0 -45 13t-17 35q0 9 1 13q6 29 30 45t56 16q29 0 46 -13t17 -36q0 -8 -1 -13q-6 -27 -30.5 -43.5t-56.5 -16.5z"/>
<glyph horiz-adv-x="387" unicode="&lt;" glyph-name="less" d="M360 347l-183 -107l137 -107l-19 -96l-275 185l11 50l353 185z"/>
<glyph horiz-adv-x="501" unicode="=" glyph-name="equal" d="M423 116h-423l17 81h424zM464 303h-425l17 81h425z"/>
<glyph horiz-adv-x="387" unicode="&gt;" glyph-name="greater" d="M334 221l-353 -185l24 111l182 107l-136 107l19 95l275 -184z"/>
<glyph horiz-adv-x="327" unicode="?" glyph-name="question" d="M86 -4q-28 0 -45 13t-17 35q0 9 1 13q7 28 30.5 44t55.5 16q29 0 46.5 -12.5t17.5 -35.5q0 -4 -2 -14q-6 -27 -30.5 -43t-56.5 -16zM96 202q-9 21 -9 40q0 22 12 48q12 27 43.5 63t53.5 69t22 65q0 45 -55 45q-32 0 -81 -19l29 103q49 14 91 14q69 0 106 -31t37 -82 q0 -11 -4 -33q-8 -38 -38 -75t-60.5 -61t-55.5 -56t-25 -62q0 -12 2 -19z"/>
<glyph horiz-adv-x="725" unicode="@" glyph-name="at" d="M396 414q-55 0 -90.5 -40t-35.5 -97q0 -63 65 -63q36 0 69.5 25t49.5 85q8 31 16 69q-29 21 -74 21zM423 202q-42 -56 -116 -56q-51 0 -82.5 32t-31.5 89q0 93 61.5 154t151.5 61q89 0 147 -58l-46 -210q47 4 84.5 61t37.5 133q0 74 -58.5 111.5t-154.5 37.5 q-120 0 -215 -84.5t-95 -222.5q0 -89 62 -137.5t167 -48.5q124 0 237 54l23 -62q-148 -64 -273 -64q-127 0 -208 67.5t-81 184.5q0 156 112 270t275 114q124 0 200.5 -52t76.5 -157q0 -68 -22.5 -120t-54.5 -80t-74.5 -45t-73.5 -22t-61 -5z"/>
<glyph horiz-adv-x="622" unicode="A" glyph-name="A" d="M345 430l-156 -237h209zM440 0l-26 108h-277l-70 -108h-142l443 631h28l175 -631h-131z"/>
<glyph horiz-adv-x="549" unicode="B" glyph-name="B" d="M191 298l-43 -205h53q76 0 116.5 24t51.5 78q3 13 3 25q0 78 -135 78h-46zM242 531l-33 -148q92 0 130 15t47 57q2 14 2 19q0 31 -28.5 44t-89.5 13h-28zM386 350q51 -10 79.5 -41.5t28.5 -81.5q0 -18 -5 -43q-8 -39 -24 -69t-41 -50t-54 -33t-69 -20t-79.5 -9.5 t-92.5 -2.5h-126l132 619h143q223 0 223 -127q0 -20 -4 -37q-9 -42 -39 -69.5t-72 -35.5z"/>
<glyph horiz-adv-x="609" unicode="C" glyph-name="C" d="M587 471q-74 61 -164 61q-89 0 -162 -57t-96 -164q-6 -29 -6 -55q0 -73 44.5 -120t125.5 -47q82 0 183 65l38 -82q-118 -80 -246 -80q-121 0 -197 65.5t-76 182.5q0 41 8 78q32 150 137.5 230t247.5 80q49 0 93.5 -12t66 -23.5t33.5 -21.5z"/>
<glyph horiz-adv-x="654" unicode="D" glyph-name="D" d="M240 525l-92 -429h56q123 0 197.5 59.5t94.5 155.5q6 28 6 55q0 74 -49.5 116.5t-153.5 42.5h-59zM3 0l132 620h168q163 0 243.5 -67t80.5 -177q0 -33 -8 -73q-29 -138 -136.5 -220.5t-297.5 -82.5h-182z"/>
<glyph horiz-adv-x="520" unicode="E" glyph-name="E" d="M476 525h-237l-30 -142h179l-20 -96h-180l-40 -191h319l-43 -96h-421l132 620h361z"/>
<glyph horiz-adv-x="445" unicode="F" glyph-name="F" d="M483 525h-243l-31 -142h175l-20 -96h-176l-60 -287h-125l132 620h368z"/>
<glyph horiz-adv-x="667" unicode="G" glyph-name="G" d="M600 473q-83 59 -171 59q-94 0 -168 -57t-97 -163q-6 -28 -6 -57q0 -74 44 -120t126 -46q64 0 120 31l44 212h125l-56 -264q-124 -76 -253 -76q-127 0 -202.5 64t-75.5 180q0 38 9 82q32 151 139 230.5t253 79.5q49 0 95.5 -12t68.5 -22.5t35 -20.5z"/>
<glyph horiz-adv-x="666" unicode="H" glyph-name="H" d="M536 0h-124l61 293h-284l-62 -293h-124l132 620h123l-49 -231h285l49 231h124z"/>
<glyph horiz-adv-x="258" unicode="I" glyph-name="I" d="M128 0h-125l132 620h124z"/>
<glyph horiz-adv-x="348" unicode="J" glyph-name="J" d="M272 229q-28 -129 -98 -183t-200 -55l-1 98q90 0 125.5 40.5t59.5 155.5l71 335h126z"/>
<glyph horiz-adv-x="622" unicode="K" glyph-name="K" d="M345 352l240 -352h-141l-233 361l291 259h160zM128 0h-125l132 620h124z"/>
<glyph horiz-adv-x="458" unicode="L" glyph-name="L" d="M355 0h-352l132 620h124l-111 -524h250z"/>
<glyph horiz-adv-x="755" unicode="M" glyph-name="M" d="M95 0h-127l248 624h24l136 -325l275 325h25l-16 -624h-119l11 363l-209 -244l-106 245z"/>
<glyph horiz-adv-x="683" unicode="N" glyph-name="N" d="M552 -3h-25l-320 392l-79 -389h-125l132 623h24l321 -396l80 393h124z"/>
<glyph horiz-adv-x="724" unicode="O" glyph-name="O" d="M412 532q-87 0 -156 -59t-91 -162q-7 -32 -7 -63q0 -76 43.5 -117.5t114.5 -41.5q87 0 156 58.5t91 162.5q7 32 7 63q0 76 -43.5 117.5t-114.5 41.5zM310 -8q-122 0 -200.5 68t-78.5 185q0 31 8 73q31 148 135 229t244 81q122 0 201 -67.5t79 -183.5q0 -32 -8 -74 q-31 -148 -135.5 -229.5t-244.5 -81.5z"/>
<glyph horiz-adv-x="553" unicode="P" glyph-name="P" d="M240 525l-54 -254h19h19q77 0 127.5 34t63.5 94q3 15 3 28q0 45 -35 71.5t-101 26.5h-42zM165 176q-29 -135 -37 -176h-125l132 620h142q129 0 197 -49t68 -132q0 -20 -5 -47q-22 -104 -107.5 -160t-228.5 -56h-36z"/>
<glyph horiz-adv-x="754" unicode="Q" glyph-name="Q" d="M411 532q-86 0 -155 -59t-91 -162q-7 -32 -7 -63q0 -76 43.5 -117.5t114.5 -41.5q81 0 143 49q-50 52 -118 53l46 94q77 0 136 -61q33 46 43 100q4 21 4 47q0 74 -41.5 117.5t-117.5 43.5zM674 -5q-3 0 -9 -0.5t-8 -0.5q-86 0 -139 64q-93 -65 -208 -65q-122 0 -200.5 68 t-78.5 184q0 31 8 73q31 148 135 229t244 81q122 0 200.5 -67t78.5 -182q0 -35 -7 -69q-20 -95 -85 -178q50 -41 105 -41h7z"/>
<glyph horiz-adv-x="579" unicode="R" glyph-name="R" d="M279 528h-39l-39 -182q32 0 47 1q115 8 133 91q2 14 2 20q0 70 -104 70zM506 -5h-6q-49 0 -84.5 19.5t-54 49t-35.5 63.5t-30 63.5t-37.5 49t-57.5 19.5h-19l-54 -259h-125l132 620h142q108 0 168.5 -38.5t60.5 -109.5q0 -17 -5 -42q-13 -63 -61 -99.5t-102 -42.5 q26 -8 44.5 -32.5t29.5 -52.5t24 -55.5t37.5 -45.5t61.5 -18q3 0 7 0.5t7 0.5z"/>
<glyph unicode="S" glyph-name="S" d="M466 488q-76 44 -148 44q-48 0 -80 -19.5t-32 -58.5q0 -29 25.5 -50.5t61.5 -37.5t72 -35.5t61.5 -55.5t25.5 -86q0 -94 -68.5 -146t-182.5 -52q-125 0 -225 80l68 82q85 -66 159 -66q57 0 93 24.5t36 69.5q0 31 -26 54.5t-63 40.5t-73.5 36.5t-62.5 54.5t-26 83 q0 90 66.5 134t167.5 44q95 0 180 -46z"/>
<glyph horiz-adv-x="452" unicode="T" glyph-name="T" d="M483 525h-148l-111 -525h-123l110 525h-162l43 95h411z"/>
<glyph horiz-adv-x="655" unicode="U" glyph-name="U" d="M593 296q-33 -159 -109.5 -232.5t-212.5 -73.5q-223 0 -223 198q0 52 13 111l69 321h124l-57 -269q-22 -99 -22 -146q0 -118 106 -118q83 0 125.5 58.5t73.5 205.5l57 269h124z"/>
<glyph horiz-adv-x="610" unicode="V" glyph-name="V" d="M254 -6h-28l-161 626h127l87 -417l262 417h140z"/>
<glyph horiz-adv-x="835" unicode="W" glyph-name="W" d="M251 259l216 366h32l59 -366l215 361h134l-381 -625h-31l-62 371l-222 -371h-32l-114 625h125z"/>
<glyph horiz-adv-x="602" unicode="X" glyph-name="X" d="M375 349l167 -349h-133l-111 262l-216 -262h-149l313 358l-127 262h137l72 -171l139 171h152z"/>
<glyph horiz-adv-x="601" unicode="Y" glyph-name="Y" d="M347 217l-47 -217h-124l47 225q-30 67 -89.5 209.5t-78.5 185.5h129l116 -300l235 300h147z"/>
<glyph horiz-adv-x="589" unicode="Z" glyph-name="Z" d="M150 96h390l-44 -96h-563l474 524h-303l44 96h474z"/>
<glyph horiz-adv-x="318" unicode="[" glyph-name="bracketleft" d="M373 639h-131l-145 -682h132l-21 -96h-249l186 875h249z"/>
<glyph horiz-adv-x="357" unicode="\" glyph-name="backslash" d="M178 0l-103 620h109l103 -620h-109z"/>
<glyph horiz-adv-x="318" unicode="]" glyph-name="bracketright" d="M174 -139h-250l21 97h132l145 683h-133l21 97h250z"/>
<glyph horiz-adv-x="456" unicode="^" glyph-name="asciicircum" d="M289 160l-51 167l-125 -167l-82 37l223 276h24l104 -277z"/>
<glyph horiz-adv-x="687" unicode="_" glyph-name="underscore" d="M626 -152h-756l14 70h756z"/>
<glyph horiz-adv-x="431" unicode="`" glyph-name="grave" d="M268 576l-64 121l118 22l24 -143h-78z"/>
<glyph horiz-adv-x="513" unicode="a" glyph-name="a" d="M265 334q-61 0 -104 -50.5t-43 -118.5q0 -35 18.5 -56t56.5 -21q43 0 76 30.5t48 67t23 80.5l8 43q-33 25 -83 25zM390 0h-107l18 80q-50 -89 -146 -89q-67 0 -107 43t-40 113q0 112 73 196t189 84q113 0 194 -78z"/>
<glyph horiz-adv-x="513" unicode="b" glyph-name="b" d="M275 333q-41 0 -83 -38t-58 -114l-16 -71q27 -24 87 -24q62 0 102.5 51.5t40.5 120.5q0 75 -73 75zM197 -9q-116 0 -193 77l111 528l112 25l-61 -279q57 81 154 81q63 0 101 -44t38 -114q0 -110 -73.5 -192t-188.5 -82z"/>
<glyph horiz-adv-x="439" unicode="c" glyph-name="c" d="M380 309q-44 27 -102 27q-61 0 -110 -41.5t-49 -114.5q0 -42 27 -67.5t74 -25.5q54 0 112 35l42 -78q-88 -53 -171 -53q-86 0 -139 47.5t-53 130.5q0 63 23 114t61 81.5t83 46.5t93 16q46 0 82 -9.5t51 -19.5z"/>
<glyph horiz-adv-x="514" unicode="d" glyph-name="d" d="M266 334q-62 0 -104 -50.5t-42 -119.5q0 -76 73 -76q109 0 147 178l9 43q-33 25 -83 25zM522 621q-30 -143 -71.5 -336.5t-60.5 -284.5h-107l18 80q-57 -89 -145 -89q-67 0 -107.5 43t-40.5 113q0 105 67.5 191.5t175.5 86.5q61 0 116 -29l43 202z"/>
<glyph horiz-adv-x="474" unicode="e" glyph-name="e" d="M248 343q-82 0 -114 -82h191v10q0 32 -19 52t-58 20zM117 179q0 -42 27 -68t74 -26q66 0 128 39l40 -79q-89 -52 -181 -52q-91 0 -142.5 48t-51.5 130q0 116 71.5 186t175.5 70q79 0 122 -44.5t43 -114.5q0 -46 -15 -89h-291z"/>
<glyph horiz-adv-x="310" unicode="f" glyph-name="f" d="M349 521q-22 9 -54 9q-54 0 -69 -66l-9 -45h95l-19 -89h-94q-14 -62 -69 -330h-108l69 330h-83l43 89h60q1 9 9 47q34 158 168 158q27 0 51 -4t35 -8l10 -3z"/>
<glyph horiz-adv-x="509" unicode="g" glyph-name="g" d="M261 336q-62 0 -100 -44t-38 -105q0 -72 73 -72q41 0 81 33.5t55 103.5l13 61q-35 23 -84 23zM401 77q-14 -67 -38 -113t-57 -71t-69.5 -35.5t-82.5 -10.5q-56 0 -108 24t-76 46l69 75q61 -50 122 -50q103 0 129 114l10 47q-49 -77 -144 -77q-63 0 -103 42t-40 108 q0 106 70.5 178.5t184.5 72.5q105 0 193 -71z"/>
<glyph horiz-adv-x="502" unicode="h" glyph-name="h" d="M387 0h-110l41 192q11 49 11 79q0 59 -60 59q-40 0 -80.5 -40t-52.5 -100l-40 -190h-108l128 599l112 22l-61 -283q23 34 65.5 61.5t88.5 27.5q63 0 92 -30.5t29 -95.5q0 -35 -14 -105z"/>
<glyph horiz-adv-x="220" unicode="i" glyph-name="i" d="M100 0h-108l89 419h109zM151 487q-24 0 -38.5 12t-14.5 33q0 8 1 12q5 25 25 39t46 14q24 0 39 -11.5t15 -31.5q0 -4 -2 -14q-4 -24 -24 -38.5t-47 -14.5z"/>
<glyph horiz-adv-x="222" unicode="j" glyph-name="j" d="M108 27q-22 -102 -61 -137t-132 -35h-15l-3 89q51 1 72 18t31 63l83 394h109zM154 487q-24 0 -38.5 12t-14.5 33q0 8 1 12q5 23 25 38t45 15t39.5 -12t14.5 -33q0 -7 -1 -11q-6 -24 -26 -39t-45 -15z"/>
<glyph horiz-adv-x="462" unicode="k" glyph-name="k" d="M275 233q25 -41 71.5 -121.5t64.5 -111.5h-125l-132 244l173 175h137zM97 0h-109l128 599l112 22z"/>
<glyph horiz-adv-x="211" unicode="l" glyph-name="l" d="M96 0h-110l128 599l113 22z"/>
<glyph horiz-adv-x="711" unicode="m" glyph-name="m" d="M588 0h-110l54 248q4 22 4 34q0 52 -45 52q-33 0 -62 -32.5t-43 -95.5q-38 -176 -44 -206h-108l51 244q5 33 5 41q0 49 -44 49q-33 0 -61.5 -30t-42.5 -94q-11 -52 -44 -210h-108l89 419h108l-14 -63q23 33 58.5 52t66.5 19q97 0 104 -87q24 39 59.5 63t75.5 24 q110 0 110 -116q0 -27 -6 -57z"/>
<glyph horiz-adv-x="505" unicode="n" glyph-name="n" d="M387 0h-110l50 230q6 30 6 46q0 58 -60 58q-48 0 -86 -39.5t-51 -102.5l-40 -192h-108l89 419h108l-17 -72q23 34 64.5 57t87.5 23q124 0 124 -126q0 -33 -7 -64z"/>
<glyph horiz-adv-x="517" unicode="o" glyph-name="o" d="M263 334q-55 0 -100 -44.5t-45 -116.5q0 -41 25 -64t64 -23q55 0 99.5 43.5t44.5 115.5q0 42 -24 65.5t-64 23.5zM197 -7q-81 0 -133.5 47t-52.5 126q0 106 75.5 183.5t186.5 77.5q82 0 134.5 -47t52.5 -127q0 -106 -76 -183t-187 -77z"/>
<glyph horiz-adv-x="514" unicode="p" glyph-name="p" d="M275 332q-34 0 -60 -16.5t-43 -46t-26.5 -56t-17.5 -61.5q-1 -5 -4.5 -18.5t-4.5 -22.5q36 -26 80 -26q6 0 20 2q55 10 93 59t38 108q0 36 -18.5 57t-56.5 21zM216 -6q-64 0 -114 29l-33 -153l-112 -23l121 572h107l-17 -80q21 38 60 63.5t84 25.5q67 0 107.5 -43 t40.5 -113q0 -67 -28 -130t-85.5 -105.5t-130.5 -42.5z"/>
<glyph horiz-adv-x="512" unicode="q" glyph-name="q" d="M265 334q-62 0 -104.5 -52t-42.5 -117q0 -35 18.5 -56t56.5 -21q44 0 76.5 30.5t47.5 67t23 80.5l8 43q-33 25 -83 25zM362 -128l-113 -25l49 227q-55 -83 -143 -83q-67 0 -107 43t-40 113q0 112 73 196t189 84q113 0 194 -78z"/>
<glyph horiz-adv-x="328" unicode="r" glyph-name="r" d="M314 321q-10 2 -29 2q-123 0 -164 -199q-1 -7 -3.5 -18t-8 -35.5t-14.5 -70.5h-108l89 419h108l-19 -79q21 34 61 60.5t96 26.5q7 0 25 -2z"/>
<glyph horiz-adv-x="396" unicode="s" glyph-name="s" d="M334 311q-52 29 -115 29q-71 0 -71 -36q0 -16 19.5 -27.5t47.5 -21.5t56 -23t47.5 -38.5t19.5 -61.5q0 -69 -53 -105t-128 -36q-57 0 -112.5 22.5t-83.5 41.5q5 5 12 13t23.5 25.5t34.5 36.5q17 -14 52.5 -30t72.5 -16q31 0 52 11t21 33q0 17 -19.5 29.5t-47.5 22.5 t-56 23t-47.5 38t-19.5 60q0 62 49.5 94t123.5 32q40 0 79.5 -9t58.5 -18l20 -9z"/>
<glyph horiz-adv-x="330" unicode="t" glyph-name="t" d="M305 328h-108l-36 -166q-4 -24 -4 -31q0 -23 13.5 -34t45.5 -11l50 4l-35 -92q-20 -3 -49 -3q-66 0 -100 30.5t-34 88.5q0 24 6 51l35 163h-83l43 91h59l19 92l114 22l-25 -114h108z"/>
<glyph unicode="u" glyph-name="u" d="M71 419h110l-50 -230q-6 -30 -6 -46q0 -58 60 -58q48 0 86 39.5t51 102.5l40 192h108l-89 -419h-108l17 72q-23 -34 -64.5 -57t-87.5 -23q-124 0 -124 126q0 33 7 64z"/>
<glyph horiz-adv-x="467" unicode="v" glyph-name="v" d="M183 -5h-31l-131 424h113l64 -253l168 253h128z"/>
<glyph horiz-adv-x="662" unicode="w" glyph-name="w" d="M393 -3h-31l-50 238l-148 -238h-30l-111 422h112l48 -230l148 230h32l50 -229l145 229h126z"/>
<glyph horiz-adv-x="482" unicode="x" glyph-name="x" d="M280 222l134 -222h-121l-83 149l-147 -149h-137l234 225l-115 194h126l63 -119l112 119h141z"/>
<glyph horiz-adv-x="468" unicode="y" glyph-name="y" d="M89 -152l-106 19l142 191l-105 361h114l65 -256l169 256h127z"/>
<glyph horiz-adv-x="460" unicode="z" glyph-name="z" d="M165 96h240l-45 -96h-414l297 324h-184l46 95h359z"/>
<glyph horiz-adv-x="379" unicode="{" glyph-name="braceleft" d="M435 640h-133q-28 -126 -37 -168q-14 -62 -30.5 -96t-34 -46.5t-47.5 -20.5q1 0 5.5 -2.5t7 -4t8 -4.5t8.5 -6.5t8 -8.5t8 -10.5t5.5 -13t4 -17t1.5 -19.5q0 -15 -5 -42l-47 -223h131l-21 -97h-249l65 305q7 35 7 48q0 27 -17.5 37t-63.5 12l20 96q63 3 83 20.5t34 83.5 q8 37 28.5 134t30.5 140h251z"/>
<glyph horiz-adv-x="241" unicode="|" glyph-name="bar" d="M90 -121l-123 -25l161 755l122 24z"/>
<glyph horiz-adv-x="379" unicode="}" glyph-name="braceright" d="M303 463q-8 -38 -8 -57q0 -27 16.5 -36t63.5 -12l-20 -95q-60 -2 -81.5 -20.5t-33.5 -77.5l-65 -304h-248l20 97h131l47 224q12 58 38 86t65 42q-25 11 -38 28.5t-13 57.5q0 35 9 75l36 169h-133l21 97h251z"/>
<glyph horiz-adv-x="385" unicode="~" glyph-name="asciitilde" d="M327 237q-34 -25 -83 -25q-15 0 -44.5 2.5t-43.5 2.5q-58 0 -97 -35l-17 91q47 30 95 30q18 0 49.5 -5t47.5 -5q43 0 82 28z"/>
<glyph horiz-adv-x="300" unicode=" " glyph-name="uni00A0"/>
<glyph horiz-adv-x="241" unicode="¡" glyph-name="exclamdown" d="M-2 71q9 44 51.5 160t62.5 209h68q-17 -82 -25.5 -209.5t-15.5 -159.5q-7 -34 -22.5 -52t-29 -21t-35.5 -3q-57 0 -57 53q0 11 3 23zM186 631q27 0 44 -13t17 -35q0 -8 -1 -13q-6 -29 -30 -45t-55 -16q-29 0 -46.5 12t-17.5 35q0 5 2 15q6 27 30.5 43.5t56.5 16.5z"/>
<glyph horiz-adv-x="434" unicode="¢" glyph-name="cent" d="M119 180q0 -50 35 -74l108 229q-57 -6 -100 -46.5t-43 -108.5zM58 -97l50 106q-97 44 -97 160q0 63 23 114t61 81.5t83 46.5t93 16q12 0 34 -2l33 70h57l-37 -79q27 -7 46 -18l-24 -89q-36 18 -62 23l-114 -245q6 -1 19 -1q55 0 109 36l42 -78q-88 -53 -171 -53 q-26 0 -43 4l-43 -92h-59z"/>
<glyph horiz-adv-x="470" unicode="£" glyph-name="sterling" d="M437 513q-55 20 -101 20q-101 0 -119 -81q-4 -20 -4 -32q0 -28 11 -74h163l-24 -53h-133q0 -5 1.5 -16t1.5 -16q0 -2 -3 -29h104l-24 -53h-91q-18 -51 -67 -88h257l-46 -91h-388l4 24q55 32 91 74t50 81h-108l11 53h107v8q0 23 -7 53h-88l11 53h63q-15 62 -15 98 q0 12 1 18q8 80 71.5 123t164.5 43q67 0 151 -26z"/>
<glyph horiz-adv-x="601" unicode="¥" glyph-name="yen" d="M93 282h113q-120 267 -151 338h125l119 -294l240 294h143l-294 -338h114l-12 -53h-142l-13 -61h141l-11 -53h-141l-24 -115h-124l24 115h-141l11 53h141l12 61h-141z"/>
<glyph horiz-adv-x="241" unicode="¦" glyph-name="brokenbar" d="M90 -120l-122 -25l72 342l123 24zM185 325l-124 -26l67 310l122 24z"/>
<glyph horiz-adv-x="447" unicode="§" glyph-name="section" d="M239 358q-34 0 -57.5 -11.5t-23.5 -35.5q0 -17 19 -27t46 -10q33 0 57 11.5t24 34.5q0 16 -19.5 26.5t-45.5 11.5zM403 504q-15 10 -53 22.5t-69 12.5q-69 0 -69 -38q0 -20 29 -34.5t64 -23.5t64 -34.5t29 -64.5q0 -40 -25 -70t-66 -42q47 -35 47 -91q0 -72 -56 -111 t-130 -39q-95 0 -176 67l66 76q49 -44 121 -44q25 0 44 9.5t19 30.5q0 20 -28 35t-61 24.5t-61 35t-28 65.5q0 41 24 70t64 40q-45 32 -45 92q0 70 49 103.5t127 33.5q47 0 93 -13.5t66 -27.5z"/>
<glyph horiz-adv-x="475" unicode="¨" glyph-name="dieresis" d="M389 566q-22 0 -36.5 11t-14.5 29q0 7 1 11q5 24 24.5 37t45.5 13q52 0 52 -39q0 -8 -1 -12q-5 -22 -25 -36t-46 -14zM199 566q-23 0 -37 11t-14 29q0 7 1 11q5 24 24.5 37t45.5 13q23 0 37.5 -10t14.5 -29q0 -4 -2 -12q-4 -22 -24.5 -36t-45.5 -14z"/>
<glyph horiz-adv-x="725" unicode="©" glyph-name="copyright" d="M482 389q-33 24 -80 24q-49 0 -89 -35t-40 -92q0 -33 23.5 -54t57.5 -21q37 0 92 32l35 -58q-69 -48 -136 -48q-68 0 -110.5 38t-42.5 103q0 99 62 153t145 54q69 0 106 -28zM414 557q-58 0 -113.5 -21.5t-99.5 -60t-71 -98.5t-27 -131q0 -86 56 -134t148 -48 q126 0 219.5 84t93.5 228q0 86 -57 133.5t-149 47.5zM301 -8q-118 0 -193.5 67t-75.5 183q0 159 114 272.5t274 113.5q119 0 194.5 -66.5t75.5 -182.5q0 -165 -111.5 -276t-277.5 -111z"/>
<glyph horiz-adv-x="498" unicode="ª" glyph-name="ordfeminine" d="M185 -4q-28 0 -45.5 14.5t-17.5 38.5q0 37 26.5 58t61.5 21q29 0 47 -13t18 -38q0 -6 -2 -18v1q-7 -29 -31.5 -46.5t-56.5 -17.5zM299 538q-62 0 -102.5 -48.5t-40.5 -115.5q0 -75 73 -75q41 0 73 29.5t47 65.5t24 79l8 40q-28 25 -82 25zM419 216h-102l19 81 q-25 -37 -65.5 -63.5t-86.5 -26.5q-63 0 -98.5 41.5t-35.5 110.5q0 116 71.5 192t182.5 76q113 0 186 -73z"/>
<glyph horiz-adv-x="502" unicode="«" glyph-name="guillemotleft" d="M350 224l72 -142l-85 -32l-112 182l182 181l79 -31zM138 224l72 -142l-85 -32l-113 182l183 181l80 -31z"/>
<glyph horiz-adv-x="725" unicode="®" glyph-name="registered" d="M333 414q-11 -51 -17 -82q92 0 100 44q0 1 0.5 3t0.5 3q0 32 -77 32h-7zM491 373q-6 -29 -31.5 -50t-56.5 -27q16 -6 29 -21t20.5 -30t24 -28t39.5 -15l-29 -60q-31 5 -53.5 26t-33.5 43t-30.5 39.5t-45.5 17.5h-21q-19 -88 -26 -125h-76l71 338h65q73 0 114.5 -23.5 t41.5 -65.5q0 -5 -2 -19zM414 557q-58 0 -113.5 -21.5t-99.5 -60t-71 -98.5t-27 -131q0 -86 56 -134t148 -48q126 0 219.5 84t93.5 228q0 86 -57 133.5t-149 47.5zM301 -8q-118 0 -193.5 67t-75.5 183q0 159 114 272.5t274 113.5q119 0 194.5 -66.5t75.5 -182.5 q0 -165 -111.5 -276t-277.5 -111z"/>
<glyph horiz-adv-x="395" unicode="¯" glyph-name="macron" d="M383 587h-248l16 77h248z"/>
<glyph horiz-adv-x="327" unicode="°" glyph-name="degree" d="M219 560q-23 0 -42 -16t-25 -42q-2 -10 -2 -15q0 -19 12.5 -30t31.5 -11q23 0 42 15t25 41q2 12 2 16q0 20 -12.5 31t-31.5 11zM187 379q-49 0 -82 28.5t-33 74.5q0 13 3 28q12 57 53 87t98 30q50 0 83 -28.5t33 -75.5q0 -13 -3 -28q-12 -57 -53 -86.5t-99 -29.5z"/>
<glyph horiz-adv-x="363" unicode="²" glyph-name="uni00B2" d="M327 350l-35 -79h-250l3 23q84 57 138.5 114t53.5 99q1 18 -11 28t-32 10q-36 0 -84 -26q1 13 3.5 40t3.5 41q11 8 47.5 18.5t74.5 10.5q52 0 81.5 -22t29.5 -60q0 -11 -3 -25q-9 -41 -48 -86.5t-100 -85.5h128z"/>
<glyph horiz-adv-x="370" unicode="³" glyph-name="uni00B3" d="M361 592l-93 -95q38 -7 58 -29.5t20 -54.5q0 -7 -2 -21q-14 -58 -62 -90t-108 -32q-42 0 -77 17t-47 31l57 63q9 -10 28.5 -19.5t40.5 -9.5q60 0 70 52q1 4 1 12q0 19 -14 31t-41 12q-12 0 -29 -3l7 23l64 64h-115l34 77h225z"/>
<glyph horiz-adv-x="431" unicode="´" glyph-name="acute" d="M283 576h-90l89 143l112 -22z"/>
<glyph unicode="µ" glyph-name="uni00B5" d="M381 0h-109l14 69q-18 -33 -53 -52.5t-72 -19.5q-41 0 -65 27l-33 -154l-112 -24q2 12 12.5 60.5t17.5 82.5q50 228 91 430h110l-42 -193q-13 -62 -13 -76q0 -50 42 -57q5 -1 16 -1q49 0 87.5 41.5t48.5 93.5q37 176 40 192h109z"/>
<glyph horiz-adv-x="387" unicode="¶" glyph-name="paragraph" d="M227 -127l-116 -26l86 471q-55 1 -91.5 38t-36.5 93q0 84 60.5 129t139.5 45h118z"/>
<glyph horiz-adv-x="214" unicode="·" glyph-name="periodcentered" d="M84 187q-63 0 -63 46q0 8 1 12q6 26 28.5 42.5t57.5 16.5q29 0 45.5 -13.5t16.5 -35.5q0 -6 -1 -10q-5 -25 -28.5 -41.5t-56.5 -16.5z"/>
<glyph horiz-adv-x="358" unicode="¸" glyph-name="cedilla" d="M70 -181q-19 0 -36.5 2.5t-27.5 5.5t-19.5 6.5t-10.5 3.5l33 43q28 -12 52 -12q57 0 65 37q1 3 1 8q0 28 -54 28h-9.5t-8 -0.5t-6 -1t-3.5 -0.5h-2l37 102h65l-24 -59q96 -2 96 -61q0 -12 -2 -19q-8 -38 -46.5 -60.5t-99.5 -22.5z"/>
<glyph horiz-adv-x="293" unicode="¹" glyph-name="uni00B9" d="M221 273h-106l49 232l-72 -23l4 97l172 45h28z"/>
<glyph horiz-adv-x="499" unicode="º" glyph-name="ordmasculine" d="M184 -4q-28 0 -45 14.5t-17 39.5q0 34 27 56t59 22q29 0 47 -13t18 -38q0 -6 -2 -18v1q-6 -29 -30.5 -46.5t-56.5 -17.5zM297 538q-54 0 -98 -42t-44 -114q0 -41 24 -64.5t63 -23.5q56 0 99 42.5t43 115.5q0 41 -23.5 63.5t-63.5 22.5zM233 205q-80 0 -130.5 45.5 t-50.5 124.5q0 102 73.5 177.5t181.5 75.5q79 0 130.5 -46t51.5 -124q0 -103 -74 -178t-182 -75z"/>
<glyph horiz-adv-x="496" unicode="»" glyph-name="guillemotright" d="M265 50l-73 32l137 156l-72 144l78 31l120 -181zM59 50l-72 32l136 156l-72 144l78 31l120 -181z"/>
<glyph horiz-adv-x="781" unicode="¼" glyph-name="onequarter" d="M720 79l-35 -79h-250l3 23q84 57 138.5 114t53.5 99q1 18 -11 28t-32 10q-36 0 -84 -26q1 13 3.5 40t3.5 41q11 8 47.5 18.5t74.5 10.5q52 0 81.5 -22t29.5 -60q0 -12 -3 -25q-9 -41 -48 -86.5t-100 -85.5h128zM188 0h-96l494 620h95zM222 273h-106l49 232l-72 -23l4 97 l172 45h28z"/>
<glyph horiz-adv-x="800" unicode="½" glyph-name="onehalf" d="M482 130h80l23 109zM699 63h-46l-14 -63h-105l14 63h-162q1 6 3.5 20.5t3.5 22.5l218 239h101l-43 -205h64zM188 0h-96l494 620h95zM222 273h-106l49 232l-72 -23l4 97l172 45h28z"/>
<glyph horiz-adv-x="851" unicode="¾" glyph-name="threequarters" d="M520 130h80l23 109zM737 63h-46l-14 -63h-105l14 63h-162q1 6 3.5 20.5t3.5 22.5l218 239h101l-43 -205h64zM236 0h-96l494 620h95zM361 592l-93 -95q38 -7 58 -29.5t20 -53.5q0 -10 -3 -22q-14 -58 -61.5 -90t-107.5 -32q-42 0 -77 17t-47 31l57 63q9 -10 28.5 -19.5 t40.5 -9.5q60 0 71 52q1 4 1 11q0 20 -14.5 32t-41.5 12q-12 0 -29 -3l7 23l64 64h-115l34 77h225z"/>
<glyph horiz-adv-x="327" unicode="¿" glyph-name="questiondown" d="M237 421q8 -17 8 -39q0 -24 -11 -49q-12 -26 -43.5 -62t-54 -68.5t-22.5 -62.5q0 -48 55 -48q33 0 81 18l-29 -103q-45 -13 -91 -13q-69 0 -105.5 30.5t-36.5 81.5q0 17 4 33q8 38 38 75t60.5 61t55.5 55.5t25 62.5q0 12 -2 19zM247 628q27 0 44 -13t17 -35q0 -8 -1 -13 q-6 -29 -29.5 -45t-56.5 -16q-28 0 -45.5 12.5t-17.5 35.5q0 4 2 14q5 27 30 43.5t57 16.5z"/>
<glyph horiz-adv-x="622" unicode="À" glyph-name="Agrave" d="M345 430l-156 -237h209zM440 0l-26 108h-277l-70 -108h-142l443 631h28l175 -631h-131zM353 689l-64 120l118 23l24 -143h-78z"/>
<glyph horiz-adv-x="623" unicode="Á" glyph-name="Aacute" d="M345 430l-156 -237h209zM440 0l-26 108h-277l-70 -108h-142l443 631h28l175 -631h-131zM439 688h-90l90 143l111 -23z"/>
<glyph horiz-adv-x="622" unicode="Â" glyph-name="Acircumflex" d="M345 430l-156 -237h209zM440 0l-26 108h-277l-70 -108h-142l443 631h28l175 -631h-131zM471 680l-60 63l-85 -63l-80 43l168 112h26l123 -112z"/>
<glyph horiz-adv-x="622" unicode="Ã" glyph-name="Atilde" d="M345 430l-156 -237h209zM440 0l-26 108h-277l-70 -108h-142l443 631h28l175 -631h-131zM537 719q-34 -25 -83 -25q-14 0 -43.5 2.5t-44.5 2.5q-58 0 -97 -35l-17 91q48 30 95 30q18 0 49.5 -5t47.5 -5q43 0 82 28z"/>
<glyph horiz-adv-x="636" unicode="Ä" glyph-name="Adieresis" d="M345 430l-156 -237h209zM440 0l-26 108h-277l-70 -108h-142l443 631h28l175 -631h-131zM494 688q-22 0 -36 11t-14 29q0 7 1 11q5 24 24.5 37.5t45.5 13.5q52 0 52 -39q0 -3 -2 -13q-4 -22 -24 -36t-47 -14zM304 688q-22 0 -36 11t-14 29q0 7 1 11q5 24 24.5 37.5 t45.5 13.5q23 0 37 -10.5t14 -30.5q0 -7 -1 -11q-5 -22 -25.5 -36t-45.5 -14z"/>
<glyph horiz-adv-x="622" unicode="Å" glyph-name="Aring" d="M345 430l-156 -237h209zM440 0l-26 108h-277l-70 -108h-142l443 631h28l175 -631h-131zM419 805q-14 0 -25 -9.5t-15 -25.5q-1 -3 -1 -9q0 -25 26 -25q15 0 27 11t14 26q1 3 1 7q0 11 -7.5 18t-19.5 7zM397 685q-37 0 -61 19.5t-24 51.5q0 5 2 19q9 39 40 60.5t72 21.5 q38 0 61.5 -19.5t23.5 -50.5q0 -4 -2 -16q-6 -39 -37 -62.5t-75 -23.5z"/>
<glyph horiz-adv-x="861" unicode="Æ" glyph-name="AE" d="M224 195h161l53 247zM817 525h-237l-30 -142h179l-20 -96h-179l-41 -191h319l-43 -96h-421l23 109h-213l-93 -109h-142l537 620h381z"/>
<glyph horiz-adv-x="609" unicode="Ç" glyph-name="Ccedilla" d="M587 471q-74 61 -164 61q-89 0 -162 -57t-96 -164q-7 -31 -7 -61q0 -77 47 -119t124 -42q39 0 82 15t57 23t44 27l38 -82q-110 -75 -227 -79l-18 -48q96 -2 96 -61q0 -5 -2 -19q-15 -72 -127 -80q-3 0 -9 -0.5t-9 -0.5q-36 0 -95 16l33 43q35 -10 53 -10q55 0 63 35 q1 3 1 8q0 28 -53 28q-8 0 -14.5 -0.5t-11.5 -1.5h-4l33 93q-104 12 -166 75.5t-62 169.5q0 41 8 78q32 150 137.5 230t247.5 80q49 0 93.5 -12t66 -23.5t33.5 -21.5z"/>
<glyph horiz-adv-x="520" unicode="È" glyph-name="Egrave" d="M476 525h-237l-30 -142h179l-20 -96h-180l-40 -191h319l-43 -96h-421l132 620h361zM299 689l-64 121l118 22l24 -143h-78z"/>
<glyph horiz-adv-x="521" unicode="É" glyph-name="Eacute" d="M476 525h-237l-30 -142h179l-20 -96h-180l-40 -191h319l-43 -96h-421l132 620h361zM360 689h-90l89 143l112 -22z"/>
<glyph horiz-adv-x="521" unicode="Ê" glyph-name="Ecircumflex" d="M476 525h-237l-30 -142h179l-20 -96h-180l-40 -191h319l-43 -96h-421l132 620h361zM411 685l-60 62l-85 -62l-80 42l167 112h26l123 -112z"/>
<glyph horiz-adv-x="520" unicode="Ë" glyph-name="Edieresis" d="M476 525h-237l-30 -142h179l-20 -96h-180l-40 -191h319l-43 -96h-421l132 620h361zM428 690q-22 0 -36 11t-14 29q0 7 1 11q5 24 24.5 37.5t45.5 13.5q52 0 52 -39q0 -5 -2 -13q-4 -22 -24 -36t-47 -14zM238 690q-22 0 -36 11t-14 29q0 7 1 11q5 24 24.5 37.5t45.5 13.5 q23 0 37 -10.5t14 -30.5q0 -7 -1 -11q-5 -22 -25.5 -36t-45.5 -14z"/>
<glyph horiz-adv-x="261" unicode="Ì" glyph-name="Igrave" d="M128 0h-125l132 620h124zM179 690l-64 120l119 23l24 -143h-79z"/>
<glyph horiz-adv-x="259" unicode="Í" glyph-name="Iacute" d="M128 0h-125l132 620h124zM244 690h-90l90 143l111 -23z"/>
<glyph horiz-adv-x="259" unicode="Î" glyph-name="Icircumflex" d="M128 0h-125l132 620h124zM286 680l-61 63l-84 -63l-80 43l167 112h26l123 -112z"/>
<glyph horiz-adv-x="258" unicode="Ï" glyph-name="Idieresis" d="M128 0h-125l132 620h124zM307 687q-22 0 -36.5 11.5t-14.5 29.5q0 6 1 10q5 24 25 37.5t45 13.5q52 0 52 -40q0 -8 -1 -12q-5 -22 -25 -36t-46 -14zM117 687q-23 0 -37 11t-14 29q0 7 1 11q5 24 25 37.5t46 13.5q22 0 36.5 -10.5t14.5 -29.5q0 -4 -2 -12 q-4 -22 -24.5 -36t-45.5 -14z"/>
<glyph horiz-adv-x="675" unicode="Ð" glyph-name="Eth" d="M257 525l-29 -137h91l-20 -95h-91l-42 -197h35q20 0 56 2q110 8 176 65.5t85 147.5q6 29 6 54q0 74 -50 117t-154 43h-63zM21 0l62 293h-74l43 95h52l49 232h171q163 0 244 -67t81 -177q0 -33 -8 -73q-30 -138 -137.5 -220.5t-297.5 -82.5h-185z"/>
<glyph horiz-adv-x="683" unicode="Ñ" glyph-name="Ntilde" d="M552 -3h-25l-320 392l-79 -389h-125l132 623h24l321 -396l80 393h124zM570 715q-34 -25 -83 -25q-15 0 -44 2.5t-44 2.5q-58 0 -97 -35l-17 91q47 30 95 30q18 0 49.5 -5t47.5 -5q43 0 82 28z"/>
<glyph horiz-adv-x="724" unicode="Ò" glyph-name="Ograve" d="M412 532q-87 0 -156 -59t-91 -162q-7 -32 -7 -63q0 -76 43.5 -117.5t114.5 -41.5q87 0 156 58.5t91 162.5q7 32 7 63q0 76 -43.5 117.5t-114.5 41.5zM310 -8q-122 0 -200.5 68t-78.5 185q0 31 8 73q31 148 135 229t244 81q122 0 201 -67.5t79 -183.5q0 -32 -8 -74 q-31 -148 -135.5 -229.5t-244.5 -81.5zM400 689l-64 120l119 23l24 -143h-79z"/>
<glyph horiz-adv-x="724" unicode="Ó" glyph-name="Oacute" d="M412 532q-87 0 -156 -59t-91 -162q-7 -32 -7 -63q0 -76 43.5 -117.5t114.5 -41.5q87 0 156 58.5t91 162.5q7 32 7 63q0 76 -43.5 117.5t-114.5 41.5zM310 -8q-122 0 -200.5 68t-78.5 185q0 31 8 73q31 148 135 229t244 81q122 0 201 -67.5t79 -183.5q0 -32 -8 -74 q-31 -148 -135.5 -229.5t-244.5 -81.5zM473 691h-90l89 143l112 -23z"/>
<glyph horiz-adv-x="724" unicode="Ô" glyph-name="Ocircumflex" d="M412 532q-87 0 -156 -59t-91 -162q-7 -32 -7 -63q0 -76 43.5 -117.5t114.5 -41.5q87 0 156 58.5t91 162.5q7 32 7 63q0 76 -43.5 117.5t-114.5 41.5zM310 -8q-122 0 -200.5 68t-78.5 185q0 31 8 73q31 148 135 229t244 81q122 0 201 -67.5t79 -183.5q0 -32 -8 -74 q-31 -148 -135.5 -229.5t-244.5 -81.5zM519 681l-60 63l-85 -63l-80 43l168 112h26l123 -112z"/>
<glyph horiz-adv-x="724" unicode="Õ" glyph-name="Otilde" d="M412 532q-87 0 -156 -59t-91 -162q-7 -32 -7 -63q0 -76 43.5 -117.5t114.5 -41.5q87 0 156 58.5t91 162.5q7 32 7 63q0 76 -43.5 117.5t-114.5 41.5zM310 -8q-122 0 -200.5 68t-78.5 185q0 31 8 73q31 148 135 229t244 81q122 0 201 -67.5t79 -183.5q0 -32 -8 -74 q-31 -148 -135.5 -229.5t-244.5 -81.5zM575 722q-34 -25 -83 -25q-14 0 -44 2.5t-44 2.5q-58 0 -97 -35l-17 91q48 30 95 30q18 0 49.5 -5t47.5 -5q43 0 82 28z"/>
<glyph horiz-adv-x="724" unicode="Ö" glyph-name="Odieresis" d="M412 532q-87 0 -156 -59t-91 -162q-7 -32 -7 -63q0 -76 43.5 -117.5t114.5 -41.5q87 0 156 58.5t91 162.5q7 32 7 63q0 76 -43.5 117.5t-114.5 41.5zM310 -8q-122 0 -200.5 68t-78.5 185q0 31 8 73q31 148 135 229t244 81q122 0 201 -67.5t79 -183.5q0 -32 -8 -74 q-31 -148 -135.5 -229.5t-244.5 -81.5zM537 686q-22 0 -36.5 11.5t-14.5 29.5q0 6 1 10q5 24 24.5 37.5t45.5 13.5q52 0 52 -40q0 -8 -1 -12q-5 -22 -25 -36t-46 -14zM347 686q-23 0 -37 11t-14 29q0 7 1 11q5 24 24.5 37.5t45.5 13.5q23 0 37 -10.5t14 -29.5q0 -8 -1 -12 q-4 -22 -24.5 -36t-45.5 -14z"/>
<glyph horiz-adv-x="510" unicode="×" glyph-name="multiply" d="M312 244l114 -143l-79 -63l-114 143l-174 -143l-56 70l175 143l-115 143l79 63l113 -143l174 143l56 -71z"/>
<glyph horiz-adv-x="724" unicode="Ø" glyph-name="Oslash" d="M563 310q7 31 7 62q0 104 -78 143l-198 -424q10 -2 22 -2q87 0 156 58.5t91 162.5zM412 532q-87 0 -156 -59t-91 -162q-7 -32 -7 -64q0 -106 83 -143l201 426q-20 2 -30 2zM146 -97l50 107q-76 26 -120.5 87t-44.5 147q0 32 8 74q31 148 135 229t244 81q36 0 67 -6l32 67 h57l-38 -81q75 -27 118.5 -86.5t43.5 -144.5q0 -32 -8 -74q-31 -148 -135.5 -229.5t-244.5 -81.5q-29 0 -61 5l-44 -94h-59z"/>
<glyph horiz-adv-x="655" unicode="Ù" glyph-name="Ugrave" d="M593 296q-33 -159 -109.5 -232.5t-212.5 -73.5q-223 0 -223 198q0 52 13 111l69 321h124l-57 -269q-22 -99 -22 -146q0 -118 106 -118q83 0 125.5 58.5t73.5 205.5l57 269h124zM374 690l-63 120l118 23l24 -143h-79z"/>
<glyph horiz-adv-x="655" unicode="Ú" glyph-name="Uacute" d="M593 296q-33 -159 -109.5 -232.5t-212.5 -73.5q-223 0 -223 198q0 52 13 111l69 321h124l-57 -269q-22 -99 -22 -146q0 -118 106 -118q83 0 125.5 58.5t73.5 205.5l57 269h124zM443 690h-90l89 143l112 -22z"/>
<glyph horiz-adv-x="655" unicode="Û" glyph-name="Ucircumflex" d="M593 296q-33 -159 -109.5 -232.5t-212.5 -73.5q-223 0 -223 198q0 52 13 111l69 321h124l-57 -269q-22 -99 -22 -146q0 -118 106 -118q83 0 125.5 58.5t73.5 205.5l57 269h124zM481 680l-60 62l-85 -62l-80 42l167 112h26l123 -112z"/>
<glyph horiz-adv-x="655" unicode="Ü" glyph-name="Udieresis" d="M593 296q-33 -159 -109.5 -232.5t-212.5 -73.5q-223 0 -223 198q0 52 13 111l69 321h124l-57 -269q-22 -99 -22 -146q0 -118 106 -118q83 0 125.5 58.5t73.5 205.5l57 269h124zM504 688q-22 0 -36.5 11t-14.5 29q0 7 1 11q5 24 24.5 37t45.5 13q52 0 52 -40q0 -8 -1 -12 q-5 -22 -25 -35.5t-46 -13.5zM314 688q-23 0 -37 11t-14 29q0 7 1 11q5 24 24.5 37t45.5 13q23 0 37 -10.5t14 -30.5q0 -7 -1 -11q-4 -21 -24.5 -35t-45.5 -14z"/>
<glyph horiz-adv-x="601" unicode="Ý" glyph-name="Yacute" d="M348 226l-48 -226h-124l47 225q-30 67 -89.5 209.5t-78.5 185.5h129l115 -291l236 291h147zM423 690h-90l89 143l112 -22z"/>
<glyph horiz-adv-x="556" unicode="Þ" glyph-name="Thorn" d="M219 440l-54 -253h49q78 0 128 33.5t63 93.5q3 15 3 27q0 46 -36 72.5t-104 26.5h-49zM145 91l-20 -91h-124l131 620h126l-18 -85q50 0 97 -6q95 -12 146 -60.5t51 -119.5q0 -18 -5 -43q-22 -103 -110.5 -159t-234.5 -56h-39z"/>
<glyph horiz-adv-x="524" unicode="ß" glyph-name="germandbls" d="M199 88q5 -1 15 -1q37 0 66 16t45 41.5t24 51.5t8 51q0 83 -110 83l19 89q30 0 53 18t23 48q0 43 -47 43q-37 0 -53.5 -19t-24.5 -55l-97 -454h-107l69 330h-76l42 89h53l6 33q30 170 205 170q66 0 103 -27.5t37 -77.5q0 -46 -22.5 -80t-56.5 -48q94 -24 94 -133 q0 -103 -76 -181t-187 -78q-14 0 -36 2z"/>
<glyph horiz-adv-x="513" unicode="à" glyph-name="agrave" d="M265 334q-61 0 -104 -50.5t-43 -118.5q0 -35 18.5 -56t56.5 -21q43 0 76 30.5t48 67t23 80.5l8 43q-33 25 -83 25zM390 0h-107l18 80q-50 -89 -146 -89q-67 0 -107 43t-40 113q0 112 73 196t189 84q113 0 194 -78zM246 484l-64 121l126 22l24 -143h-86z"/>
<glyph horiz-adv-x="513" unicode="á" glyph-name="aacute" d="M265 334q-61 0 -104 -50.5t-43 -118.5q0 -35 18.5 -56t56.5 -21q43 0 76 30.5t48 67t23 80.5l8 43q-33 25 -83 25zM390 0h-107l18 80q-50 -89 -146 -89q-67 0 -107 43t-40 113q0 112 73 196t189 84q113 0 194 -78zM349 484h-90l89 143l112 -22z"/>
<glyph horiz-adv-x="513" unicode="â" glyph-name="acircumflex" d="M265 334q-61 0 -104 -50.5t-43 -118.5q0 -35 18.5 -56t56.5 -21q43 0 76 30.5t48 67t23 80.5l8 43q-33 25 -83 25zM390 0h-107l18 80q-50 -89 -146 -89q-67 0 -107 43t-40 113q0 112 73 196t189 84q113 0 194 -78zM366 475l-60 63l-85 -63l-79 43l167 112h26l122 -112z "/>
<glyph horiz-adv-x="513" unicode="ã" glyph-name="atilde" d="M265 334q-61 0 -104 -50.5t-43 -118.5q0 -35 18.5 -56t56.5 -21q43 0 76 30.5t48 67t23 80.5l8 43q-33 25 -83 25zM390 0h-107l18 80q-50 -89 -146 -89q-67 0 -107 43t-40 113q0 112 73 196t189 84q113 0 194 -78zM426 509q-40 -23 -79 -23q-3 0 -8 0.5t-7 0.5 q-4 0 -32 5t-44 5q-41 0 -84 -25l-11 76q46 30 94 30q19 0 55 -6q28 -5 33 -5h10q42 0 82 29l8 -62q-7 -11 -17 -25z"/>
<glyph horiz-adv-x="511" unicode="ä" glyph-name="adieresis" d="M265 334q-61 0 -104 -50.5t-43 -118.5q0 -35 18.5 -56t56.5 -21q43 0 76 30.5t48 67t23 80.5l8 43q-33 25 -83 25zM390 0h-107l18 80q-50 -89 -146 -89q-67 0 -107 43t-40 113q0 112 73 196t189 84q113 0 194 -78zM388 481q-22 0 -36 11t-14 29q0 7 1 11q5 24 24.5 37.5 t45.5 13.5q52 0 52 -40q0 -8 -1 -12q-5 -22 -25.5 -36t-46.5 -14zM199 481q-23 0 -37 11t-14 29q0 7 1 11q5 24 24.5 37.5t45.5 13.5q23 0 37 -10.5t14 -30.5q0 -7 -1 -11q-5 -22 -25 -36t-45 -14z"/>
<glyph horiz-adv-x="513" unicode="å" glyph-name="aring" d="M265 334q-61 0 -104 -50.5t-43 -118.5q0 -35 18.5 -56t56.5 -21q43 0 76 30.5t48 67t23 80.5l8 43q-33 25 -83 25zM390 0h-107l18 80q-50 -89 -146 -89q-67 0 -107 43t-40 113q0 112 73 196t189 84q113 0 194 -78zM316 600q-31 0 -40 -34q-1 -3 -1 -9q0 -25 26 -25 q14 0 25.5 9.5t15.5 24.5q1 3 1 9q0 25 -27 25zM294 481q-37 0 -61 19.5t-24 51.5q0 6 2 18q8 40 39 61t73 21q38 0 61.5 -19t23.5 -51q0 -10 -1 -15q-7 -39 -37.5 -62.5t-75.5 -23.5z"/>
<glyph horiz-adv-x="801" unicode="æ" glyph-name="ae" d="M269 334q-61 0 -104 -50.5t-43 -118.5q0 -35 19 -56t56 -21q109 0 147 178l9 43q-35 25 -84 25zM571 347q-85 0 -119 -84h200v9q0 36 -21.5 55.5t-59.5 19.5zM434 179q0 -48 30.5 -71t78.5 -23q63 0 125 39l32 -80q-87 -51 -170 -51q-105 0 -136 74l-13 -67h-84l14 72 q-53 -81 -152 -81q-67 0 -107 43t-40 113q0 109 74 194t186 85q38 0 81.5 -18t72.5 -46q62 65 160 65q70 0 113 -39.5t43 -107.5q0 -26 -4 -51t-8 -37l-4 -13h-292z"/>
<glyph horiz-adv-x="439" unicode="ç" glyph-name="ccedilla" d="M159 -211q-19 0 -36.5 2.5t-27.5 5.5t-19.5 6.5t-10.5 3.5l33 43q28 -12 52 -12q57 0 65 37q1 3 1 8q0 28 -54 28h-9.5t-8 -0.5t-6 -1t-4.5 -0.5h-1l31 85q-70 10 -111.5 56t-41.5 119q0 63 23 114t61 81.5t83 46.5t93 16q46 0 82 -9.5t51 -19.5l-24 -89q-44 27 -102 27 q-61 0 -110 -41.5t-49 -114.5q0 -42 27 -67.5t74 -25.5q54 0 112 35l42 -78q-76 -46 -147 -52l-16 -40q96 -2 96 -61q0 -12 -2 -19q-8 -38 -46.5 -60.5t-99.5 -22.5z"/>
<glyph horiz-adv-x="474" unicode="è" glyph-name="egrave" d="M248 343q-82 0 -114 -82h191v10q0 32 -19 52t-58 20zM117 179q0 -42 27 -68t74 -26q66 0 128 39l40 -79q-89 -52 -181 -52q-91 0 -142.5 48t-51.5 130q0 116 71.5 186t175.5 70q79 0 122 -44.5t43 -114.5q0 -46 -15 -89h-291zM242 483l-64 121l118 22l24 -143h-78z"/>
<glyph horiz-adv-x="472" unicode="é" glyph-name="eacute" d="M248 343q-82 0 -114 -82h191v10q0 32 -19 52t-58 20zM117 179q0 -42 27 -68t74 -26q66 0 128 39l40 -79q-89 -52 -181 -52q-91 0 -142.5 48t-51.5 130q0 116 71.5 186t175.5 70q79 0 122 -44.5t43 -114.5q0 -46 -15 -89h-291zM319 484h-90l89 143l112 -22z"/>
<glyph horiz-adv-x="475" unicode="ê" glyph-name="ecircumflex" d="M248 343q-82 0 -114 -82h191v10q0 32 -19 52t-58 20zM117 179q0 -42 27 -68t74 -26q66 0 128 39l40 -79q-89 -52 -181 -52q-91 0 -142.5 48t-51.5 130q0 116 71.5 186t175.5 70q79 0 122 -44.5t43 -114.5q0 -46 -15 -89h-291zM358 478l-60 62l-85 -62l-80 42l167 112h26 l123 -112z"/>
<glyph horiz-adv-x="476" unicode="ë" glyph-name="edieresis" d="M248 343q-82 0 -114 -82h191v10q0 32 -19 52t-58 20zM117 179q0 -42 27 -68t74 -26q66 0 128 39l40 -79q-89 -52 -181 -52q-91 0 -142.5 48t-51.5 130q0 116 71.5 186t175.5 70q79 0 122 -44.5t43 -114.5q0 -46 -15 -89h-291zM379 480q-22 0 -36.5 11.5t-14.5 29.5 q0 7 1 10q5 24 25 37.5t46 13.5q23 0 37 -10.5t14 -29.5q0 -8 -1 -12q-5 -22 -25 -36t-46 -14zM189 480q-23 0 -37 11t-14 30q0 7 1 10q5 24 25 37.5t46 13.5q23 0 37 -10t14 -29q0 -5 -2 -13q-4 -22 -24.5 -36t-45.5 -14z"/>
<glyph horiz-adv-x="213" unicode="ì" glyph-name="igrave" d="M97 0h-108l89 419h108zM105 485l-64 120l119 22l24 -142h-79z"/>
<glyph horiz-adv-x="212" unicode="í" glyph-name="iacute" d="M97 0h-108l89 419h108zM191 485h-90l89 142l111 -22z"/>
<glyph horiz-adv-x="213" unicode="î" glyph-name="icircumflex" d="M98 0h-107l89 419h107zM222 478l-60 63l-85 -63l-80 43l167 112h26l124 -112z"/>
<glyph horiz-adv-x="222" unicode="ï" glyph-name="idieresis" d="M101 0h-107l89 419h107zM246 484q-22 0 -36.5 11.5t-14.5 29.5q0 6 1 10q5 24 25 37.5t45 13.5q52 0 52 -40q0 -8 -1 -12q-5 -22 -25 -36t-46 -14zM56 484q-23 0 -37 11t-14 30q0 7 1 10q5 24 25 37.5t46 13.5q23 0 37 -10t14 -29q0 -5 -2 -13q-4 -22 -24.5 -36 t-45.5 -14z"/>
<glyph horiz-adv-x="518" unicode="ð" glyph-name="eth" d="M352 241q0 41 -26.5 63.5t-66.5 22.5q-57 0 -98.5 -46.5t-41.5 -108.5q0 -41 24.5 -63t64.5 -22q55 0 99.5 41t44.5 113zM467 503l-77 -18l24 -57q47 -114 47 -176q0 -105 -76 -181.5t-186 -76.5q-82 0 -134.5 47t-52.5 127q0 93 67.5 165t155.5 72q47 0 77 -13l-29 65 l-120 -28l18 90l68 14q-4 10 -13 32t-13 31l113 25l25 -58l124 30z"/>
<glyph horiz-adv-x="505" unicode="ñ" glyph-name="ntilde" d="M387 0h-110l50 230q6 30 6 46q0 58 -60 58q-48 0 -86 -39.5t-51 -102.5l-40 -192h-108l89 419h108l-17 -72q23 34 64.5 57t87.5 23q124 0 124 -126q0 -33 -7 -64zM440 519q-34 -25 -83 -25q-15 0 -44 2.5t-44 2.5q-58 0 -97 -35l-17 91q47 30 95 30q18 0 49.5 -5t47.5 -5 q43 0 82 28z"/>
<glyph horiz-adv-x="517" unicode="ò" glyph-name="ograve" d="M263 334q-55 0 -100 -44.5t-45 -116.5q0 -41 25 -64t64 -23q55 0 99.5 43.5t44.5 115.5q0 42 -24 65.5t-64 23.5zM197 -7q-81 0 -133.5 47t-52.5 126q0 106 75.5 183.5t186.5 77.5q82 0 134.5 -47t52.5 -127q0 -106 -76 -183t-187 -77zM257 484l-64 121l118 22l24 -143 h-78z"/>
<glyph horiz-adv-x="511" unicode="ó" glyph-name="oacute" d="M263 334q-55 0 -100 -44.5t-45 -116.5q0 -41 25 -64t64 -23q55 0 99.5 43.5t44.5 115.5q0 42 -24 65.5t-64 23.5zM197 -7q-81 0 -133.5 47t-52.5 126q0 106 75.5 183.5t186.5 77.5q82 0 134.5 -47t52.5 -127q0 -106 -76 -183t-187 -77zM337 483h-90l89 143l112 -22z"/>
<glyph horiz-adv-x="516" unicode="ô" glyph-name="ocircumflex" d="M263 334q-55 0 -100 -44.5t-45 -116.5q0 -41 25 -64t64 -23q55 0 99.5 43.5t44.5 115.5q0 42 -24 65.5t-64 23.5zM197 -7q-81 0 -133.5 47t-52.5 126q0 106 75.5 183.5t186.5 77.5q82 0 134.5 -47t52.5 -127q0 -106 -76 -183t-187 -77zM372 479l-60 62l-85 -62l-80 42 l167 112h26l123 -112z"/>
<glyph horiz-adv-x="517" unicode="õ" glyph-name="otilde" d="M263 334q-55 0 -100 -44.5t-45 -116.5q0 -41 25 -64t64 -23q55 0 99.5 43.5t44.5 115.5q0 42 -24 65.5t-64 23.5zM197 -7q-81 0 -133.5 47t-52.5 126q0 106 75.5 183.5t186.5 77.5q82 0 134.5 -47t52.5 -127q0 -106 -76 -183t-187 -77zM451 511q-34 -25 -83 -25 q-14 0 -44 2.5t-44 2.5q-58 0 -97 -35l-17 91q48 30 95 30q18 0 49.5 -5t47.5 -5q43 0 82 28z"/>
<glyph horiz-adv-x="519" unicode="ö" glyph-name="odieresis" d="M263 334q-55 0 -100 -44.5t-45 -116.5q0 -41 25 -64t64 -23q55 0 99.5 43.5t44.5 115.5q0 42 -24 65.5t-64 23.5zM197 -7q-81 0 -133.5 47t-52.5 126q0 106 75.5 183.5t186.5 77.5q82 0 134.5 -47t52.5 -127q0 -106 -76 -183t-187 -77zM390 479q-22 0 -36.5 11t-14.5 29 q0 7 1 11q5 24 24.5 37t45.5 13q52 0 52 -39q0 -8 -1 -12q-5 -22 -25 -36t-46 -14zM200 479q-23 0 -37 11t-14 29q0 7 1 11q5 24 24.5 37t45.5 13q23 0 37.5 -10t14.5 -29q0 -4 -2 -12q-4 -22 -24.5 -36t-45.5 -14z"/>
<glyph horiz-adv-x="541" unicode="÷" glyph-name="divide" d="M207 9q-27 0 -44.5 13t-17.5 36q0 8 1 12q6 27 30.5 42.5t55.5 15.5q29 0 47 -12.5t18 -35.5q0 -8 -1 -12q-6 -26 -31.5 -42.5t-57.5 -16.5zM483 205h-464l18 86h464zM284 368q-28 0 -45.5 13t-17.5 36q0 8 1 12q6 27 30.5 42.5t55.5 15.5q29 0 47 -12.5t18 -35.5 q0 -8 -1 -12q-6 -26 -31 -42.5t-57 -16.5z"/>
<glyph horiz-adv-x="517" unicode="ø" glyph-name="oslash" d="M351 245q0 51 -36 74l-109 -233h1q55 0 99.5 43.5t44.5 115.5zM263 334q-55 0 -100 -44.5t-45 -116.5q0 -50 36 -73l111 234h-2zM61 -97l50 106q-46 20 -73 60.5t-27 96.5q0 106 75.5 183.5t186.5 77.5q17 0 34 -3l34 71h57l-40 -85q47 -19 74.5 -60t27.5 -97 q0 -106 -76 -183t-187 -77q-17 0 -34 3l-43 -93h-59z"/>
<glyph horiz-adv-x="505" unicode="ù" glyph-name="ugrave" d="M71 419h110l-50 -230q-6 -30 -6 -46q0 -58 60 -58q48 0 86 39.5t51 102.5l40 192h108l-89 -419h-108l17 72q-23 -34 -64.5 -57t-87.5 -23q-124 0 -124 126q0 33 7 64zM247 486l-64 121l126 22l24 -143h-86z"/>
<glyph unicode="ú" glyph-name="uacute" d="M71 419h110l-50 -230q-6 -30 -6 -46q0 -58 60 -58q48 0 86 39.5t51 102.5l40 192h108l-89 -419h-108l17 72q-23 -34 -64.5 -57t-87.5 -23q-124 0 -124 126q0 33 7 64zM327 484h-90l89 143l112 -22z"/>
<glyph unicode="û" glyph-name="ucircumflex" d="M71 419h110l-50 -230q-6 -30 -6 -46q0 -58 60 -58q48 0 86 39.5t51 102.5l40 192h108l-89 -419h-108l17 72q-23 -34 -64.5 -57t-87.5 -23q-124 0 -124 126q0 33 7 64zM362 479l-60 62l-85 -62l-80 42l167 112h26l123 -112z"/>
<glyph unicode="ü" glyph-name="udieresis" d="M71 419h110l-50 -230q-6 -30 -6 -46q0 -58 60 -58q48 0 86 39.5t51 102.5l40 192h108l-89 -419h-108l17 72q-23 -34 -64.5 -57t-87.5 -23q-124 0 -124 126q0 33 7 64zM376 480q-22 0 -36.5 11t-14.5 29q0 7 1 11q5 24 24.5 37t45.5 13q52 0 52 -39q0 -8 -1 -12 q-5 -22 -25 -36t-46 -14zM186 480q-23 0 -37 11t-14 29q0 7 1 11q5 24 24.5 37t45.5 13q23 0 37.5 -10t14.5 -29q0 -4 -2 -12q-4 -22 -24.5 -36t-45.5 -14z"/>
<glyph horiz-adv-x="468" unicode="ý" glyph-name="yacute" d="M89 -152l-106 19l142 191l-105 361h114l65 -256l169 256h127zM315 485h-90l89 143l112 -23z"/>
<glyph horiz-adv-x="513" unicode="þ" glyph-name="thorn" d="M275 332q-110 0 -147 -180l-9 -41q36 -26 80 -26q6 0 20 2q55 10 93 59t38 108q0 36 -18.5 57t-56.5 21zM210 -6q-66 0 -108 29l-33 -153l-112 -23l80 379q12 61 39 185.5t39 180.5l112 24l-61 -280q24 37 65.5 61.5t88.5 24.5q14 0 21 -1q55 -8 87 -49t32 -105 q0 -104 -71.5 -188.5t-178.5 -84.5z"/>
</font>
</defs>
</svg>
