<?xml version="1.0" encoding="UTF-8" standalone="no"?>
<!DOCTYPE svg  PUBLIC '-//W3C//DTD SVG 1.1//EN'  'http://www.w3.org/Graphics/SVG/1.1/DTD/svg11.dtd'>
<svg xmlns="http://www.w3.org/2000/svg" version="1.1">
<defs>
<font id="Serenity-HeavyItalic" horiz-adv-x="522">
<font-face x-height="419" font-weight="900" units-per-em="1000" descent="-200" underline-position="-150" cap-height="620" unicode-range="U+0020-00FE" font-family="Serenity Heavy" panose-1="0 0 10 0 0 0 0 0 0 0" ascent="800" font-style="italic" underline-thickness="50" bbox="-132 -225 923 883"/>
<missing-glyph/>
<glyph unicode=" " glyph-name="space" horiz-adv-x="216"/>
<glyph unicode="!" glyph-name="exclam" horiz-adv-x="296" d="M202 78q-8 -38 -42.5 -60.5t-79.5 -22.5q-38 0 -61.5 17.5t-23.5 48.5q0 6 2 18q8 40 41 62t78 22q40 0 64 -17t24 -49q0 -5 -2 -19zM80 220q16 76 16 141q0 31 -4 73.5t-4 57.5q0 18 3 34q12 56 42.5 79t81.5 23q83 0 83 -66q0 -17 -4 -36q-4 -22 -50.5 -113.5 t-68.5 -192.5h-95z"/>
<glyph unicode='&quot;' glyph-name="quotedbl" horiz-adv-x="513" d="M448 323h-135l46 297h170zM205 323h-135l46 297h170z"/>
<glyph unicode="#" glyph-name="numbersign" horiz-adv-x="687" d="M278 287h85l47 88h-86zM10 54l63 118h-81l24 115h119l46 88h-86l25 115h124l69 130h141l-69 -130h87l46 85h141l-45 -85h102l-61 -114h-103l-46 -89h102l-61 -115h-103l-91 -172h-144l92 172h-85l-62 -118h-144z"/>
<glyph unicode="$" glyph-name="dollar" horiz-adv-x="521" d="M288 181q1 3 1 9q0 22 -26 45l-51 -107q30 0 50.5 14.5t25.5 38.5zM259 453q-1 -4 -1 -10q0 -21 25 -43l45 95q-24 -1 -44.5 -12t-24.5 -30zM472 445q-35 30 -89 43l-55 -115q28 -15 40 -22t36.5 -25.5t35.5 -34.5t21 -43t10 -58q0 -15 -1 -23q-9 -86 -79 -130.5 t-183 -44.5q-28 0 -58 5l-44 -94h-59l50 106q-34 11 -64.5 28t-44.5 29l-13 11l98 119q33 -40 85 -59l61 127q-74 43 -100 69q-44 46 -44 106q0 16 3 34q9 54 48.5 90.5t88 50.5t105.5 14q36 0 69 -5l32 66h57l-37 -77q22 -7 40 -15.5t25 -13.5l7 -5z"/>
<glyph unicode="%" glyph-name="percent" horiz-adv-x="826" d="M633 144q2 12 2 16q0 33 -29 33q-16 0 -30 -13t-19 -36q-1 -5 -1 -14q0 -34 29 -34q16 0 30 13t18 35zM756 134q-14 -70 -63.5 -105t-119.5 -35q-61 0 -101.5 35.5t-40.5 93.5q0 15 3 32q15 70 64.5 106t119.5 36q60 0 101 -36t41 -93q0 -18 -4 -34zM269 475q2 12 2 16 q0 33 -29 33q-16 0 -30 -13t-19 -36q-1 -5 -1 -14q0 -34 29 -34q16 0 30 13t18 35zM97 0l500 620h133l-498 -620h-135zM392 465q-14 -70 -63 -105t-119 -35q-60 0 -101.5 35.5t-41.5 92.5q0 17 4 33q14 70 63.5 106t119.5 36q60 0 101 -36t41 -93q0 -18 -4 -34z"/>
<glyph unicode="&amp;" glyph-name="ampersand" horiz-adv-x="650" d="M261 115q38 0 78 20q-48 117 -68 160q-39 -6 -65 -30t-30 -60q0 -2 -0.5 -5.5t-0.5 -4.5q0 -34 22.5 -57t63.5 -23zM389 30q-60 -37 -167 -37q-101 0 -159.5 50t-58.5 133q0 17 3 35q22 151 218 190l-78 184l19 35h361l4 -121h-182l109 -258l4 7q3 6 7.5 15.5t9.5 22.5 t8 30t3 34q0 13 -1 20h145q-17 -165 -115 -255l44 -100l-159 -27z"/>
<glyph unicode="&apos;" glyph-name="quotesingle" horiz-adv-x="270" d="M205 323h-135l46 297h170z"/>
<glyph unicode="(" glyph-name="parenleft" horiz-adv-x="396" d="M246 -156q-233 93 -233 325q0 64 18 149q34 163 119.5 255.5t284.5 159.5l18 -133q-121 -42 -173.5 -113t-79.5 -199q-16 -72 -16 -122q0 -67 31 -112.5t106 -75.5z"/>
<glyph unicode=")" glyph-name="parenright" horiz-adv-x="397" d="M-64 -22q120 42 172.5 113t79.5 197q16 74 16 124q0 67 -31 112.5t-106 75.5l74 133q235 -92 235 -324q0 -64 -18 -151q-23 -107 -64 -178.5t-123.5 -130.5t-217.5 -105z"/>
<glyph unicode="*" glyph-name="asterisk" horiz-adv-x="439" d="M349 292l-60 55l-1 -82h-155l33 83l-83 -57l-39 108l110 43l-90 48l84 103l58 -58l3 85h155l-35 -84q12 7 45 30.5t39 27.5l39 -104l-107 -49q9 -5 44 -22t44 -23z"/>
<glyph unicode="+" glyph-name="plus" horiz-adv-x="529" d="M323 190l-39 -183h-167l39 183h-156l26 122h156l37 177h167l-37 -177h156l-26 -122h-156z"/>
<glyph unicode="," glyph-name="comma" horiz-adv-x="286" d="M42 -131l-123 31l137 273h186z"/>
<glyph unicode="-" glyph-name="hyphen" horiz-adv-x="333" d="M0 187l25 121h283l-26 -121h-282z"/>
<glyph unicode="." glyph-name="period" horiz-adv-x="257" d="M183 78q-8 -38 -42.5 -60.5t-80.5 -22.5q-38 0 -61.5 17.5t-23.5 48.5q0 6 2 18q9 40 42 62t77 22q40 0 64.5 -17t24.5 -49q0 -5 -2 -19z"/>
<glyph unicode="/" glyph-name="slash" horiz-adv-x="381" d="M-60 0l332 620h170l-329 -620h-173z"/>
<glyph unicode="0" glyph-name="zero" horiz-adv-x="574" d="M358 310q13 63 13 99q0 82 -45 82q-33 0 -62.5 -48t-47.5 -132q-12 -59 -12 -98q0 -82 45 -82q33 0 62 47t47 132zM539 300q-31 -150 -111 -228.5t-198 -78.5q-97 0 -151 60t-54 167q0 52 11 101q31 150 111 228.5t198 78.5q96 0 150.5 -60.5t54.5 -166.5q0 -51 -11 -101 z"/>
<glyph unicode="1" glyph-name="one" horiz-adv-x="360" d="M50 0l92 436l-85 -31l9 145l227 76h70l-133 -626h-180z"/>
<glyph unicode="2" glyph-name="two" horiz-adv-x="499" d="M234 490q-32 0 -72.5 -13.5t-64.5 -26.5l-24 -14l6 137q11 6 29.5 15t72.5 24.5t104 15.5q87 0 138.5 -42t51.5 -113q0 -18 -5 -43q-23 -109 -223 -293h191l-64 -137h-414l11 51q84 74 145 135.5t92 97.5t50.5 67.5t23.5 43t7 26.5q2 12 2 19q0 50 -57 50z"/>
<glyph unicode="3" glyph-name="three" horiz-adv-x="502" d="M508 597l-179 -213q125 -21 125 -145q0 -19 -3 -38q-14 -99 -89.5 -153.5t-195.5 -54.5q-57 0 -109 16t-75 32l-24 16l96 119q5 -5 14 -12.5t35.5 -20.5t52.5 -13q47 0 77.5 23.5t37.5 56.5q2 7 2 20q0 35 -27 50.5t-66 15.5q-33 0 -59 -8l-9 16q1 0 37.5 46t72 91.5 t32.5 43.5h-169l60 135h368z"/>
<glyph unicode="4" glyph-name="four" horiz-adv-x="569" d="M298 382l-124 -136h95zM421 115l-24 -115h-180l24 115h-276l10 49l408 456h145l-79 -373h92l-61 -132h-59z"/>
<glyph unicode="5" glyph-name="five" horiz-adv-x="521" d="M278 406q4 0 11 0.5t10 0.5q85 0 131 -41t46 -113q0 -27 -6 -55q-22 -101 -96.5 -154.5t-195.5 -53.5q-54 0 -108 16t-81 32l-27 16l95 121q6 -5 16 -13t41.5 -21.5t63.5 -13.5q44 0 72.5 22.5t35.5 56.5q3 12 3 22q0 66 -99 66q-45 0 -91 -13l-15 15l108 324h336 l-60 -135h-164z"/>
<glyph unicode="6" glyph-name="six" horiz-adv-x="552" d="M325 223q4 17 4 34q0 31 -14 48.5t-37 17.5q-29 0 -54 -27t-35 -73q-4 -17 -4 -35q0 -31 14 -46.5t37 -15.5q29 0 54 25t35 72zM498 209q-22 -107 -97.5 -161.5t-181.5 -54.5q-91 0 -149.5 49t-58.5 135q0 29 5 52q9 42 43.5 94.5t115.5 135.5l170 174l188 -27l-197 -178 q76 -9 121.5 -56.5t45.5 -117.5q0 -20 -5 -45z"/>
<glyph unicode="7" glyph-name="seven" horiz-adv-x="484" d="M168 -13l-164 28l289 469h-241l61 136h422z"/>
<glyph unicode="8" glyph-name="eight" horiz-adv-x="545" d="M319 209q3 15 3 28q0 28 -14.5 43.5t-38.5 15.5q-29 0 -52.5 -23t-32.5 -64q-3 -15 -3 -28q0 -28 14 -43t37 -15q68 0 87 86zM349 448q2 12 2 18q0 20 -10 31t-26 11q-18 0 -35 -16.5t-23 -43.5q-2 -14 -2 -19q0 -20 9.5 -31.5t25.5 -11.5q19 0 36 17t23 45zM484 176 q-18 -88 -90 -135t-180 -47q-92 0 -149.5 46.5t-57.5 123.5q0 22 4 42q12 53 51.5 89.5t82.5 49.5q-20 11 -35.5 39.5t-15.5 63.5q0 15 3 30q15 74 77 111.5t156 37.5q82 0 136.5 -41t54.5 -101q0 -13 -3 -27q-9 -43 -39 -72t-63 -41q31 -12 52 -45t21 -80q0 -19 -5 -44z "/>
<glyph unicode="9" glyph-name="nine" horiz-adv-x="552" d="M228 399q-4 -24 -4 -34q0 -32 14 -49t37 -17q29 0 54.5 27t34.5 73q4 17 4 35q0 31 -14 46.5t-37 15.5q-29 0 -54 -25t-35 -72zM55 413q23 107 98 161.5t181 54.5q91 0 150 -49.5t59 -133.5q0 -24 -6 -53q-9 -42 -43.5 -94.5t-115.5 -135.5l-170 -174l-188 27l197 178 q-76 9 -121.5 56.5t-45.5 117.5q0 20 5 45z"/>
<glyph unicode=":" glyph-name="colon" horiz-adv-x="257" d="M183 78q-8 -38 -42.5 -60.5t-80.5 -22.5q-38 0 -61.5 17.5t-23.5 48.5q0 6 2 18q9 40 42 62t77 22q40 0 64.5 -17t24.5 -49q0 -5 -2 -19zM239 341q-8 -38 -42.5 -60.5t-80.5 -22.5q-38 0 -62 17.5t-24 48.5q0 6 2 18q9 40 42 62t78 22q40 0 64.5 -17t24.5 -49 q0 -5 -2 -19z"/>
<glyph unicode=";" glyph-name="semicolon" horiz-adv-x="311" d="M42 -131l-123 31l137 273h186zM273 341q-8 -38 -42.5 -60.5t-79.5 -22.5q-39 0 -63 17.5t-24 48.5q0 6 2 18q9 40 42.5 62t78.5 22q40 0 64 -17t24 -49q0 -5 -2 -19z"/>
<glyph unicode="&lt;" glyph-name="less" horiz-adv-x="409" d="M30 284l379 189l-35 -157l-132 -77l99 -77l-27 -137l-299 189z"/>
<glyph unicode="=" glyph-name="equal" horiz-adv-x="489" d="M-20 93l24 115h439l-25 -115h-438zM22 296l25 114h439l-24 -113z"/>
<glyph unicode="&gt;" glyph-name="greater" horiz-adv-x="409" d="M354 214l-378 -189l34 158l131 76l-98 78l27 136l299 -189z"/>
<glyph unicode="?" glyph-name="question" horiz-adv-x="356" d="M224 78q-8 -38 -42.5 -60.5t-79.5 -22.5q-39 0 -63 17.5t-24 48.5q0 6 2 18q9 40 42.5 62t78.5 22q40 0 64 -17t24 -49q0 -5 -2 -19zM102 217q-12 20 -12 44q0 21 9 42q11 26 48.5 76.5t42.5 73.5q1 3 1 8q0 26 -32 26q-36 0 -91 -24l41 147q54 17 108 17q75 0 115.5 -31 t40.5 -84q0 -9 -4 -33q-7 -35 -33 -67.5t-53 -53t-52.5 -46t-32.5 -48.5q-3 -9 -3 -19q0 -5 2 -17z"/>
<glyph unicode="@" glyph-name="at" horiz-adv-x="736" d="M315 307q-3 -12 -3 -23q0 -45 42 -45q62 0 85 107l7 33q-20 9 -45 9q-34 0 -56.5 -22.5t-29.5 -58.5zM616 58q-147 -65 -290 -65q-126 0 -211.5 70.5t-85.5 188.5q0 35 7 69q31 147 138.5 227t251.5 80q131 0 211.5 -52t80.5 -158q0 -32 -7 -64q-12 -56 -40.5 -96.5 t-66.5 -61t-73.5 -29.5t-72.5 -9h-68l12 54l-3 -4q-3 -5 -7 -10t-10 -11.5t-14 -12.5t-17.5 -11t-22 -8t-25.5 -3q-46 0 -72 29t-26 80q0 26 5 47q16 76 65 120t128 44q41 0 78 -13t52.5 -24t23.5 -20l-39 -181q34 0 62 34.5t40 91.5q5 25 5 42q0 72 -56.5 109t-148.5 37 q-102 0 -184.5 -64.5t-105.5 -172.5q-6 -29 -6 -53q0 -86 63 -135t159 -49q121 0 244 56z"/>
<glyph unicode="A" glyph-name="A" horiz-adv-x="642" d="M336 339l-90 -136h120zM597 0h-188l-21 81h-216l-52 -81h-205l459 635h33z"/>
<glyph unicode="B" glyph-name="B" horiz-adv-x="574" d="M341 202q2 10 2 16q0 44 -50 54q-12 3 -30 3h-25l-30 -143h25q93 0 108 70zM361 444q2 8 2 13q0 36 -79 36l-20 -97q86 0 97 48zM515 186q-15 -70 -60 -112t-109.5 -58t-158.5 -16h-187l131 619h165q229 0 229 -136q0 -21 -4 -38q-7 -34 -31.5 -59t-53.5 -35 q39 -13 61.5 -43.5t22.5 -77.5q0 -17 -5 -44z"/>
<glyph unicode="C" glyph-name="C" horiz-adv-x="614" d="M310 -7q-123 0 -202.5 67t-79.5 185q0 40 8 76q32 152 137.5 229t249.5 77q56 0 104.5 -13.5t68.5 -26.5l21 -13l-44 -142q-2 2 -5.5 6t-17.5 14.5t-30 18t-42.5 14t-56.5 6.5q-66 0 -125 -45.5t-78 -134.5q-6 -27 -6 -49q0 -62 37.5 -96.5t97.5 -34.5q41 0 80.5 15.5 t58.5 31.5l20 16l54 -116q-120 -85 -250 -85z"/>
<glyph unicode="D" glyph-name="D" horiz-adv-x="670" d="M457 311q5 25 5 44q0 59 -39 94.5t-119 35.5h-21l-74 -348h17q95 0 154.5 48.5t76.5 125.5zM635 300q-29 -137 -136.5 -218.5t-300.5 -81.5h-198l131 620h178q167 0 250.5 -69t83.5 -181q0 -32 -8 -70z"/>
<glyph unicode="E" glyph-name="E" horiz-adv-x="541" d="M0 0l131 620h381l-29 -136h-201l-18 -87h147l-29 -137h-147l-26 -123h281l-61 -137h-429z"/>
<glyph unicode="F" glyph-name="F" horiz-adv-x="456" d="M235 260l-55 -260h-180l131 620h386l-28 -135h-206l-19 -88h143l-29 -137h-143z"/>
<glyph unicode="G" glyph-name="G" horiz-adv-x="680" d="M573 65q-131 -72 -256 -72q-131 0 -210.5 65t-79.5 183q0 38 9 80q32 152 138.5 229t254.5 77q56 0 107 -13.5t74 -26.5l23 -13l-44 -142q-6 7 -18.5 16.5t-54.5 26t-89 16.5q-72 0 -132.5 -46t-78.5 -132q-6 -27 -6 -50q0 -64 38 -98t98 -34q33 0 63 8l43 203h180z"/>
<glyph unicode="H" glyph-name="H" horiz-adv-x="682" d="M372 0l57 271h-193l-57 -271h-179l131 620h179l-45 -212h193l45 212h180l-131 -620h-180z"/>
<glyph unicode="I" glyph-name="I" horiz-adv-x="310" d="M0 0l131 620h180l-131 -620h-180z"/>
<glyph unicode="J" glyph-name="J" horiz-adv-x="373" d="M-22 128q65 0 94.5 21t42.5 83l82 388h182l-83 -393q-29 -135 -102 -186.5t-214 -51.5z"/>
<glyph unicode="K" glyph-name="K" horiz-adv-x="681" d="M497 620h228l-269 -274l190 -346h-202l-179 359zM180 0h-180l131 620h180z"/>
<glyph unicode="L" glyph-name="L" horiz-adv-x="483" d="M0 0l131 620h180l-102 -483h223l-61 -137h-371z"/>
<glyph unicode="M" glyph-name="M" horiz-adv-x="768" d="M384 310l276 314h27l-14 -624h-171l13 271l-174 -192l-93 192l-100 -271h-183l249 624h27z"/>
<glyph unicode="N" glyph-name="N" horiz-adv-x="699" d="M537 -5l-295 312l-62 -307h-180l132 625h30l296 -310l62 305h180l-133 -625h-30z"/>
<glyph unicode="O" glyph-name="O" horiz-adv-x="735" d="M517 310q6 28 6 54q0 60 -32 93.5t-85 33.5q-64 0 -117.5 -49t-70.5 -131q-6 -29 -6 -54q0 -60 32 -93t85 -33q65 0 118 48t70 131zM700 300q-31 -147 -134 -227t-246 -80q-125 0 -208 70.5t-83 188.5q0 35 7 69q31 147 133.5 227t245.5 80q126 0 209.5 -70t83.5 -188 q0 -32 -8 -70z"/>
<glyph unicode="P" glyph-name="P" horiz-adv-x="571" d="M377 392q2 7 2 21q0 33 -23.5 52t-63.5 19h-9l-39 -187h2h2q48 0 84 25t45 70zM554 382q-45 -211 -340 -220l-34 -162h-180l131 620h153q133 0 204 -52.5t71 -138.5q0 -27 -5 -47z"/>
<glyph unicode="Q" glyph-name="Q" horiz-adv-x="765" d="M420 158q-38 28 -99 28q-13 0 -20 -1l64 134q20 2 29 2q67 0 117 -38q11 38 11 76q0 57 -28 94.5t-88 37.5q-64 0 -117.5 -49t-70.5 -131q-6 -29 -6 -54q0 -60 32 -93t85 -33q49 0 91 27zM505 45q-85 -52 -185 -52q-125 0 -208 70.5t-83 188.5q0 35 7 69 q31 147 133.5 227t245.5 80q126 0 208.5 -70t82.5 -185q0 -29 -6 -62q-16 -79 -70 -160q41 -19 81 -19q14 0 22 1l-62 -138q-10 -1 -29 -1q-88 0 -137 51z"/>
<glyph unicode="R" glyph-name="R" horiz-adv-x="604" d="M354 430q1 3 1 10q0 22 -20 35.5t-52 13.5l-26 -124q38 0 64 17.5t33 47.5zM520 -5h-8q-42 0 -75 12t-52 26.5t-35.5 42t-22.5 43t-16 46.5q-3 8 -4 12q-21 64 -76 64l-51 -241h-180l131 620h149q118 0 185 -42.5t67 -119.5q0 -21 -4 -40q-13 -59 -52 -91.5t-76 -38.5 q22 -8 36.5 -28.5t23.5 -43t20 -44t34 -35.5t58 -14h10z"/>
<glyph unicode="S" glyph-name="S" horiz-adv-x="521" d="M472 445q-7 6 -18.5 14t-49 22t-74.5 14q-25 0 -46 -11.5t-25 -30.5q-1 -4 -1 -10q0 -21 22 -38.5t53 -33.5t62.5 -36.5t53.5 -57.5t22 -86q0 -16 -1 -24q-9 -86 -79 -130.5t-183 -44.5q-63 0 -121.5 21.5t-84.5 42.5l-27 21l98 119q6 -8 17.5 -19t47.5 -30t73 -19 q31 0 51.5 14.5t25.5 38.5q1 3 1 10q0 21 -22 40.5t-53.5 36.5t-63 38t-53.5 55t-22 78q0 16 3 34q9 54 48.5 90.5t88 50.5t105.5 14q60 0 108 -12.5t66 -25.5l19 -12z"/>
<glyph unicode="T" glyph-name="T" horiz-adv-x="452" d="M355 484l-102 -484h-178l102 484h-142l61 136h407l-29 -136h-119z"/>
<glyph unicode="U" glyph-name="U" horiz-adv-x="668" d="M606 297q-35 -165 -109 -234.5t-217 -69.5q-118 0 -176.5 47.5t-58.5 149.5q0 50 13 109l68 321h180l-68 -321q-12 -54 -12 -89q0 -79 69 -79q51 0 81.5 39t49.5 127l68 323h180z"/>
<glyph unicode="V" glyph-name="V" horiz-adv-x="634" d="M307 298l196 322h202l-437 -627h-36l-171 627h185z"/>
<glyph unicode="W" glyph-name="W" horiz-adv-x="852" d="M508 626l53 -299l169 293h193l-402 -626h-37l-56 323l-194 -323h-37l-136 626h181l45 -293l181 299h40z"/>
<glyph unicode="X" glyph-name="X" horiz-adv-x="628" d="M298 220l-157 -220h-211l298 362l-116 258h198l37 -128l83 128h217l-228 -269l149 -351h-194z"/>
<glyph unicode="Y" glyph-name="Y" horiz-adv-x="627" d="M315 371l181 249h212l-322 -395l-47 -225h-180l46 221q-23 57 -77 199.5t-77 199.5h186z"/>
<glyph unicode="Z" glyph-name="Z" horiz-adv-x="605" d="M239 137h325l-62 -137h-572l407 484h-239l62 136h484z"/>
<glyph unicode="[" glyph-name="bracketleft" horiz-adv-x="362" d="M-42 -131l182 861h297l-30 -139h-127l-124 -585h127l-29 -137h-296z"/>
<glyph unicode="\" glyph-name="backslash" horiz-adv-x="381" d="M154 0l-83 620h156l84 -620h-157z"/>
<glyph unicode="]" glyph-name="bracketright" horiz-adv-x="362" d="M-77 -131l29 138h127l125 586h-128l29 138h297l-183 -862h-296z"/>
<glyph unicode="^" glyph-name="asciicircum" horiz-adv-x="452" d="M263 134l-37 145l-103 -145l-119 51l247 305h30l115 -305z"/>
<glyph unicode="_" glyph-name="underscore" horiz-adv-x="703" d="M-132 -145l20 97h775l-20 -97h-775z"/>
<glyph unicode="`" glyph-name="grave" horiz-adv-x="435" d="M254 562l-86 125l171 32l26 -157h-111z"/>
<glyph unicode="a" glyph-name="a" d="M165 203q-4 -16 -4 -33q0 -57 48 -57q70 0 100 142l9 44q-22 12 -51 12q-39 0 -65.5 -30.5t-36.5 -77.5zM9 208q22 102 90 160.5t176 58.5q55 0 105 -18t70 -32.5t31 -26.5l-74 -350h-152l15 75q-1 -2 -5.5 -10t-16 -21t-26 -24t-37.5 -19.5t-49 -8.5q-63 0 -98.5 41.5 t-35.5 111.5q0 32 7 63z"/>
<glyph unicode="b" glyph-name="b" d="M314 214q5 23 5 39q0 57 -47 57q-33 0 -58.5 -35t-38.5 -95l-12 -57q17 -12 54 -12q36 0 61.5 29.5t35.5 73.5zM469 199q-20 -94 -88.5 -150.5t-175.5 -56.5q-55 0 -104.5 17.5t-70 33t-30.5 26.5l111 524l159 36l-60 -283q2 5 5.5 10.5t15.5 19.5t26.5 24t38.5 18.5 t51 8.5q58 0 93.5 -46t35.5 -118q0 -33 -7 -64z"/>
<glyph unicode="c" glyph-name="c" horiz-adv-x="445" d="M213 -8q-92 0 -149 49t-57 134q0 25 4 46q18 102 93.5 154.5t169.5 52.5q36 0 70 -5t50 -10l16 -5l-31 -115q-37 22 -94 22q-41 0 -76 -25.5t-46 -76.5q-3 -15 -3 -27q0 -37 23 -55.5t57 -18.5q23 0 47 7.5t36 14.5l12 8l54 -100q-82 -50 -176 -50z"/>
<glyph unicode="d" glyph-name="d" horiz-adv-x="523" d="M165 203q-4 -16 -4 -33q0 -57 48 -57q70 0 100 142l9 44q-22 12 -51 12q-39 0 -65.5 -30.5t-36.5 -77.5zM136 -8q-63 0 -98.5 41.5t-35.5 111.5q0 32 7 63q20 97 82 157t154 60q21 0 45 -3.5t38 -7.5l13 -4l39 186l160 33l-12 -60q-13 -60 -48.5 -226.5t-72.5 -342.5 h-152l15 73q-4 -7 -11.5 -17.5t-24 -26.5t-42.5 -26.5t-56 -10.5z"/>
<glyph unicode="e" glyph-name="e" horiz-adv-x="483" d="M254 332q-53 0 -80 -59h136q-2 59 -56 59zM157 171q-1 -31 22.5 -46.5t61.5 -15.5q60 0 117 36l46 -102q-85 -49 -189 -49q-101 0 -154.5 48.5t-53.5 132.5q0 14 4 46q15 97 82.5 152t169.5 55q85 0 133 -47t48 -119q0 -46 -19 -91h-268z"/>
<glyph unicode="f" glyph-name="f" horiz-adv-x="343" d="M369 502q-20 8 -48 8q-43 0 -53 -47l-9 -43h83l-24 -110h-83l-65 -310h-153l65 310h-82l52 110h53l9 43q34 164 188 164q28 0 55.5 -3.5t41.5 -7.5l14 -4z"/>
<glyph unicode="g" glyph-name="g" d="M169 223q-4 -22 -4 -30q0 -53 49 -53q32 0 57.5 30.5t36.5 82.5l11 50q-24 11 -55 11q-36 0 -61.5 -26t-33.5 -65zM154 -158q-50 0 -96 16.5t-68 33.5l-21 16l94 101q5 -5 14 -13.5t35.5 -22t52.5 -13.5q32 0 60.5 20t37.5 62l13 61q-1 -2 -5.5 -8.5t-16 -18t-26.5 -21.5 t-39.5 -17.5t-52.5 -7.5q-58 0 -93 41t-35 108q0 25 6 54q19 88 86.5 141t174.5 53q55 0 105.5 -16.5t70 -29.5t31.5 -24l-59 -278q-28 -130 -96.5 -183.5t-172.5 -53.5z"/>
<glyph unicode="h" glyph-name="h" horiz-adv-x="512" d="M252 0l37 177q15 73 15 87q0 41 -41 41q-60 0 -86 -119l-39 -186h-153l127 598l159 31l-60 -283q2 3 5 8.5t15 19.5t26 24.5t37.5 19.5t49.5 9q62 0 90 -28t28 -90q0 -43 -16 -121l-39 -188h-155z"/>
<glyph unicode="i" glyph-name="i" horiz-adv-x="260" d="M-11 0l89 419h154l-89 -419h-154zM268 558q-7 -31 -34.5 -49.5t-64.5 -18.5q-32 0 -52 14t-20 40q0 9 1 14q7 31 34.5 49t64.5 18q33 0 53 -14t20 -39q0 -4 -2 -14z"/>
<glyph unicode="j" glyph-name="j" horiz-adv-x="259" d="M-101 -36q51 2 68.5 12t24.5 42l85 402h153l-84 -394q-22 -105 -64 -139t-144 -34q-5 0 -17 0.5t-18 0.5zM267 558q-7 -31 -34.5 -49.5t-64.5 -18.5q-32 0 -52 14t-20 40q0 9 1 14q7 31 34.5 49t64.5 18q33 0 53 -14t20 -39q0 -4 -2 -14z"/>
<glyph unicode="k" glyph-name="k" horiz-adv-x="510" d="M197 242l128 178h181l-147 -189l96 -231h-170zM138 0h-153l127 598l159 31z"/>
<glyph unicode="l" glyph-name="l" horiz-adv-x="254" d="M-15 0l127 598l160 31l-133 -629h-154z"/>
<glyph unicode="m" glyph-name="m" horiz-adv-x="726" d="M461 0l50 236q5 25 5 38q0 31 -33 31q-27 0 -40 -26t-27 -93l-39 -186h-155l50 236q5 25 5 38q0 31 -33 31q-27 0 -40 -26t-27 -93l-39 -186h-153l89 419h153l-16 -73q14 36 48.5 58.5t75.5 22.5q95 0 102 -84q13 19 19.5 27.5t23 25t37.5 24t47 7.5q113 0 113 -109 q0 -26 -8 -68l-53 -250h-155z"/>
<glyph unicode="n" glyph-name="n" horiz-adv-x="517" d="M252 0l50 236q3 15 3 26q0 43 -42 43q-60 0 -86 -119l-39 -186h-153l89 419h153l-16 -73q2 3 5 8.5t15 19.5t26 24.5t37.5 19.5t49.5 9q123 0 123 -117q0 -28 -7 -60l-53 -250h-155z"/>
<glyph unicode="o" glyph-name="o" horiz-adv-x="525" d="M318 204q4 16 4 34q0 34 -16 53.5t-43 19.5q-33 0 -61 -25t-38 -71q-4 -24 -4 -32q0 -34 16.5 -53.5t43.5 -19.5q34 0 61 24t37 70zM472 199q-21 -99 -93.5 -152t-172.5 -53q-87 0 -143.5 48.5t-56.5 130.5q0 20 5 47q21 100 94 153.5t173 53.5q86 0 142.5 -49t56.5 -130 q0 -28 -5 -49z"/>
<glyph unicode="p" glyph-name="p" horiz-adv-x="523" d="M317 217q4 22 4 33q0 57 -48 57q-71 0 -100 -142l-10 -44q22 -12 52 -12q39 0 65.5 30.5t36.5 77.5zM345 428q63 0 99 -41.5t36 -111.5q0 -32 -7 -63q-20 -96 -82 -156.5t-155 -60.5q-21 0 -45 3.5t-37 7.5l-13 4l-29 -134l-159 -33l10 47q10 48 42.5 201t69.5 329h152 l-16 -74q4 7 11.5 17.5t24 26.5t42.5 27t56 11z"/>
<glyph unicode="q" glyph-name="q" d="M166 204q-5 -23 -5 -40q0 -56 46 -56q33 0 59 35t39 95l12 57q-17 12 -54 12q-36 0 -61.5 -29.5t-35.5 -73.5zM11 219q20 94 88.5 150.5t175.5 56.5q55 0 105 -18t69 -32t32 -27l-100 -470l-160 -36l49 228q-2 -4 -5.5 -10t-16 -19.5t-26.5 -24t-38 -18.5t-51 -8 q-59 0 -94 46t-35 119q0 32 7 63z"/>
<glyph unicode="r" glyph-name="r" horiz-adv-x="351" d="M371 427l-46 -140h-11q-116 0 -151 -161l-26 -126h-152l89 419h152l-16 -73q3 7 10.5 17t30 28.5t49.5 27.5q24 9 55 9q2 0 7.5 -0.5t8.5 -0.5z"/>
<glyph unicode="s" glyph-name="s" horiz-adv-x="406" d="M342 289q-59 31 -115 31q-38 0 -38 -23q0 -13 27 -25.5t59 -23.5t59 -39t27 -67q0 -6 -2 -20q-9 -61 -63 -95.5t-127 -34.5q-54 0 -105.5 16t-76.5 32l-25 16q16 16 46 50t45 50q6 -5 16 -13.5t40 -22t58 -13.5q15 0 25.5 8t10.5 20q0 14 -26.5 26.5t-58 23t-58 38.5 t-26.5 68q0 12 1 19q8 58 54.5 88t124.5 30q42 0 85 -9t65 -18l22 -9z"/>
<glyph unicode="t" glyph-name="t" horiz-adv-x="362" d="M264 0q-19 -5 -74 -5q-63 0 -101.5 31t-38.5 92q0 25 5 46l31 142h-81l53 113h52l19 93l161 32l-26 -125h94l-24 -113h-94l-31 -144q-4 -22 -4 -28q0 -26 31 -26q15 0 29 1t26 3t15 2z"/>
<glyph unicode="u" glyph-name="u" horiz-adv-x="517" d="M224 419l-51 -236q-3 -15 -3 -26q0 -43 42 -43q60 0 86 119l40 186h153l-89 -419h-153l15 73q-2 -3 -5 -8.5t-15 -19.5t-26 -24.5t-37.5 -19.5t-49.5 -9q-61 0 -90 28t-29 90q0 42 14 109l43 200h155z"/>
<glyph unicode="v" glyph-name="v" horiz-adv-x="483" d="M154 -5l-135 424h158l40 -195l120 195h175l-317 -424h-41z"/>
<glyph unicode="w" glyph-name="w" horiz-adv-x="675" d="M210 241l123 178h42l47 -178l109 178h173l-308 -424h-41l-45 194l-124 -194h-41l-126 424h158z"/>
<glyph unicode="x" glyph-name="x" horiz-adv-x="516" d="M320 223q9 -14 61.5 -99.5t74.5 -123.5h-176l-56 123l-109 -123h-185l228 226l-110 193h173l38 -90l72 90h189z"/>
<glyph unicode="y" glyph-name="y" horiz-adv-x="485" d="M-43 -131l157 218l-95 332h159l42 -184l121 184h173l-412 -576z"/>
<glyph unicode="z" glyph-name="z" horiz-adv-x="477" d="M226 120h206l-55 -120h-427l259 300h-159l57 119h381z"/>
<glyph unicode="{" glyph-name="braceleft" horiz-adv-x="432" d="M349 592l-31 -136q-10 -46 -22 -75.5t-28.5 -43.5t-28 -18.5t-33.5 -9.5l2 -1q3 0 5.5 -1t7 -2.5t8.5 -3.5t8.5 -5.5t9 -8t8 -10.5t6.5 -13.5t4.5 -17t1.5 -20.5q0 -15 -5 -40l-38 -179h127l-29 -138h-297l62 293q7 33 7 45q0 24 -17.5 29.5t-75.5 5.5l29 138 q72 0 90 11.5t32 74.5l56 265h299l-30 -139h-128z"/>
<glyph unicode="|" glyph-name="bar" horiz-adv-x="290" d="M140 -115l-177 -36l160 755l177 34z"/>
<glyph unicode="}" glyph-name="braceright" horiz-adv-x="432" d="M75 592l30 139h299l-56 -265q-8 -37 -8 -52q0 -24 17 -29t75 -5l-29 -138q-71 0 -89.5 -11t-30.5 -69l-62 -293h-296l29 138h126l38 179q7 34 19 57t29 36t28.5 18.5t30.5 11.5q-1 1 -8.5 4.5t-10 4.5t-9 5.5t-9 8t-7.5 10t-7 14t-3.5 18t-1.5 23.5q0 33 10 80l24 115 h-128z"/>
<glyph unicode="~" glyph-name="asciitilde" horiz-adv-x="410" d="M347 225q-59 -39 -108 -39q-16 0 -47 5.5t-48 5.5q-44 0 -93 -28l-11 116q54 36 104 36q16 0 46 -4.5t45 -4.5q51 0 102 37z"/>
<glyph unicode=" " glyph-name="uni00A0" horiz-adv-x="216"/>
<glyph unicode="¡" glyph-name="exclamdown" horiz-adv-x="296" d="M214 403q-16 -77 -16 -142q0 -31 4 -72.5t4 -56.5q0 -23 -3 -35q-21 -102 -123 -102q-42 0 -63 15.5t-21 51.5q0 18 4 35q4 21 51 115t68 191h95zM301 545q-9 -41 -42.5 -63t-79.5 -22q-39 0 -62.5 17t-23.5 48q0 5 2 19q8 39 42 61.5t78 22.5q40 0 64 -17.5t24 -48.5 q0 -5 -2 -17z"/>
<glyph unicode="¢" glyph-name="cent" horiz-adv-x="439" d="M266 313q-36 -5 -64.5 -30t-38.5 -70q-3 -15 -3 -28q0 -32 20 -52zM213 -8q-21 0 -40 3l-43 -92h-59q1 3 8 17t18.5 38.5t23.5 48.5q-54 19 -85 61t-31 101q0 25 6 52q21 102 95.5 154.5t167.5 52.5q18 0 46 -2l31 65h57l-35 -73l37 -10l-31 -115q-22 12 -56 18l-94 -199 h8q26 0 50.5 7.5t36.5 14.5l11 8l54 -100q-82 -50 -176 -50z"/>
<glyph unicode="£" glyph-name="sterling" horiz-adv-x="498" d="M43 348h58q-10 58 -10 91q0 21 2 31q14 76 76 116.5t165 40.5q42 0 84 -7.5t63 -14.5l21 -7l-65 -128q-57 22 -95 22q-63 0 -75 -55q-4 -20 -4 -52q0 -24 1 -37h142l-25 -55h-116q0 -19 -4 -53h97l-26 -55h-85q-11 -29 -27 -56h225l-65 -129h-410l7 29q49 34 82.5 76.5 t46.5 79.5h-97l12 55h95v11q0 23 -4 42h-80z"/>
<glyph unicode="¥" glyph-name="yen" horiz-adv-x="627" d="M531 238h-142l-11 -53h142l-12 -55h-142l-27 -130h-180l27 130h-142l12 55h142l11 53h-142l12 55h107q-116 278 -135 327h181l83 -253l186 253h207l-274 -327h109z"/>
<glyph unicode="¦" glyph-name="brokenbar" horiz-adv-x="290" d="M140 -114l-176 -36l72 343l177 34zM235 332l-178 -36l66 308l177 34z"/>
<glyph unicode="§" glyph-name="section" horiz-adv-x="459" d="M195 323q0 -1 -0.5 -2.5t-0.5 -2.5q0 -12 11.5 -21.5t29.5 -10.5h5q20 0 35 10t15 24q0 12 -11.5 21.5t-29.5 10.5h-3q-19 0 -33.5 -8t-17.5 -21zM403 486q-60 32 -115 32q-13 0 -23 -6.5t-10 -17.5q0 -12 26 -22.5t57 -19.5t57 -35.5t26 -65.5v-10q-2 -32 -28.5 -60.5 t-61.5 -39.5q22 -10 36 -34t14 -54q0 -11 -3 -25q-14 -66 -66.5 -101t-135.5 -35q-35 0 -66.5 7t-52 16.5t-36 19.5t-21.5 17l-7 7l89 102q4 -6 12.5 -14.5t35 -22.5t54.5 -14q15 0 25 8t10 21q0 14 -24.5 25.5t-53.5 20.5t-53.5 35t-24.5 65q0 11 1 16q4 31 28.5 56.5 t57.5 37.5q-18 10 -32 36t-14 56q0 12 3 24q25 118 184 118q40 0 79.5 -8.5t58.5 -16.5l19 -8z"/>
<glyph unicode="¨" glyph-name="dieresis" horiz-adv-x="490" d="M506 614q-7 -30 -34.5 -49t-63.5 -19q-31 0 -50.5 14.5t-19.5 40.5q0 4 2 14q7 33 34.5 51t62.5 18q32 0 51.5 -14t19.5 -40q0 -4 -2 -16zM279 614q-7 -30 -34.5 -49t-62.5 -19q-31 0 -50.5 15t-19.5 40q0 4 2 14q7 33 34 51t63 18q31 0 50.5 -14t19.5 -40q0 -4 -2 -16z "/>
<glyph unicode="©" glyph-name="copyright" horiz-adv-x="736" d="M359 150q-67 0 -110 35.5t-43 97.5q0 20 4 39q16 76 67.5 113t124.5 37q27 0 52 -5t37 -9l12 -5l-26 -83q-27 19 -70 19q-31 0 -57 -19.5t-34 -56.5q-2 -14 -2 -19q0 -27 17 -42.5t42 -15.5q18 0 36 7t27 13l9 7l42 -69q-58 -44 -128 -44zM609 310q7 37 7 59 q0 84 -54.5 131.5t-141.5 47.5q-102 0 -184.5 -64.5t-105.5 -172.5q-7 -29 -7 -60q0 -83 54.5 -130t141.5 -47q103 0 185 63t105 173zM701 300q-31 -147 -138.5 -227t-251.5 -80q-124 0 -203.5 68.5t-79.5 185.5q0 39 8 74q31 147 138.5 227t251.5 80q124 0 203.5 -68.5 t79.5 -184.5q0 -40 -8 -75z"/>
<glyph unicode="ª" glyph-name="ordfeminine" horiz-adv-x="496" d="M308 78q-8 -38 -42.5 -60.5t-80.5 -22.5q-38 0 -62 17.5t-24 48.5q0 6 2 18q9 40 42 62t78 22q40 0 64.5 -17t24.5 -49q0 -5 -2 -19zM199 418q-3 -15 -3 -29q0 -54 45 -54q64 0 93 131l8 41q-16 11 -47 11q-36 0 -61 -28t-35 -72zM54 423q20 94 84 148.5t164 54.5 q51 0 97 -16.5t65 -30t29 -24.5l-69 -325h-141l15 69q-2 -4 -5.5 -10t-15 -18.5t-24.5 -22.5t-34.5 -18t-45.5 -8q-58 0 -91.5 39t-33.5 104q0 28 6 58z"/>
<glyph unicode="«" glyph-name="guillemotleft" horiz-adv-x="565" d="M364 50l-102 182l169 181l112 -43l-102 -149l43 -127zM111 50l-102 182l169 181l113 -43l-103 -149l44 -127z"/>
<glyph unicode="®" glyph-name="registered" horiz-adv-x="736" d="M391 370q0 20 -37 20l-10 -50q19 0 33 8t14 22zM501 157q-48 0 -75 18t-43 44.5t-28 33.5q-13 8 -28 8l-21 -101h-103l65 306h81q69 0 108.5 -21.5t39.5 -61.5q0 -5 -2 -17q-7 -30 -28 -47t-42 -21q14 -5 25 -18t18 -24.5t23.5 -21t41.5 -9.5zM609 310q7 37 7 59 q0 84 -54.5 131.5t-141.5 47.5q-102 0 -184.5 -64.5t-105.5 -172.5q-7 -29 -7 -60q0 -83 54.5 -130t141.5 -47q103 0 185 63t105 173zM701 300q-31 -147 -138.5 -227t-251.5 -80q-124 0 -203.5 68.5t-79.5 185.5q0 39 8 74q31 147 138.5 227t251.5 80q124 0 203.5 -68.5 t79.5 -184.5q0 -40 -8 -75z"/>
<glyph unicode="¯" glyph-name="macron" horiz-adv-x="396" d="M117 578l23 108h276l-23 -108h-276z"/>
<glyph unicode="°" glyph-name="degree" horiz-adv-x="342" d="M243 494q1 4 1 11q0 13 -7 21t-18 8q-13 0 -24.5 -11t-15.5 -29q-2 -8 -2 -12q0 -26 25 -26q13 0 25 10t16 28zM352 484q-13 -61 -55 -91t-104 -30q-53 0 -89.5 31t-36.5 82q0 14 3 29q13 61 55.5 92t103.5 31q54 0 90 -32t36 -83q0 -14 -3 -29z"/>
<glyph unicode="²" glyph-name="uni00B2" horiz-adv-x="384" d="M179 510q-15 0 -34.5 -6t-31.5 -12l-12 -5l10 114q67 28 135 28q57 0 88.5 -21.5t31.5 -59.5q0 -14 -2 -22q-7 -33 -39 -75t-70 -73h99l-50 -111h-268l6 29q70 53 113 105t49 80q1 3 1 7q0 22 -26 22z"/>
<glyph unicode="³" glyph-name="uni00B3" horiz-adv-x="387" d="M392 598l-98 -101q69 -21 69 -81q0 -6 -2 -20q-13 -60 -66 -95t-118 -35q-38 0 -71 12t-46 24l-14 13l80 90q20 -24 53 -24q36 0 42 32q0 1 0.5 3t0.5 3q0 11 -9.5 19.5t-29.5 8.5q-17 0 -33 -5l-10 14l57 55h-90l48 109h241z"/>
<glyph unicode="´" glyph-name="acute" horiz-adv-x="435" d="M164 562l99 157l161 -32l-133 -125h-127z"/>
<glyph unicode="µ" glyph-name="uni00B5" horiz-adv-x="517" d="M224 419l-51 -236q-3 -15 -3 -26q0 -43 42 -43q61 0 86 119l40 186h153l-89 -419h-153l15 72l-4 -4q-3 -5 -8 -10.5t-12 -13t-17 -15.5t-21 -14q-34 -20 -71 -23l-25 -117l-159 -33l10 48q10 47 42.5 200t69.5 329h155z"/>
<glyph unicode="¶" glyph-name="paragraph" horiz-adv-x="416" d="M260 -119l-163 -35l20 95l20 94q10 47 30 142t30 142q-56 0 -93.5 36.5t-37.5 90.5q0 16 3 32q15 71 72.5 106.5t135.5 35.5h140z"/>
<glyph unicode="·" glyph-name="periodcentered" horiz-adv-x="255" d="M217 246q-8 -35 -40 -57.5t-79 -22.5q-43 0 -65.5 17.5t-22.5 45.5q0 5 2 17q7 35 38.5 58t81.5 23q42 0 64.5 -18.5t22.5 -47.5q0 -5 -2 -15z"/>
<glyph unicode="¸" glyph-name="cedilla" horiz-adv-x="361" d="M224 -87q-8 -41 -51 -65.5t-109 -24.5q-32 0 -59 5.5t-39 11.5l-11 5l47 57q25 -12 49 -12q39 0 44 25q0 1 0.5 3t0.5 3q0 20 -43 20l-39 -2l43 118h90l-25 -61q104 0 104 -64q0 -5 -2 -19z"/>
<glyph unicode="¹" glyph-name="uni00B9" horiz-adv-x="327" d="M101 266l40 190q-35 -10 -57 -16l9 139l200 47h37l-77 -360h-152z"/>
<glyph unicode="º" glyph-name="ordmasculine" horiz-adv-x="499" d="M305 78q-8 -38 -42.5 -60.5t-80.5 -22.5q-38 0 -62 17.5t-24 48.5q0 6 2 18q9 40 42 62t78 22q40 0 64.5 -17t24.5 -49q0 -5 -2 -19zM343 415q4 24 4 32q0 33 -15.5 51.5t-40.5 18.5q-32 0 -58 -24t-36 -68q-3 -15 -3 -28q0 -32 16 -51t40 -19q33 0 58.5 22.5t34.5 65.5z M488 412q-19 -94 -87.5 -144t-163.5 -50q-81 0 -135 46t-54 122q0 18 5 45q20 95 89 145.5t163 50.5q81 0 134.5 -45.5t53.5 -121.5q0 -27 -5 -48z"/>
<glyph unicode="»" glyph-name="guillemotright" horiz-adv-x="556" d="M232 94l103 147l-44 129l110 43l114 -181l-181 -182zM-10 94l102 147l-44 129l110 43l114 -181l-181 -182z"/>
<glyph unicode="¼" glyph-name="onequarter" horiz-adv-x="878" d="M596 205l-45 -54h34zM716 57l-12 -57h-151l12 57h-145l12 60l201 234h145l-39 -186h64l-48 -108h-39zM113 0l500 620h133l-498 -620h-135zM111 266l40 190q-10 -3 -29 -8.5t-28 -7.5l9 139l200 47h37l-77 -360h-152z"/>
<glyph unicode="½" glyph-name="onehalf" horiz-adv-x="916" d="M654 243q-15 0 -34.5 -5.5t-31.5 -11.5l-12 -6l10 114q67 28 135 28q57 0 89 -21.5t32 -60.5q0 -7 -2 -21q-7 -33 -39.5 -75.5t-70.5 -72.5h99l-49 -111h-268l6 29q70 53 112.5 105t48.5 80q1 3 1 7q0 22 -26 22zM113 0l500 620h133l-498 -620h-135zM111 266l40 190 q-10 -3 -29 -8.5t-28 -7.5l9 139l200 47h37l-77 -360h-152z"/>
<glyph unicode="¾" glyph-name="threequarters" horiz-adv-x="900" d="M618 205l-45 -54h34zM738 57l-12 -57h-151l12 57h-145l12 60l201 234h145l-39 -186h64l-48 -108h-39zM135 0l500 620h133l-498 -620h-135zM392 598l-98 -101q69 -21 69 -81q0 -6 -2 -20q-13 -60 -66 -95t-118 -35q-38 0 -71 12t-46 24l-14 13l80 90q20 -24 53 -24 q36 0 42 32q0 1 0.5 3t0.5 3q0 11 -9.5 19.5t-29.5 8.5q-17 0 -33 -5l-10 14l57 55h-90l48 109h241z"/>
<glyph unicode="¿" glyph-name="questiondown" horiz-adv-x="356" d="M256 405q12 -21 12 -43q0 -20 -10 -43q-11 -27 -48.5 -77.5t-42.5 -72.5q-1 -3 -1 -8q0 -26 32 -26q37 0 91 24l-41 -147q-54 -17 -108 -17q-74 0 -114.5 30.5t-40.5 83.5q0 18 4 34q7 35 32.5 67.5t53 53t53 46.5t32.5 48q2 6 2 17q0 13 -2 19zM340 543 q-9 -40 -42.5 -62t-78.5 -22q-40 0 -64 17t-24 49q0 5 2 19q8 38 42.5 60.5t79.5 22.5q39 0 63 -17.5t24 -48.5q0 -6 -2 -18z"/>
<glyph unicode="À" glyph-name="Agrave" horiz-adv-x="642" d="M336 339l-90 -136h120zM597 0h-188l-21 81h-216l-52 -81h-205l459 635h33zM346 689l-86 125l171 32l26 -157h-111z"/>
<glyph unicode="Á" glyph-name="Aacute" horiz-adv-x="643" d="M336 339l-90 -136h120zM597 0h-188l-21 81h-216l-52 -81h-205l459 635h33zM338 687l99 157l161 -32l-133 -125h-127z"/>
<glyph unicode="Â" glyph-name="Acircumflex" horiz-adv-x="642" d="M336 339l-90 -136h120zM597 0h-188l-21 81h-216l-52 -81h-205l459 635h33zM463 678l-48 54l-68 -54l-112 61l186 124h33l138 -124z"/>
<glyph unicode="Ã" glyph-name="Atilde" horiz-adv-x="642" d="M336 339l-90 -136h120zM597 0h-188l-21 81h-216l-52 -81h-205l459 635h33zM570 729q-58 -39 -108 -39q-16 0 -47.5 5.5t-48.5 5.5q-43 0 -92 -28l-13 108q54 36 103 36q16 0 46 -4.5t45 -4.5q51 0 102 37z"/>
<glyph unicode="Ä" glyph-name="Adieresis" horiz-adv-x="663" d="M336 339l-90 -136h120zM597 0h-188l-21 81h-216l-52 -81h-205l459 635h33zM616 755q-7 -30 -34.5 -49t-63.5 -19q-31 0 -50.5 14.5t-19.5 40.5q0 4 2 14q7 33 34.5 51t62.5 18q32 0 51.5 -14t19.5 -40q0 -4 -2 -16zM389 755q-7 -30 -34.5 -49t-62.5 -19q-31 0 -50.5 15 t-19.5 40q0 4 2 14q7 33 34 51t63 18q31 0 50.5 -14t19.5 -40q0 -4 -2 -16z"/>
<glyph unicode="Å" glyph-name="Aring" horiz-adv-x="642" d="M336 339l-90 -136h120zM597 0h-188l-21 81h-216l-52 -81h-205l459 635h33zM448 782q1 3 1 9q0 21 -21 21q-25 0 -33 -30q-1 -3 -1 -8q0 -21 21 -21q27 0 33 29zM538 777q-9 -46 -45.5 -70t-87.5 -24q-44 0 -73 23t-29 61q0 14 2 21q9 46 46 70.5t87 24.5q44 0 73 -23 t29 -61q0 -14 -2 -22z"/>
<glyph unicode="Æ" glyph-name="AE" horiz-adv-x="878" d="M380 205l33 157l-128 -157h95zM337 0l17 83h-169l-68 -83h-203l526 620h409l-29 -136h-201l-18 -87h147l-29 -137h-147l-26 -123h281l-61 -137h-429z"/>
<glyph unicode="Ç" glyph-name="Ccedilla" horiz-adv-x="614" d="M426 -135q-8 -41 -51 -65.5t-109 -24.5q-32 0 -59 5.5t-39 11.5l-11 5l47 57q25 -12 49 -12q39 0 44 25q0 1 0.5 3t0.5 3q0 20 -43 20l-39 -2l38 106q-101 14 -163.5 78.5t-62.5 169.5q0 40 8 76q32 152 137.5 229t249.5 77q56 0 104.5 -13.5t68.5 -26.5l21 -13l-44 -142 q-2 2 -5.5 6t-17.5 14.5t-30 18t-42.5 14t-56.5 6.5q-66 0 -125 -45.5t-78 -134.5q-6 -27 -6 -49q0 -62 37.5 -96.5t97.5 -34.5q41 0 80.5 15.5t58.5 31.5l20 16l54 -116q-106 -75 -217 -84l-19 -46q104 0 104 -64q0 -5 -2 -19z"/>
<glyph unicode="È" glyph-name="Egrave" horiz-adv-x="541" d="M0 0l131 620h381l-29 -136h-201l-18 -87h147l-29 -137h-147l-26 -123h281l-61 -137h-429zM295 690l-86 125l171 32l26 -157h-111z"/>
<glyph unicode="É" glyph-name="Eacute" horiz-adv-x="543" d="M0 0l131 620h381l-29 -136h-201l-18 -87h147l-29 -137h-147l-26 -123h281l-61 -137h-429zM259 689l99 157l161 -32l-133 -125h-127z"/>
<glyph unicode="Ê" glyph-name="Ecircumflex" horiz-adv-x="543" d="M0 0l131 620h381l-29 -136h-201l-18 -87h147l-29 -137h-147l-26 -123h281l-61 -137h-429zM404 684l-48 54l-68 -54l-112 61l186 124h33l138 -124z"/>
<glyph unicode="Ë" glyph-name="Edieresis" horiz-adv-x="541" d="M0 0l131 620h381l-29 -136h-201l-18 -87h147l-29 -137h-147l-26 -123h281l-61 -137h-429zM555 757q-7 -30 -34.5 -49t-63.5 -19q-31 0 -50.5 14.5t-19.5 40.5q0 4 2 14q7 33 34.5 51t62.5 18q32 0 51.5 -14t19.5 -40q0 -4 -2 -16zM328 757q-7 -30 -34.5 -49t-62.5 -19 q-31 0 -50.5 15t-19.5 40q0 4 2 14q7 33 34 51t63 18q31 0 50.5 -14t19.5 -40q0 -4 -2 -16z"/>
<glyph unicode="Ì" glyph-name="Igrave" horiz-adv-x="312" d="M0 0l131 620h180l-131 -620h-180zM191 689l-86 125l171 32l26 -157h-111z"/>
<glyph unicode="Í" glyph-name="Iacute" horiz-adv-x="310" d="M0 0l131 620h180l-131 -620h-180zM154 689l99 157l161 -32l-133 -125h-127z"/>
<glyph unicode="Î" glyph-name="Icircumflex" horiz-adv-x="310" d="M0 0l131 620h180l-131 -620h-180zM297 678l-48 54l-68 -54l-112 61l186 124h33l138 -124z"/>
<glyph unicode="Ï" glyph-name="Idieresis" horiz-adv-x="310" d="M0 0l131 620h180l-131 -620h-180zM447 755q-7 -30 -34.5 -49t-63.5 -19q-31 0 -50.5 14.5t-19.5 40.5q0 4 2 14q7 33 34.5 51t62.5 18q32 0 51.5 -14t19.5 -40q0 -4 -2 -16zM220 755q-7 -30 -34.5 -49t-62.5 -19q-31 0 -50.5 15t-19.5 40q0 4 2 14q7 33 34 51t63 18 q31 0 50.5 -14t19.5 -40q0 -4 -2 -16z"/>
<glyph unicode="Ð" glyph-name="Eth" horiz-adv-x="694" d="M481 311q5 25 5 44q0 59 -39 94.5t-119 35.5h-21l-17 -79h67l-29 -136h-67l-28 -133h17q95 0 154.5 48.5t76.5 125.5zM659 300q-29 -137 -136.5 -218.5t-300.5 -81.5h-198l57 270h-81l61 136h49l45 214h178q167 0 250.5 -69t83.5 -181q0 -32 -8 -70z"/>
<glyph unicode="Ñ" glyph-name="Ntilde" horiz-adv-x="699" d="M537 -5l-295 312l-62 -307h-180l132 625h30l296 -310l62 305h180l-133 -625h-30zM586 717q-58 -39 -108 -39q-16 0 -47.5 5.5t-48.5 5.5q-43 0 -92 -28l-13 108q54 36 103 36q16 0 46 -4.5t45 -4.5q51 0 102 37z"/>
<glyph unicode="Ò" glyph-name="Ograve" horiz-adv-x="735" d="M517 310q6 28 6 54q0 60 -32 93.5t-85 33.5q-64 0 -117.5 -49t-70.5 -131q-6 -29 -6 -54q0 -60 32 -93t85 -33q65 0 118 48t70 131zM700 300q-31 -147 -134 -227t-246 -80q-125 0 -208 70.5t-83 188.5q0 35 7 69q31 147 133.5 227t245.5 80q126 0 209.5 -70t83.5 -188 q0 -32 -8 -70zM388 688l-86 125l171 32l26 -157h-111z"/>
<glyph unicode="Ó" glyph-name="Oacute" horiz-adv-x="735" d="M517 310q6 28 6 54q0 60 -32 93.5t-85 33.5q-64 0 -117.5 -49t-70.5 -131q-6 -29 -6 -54q0 -60 32 -93t85 -33q65 0 118 48t70 131zM700 300q-31 -147 -134 -227t-246 -80q-125 0 -208 70.5t-83 188.5q0 35 7 69q31 147 133.5 227t245.5 80q126 0 209.5 -70t83.5 -188 q0 -32 -8 -70zM365 691l99 157l161 -32l-133 -125h-127z"/>
<glyph unicode="Ô" glyph-name="Ocircumflex" horiz-adv-x="735" d="M517 310q6 28 6 54q0 60 -32 93.5t-85 33.5q-64 0 -117.5 -49t-70.5 -131q-6 -29 -6 -54q0 -60 32 -93t85 -33q65 0 118 48t70 131zM700 300q-31 -147 -134 -227t-246 -80q-125 0 -208 70.5t-83 188.5q0 35 7 69q31 147 133.5 227t245.5 80q126 0 209.5 -70t83.5 -188 q0 -32 -8 -70zM511 679l-48 54l-68 -54l-112 61l186 124h33l138 -124z"/>
<glyph unicode="Õ" glyph-name="Otilde" horiz-adv-x="735" d="M517 310q6 28 6 54q0 60 -32 93.5t-85 33.5q-64 0 -117.5 -49t-70.5 -131q-6 -29 -6 -54q0 -60 32 -93t85 -33q65 0 118 48t70 131zM700 300q-31 -147 -134 -227t-246 -80q-125 0 -208 70.5t-83 188.5q0 35 7 69q31 147 133.5 227t245.5 80q126 0 209.5 -70t83.5 -188 q0 -32 -8 -70zM618 729q-58 -39 -108 -39q-16 0 -47.5 5.5t-48.5 5.5q-43 0 -92 -28l-13 108q54 36 103 36q16 0 46 -4.5t45 -4.5q51 0 102 37z"/>
<glyph unicode="Ö" glyph-name="Odieresis" horiz-adv-x="735" d="M517 310q6 28 6 54q0 60 -32 93.5t-85 33.5q-64 0 -117.5 -49t-70.5 -131q-6 -29 -6 -54q0 -60 32 -93t85 -33q65 0 118 48t70 131zM700 300q-31 -147 -134 -227t-246 -80q-125 0 -208 70.5t-83 188.5q0 35 7 69q31 147 133.5 227t245.5 80q126 0 209.5 -70t83.5 -188 q0 -32 -8 -70zM659 752q-7 -30 -34.5 -49t-63.5 -19q-31 0 -50.5 14.5t-19.5 40.5q0 4 2 14q7 33 34.5 51t62.5 18q32 0 51.5 -14t19.5 -40q0 -4 -2 -16zM432 752q-7 -30 -34.5 -49t-62.5 -19q-31 0 -50.5 15t-19.5 40q0 4 2 14q7 33 34 51t63 18q31 0 50.5 -14t19.5 -40 q0 -4 -2 -16z"/>
<glyph unicode="×" glyph-name="multiply" horiz-adv-x="530" d="M344 20l-108 134l-163 -134l-80 99l164 135l-108 134l112 91l107 -136l164 136l80 -101l-163 -134l108 -135z"/>
<glyph unicode="Ø" glyph-name="Oslash" horiz-adv-x="738" d="M517 310q6 28 6 54q0 75 -49 107l-160 -339q5 -1 15 -1q65 0 118 48t70 131zM263 148q9 19 71.5 149.5t91.5 191.5q-12 2 -20 2q-64 0 -117.5 -49t-70.5 -131q-6 -30 -6 -55q0 -76 51 -108zM700 300q-31 -147 -134 -227t-246 -80q-30 0 -69 7l-45 -97h-59q7 18 52 110 q-78 28 -124 90.5t-46 148.5q0 35 7 69q31 147 133.5 227t245.5 80q36 0 73 -8l33 69h57l-39 -82q77 -29 122.5 -90.5t45.5 -147.5q0 -35 -7 -69z"/>
<glyph unicode="Ù" glyph-name="Ugrave" horiz-adv-x="668" d="M606 297q-35 -165 -109 -234.5t-217 -69.5q-118 0 -176.5 47.5t-58.5 149.5q0 50 13 109l68 321h180l-68 -321q-12 -54 -12 -89q0 -79 69 -79q51 0 81.5 39t49.5 127l68 323h180zM364 689l-86 125l171 32l26 -157h-111z"/>
<glyph unicode="Ú" glyph-name="Uacute" horiz-adv-x="668" d="M606 297q-35 -165 -109 -234.5t-217 -69.5q-118 0 -176.5 47.5t-58.5 149.5q0 50 13 109l68 321h180l-68 -321q-12 -54 -12 -89q0 -79 69 -79q51 0 81.5 39t49.5 127l68 323h180zM346 689l99 157l161 -32l-133 -125h-127z"/>
<glyph unicode="Û" glyph-name="Ucircumflex" horiz-adv-x="668" d="M606 297q-35 -165 -109 -234.5t-217 -69.5q-118 0 -176.5 47.5t-58.5 149.5q0 50 13 109l68 321h180l-68 -321q-12 -54 -12 -89q0 -79 69 -79q51 0 81.5 39t49.5 127l68 323h180zM470 677l-48 54l-68 -54l-112 61l186 124h33l138 -124z"/>
<glyph unicode="Ü" glyph-name="Udieresis" horiz-adv-x="668" d="M606 297q-35 -165 -109 -234.5t-217 -69.5q-118 0 -176.5 47.5t-58.5 149.5q0 50 13 109l68 321h180l-68 -321q-12 -54 -12 -89q0 -79 69 -79q51 0 81.5 39t49.5 127l68 323h180zM625 755q-7 -30 -34.5 -49t-63.5 -19q-31 0 -50.5 14.5t-19.5 40.5q0 4 2 14q7 33 34.5 51 t62.5 18q32 0 51.5 -14t19.5 -40q0 -4 -2 -16zM398 755q-7 -30 -34.5 -49t-62.5 -19q-31 0 -50.5 15t-19.5 40q0 4 2 14q7 33 34 51t63 18q31 0 50.5 -14t19.5 -40q0 -4 -2 -16z"/>
<glyph unicode="Ý" glyph-name="Yacute" horiz-adv-x="627" d="M315 371l181 249h212l-322 -395l-47 -225h-180l46 221q-23 57 -77 199.5t-77 199.5h186zM323 691l99 157l161 -32l-133 -125h-127z"/>
<glyph unicode="Þ" glyph-name="Thorn" horiz-adv-x="570" d="M366 311q2 14 2 20q0 34 -25 53t-67 19h-14l-39 -186h14q49 0 84 24.5t45 69.5zM546 299q-23 -105 -113 -161.5t-240 -56.5l-17 -81h-180l131 620h182l-17 -81q122 0 190.5 -55.5t68.5 -140.5q0 -19 -5 -44z"/>
<glyph unicode="ß" glyph-name="germandbls" horiz-adv-x="570" d="M517 210q-18 -86 -86.5 -149.5t-171.5 -63.5q-21 0 -42 3l39 111q6 -1 16 -1q70 0 89 100q5 18 5 37q0 63 -73 63l24 110q49 0 58 43q2 10 2 15q0 33 -52 33q-31 0 -44 -14t-20 -45l-96 -452h-153l65 310h-81l51 110h53l9 43q19 89 79.5 127.5t161.5 38.5q77 0 122.5 -29 t45.5 -82q0 -13 -3 -28q-17 -80 -95 -106q102 -16 102 -125q0 -22 -5 -49z"/>
<glyph unicode="à" glyph-name="agrave" d="M165 203q-4 -16 -4 -33q0 -57 48 -57q70 0 100 142l9 44q-22 12 -51 12q-39 0 -65.5 -30.5t-36.5 -77.5zM9 198q22 102 95.5 165.5t180.5 63.5q125 0 196 -77l-74 -350h-152l15 75q-1 -2 -5.5 -10t-16 -21t-26 -24t-37.5 -19.5t-49 -8.5q-63 0 -98.5 38t-35.5 106 q0 31 7 62zM234 484l-86 125l182 32l25 -157h-121z"/>
<glyph unicode="á" glyph-name="aacute" horiz-adv-x="535" d="M165 203q-4 -16 -4 -33q0 -57 48 -57q70 0 100 142l9 44q-22 12 -51 12q-39 0 -65.5 -30.5t-36.5 -77.5zM9 208q22 102 90 160.5t176 58.5q55 0 105 -18t70 -32.5t31 -26.5l-74 -350h-152l15 75q-1 -2 -5.5 -10t-16 -21t-26 -24t-37.5 -19.5t-49 -8.5q-63 0 -98.5 41.5 t-35.5 111.5q0 32 7 63zM234 485l99 157l161 -32l-133 -125h-127z"/>
<glyph unicode="â" glyph-name="acircumflex" d="M165 203q-4 -16 -4 -33q0 -57 48 -57q70 0 100 142l9 44q-22 12 -51 12q-39 0 -65.5 -30.5t-36.5 -77.5zM9 208q22 102 90 160.5t176 58.5q55 0 105 -18t70 -32.5t31 -26.5l-74 -350h-152l15 75q-1 -2 -5.5 -10t-16 -21t-26 -24t-37.5 -19.5t-49 -8.5q-63 0 -98.5 41.5 t-35.5 111.5q0 32 7 63zM350 475l-48 54l-68 -54l-112 61l186 124h33l138 -124z"/>
<glyph unicode="ã" glyph-name="atilde" d="M165 203q-4 -16 -4 -33q0 -57 48 -57q70 0 100 142l9 44q-22 12 -51 12q-39 0 -65.5 -30.5t-36.5 -77.5zM9 208q22 102 90 160.5t176 58.5q55 0 105 -18t70 -32.5t31 -26.5l-74 -350h-152l15 75q-1 -2 -5.5 -10t-16 -21t-26 -24t-37.5 -19.5t-49 -8.5q-63 0 -98.5 41.5 t-35.5 111.5q0 32 7 63zM465 524q-59 -39 -108 -39q-16 0 -47.5 5.5t-48.5 5.5q-43 0 -92 -28l-13 108q54 36 103 36q16 0 46 -4.5t45 -4.5q51 0 102 37z"/>
<glyph unicode="ä" glyph-name="adieresis" horiz-adv-x="518" d="M165 203q-4 -16 -4 -33q0 -57 48 -57q70 0 100 142l9 44q-22 12 -51 12q-39 0 -65.5 -30.5t-36.5 -77.5zM9 208q22 102 90 160.5t176 58.5q55 0 105 -18t70 -32.5t31 -26.5l-74 -350h-152l15 75q-1 -2 -5.5 -10t-16 -21t-26 -24t-37.5 -19.5t-49 -8.5q-63 0 -98.5 41.5 t-35.5 111.5q0 32 7 63zM505 547q-7 -30 -34.5 -49t-63.5 -19q-31 0 -50.5 14.5t-19.5 40.5q0 4 2 14q7 33 34.5 51t62.5 18q32 0 51.5 -14t19.5 -40q0 -4 -2 -16zM278 547q-7 -30 -34.5 -49t-62.5 -19q-31 0 -50.5 15t-19.5 40q0 4 2 14q7 33 34 51t63 18q31 0 50.5 -14 t19.5 -40q0 -4 -2 -16z"/>
<glyph unicode="å" glyph-name="aring" d="M165 203q-4 -16 -4 -33q0 -57 48 -57q70 0 100 142l9 44q-22 12 -51 12q-39 0 -65.5 -30.5t-36.5 -77.5zM9 208q22 102 90 160.5t176 58.5q55 0 105 -18t70 -32.5t31 -26.5l-74 -350h-152l15 75q-1 -2 -5.5 -10t-16 -21t-26 -24t-37.5 -19.5t-49 -8.5q-63 0 -98.5 41.5 t-35.5 111.5q0 32 7 63zM344 581q1 3 1 9q0 21 -21 21q-25 0 -33 -30q-1 -3 -1 -8q0 -21 21 -21q27 0 33 29zM434 576q-9 -46 -45.5 -70t-87.5 -24q-44 0 -73 23t-29 61q0 14 2 21q9 46 46 70.5t87 24.5q44 0 73 -23t29 -61q0 -14 -2 -22z"/>
<glyph unicode="æ" glyph-name="ae" horiz-adv-x="778" d="M168 203q-4 -16 -4 -33q0 -57 48 -57q70 0 100 142l9 44q-22 12 -51 12q-39 0 -65.5 -30.5t-36.5 -77.5zM549 332q-53 0 -80 -59h136q-2 59 -56 59zM447 171q-1 -30 26.5 -46t67.5 -16q60 0 117 36l41 -102q-85 -49 -179 -49q-93 0 -123 52l-9 -46h-116l11 56 q-5 -7 -19 -19.5t-49.5 -28.5t-75.5 -16q-63 0 -98.5 41.5t-35.5 111.5q0 32 7 63q22 102 90 160.5t176 58.5q96 0 152 -49q67 50 149 50q70 0 113.5 -40t43.5 -110q0 -24 -6 -53l-15 -54h-268z"/>
<glyph unicode="ç" glyph-name="ccedilla" horiz-adv-x="437" d="M211 -8l-16 -41q104 0 104 -64q0 -5 -2 -19q-8 -41 -51 -65.5t-109 -24.5q-32 0 -59.5 5.5t-39.5 10.5l-11 6l48 57q26 -12 50 -12q39 0 44 25q0 1 0.5 3t0.5 3q0 20 -44 20l-39 -2l41 110q-57 19 -90 61.5t-33 103.5q0 25 6 52q21 102 95.5 154.5t167.5 52.5q36 0 70 -5 t50 -10l16 -5l-31 -115q-37 22 -94 22q-41 0 -76 -25.5t-46 -76.5q-3 -15 -3 -27q0 -37 23 -55.5t57 -18.5q23 0 47 7.5t36 14.5l12 8l54 -100q-82 -50 -176 -50h-2z"/>
<glyph unicode="è" glyph-name="egrave" horiz-adv-x="483" d="M254 332q-53 0 -80 -59h136q-2 59 -56 59zM157 171q-1 -31 22.5 -46.5t61.5 -15.5q60 0 117 36l46 -102q-85 -49 -189 -49q-101 0 -154.5 48.5t-53.5 132.5q0 14 4 46q15 97 82.5 152t169.5 55q85 0 133 -47t48 -119q0 -46 -19 -91h-268zM225 484l-86 125l171 32l26 -157 h-111z"/>
<glyph unicode="é" glyph-name="eacute" horiz-adv-x="480" d="M254 332q-53 0 -80 -59h136q-2 59 -56 59zM157 171q-1 -31 22.5 -46.5t61.5 -15.5q60 0 117 36l46 -102q-85 -49 -189 -49q-101 0 -154.5 48.5t-53.5 132.5q0 14 4 46q15 97 82.5 152t169.5 55q85 0 133 -47t48 -119q0 -46 -19 -91h-268zM213 485l99 157l161 -32 l-133 -125h-127z"/>
<glyph unicode="ê" glyph-name="ecircumflex" horiz-adv-x="484" d="M254 332q-53 0 -80 -59h136q-2 59 -56 59zM157 171q-1 -31 22.5 -46.5t61.5 -15.5q60 0 117 36l46 -102q-85 -49 -189 -49q-101 0 -154.5 48.5t-53.5 132.5q0 14 4 46q15 97 82.5 152t169.5 55q85 0 133 -47t48 -119q0 -46 -19 -91h-268zM347 476l-48 54l-68 -54l-112 61 l186 124h33l138 -124z"/>
<glyph unicode="ë" glyph-name="edieresis" horiz-adv-x="486" d="M254 332q-53 0 -80 -59h136q-2 59 -56 59zM157 171q-1 -31 22.5 -46.5t61.5 -15.5q60 0 117 36l46 -102q-85 -49 -189 -49q-101 0 -154.5 48.5t-53.5 132.5q0 14 4 46q15 97 82.5 152t169.5 55q85 0 133 -47t48 -119q0 -46 -19 -91h-268zM499 548q-7 -30 -34.5 -49 t-63.5 -19q-31 0 -50.5 14.5t-19.5 40.5q0 4 2 14q7 33 34.5 51t62.5 18q32 0 51.5 -14t19.5 -40q0 -4 -2 -16zM272 548q-7 -30 -34.5 -49t-62.5 -19q-31 0 -50.5 15t-19.5 40q0 4 2 14q7 33 34 51t63 18q31 0 50.5 -14t19.5 -40q0 -4 -2 -16z"/>
<glyph unicode="ì" glyph-name="igrave" horiz-adv-x="256" d="M-11 0l89 420h154l-89 -420h-154zM108 486l-86 125l171 32l26 -157h-111z"/>
<glyph unicode="í" glyph-name="iacute" horiz-adv-x="256" d="M-11 0l89 420h154l-89 -420h-154zM103 486l99 157l161 -32l-133 -125h-127z"/>
<glyph unicode="î" glyph-name="icircumflex" horiz-adv-x="258" d="M-11 0l89 420h154l-89 -420h-154zM230 478l-48 54l-68 -54l-112 61l186 124h33l138 -124z"/>
<glyph unicode="ï" glyph-name="idieresis" horiz-adv-x="266" d="M-6 0l89 420h154l-89 -420h-154zM383 552q-7 -30 -34.5 -49t-63.5 -19q-31 0 -50.5 14.5t-19.5 40.5q0 4 2 14q7 33 34.5 51t62.5 18q32 0 51.5 -14t19.5 -40q0 -4 -2 -16zM156 552q-7 -30 -34.5 -49t-62.5 -19q-31 0 -50.5 15t-19.5 40q0 4 2 14q7 33 34 51t63 18 q31 0 50.5 -14t19.5 -40q0 -4 -2 -16z"/>
<glyph unicode="ð" glyph-name="eth" horiz-adv-x="525" d="M318 209q4 16 4 33q0 32 -16 50.5t-43 18.5q-33 0 -61 -27.5t-38 -73.5q-4 -24 -4 -32q0 -33 16.5 -50.5t43.5 -17.5q33 0 60.5 26t37.5 73zM470 189q-19 -89 -92.5 -142t-171.5 -53q-87 0 -143.5 48.5t-56.5 130.5q0 20 5 47q17 79 74 123t135 55q24 2 36 2h13l-18 43 l-130 -32l23 110l67 15l-20 59l160 36l18 -51l136 35l-23 -111l-80 -20q74 -167 74 -244q0 -17 -6 -51z"/>
<glyph unicode="ñ" glyph-name="ntilde" horiz-adv-x="517" d="M252 0l50 236q3 15 3 26q0 43 -42 43q-60 0 -86 -119l-39 -186h-153l89 419h153l-16 -73q2 3 5 8.5t15 19.5t26 24.5t37.5 19.5t49.5 9q123 0 123 -117q0 -28 -7 -60l-53 -250h-155zM459 531q-59 -39 -108 -39q-16 0 -47.5 5.5t-48.5 5.5q-43 0 -92 -28l-13 108 q54 36 103 36q16 0 46 -4.5t45 -4.5q51 0 102 37z"/>
<glyph unicode="ò" glyph-name="ograve" horiz-adv-x="525" d="M318 204q4 16 4 34q0 34 -16 53.5t-43 19.5q-33 0 -61 -25t-38 -71q-4 -24 -4 -32q0 -34 16.5 -53.5t43.5 -19.5q34 0 61 24t37 70zM472 199q-21 -99 -93.5 -152t-172.5 -53q-87 0 -143.5 48.5t-56.5 130.5q0 20 5 47q21 100 94 153.5t173 53.5q86 0 142.5 -49t56.5 -130 q0 -28 -5 -49zM241 485l-86 125l171 32l26 -157h-111z"/>
<glyph unicode="ó" glyph-name="oacute" horiz-adv-x="516" d="M318 204q4 16 4 34q0 34 -16 53.5t-43 19.5q-33 0 -61 -25t-38 -71q-4 -24 -4 -32q0 -34 16.5 -53.5t43.5 -19.5q34 0 61 24t37 70zM472 199q-21 -99 -93.5 -152t-172.5 -53q-87 0 -143.5 48.5t-56.5 130.5q0 20 5 47q21 100 94 153.5t173 53.5q86 0 142.5 -49t56.5 -130 q0 -28 -5 -49zM229 485l99 157l161 -32l-133 -125h-127z"/>
<glyph unicode="ô" glyph-name="ocircumflex" horiz-adv-x="524" d="M318 204q4 16 4 34q0 34 -16 53.5t-43 19.5q-33 0 -61 -25t-38 -71q-4 -24 -4 -32q0 -34 16.5 -53.5t43.5 -19.5q34 0 61 24t37 70zM472 199q-21 -99 -93.5 -152t-172.5 -53q-87 0 -143.5 48.5t-56.5 130.5q0 20 5 47q21 100 94 153.5t173 53.5q86 0 142.5 -49t56.5 -130 q0 -28 -5 -49zM361 478l-48 54l-68 -54l-112 61l186 124h33l138 -124z"/>
<glyph unicode="õ" glyph-name="otilde" horiz-adv-x="525" d="M318 204q4 16 4 34q0 34 -16 53.5t-43 19.5q-33 0 -61 -25t-38 -71q-4 -24 -4 -32q0 -34 16.5 -53.5t43.5 -19.5q34 0 61 24t37 70zM472 199q-21 -99 -93.5 -152t-172.5 -53q-87 0 -143.5 48.5t-56.5 130.5q0 20 5 47q21 100 94 153.5t173 53.5q86 0 142.5 -49t56.5 -130 q0 -28 -5 -49zM470 522q-58 -39 -108 -39q-16 0 -47.5 5.5t-48.5 5.5q-43 0 -92 -28l-13 108q54 36 103 36q16 0 46 -4.5t45 -4.5q51 0 102 37z"/>
<glyph unicode="ö" glyph-name="odieresis" horiz-adv-x="528" d="M318 204q4 16 4 34q0 34 -16 53.5t-43 19.5q-33 0 -61 -25t-38 -71q-4 -24 -4 -32q0 -34 16.5 -53.5t43.5 -19.5q34 0 61 24t37 70zM472 199q-21 -99 -93.5 -152t-172.5 -53q-87 0 -143.5 48.5t-56.5 130.5q0 20 5 47q21 100 94 153.5t173 53.5q86 0 142.5 -49t56.5 -130 q0 -28 -5 -49zM509 545q-7 -30 -34.5 -49t-63.5 -19q-31 0 -50.5 14.5t-19.5 40.5q0 4 2 14q7 33 34.5 51t62.5 18q32 0 51.5 -14t19.5 -40q0 -4 -2 -16zM282 545q-7 -30 -34.5 -49t-62.5 -19q-31 0 -50.5 15t-19.5 40q0 4 2 14q7 33 34 51t63 18q31 0 50.5 -14t19.5 -40 q0 -4 -2 -16z"/>
<glyph unicode="÷" glyph-name="divide" horiz-adv-x="529" d="M319 71q-8 -37 -43.5 -59.5t-80.5 -22.5q-39 0 -63.5 17.5t-24.5 49.5q0 5 2 17q8 38 42 59t79 21q41 0 66 -17t25 -48q0 -5 -2 -17zM0 190l26 122h479l-26 -122h-479zM395 430q-8 -37 -43.5 -59.5t-80.5 -22.5q-39 0 -63.5 17.5t-24.5 49.5q0 5 2 17q8 37 42.5 58.5 t78.5 21.5q40 0 65.5 -17.5t25.5 -48.5q0 -4 -2 -16z"/>
<glyph unicode="ø" glyph-name="oslash" horiz-adv-x="526" d="M318 204q4 16 4 33q0 31 -14 50l-83 -177q32 2 57.5 25.5t35.5 68.5zM262 311q-33 -1 -60.5 -26t-37.5 -70q-4 -24 -4 -32q0 -34 16 -53zM472 199q-21 -99 -93.5 -152t-172.5 -53q-13 0 -35 2l-44 -93h-59l51 106q-52 20 -82.5 62.5t-30.5 101.5q0 19 5 47 q21 100 94 153.5t173 53.5q20 0 38 -3l32 67h57q-18 -36 -38 -80q51 -21 80.5 -63.5t29.5 -100.5q0 -20 -5 -48z"/>
<glyph unicode="ù" glyph-name="ugrave" horiz-adv-x="519" d="M226 419l-51 -236q-3 -15 -3 -26q0 -43 42 -43q61 0 86 119l40 186h153l-89 -419h-153l15 73q-2 -3 -6 -8.5t-18 -19.5t-29 -24.5t-39.5 -19.5t-50.5 -9q-58 0 -84 25.5t-26 83.5q0 46 15 118l43 200h155zM240 487l-86 125l181 32l26 -157h-121z"/>
<glyph unicode="ú" glyph-name="uacute" horiz-adv-x="517" d="M224 419l-51 -236q-3 -15 -3 -26q0 -43 42 -43q60 0 86 119l40 186h153l-89 -419h-153l15 73q-2 -3 -5 -8.5t-15 -19.5t-26 -24.5t-37.5 -19.5t-49.5 -9q-61 0 -90 28t-29 90q0 42 14 109l43 200h155zM225 485l99 157l161 -32l-133 -125h-127z"/>
<glyph unicode="û" glyph-name="ucircumflex" horiz-adv-x="517" d="M224 419l-51 -236q-3 -15 -3 -26q0 -43 42 -43q60 0 86 119l40 186h153l-89 -419h-153l15 73q-2 -3 -5 -8.5t-15 -19.5t-26 -24.5t-37.5 -19.5t-49.5 -9q-61 0 -90 28t-29 90q0 42 14 109l43 200h155zM355 478l-48 54l-68 -54l-112 61l186 124h33l138 -124z"/>
<glyph unicode="ü" glyph-name="udieresis" horiz-adv-x="518" d="M224 419l-51 -236q-3 -15 -3 -26q0 -43 42 -43q60 0 86 119l40 186h153l-89 -419h-153l15 73q-2 -3 -5 -8.5t-15 -19.5t-26 -24.5t-37.5 -19.5t-49.5 -9q-61 0 -90 28t-29 90q0 42 14 109l43 200h155zM499 547q-7 -30 -34.5 -49t-63.5 -19q-31 0 -50.5 14.5t-19.5 40.5 q0 4 2 14q7 33 34.5 51t62.5 18q32 0 51.5 -14t19.5 -40q0 -4 -2 -16zM272 547q-7 -30 -34.5 -49t-62.5 -19q-31 0 -50.5 15t-19.5 40q0 4 2 14q7 33 34 51t63 18q31 0 50.5 -14t19.5 -40q0 -4 -2 -16z"/>
<glyph unicode="ý" glyph-name="yacute" horiz-adv-x="485" d="M-43 -131l157 218l-95 332h159l42 -184l121 184h173l-412 -576zM212 485l99 157l161 -32l-133 -125h-127z"/>
<glyph unicode="þ" glyph-name="thorn" horiz-adv-x="523" d="M317 217q4 22 4 33q0 57 -48 57q-71 0 -100 -142l-10 -44q22 -12 52 -12q39 0 65.5 30.5t36.5 77.5zM335 428q65 0 104.5 -43.5t39.5 -115.5q0 -27 -6 -57q-20 -95 -86.5 -156t-160.5 -61q-21 0 -42.5 3.5t-31.5 7.5l-11 4l-29 -134l-159 -33q-1 0 41 198t116 546l159 34 l-58 -275q41 82 124 82z"/>
</font>
</defs>
</svg>
